<svg width="211" height="214" viewBox="0 0 211 214" fill="none" xmlns="http://www.w3.org/2000/svg">
<path d="M113.627 205.233L125.463 198.397C125.539 198.371 125.606 198.322 125.653 198.256C125.7 198.19 125.726 198.111 125.726 198.03C125.726 197.95 125.7 197.871 125.653 197.805C125.606 197.739 125.539 197.69 125.463 197.664L122.564 195.991C122.367 195.89 122.149 195.838 121.928 195.838C121.707 195.838 121.489 195.89 121.292 195.991L109.456 202.827C109.379 202.853 109.313 202.902 109.266 202.968C109.218 203.034 109.193 203.112 109.193 203.193C109.193 203.274 109.218 203.353 109.266 203.419C109.313 203.484 109.379 203.534 109.456 203.559L110.905 204.394L96.0429 212.974C95.6919 213.178 95.8394 213.244 96.0022 213.341C96.165 213.437 96.287 213.519 96.638 213.341L111.496 204.765L112.35 205.274C112.551 205.369 112.771 205.415 112.993 205.407C113.215 205.4 113.432 205.341 113.627 205.233Z" fill="#E0E0E0"/>
<path d="M109.156 192.115C108.232 192.134 107.319 191.913 106.506 191.474L106.267 191.321L105.829 191.011L109.558 190.467L109.893 189.765L108.876 189.175L105.315 189.684L105.432 189.348C105.646 188.84 106.034 188.425 106.526 188.178C107.327 187.753 108.224 187.539 109.13 187.557C109.531 187.556 109.932 187.593 110.326 187.669L122.472 180.66C122.325 180.355 122.289 180.008 122.37 179.679C122.46 179.396 122.607 179.135 122.801 178.911C122.995 178.687 123.233 178.505 123.5 178.376C124.303 177.953 125.201 177.74 126.109 177.756C127.033 177.736 127.947 177.959 128.759 178.402C128.841 178.449 128.921 178.5 128.998 178.554L129.435 178.86L125.707 179.404L125.371 180.111L126.389 180.701L129.949 180.192L129.832 180.523C129.619 181.032 129.231 181.449 128.739 181.698C127.937 182.121 127.041 182.334 126.134 182.318C125.733 182.318 125.333 182.279 124.939 182.201L112.793 189.216C112.939 189.519 112.975 189.865 112.894 190.192C112.805 190.475 112.659 190.736 112.464 190.96C112.27 191.184 112.032 191.366 111.765 191.494C110.962 191.92 110.064 192.134 109.156 192.115Z" fill="#E0E0E0"/>
<path d="M108.189 180.136L88.1029 168.539C87.3755 168.122 87.3755 167.435 88.1029 167.013L120.585 148.265C120.995 148.057 121.448 147.948 121.907 147.948C122.367 147.948 122.82 148.057 123.23 148.265L143.316 159.857C144.044 160.279 144.044 160.966 143.316 161.383L110.834 180.136C110.424 180.345 109.971 180.453 109.512 180.453C109.052 180.453 108.599 180.345 108.189 180.136Z" fill="#E0E0E0"/>
<path d="M109.512 178.203V161.505L88.8505 149.572L90.9156 167.466L109.512 178.203Z" fill="#263238"/>
<path d="M109.512 178.203L140.503 160.309L142.568 142.415L109.512 161.505V178.203Z" fill="#37474F"/>
<path d="M87.5607 145.996C87.5758 145.832 87.6342 145.675 87.7298 145.541C87.8254 145.407 87.9548 145.301 88.1049 145.233L120.587 126.479C120.997 126.271 121.45 126.163 121.909 126.163C122.369 126.163 122.822 126.271 123.232 126.479L143.318 138.076C143.469 138.144 143.598 138.25 143.694 138.384C143.79 138.518 143.848 138.675 143.862 138.839V143.611C143.849 143.776 143.791 143.934 143.695 144.069C143.6 144.204 143.469 144.311 143.318 144.379L110.836 163.127C110.426 163.335 109.973 163.444 109.514 163.444C109.054 163.444 108.601 163.335 108.191 163.127L88.1049 151.53C87.9551 151.462 87.826 151.356 87.7304 151.222C87.6349 151.088 87.5763 150.931 87.5607 150.767V145.996Z" fill="#E67503"/>
<path opacity="0.2" d="M88.1028 145.233L109.512 132.873V163.448C109.051 163.456 108.595 163.346 108.189 163.127L88.1028 151.53C87.953 151.462 87.8238 151.356 87.7283 151.222C87.6327 151.088 87.5742 150.931 87.5585 150.767V145.991C87.5745 145.828 87.6333 145.672 87.7288 145.539C87.8244 145.406 87.9534 145.3 88.1028 145.233Z" fill="black"/>
<path opacity="0.1" d="M109.512 132.873L120.585 126.479C120.995 126.271 121.448 126.163 121.907 126.163C122.367 126.163 122.82 126.271 123.23 126.479L143.316 138.076C143.467 138.144 143.596 138.25 143.692 138.384C143.788 138.518 143.846 138.675 143.86 138.839V143.611C143.847 143.776 143.789 143.934 143.693 144.069C143.598 144.204 143.467 144.311 143.316 144.379L110.834 163.127C110.428 163.346 109.973 163.456 109.512 163.448V132.873Z" fill="black"/>
<path d="M108.189 158.356L88.1029 146.759C87.3755 146.337 87.3755 145.655 88.1029 145.233L120.585 126.479C120.995 126.271 121.448 126.163 121.907 126.163C122.367 126.163 122.82 126.271 123.23 126.479L143.316 138.076C144.044 138.499 144.044 139.18 143.316 139.602L110.834 158.356C110.424 158.564 109.971 158.673 109.512 158.673C109.052 158.673 108.599 158.564 108.189 158.356Z" fill="#E67503"/>
<path opacity="0.2" d="M137.406 139.435C137.975 139.765 137.945 140.315 137.335 140.666L114.746 153.712C114.417 153.886 114.053 153.979 113.682 153.986C113.311 153.992 112.943 153.91 112.609 153.748C112.04 153.422 112.07 152.868 112.681 152.517L135.269 139.475C135.597 139.301 135.962 139.206 136.333 139.199C136.704 139.192 137.072 139.273 137.406 139.435Z" fill="black"/>
<path opacity="0.2" d="M114.746 153.712C114.417 153.886 114.053 153.979 113.682 153.986C113.311 153.992 112.943 153.91 112.609 153.748L112.497 153.672C112.555 153.624 112.616 153.581 112.681 153.544L135.269 140.503C135.597 140.328 135.962 140.234 136.333 140.227C136.704 140.22 137.072 140.3 137.406 140.462L137.518 140.543C137.46 140.589 137.399 140.63 137.335 140.666L114.746 153.712Z" fill="black"/>
<path opacity="0.2" d="M120.875 129.892C121.449 130.218 121.419 130.772 120.809 131.123L98.2146 144.165C97.8877 144.339 97.5243 144.434 97.1539 144.441C96.7835 144.448 96.4167 144.367 96.0834 144.206C95.5137 143.875 95.5442 143.326 96.1495 142.975L118.743 129.928C119.071 129.755 119.434 129.661 119.805 129.655C120.175 129.648 120.542 129.73 120.875 129.892Z" fill="black"/>
<path opacity="0.2" d="M98.2147 144.165C97.8878 144.339 97.5243 144.434 97.154 144.441C96.7836 144.448 96.4168 144.367 96.0835 144.206C96.0433 144.183 96.0058 144.155 95.9716 144.124C96.028 144.08 96.0875 144.039 96.1496 144.002L118.744 130.961C119.07 130.785 119.434 130.69 119.804 130.683C120.175 130.676 120.542 130.757 120.875 130.92C120.914 130.943 120.951 130.968 120.987 130.996C120.931 131.044 120.872 131.086 120.809 131.123L98.2147 144.165Z" fill="black"/>
<path opacity="0.2" d="M100.208 145.426C99.6388 145.757 99.6693 146.306 100.28 146.657L108.418 151.347C108.745 151.521 109.108 151.616 109.479 151.623C109.849 151.63 110.216 151.549 110.549 151.388C111.119 151.057 111.088 150.508 110.483 150.157L102.345 145.467C102.017 145.293 101.653 145.198 101.281 145.191C100.91 145.184 100.543 145.265 100.208 145.426Z" fill="black"/>
<path opacity="0.2" d="M108.413 151.322C108.74 151.496 109.103 151.59 109.474 151.597C109.844 151.605 110.211 151.524 110.544 151.362C110.583 151.339 110.62 151.314 110.656 151.286C110.601 151.238 110.541 151.196 110.478 151.159L102.34 146.469C102.012 146.295 101.648 146.2 101.276 146.193C100.905 146.186 100.538 146.267 100.203 146.428C100.166 146.453 100.13 146.48 100.097 146.51C100.151 146.557 100.211 146.598 100.275 146.632L108.413 151.322Z" fill="black"/>
<path opacity="0.2" d="M96.0834 147.787C95.5137 148.112 95.5442 148.666 96.1495 149.017L104.288 153.707C104.616 153.881 104.98 153.976 105.351 153.983C105.722 153.99 106.09 153.91 106.424 153.748C106.994 153.417 106.963 152.863 106.353 152.512L98.2146 147.822C97.8873 147.649 97.5237 147.555 97.1533 147.549C96.7829 147.543 96.4163 147.624 96.0834 147.787Z" fill="black"/>
<path opacity="0.2" d="M104.283 153.707C104.611 153.881 104.975 153.976 105.346 153.983C105.717 153.99 106.085 153.91 106.419 153.748C106.46 153.722 106.49 153.692 106.526 153.666C106.471 153.619 106.411 153.576 106.348 153.539L98.2097 148.85C97.8824 148.676 97.5187 148.582 97.1483 148.576C96.778 148.57 96.4114 148.652 96.0785 148.814C96.0385 148.835 96.0009 148.861 95.9666 148.89C96.022 148.938 96.0816 148.98 96.1446 149.017L104.283 153.707Z" fill="black"/>
<path opacity="0.2" d="M125.005 131.088C124.435 131.418 124.461 131.968 125.071 132.319L133.209 137.008C133.536 137.183 133.9 137.277 134.27 137.284C134.64 137.291 135.007 137.211 135.341 137.049C135.915 136.718 135.885 136.169 135.274 135.818L127.136 131.128C126.809 130.954 126.446 130.86 126.075 130.853C125.705 130.845 125.338 130.926 125.005 131.088Z" fill="black"/>
<path opacity="0.2" d="M133.204 137.008C133.532 137.183 133.896 137.277 134.268 137.284C134.639 137.291 135.006 137.211 135.341 137.049C135.378 137.025 135.414 136.998 135.447 136.968C135.392 136.922 135.332 136.881 135.269 136.846L127.131 132.156C126.804 131.982 126.441 131.887 126.07 131.88C125.7 131.873 125.333 131.954 125 132.115C124.961 132.138 124.924 132.164 124.888 132.192C124.943 132.239 125.003 132.282 125.066 132.319L133.204 137.008Z" fill="black"/>
<path opacity="0.2" d="M120.875 133.468C120.305 133.799 120.336 134.353 120.941 134.704L129.079 139.394C129.407 139.567 129.772 139.66 130.142 139.667C130.513 139.674 130.881 139.595 131.215 139.435C131.785 139.104 131.755 138.55 131.144 138.199L123.006 133.509C122.678 133.337 122.315 133.244 121.945 133.237C121.575 133.23 121.209 133.309 120.875 133.468Z" fill="black"/>
<path opacity="0.2" d="M129.074 139.394C129.402 139.567 129.767 139.66 130.137 139.667C130.508 139.674 130.876 139.595 131.21 139.435L131.322 139.353C131.265 139.306 131.204 139.263 131.139 139.226L123.001 134.536C122.673 134.364 122.308 134.27 121.938 134.263C121.567 134.256 121.199 134.335 120.865 134.496L120.753 134.577C120.809 134.623 120.869 134.666 120.931 134.704L129.074 139.394Z" fill="black"/>
<path d="M107.446 141.383V145.996L109.512 147.191L111.577 145.996V142.497C111.598 142.115 111.708 141.743 111.899 141.412C112.09 141.081 112.356 140.799 112.675 140.589L117.762 137.644L118.728 137.09C119.333 136.739 119.827 137.024 119.827 137.726V141.225L121.892 140.03V135.416C121.897 135.325 121.897 135.233 121.892 135.142C121.888 135.071 121.877 135.002 121.861 134.933C121.847 134.854 121.827 134.775 121.8 134.699C121.78 134.639 121.756 134.579 121.729 134.521C121.701 134.463 121.669 134.407 121.633 134.353C121.599 134.301 121.562 134.252 121.521 134.206C121.482 134.161 121.44 134.12 121.393 134.084C121.349 134.049 121.301 134.018 121.251 133.992L121.185 133.957L119.196 132.807C118.948 132.691 118.673 132.643 118.4 132.67C118.126 132.697 117.866 132.797 117.645 132.96L109.654 137.573C109.012 137.989 108.477 138.551 108.094 139.213C107.71 139.875 107.488 140.619 107.446 141.383Z" fill="#455A64"/>
<path d="M117.772 137.644V140.025L119.837 141.22V137.72C119.837 137.019 119.328 136.734 118.738 137.085L117.772 137.644Z" fill="#263238"/>
<path d="M109.512 142.573V147.191L111.577 145.996V142.497C111.598 142.115 111.708 141.743 111.899 141.412C112.09 141.081 112.356 140.799 112.675 140.589L117.762 137.649L118.728 137.095C119.334 136.744 119.827 137.029 119.827 137.731V141.23L121.892 140.04V135.421C121.897 135.33 121.897 135.238 121.892 135.147C121.888 135.076 121.877 135.007 121.862 134.938C121.847 134.859 121.827 134.781 121.801 134.704C121.78 134.644 121.756 134.584 121.729 134.526C121.701 134.468 121.669 134.412 121.633 134.358C121.6 134.306 121.562 134.257 121.521 134.211C121.482 134.166 121.44 134.125 121.394 134.089C121.349 134.054 121.302 134.023 121.251 133.997L121.185 133.962C120.942 133.871 120.681 133.841 120.424 133.875C120.166 133.908 119.921 134.005 119.71 134.155L111.719 138.768C111.079 139.185 110.546 139.747 110.162 140.408C109.779 141.068 109.556 141.81 109.512 142.573Z" fill="#37474F"/>
<path d="M119.842 162.695L119.079 162.257L117.009 163.448L117.777 163.89L119.842 162.695Z" fill="#455A64"/>
<path d="M117.777 163.89L117.014 173.875L117.009 163.448L117.777 163.89Z" fill="#263238"/>
<path d="M119.842 162.695L119.079 172.68L119.328 172.563L119.842 162.695Z" fill="#37474F"/>
<path d="M102.548 164.643L103.311 164.2L105.376 165.391L104.613 165.833L102.548 164.643Z" fill="#455A64"/>
<path d="M102.548 164.643L103.311 174.623L103.062 174.506L102.548 164.643Z" fill="black"/>
<path d="M94.2828 159.867L95.0508 159.429L97.1159 160.62L96.3479 161.062L94.2828 159.867Z" fill="#455A64"/>
<path d="M105.376 175.818L104.613 165.833L105.376 165.391V175.818Z" fill="#37474F"/>
<path d="M97.116 160.62V171.047L96.348 161.062L97.116 160.62Z" fill="#37474F"/>
<path d="M94.2828 159.867L95.0457 169.851L94.7965 169.735L94.2828 159.867Z" fill="black"/>
<path d="M134.303 154.348L133.54 153.906L131.475 155.096L132.238 155.538L134.303 154.348Z" fill="#455A64"/>
<path d="M132.238 155.538L131.475 165.523V155.096L132.238 155.538Z" fill="#263238"/>
<path d="M134.303 154.348L133.54 164.333L133.794 164.211L134.303 154.348Z" fill="#37474F"/>
<path d="M115.9 161.001L115.905 158.616L120.035 156.23L120.727 156.627L120.722 159.012L116.587 161.398L115.9 161.001Z" fill="#37474F"/>
<path d="M120.727 156.627L120.722 159.012L116.587 161.398L116.597 159.012L120.727 156.627Z" fill="#455A64"/>
<path d="M116.597 159.012L115.905 158.616L115.9 161.001L116.587 161.398L116.597 159.012Z" fill="#263238"/>
<path d="M130.473 152.593L130.483 150.208L134.613 147.822L135.305 148.219L135.295 150.604L131.165 152.99L130.473 152.593Z" fill="#37474F"/>
<path d="M135.305 148.219L135.295 150.604L131.165 152.99L131.17 150.604L135.305 148.219Z" fill="#455A64"/>
<path d="M131.17 150.604L130.483 150.208L130.473 152.593L131.165 152.99L131.17 150.604Z" fill="#263238"/>
<path d="M106.704 188.03C106.424 188.188 105.9 188.183 105.732 188.371V189.058L108.927 188.595L110.132 189.302L109.674 190.263L106.45 190.045V190.731C106.518 190.783 106.589 190.83 106.663 190.874C107.426 191.26 108.27 191.461 109.125 191.461C109.98 191.461 110.824 191.26 111.587 190.874C111.868 190.747 112.111 190.548 112.29 190.297C112.468 190.046 112.577 189.752 112.604 189.445V188.758L112.416 188.788C112.414 188.777 112.414 188.765 112.416 188.753L124.501 181.774C125.73 182.047 127.015 181.885 128.138 181.316C128.573 181.104 128.917 180.743 129.11 180.299V179.607L125.915 180.762L124.71 180.055L125.168 179.094L128.393 178.626V177.934C128.393 177.934 124.624 177.685 123.25 178.443C122.902 178.625 122.609 178.897 122.401 179.231L122.218 179.165V179.846C122.216 180.101 122.288 180.35 122.426 180.564L110.341 187.542C109.109 187.279 107.823 187.452 106.704 188.03Z" fill="#37474F"/>
<path d="M124.502 181.794V181.108L112.416 188.086V188.773L124.502 181.794Z" fill="#37474F"/>
<path d="M122.426 179.907L110.341 186.886C109.113 186.614 107.828 186.774 106.704 187.339C106.27 187.552 105.925 187.912 105.733 188.356L108.927 187.893L110.133 188.6L109.675 189.556L106.45 190.029C106.518 190.081 106.59 190.129 106.664 190.172C107.427 190.558 108.27 190.759 109.125 190.759C109.981 190.759 110.824 190.558 111.587 190.172C112.605 189.602 112.869 188.768 112.416 188.051L124.502 181.072C125.731 181.342 127.015 181.181 128.138 180.614C128.573 180.402 128.917 180.041 129.11 179.597L125.916 180.065L124.71 179.358L125.168 178.397L128.393 177.924L128.179 177.786C127.416 177.4 126.573 177.199 125.717 177.199C124.862 177.199 124.019 177.4 123.256 177.786C122.274 178.356 121.974 179.19 122.426 179.907Z" fill="#455A64"/>
<path d="M124.964 179.526L124.71 179.378L125.168 178.417L128.393 177.944V178.636L125.168 179.104L124.964 179.526Z" fill="#263238"/>
<path d="M109.878 189.149L110.132 188.615L108.927 187.903L105.732 188.371V189.063L108.927 188.595L109.878 189.149Z" fill="#263238"/>
<path d="M114.1 198.183L116.643 202.557L125.168 197.639C125.365 197.517 125.524 197.341 125.624 197.132C125.725 196.923 125.765 196.689 125.738 196.459C125.704 195.838 125.525 195.234 125.213 194.695C124.902 194.157 124.468 193.7 123.947 193.361C123.767 193.23 123.555 193.149 123.333 193.128C123.111 193.106 122.888 193.145 122.686 193.239L114.1 198.183Z" fill="#E67503"/>
<path d="M113.591 199.088C113.555 199.755 112.615 199.897 112.615 199.897L114.4 202.995C114.4 202.995 114.995 202.262 115.59 202.552C116.47 202.934 117.157 202.461 117.157 201.408C117.123 200.788 116.943 200.185 116.631 199.647C116.32 199.11 115.887 198.654 115.366 198.315C114.451 197.781 113.698 198.137 113.591 199.088Z" fill="#E67503"/>
<path opacity="0.05" d="M113.591 199.088C113.555 199.755 112.615 199.897 112.615 199.897L114.4 202.995C114.4 202.995 114.995 202.262 115.59 202.552C116.47 202.934 117.157 202.461 117.157 201.408C117.123 200.788 116.943 200.185 116.631 199.647C116.32 199.11 115.887 198.654 115.366 198.315C114.451 197.781 113.698 198.137 113.591 199.088Z" fill="black"/>
<path opacity="0.05" d="M113.037 199.765C112.9 199.826 112.757 199.871 112.609 199.897L114.395 202.995C114.493 202.883 114.604 202.782 114.725 202.695C114.674 202.113 114.497 201.549 114.205 201.043C113.913 200.537 113.515 200.101 113.037 199.765Z" fill="black"/>
<path d="M110.748 200.116L110.895 200.375C110.845 200.556 110.819 200.742 110.819 200.93C110.853 201.55 111.033 202.154 111.344 202.692C111.655 203.231 112.089 203.688 112.61 204.027C112.767 204.122 112.939 204.193 113.118 204.236L113.266 204.495L113.861 204.154C114.041 204.024 114.183 203.847 114.272 203.643C114.361 203.44 114.395 203.216 114.369 202.995C114.336 202.374 114.157 201.771 113.847 201.232C113.537 200.694 113.104 200.237 112.584 199.897C112.403 199.766 112.19 199.685 111.967 199.664C111.745 199.642 111.52 199.681 111.318 199.775L110.748 200.116Z" fill="#E67503"/>
<path d="M113.8 203.341C113.766 202.72 113.588 202.117 113.277 201.578C112.967 201.04 112.534 200.583 112.014 200.243C111.028 199.673 110.224 200.136 110.224 201.26C110.259 201.881 110.439 202.484 110.75 203.022C111.061 203.56 111.494 204.018 112.014 204.358C113.001 204.938 113.8 204.48 113.8 203.341Z" fill="#E67503"/>
<path opacity="0.15" d="M113.8 203.341C113.766 202.72 113.588 202.117 113.277 201.578C112.967 201.04 112.534 200.583 112.014 200.243C111.028 199.673 110.224 200.136 110.224 201.26C110.259 201.881 110.439 202.484 110.75 203.022C111.061 203.56 111.494 204.018 112.014 204.358C113.001 204.938 113.8 204.48 113.8 203.341Z" fill="black"/>
<path opacity="0.15" d="M111.318 203.804C111.45 203.952 111.598 204.085 111.76 204.2L112.177 203.01L111.668 202.639L111.318 203.804Z" fill="black"/>
<path opacity="0.2" d="M124.262 195.233C124.323 195.347 124.338 195.48 124.304 195.605C124.27 195.729 124.189 195.837 124.079 195.904L117.976 199.419C117.862 199.481 117.728 199.498 117.602 199.465C117.476 199.432 117.368 199.352 117.299 199.241C117.239 199.127 117.224 198.994 117.258 198.869C117.292 198.744 117.372 198.637 117.482 198.57L123.586 195.055C123.7 194.992 123.834 194.976 123.96 195.009C124.086 195.042 124.194 195.122 124.262 195.233Z" fill="black"/>
<path opacity="0.2" d="M123.164 193.926C123.211 193.949 123.251 193.986 123.278 194.031C123.306 194.076 123.32 194.127 123.32 194.18C123.32 194.233 123.306 194.284 123.278 194.329C123.251 194.374 123.211 194.411 123.164 194.434L116.958 197.995C116.843 198.05 116.715 198.072 116.588 198.058C116.461 198.043 116.341 197.993 116.241 197.913C116.194 197.89 116.155 197.853 116.127 197.808C116.099 197.764 116.085 197.712 116.085 197.659C116.085 197.606 116.099 197.555 116.127 197.51C116.155 197.465 116.194 197.429 116.241 197.405L122.442 193.844C122.557 193.788 122.687 193.765 122.815 193.78C122.943 193.794 123.064 193.845 123.164 193.926Z" fill="black"/>
<path opacity="0.2" d="M124.847 196.84C124.846 196.789 124.83 196.739 124.803 196.695C124.776 196.652 124.737 196.616 124.692 196.592C124.646 196.569 124.595 196.557 124.544 196.56C124.493 196.562 124.443 196.578 124.4 196.606L118.194 200.167C118.089 200.239 118.006 200.339 117.955 200.456C117.903 200.573 117.886 200.702 117.904 200.828C117.906 200.879 117.921 200.929 117.949 200.973C117.976 201.016 118.014 201.052 118.06 201.076C118.105 201.099 118.156 201.111 118.208 201.108C118.259 201.106 118.309 201.09 118.352 201.062L124.557 197.501C124.662 197.429 124.745 197.329 124.796 197.212C124.848 197.095 124.865 196.966 124.847 196.84Z" fill="black"/>
<path d="M96.3328 210.558V211.749L99.3135 210.782C99.6077 210.226 100.013 209.736 100.504 209.343L111.826 202.807L112.172 201.815L111.826 201.616L100.504 208.152C100.317 208.247 100.109 208.291 99.8997 208.279C99.6908 208.267 99.4885 208.201 99.3135 208.086L96.3328 210.558Z" fill="#455A64"/>
<path d="M96.6838 210.762V211.952L99.6645 210.986C99.9574 210.429 100.363 209.938 100.855 209.546L112.177 203.01V201.815L100.855 208.351C100.669 208.447 100.46 208.491 100.251 208.481C100.042 208.47 99.8398 208.404 99.6645 208.29L96.6838 210.762Z" fill="#37474F"/>
<path d="M96.6838 211.952L96.3379 211.749V210.558L96.6838 210.762V211.952Z" fill="#263238"/>
<path d="M96.3379 210.558L96.6838 210.762L99.6644 208.29L99.3185 208.086L96.3379 210.558Z" fill="#455A64"/>
<path d="M138.769 57.4004H112.554C112.452 57.4004 112.355 57.3602 112.284 57.2887C112.212 57.2171 112.172 57.1201 112.172 57.0189C112.172 56.9178 112.212 56.8207 112.284 56.7492C112.355 56.6776 112.452 56.6375 112.554 56.6375H138.769C138.87 56.6375 138.967 56.6776 139.039 56.7492C139.11 56.8207 139.151 56.9178 139.151 57.0189C139.151 57.1201 139.11 57.2171 139.039 57.2887C138.967 57.3602 138.87 57.4004 138.769 57.4004Z" fill="#37474F"/>
<path d="M78.5303 74.3535C76.0126 69.5468 71.9485 59.1603 71.9485 59.1603L72.035 45.2183C71.9332 45.2183 73.9169 45.8185 74.5222 45.9609C78.449 47.4106 79.5324 48.1023 81.216 51.556C82.5537 54.3078 87.0603 66.856 88.6625 71.1032L98.2505 64.2823C100.667 62.2477 101.231 59.3485 102.706 57.5428C104.181 55.7371 105.855 55.2386 107.523 53.7076C109.191 52.1766 109.822 51.0372 110.463 52.263C111.104 53.4889 109.283 55.7422 108.968 56.2864C108.749 56.673 108.194 56.9578 108.067 57.3902C107.859 58.1328 108.963 58.0158 109.436 57.8988C111.775 57.3902 113.901 55.4166 115.346 53.6109C115.911 52.9039 117.971 50.1573 118.495 52.3749C118.922 54.1806 117.437 55.3352 117.33 56.9985C117.278 57.9199 117.035 58.8206 116.618 59.6435C116.267 60.3963 116.429 61.2711 116.18 62.0595C115.412 64.5112 113.464 65.3505 111.201 66.1287C108.937 66.9069 106.491 67.441 104.614 68.8855C102.335 70.6454 96.8263 76.5762 93.4743 80.1418C89.217 84.6738 86.4092 85.7369 83.9169 83.0665C81.4245 80.3961 79.4815 76.1337 78.5303 74.3535Z" fill="#FFA8A7"/>
<path d="M118.51 52.4004C118.001 50.1827 115.926 52.909 115.361 53.6364C113.917 55.4421 111.801 57.4156 109.451 57.9242C108.978 58.026 107.874 58.143 108.083 57.4156C108.21 56.9832 108.764 56.6984 108.983 56.3118C109.298 55.7676 111.119 53.5092 110.478 52.2885C109.837 51.0677 109.212 52.1969 107.538 53.733C105.865 55.2691 104.197 55.7676 102.722 57.5682C101.246 59.3688 100.687 62.2782 98.2658 64.3077L97.6097 64.7757C98.0064 67.4562 99.6443 70.0808 102.02 71.2863C103.067 70.269 103.983 69.4196 104.629 68.916C106.506 67.4715 109.013 66.8815 111.216 66.1592C113.418 65.4369 115.427 64.5519 116.196 62.09C116.445 61.3016 116.282 60.4268 116.633 59.674C117.051 58.8511 117.293 57.9505 117.345 57.029C117.452 55.3607 118.937 54.206 118.51 52.4004Z" fill="#455A64"/>
<path d="M98.7591 63.8398C98.7134 64.7248 99.2067 67.0849 100.331 68.3413C101.096 69.1509 102.018 69.7949 103.042 70.2334L103.449 69.9181C103.449 69.9181 103.835 69.9588 102.798 71.0015C101.76 72.0442 101.516 72.4308 100.936 72.3443C100.356 72.2579 98.7184 71.327 97.6096 69.6027C96.8029 68.3891 96.3245 66.9871 96.221 65.5336C96.2515 65.0249 96.9636 64.6587 97.6096 64.1907C98.2556 63.7228 98.927 62.9446 99.2881 63.2548L98.7591 63.8398Z" fill="#E67503"/>
<path opacity="0.2" d="M98.7591 63.8398C98.7134 64.7248 99.2067 67.0849 100.331 68.3413C101.096 69.1509 102.018 69.7949 103.042 70.2334L103.449 69.9181C103.449 69.9181 103.835 69.9588 102.798 71.0015C101.76 72.0442 101.516 72.4308 100.936 72.3443C100.356 72.2579 98.7184 71.327 97.6096 69.6027C96.8029 68.3891 96.3245 66.9871 96.221 65.5336C96.2515 65.0249 96.9636 64.6587 97.6096 64.1907C98.2556 63.7228 98.927 62.9446 99.2881 63.2548L98.7591 63.8398Z" fill="black"/>
<path d="M73.271 45.4481C75.8396 46.0432 77.8488 47.0147 79.0695 48.0524C80.9515 49.68 81.8111 52.2182 83.0929 55.682C84.3747 59.1459 87.6707 67.5843 87.6707 67.5843C83.8555 68.7986 80.6053 71.3464 78.5151 74.7613L69.7867 56.5976L73.271 45.4481Z" fill="#E0E0E0"/>
<path d="M88.7032 71.1133C87.0102 71.9665 85.6383 73.3438 84.7917 75.0401C84.7917 75.0401 84.7917 72.2375 88.3523 70.1418L88.7032 71.1133Z" fill="#F28F8F"/>
<path d="M43.7492 46.9122C43.7492 46.9122 40.7635 49.5368 40.0005 52.375C39.6292 53.7687 39.2833 54.9182 40.4634 62.67C41.5875 70.0606 42.3861 70.0606 42.9608 75.6964L42.1368 89.8011C46.5569 94.9791 67.1977 97.6138 77.5232 90.6403C77.5232 90.6403 77.9708 69.2264 77.2434 60.4065C76.7348 54.4096 74.217 48.2601 73.2709 45.4473C70.4632 44.9387 67.7623 44.6335 67.7623 44.6335L57.4368 44.0333L43.7492 46.9122Z" fill="#FAFAFA"/>
<path d="M72.6252 25.7729C73.9781 22.66 72.6506 18.5298 71.028 16.5919C68.6832 13.7893 65.0362 12.5787 59.5327 12.9195C55.3516 13.1789 51.2367 14.9185 50.4534 19.2114C47.0963 20.2287 47.4778 25.7322 48.312 28.1686C50.0108 33.1127 53.3475 37.4107 53.3984 39.9387L72.6252 25.7729Z" fill="#37474F"/>
<path d="M72.6199 37.3954C71.9586 39.7809 70.5853 41.5307 68.3727 41.8766C67.2138 41.9858 66.0473 41.9858 64.8885 41.8766L64.9749 44.9284C69.5527 50.7219 58.8407 51.8969 53.5508 45.549L53.2354 35.2896C53.2354 35.2896 51.8875 36.8155 49.6749 35.371C48.7749 34.707 48.1316 33.7529 47.8536 32.6696C47.5756 31.5863 47.68 30.4402 48.149 29.425C49.2527 27.1005 51.4603 28.0618 52.1418 28.7688C52.8234 29.4758 53.6118 30.8034 54.1764 30.6203C54.5026 30.5188 54.7984 30.3379 55.0372 30.0937C55.2761 29.8495 55.4504 29.5498 55.5447 29.2215C56.0582 27.7743 56.3013 26.245 56.2619 24.7098C56.9154 24.3759 57.5017 23.9241 57.9912 23.3772C58.8847 22.4375 59.4241 21.2167 59.5172 19.9235C64.2832 18.4332 69.7664 19.1351 71.7246 20.6712C72.864 22.6803 72.9098 27.3497 73.098 30.0404C73.3065 32.9651 73.1743 35.4015 72.6199 37.3954Z" fill="#FFA8A7"/>
<path d="M64.8885 41.8918C62.447 41.7545 57.5386 40.6151 56.2415 39.257C54.9445 37.899 54.3799 35.1065 54.3799 35.1065C54.3799 35.1065 54.5732 38.6263 55.5854 40.1929C56.5976 41.7596 59.1459 42.4259 60.6718 42.8125C62.0747 43.104 63.4926 43.318 64.919 43.4534L64.8885 41.8918Z" fill="#F28F8F"/>
<path d="M63.3422 28.4839C63.3424 28.7477 63.2401 29.0012 63.0569 29.191C62.8738 29.3808 62.6241 29.492 62.3605 29.5012C62.1579 29.5083 61.9579 29.4548 61.786 29.3474C61.6141 29.24 61.4781 29.0837 61.3957 28.8986C61.3132 28.7134 61.2879 28.5078 61.323 28.3082C61.3582 28.1086 61.4521 27.924 61.5929 27.7782C61.7336 27.6323 61.9147 27.5318 62.113 27.4896C62.3112 27.4474 62.5176 27.4653 62.7055 27.5412C62.8935 27.617 63.0545 27.7473 63.168 27.9152C63.2814 28.0832 63.3421 28.2813 63.3422 28.4839Z" fill="#263238"/>
<path d="M61.9638 25.3304L59.9648 26.6783C59.789 26.403 59.7263 26.0705 59.7898 25.7502C59.8533 25.4298 60.0381 25.1464 60.3056 24.959C60.4378 24.8709 60.5864 24.8106 60.7425 24.7815C60.8987 24.7525 61.0591 24.7554 61.2141 24.7901C61.3691 24.8248 61.5154 24.8906 61.6443 24.9834C61.7731 25.0763 61.8818 25.1943 61.9638 25.3304Z" fill="#263238"/>
<path d="M71.6638 25.9611L69.4715 24.9133C69.5325 24.7672 69.6226 24.635 69.7364 24.5249C69.8502 24.4147 69.9852 24.329 70.1333 24.2728C70.2813 24.2166 70.4393 24.1912 70.5975 24.1981C70.7557 24.2051 70.9108 24.2442 71.0534 24.3131C71.3459 24.4583 71.572 24.7098 71.6855 25.016C71.7989 25.3223 71.7911 25.6604 71.6638 25.9611Z" fill="#263238"/>
<path d="M70.9007 28.133C70.8947 28.3268 70.8318 28.5145 70.7197 28.6727C70.6077 28.8309 70.4516 28.9526 70.2709 29.0226C70.0901 29.0926 69.8927 29.1079 69.7034 29.0664C69.514 29.025 69.3411 28.9287 69.2061 28.7895C69.0711 28.6504 68.9801 28.4746 68.9445 28.284C68.9088 28.0935 68.93 27.8967 69.0055 27.7182C69.081 27.5396 69.2074 27.3873 69.369 27.2801C69.5305 27.173 69.7201 27.1158 69.9139 27.1157C70.1784 27.1237 70.4294 27.2343 70.6136 27.4243C70.7978 27.6142 70.9008 27.8684 70.9007 28.133Z" fill="#263238"/>
<path d="M65.6108 26.363L66.3229 33.4535L70.1326 32.3039L65.6108 26.363Z" fill="#F28F8F"/>
<path d="M63.3372 35.1065L67.4064 36.0119C67.3618 36.2854 67.2618 36.547 67.1125 36.7805C66.9632 37.0139 66.7678 37.2145 66.5382 37.3697C66.3086 37.525 66.0498 37.6317 65.7775 37.6834C65.5052 37.735 65.2252 37.7305 64.9547 37.6701C64.4075 37.5322 63.9343 37.1891 63.6332 36.7118C63.3321 36.2346 63.2261 35.6598 63.3372 35.1065Z" fill="#B16668"/>
<path d="M64.9699 37.6701C65.054 37.685 65.1389 37.6951 65.2242 37.7006C65.2135 37.205 65.0088 36.7333 64.654 36.3871C64.2992 36.0408 63.8227 35.8477 63.327 35.8491C63.3841 36.2833 63.5718 36.69 63.8652 37.0151C64.1586 37.3403 64.5438 37.5687 64.9699 37.6701Z" fill="#F28F8F"/>
<path d="M47.5029 25.3304C47.629 26.5732 47.9339 27.7912 48.4083 28.9468C48.6779 28.6061 48.9881 28.2703 49.3035 27.9296C51.1444 26.1244 53.29 24.659 55.6412 23.601C61.0786 21.0578 67.7368 20.2033 73.0674 21.6834C72.8719 20.6271 72.5384 19.601 72.0755 18.6315C70.7988 15.8541 68.578 13.6198 65.8083 12.3264C63.0386 11.0329 59.8998 10.7643 56.9506 11.5683C54.0014 12.3723 51.4331 14.1967 49.7031 16.7169C47.973 19.237 47.1934 22.2893 47.5029 25.3304Z" fill="#E67503"/>
<path d="M53.098 12.4821C53.744 12.1667 56.9942 11.1952 57.2587 11.1139C58.9423 10.6052 61.6534 10.6357 64.4357 12.9246C66.6083 14.738 68.1358 17.2058 68.7896 19.9592L65.3309 21.0426L64.2271 21.1494C63.8202 18.6062 60.4682 13.1281 55.7582 12.9246C55.538 12.9094 55.3171 12.9094 55.0969 12.9246C54.4731 12.9559 53.8575 13.081 53.2709 13.2959C52.6308 13.7436 52.0208 14.233 51.4449 14.7608C51.5028 14.2714 51.6851 13.805 51.9745 13.4061C52.2639 13.0071 52.6507 12.689 53.098 12.4821Z" fill="#E67503"/>
<path opacity="0.45" d="M53.098 12.4821C53.744 12.1667 56.9942 11.1952 57.2587 11.1139C58.9423 10.6052 61.6534 10.6357 64.4357 12.9246C66.6083 14.738 68.1358 17.2058 68.7896 19.9592L65.3309 21.0426L64.2271 21.1494C63.8202 18.6062 60.4682 13.1281 55.7582 12.9246C55.538 12.9094 55.3171 12.9094 55.0969 12.9246C54.4731 12.9559 53.8575 13.081 53.2709 13.2959C52.6308 13.7436 52.0208 14.233 51.4449 14.7608C51.5028 14.2714 51.6851 13.805 51.9745 13.4061C52.2639 13.0071 52.6507 12.689 53.098 12.4821Z" fill="white"/>
<path d="M64.2374 21.1545C63.7287 18.1942 59.2425 11.1901 53.2812 13.301C52.6394 13.7486 52.0277 14.238 51.4501 14.7659C51.508 14.2766 51.6898 13.8101 51.9781 13.4105C52.2665 13.0109 52.6519 12.6913 53.0981 12.4821C54.6494 11.7344 57.7623 11.3682 60.9821 14.008C63.1528 15.8201 64.6785 18.2862 65.331 21.0375L64.2374 21.1545Z" fill="#E67503"/>
<path opacity="0.3" d="M64.2374 21.1545C63.7287 18.1942 59.2425 11.1901 53.2812 13.301C52.6394 13.7486 52.0277 14.238 51.4501 14.7659C51.508 14.2766 51.6898 13.8101 51.9781 13.4105C52.2665 13.0109 52.6519 12.6913 53.0981 12.4821C54.6494 11.7344 57.7623 11.3682 60.9821 14.008C63.1528 15.8201 64.6785 18.2862 65.331 21.0375L64.2374 21.1545Z" fill="black"/>
<path d="M55.5446 22.5838C55.7938 22.365 56.9993 19.771 61.2922 17.4973C63.9423 16.0833 69.3746 16.0121 71.811 16.0528C76.0785 16.124 77.0958 17.0294 77.1518 17.6601C77.1518 17.8076 77.223 18.4994 77.2433 18.6519C77.2629 18.7942 77.2304 18.9387 77.1518 19.0589C76.5159 20.0253 73.0826 21.7038 73.0826 21.7038C67.752 20.2237 61.0939 21.0782 55.6565 23.6214L55.5446 22.5838Z" fill="#E67503"/>
<path opacity="0.15" d="M55.5446 22.5838C55.7938 22.365 56.9993 19.771 61.2922 17.4973C63.9423 16.0833 69.3746 16.0121 71.811 16.0528C76.0785 16.124 77.0958 17.0294 77.1518 17.6601C77.1518 17.8076 77.223 18.4994 77.2433 18.6519C77.2629 18.7942 77.2304 18.9387 77.1518 19.0589C76.5159 20.0253 73.0826 21.7038 73.0826 21.7038C67.752 20.2237 61.0939 21.0782 55.6565 23.6214L55.5446 22.5838Z" fill="black"/>
<path d="M55.6413 23.6011C61.0787 21.0578 67.7368 20.2033 73.0674 21.6835C73.0674 21.6835 76.516 20.0049 77.1366 19.0385C77.4825 18.5044 77.1722 17.1362 71.8976 17.0497C69.4561 17.009 64.0238 17.0802 61.3737 18.4943C57.096 20.8086 55.8905 23.3823 55.6413 23.6011Z" fill="#E67503"/>
<path opacity="0.3" d="M55.6413 23.6011C61.0787 21.0578 67.7368 20.2033 73.0674 21.6835C73.0674 21.6835 76.516 20.0049 77.1366 19.0385C77.4825 18.5044 77.1722 17.1362 71.8976 17.0497C69.4561 17.009 64.0238 17.0802 61.3737 18.4943C57.096 20.8086 55.8905 23.3823 55.6413 23.6011Z" fill="black"/>
<path d="M72.0653 179.475C72.2281 176.774 73.6777 149.567 73.6777 149.567L60.453 158.89C62.7572 174.445 63.2658 179.134 63.3624 181.728C63.3079 181.946 63.2873 182.171 63.3014 182.395C63.3726 185.477 67.0654 187.084 69.9596 189.099C72.4267 190.877 75.0404 192.442 77.7723 193.778C79.8629 194.739 84.0744 194.77 84.5729 193.493C81.0531 191.021 76.9788 188.325 74.161 185.487C72.8334 184.129 71.867 182.71 72.0653 179.475Z" fill="#FFA8A7"/>
<path d="M90.5749 196.728C90.7529 196.728 91.0581 198.585 90.1018 199.394C89.0032 200.324 85.7529 201.876 81.4142 201.403C77.0755 200.93 74.7052 199.694 72.9453 198.351C71.1854 197.008 68.7184 195.085 66.75 194.704C64.924 194.348 62.9352 193.59 62.34 193.066C61.7449 192.542 61.7856 190.157 61.7856 190.157L90.5749 196.728Z" fill="#263238"/>
<path d="M77.045 186.51C76.7601 186.245 76.4855 186.001 76.2159 185.706C75.3072 184.716 74.6036 183.556 74.1457 182.293C73.8647 181.69 73.6465 181.059 73.4946 180.411C73.3573 179.663 73.2708 178.885 73.1437 178.158C73.0979 177.878 73.1437 177.262 72.7978 177.14C72.3948 177.095 71.9874 177.171 71.6279 177.359C70.748 177.735 69.8273 178.025 68.9219 178.346C68.4133 178.524 67.3706 178.799 67.218 179.363C67.0654 179.928 67.3197 180.63 67.218 181.24C67.1722 181.479 67.0705 181.749 66.7907 181.718C66.2821 181.718 66.1549 180.986 66.0227 180.63C65.7378 179.882 65.514 179.531 64.7053 179.312C64.2831 179.195 63.4591 179.139 63.1793 178.763L63.0725 177.746C62.8413 177.792 62.6241 177.892 62.4379 178.037C62.2517 178.181 62.1015 178.367 61.9993 178.58C61.6483 179.307 61.8823 180.319 61.9993 181.093C62.1427 181.86 62.2074 182.641 62.1926 183.422C62.1313 184.09 62.0242 184.753 61.8721 185.406C61.6562 186.546 61.5489 187.704 61.5517 188.865C61.5413 189.403 61.5822 189.941 61.6738 190.472C61.7538 190.911 61.9974 191.304 62.3553 191.571C62.9007 192.051 63.5301 192.427 64.2119 192.679C65.1427 193.051 66.104 193.336 67.0501 193.666C68.9982 194.338 71.2668 195.752 73.2607 197.262C75.2546 198.773 79.6238 200.36 82.4468 200.36C86.7601 200.36 89.7713 198.936 90.5851 197.451C90.6614 196.433 90.7224 195.416 90.2596 194.694C88.7336 192.364 85.3918 191.611 82.7011 190.33C81.5302 189.738 80.3986 189.072 79.3135 188.336C78.5077 187.791 77.7489 187.181 77.045 186.51Z" fill="#37474F"/>
<path d="M84.3695 191.031C79.0846 192.527 77.2484 196.092 76.4702 198.976C78.3655 199.786 80.3887 200.254 82.4468 200.36C86.7601 200.36 89.7713 198.936 90.5851 197.451C90.6614 196.433 90.7224 195.416 90.2596 194.694C89.0642 192.812 86.6685 191.957 84.3695 191.031Z" fill="#455A64"/>
<path d="M67.0348 193.646L67.2586 193.732C67.0501 189.663 65.3715 186.967 61.694 186.423C61.5879 187.226 61.5352 188.035 61.5364 188.844C61.526 189.383 61.5669 189.921 61.6584 190.452C61.7385 190.891 61.982 191.283 62.34 191.55C62.8854 192.031 63.5148 192.407 64.1966 192.659C65.1274 193.03 66.0887 193.315 67.0348 193.646Z" fill="#455A64"/>
<path d="M50.275 157.578L36.4908 154.582C36.1296 163.112 36.3484 174.653 36.0584 182.659C36.0025 184.185 35.2242 194.358 35.6566 197.481C36.3077 202.186 42.6098 201.881 43.1286 199.114C43.6474 196.347 44.1052 184.516 44.212 183.29C44.5019 178.163 47.4317 169.556 49.4815 160.401C49.5833 159.979 50.1784 158.015 50.275 157.578Z" fill="#FFA8A7"/>
<path d="M45.3564 201.189C45.3056 203.931 44.9037 205.767 43.8763 207.405C42.8488 209.043 40.799 209.633 38.6779 209.241C36.5569 208.849 33.8051 207.715 33.0828 205.355C32.3606 202.995 32.4216 201.398 32.7827 198.844L45.3564 201.189Z" fill="#263238"/>
<path d="M36.1704 177.944C35.3107 178.036 35.1531 185.477 34.8072 189.17C34.4511 193.127 33.1948 194.806 32.8642 198.056C32.4878 201.769 32.7828 203.407 34.3494 205.584C35.916 207.761 41.211 209.76 43.622 206.469C45.5854 203.783 45.5396 200.874 45.1835 197.211C44.8122 193.412 44.797 187.318 44.8427 184.419C44.8834 181.652 45.7227 178.727 44.9546 178.448C44.7919 179.19 44.6901 179.826 44.6037 180.223C44.4155 181.098 44.2069 182.156 43.9424 181.957C43.9424 181.957 44.0187 181.179 44.0289 180.823C44.0391 180.467 44.1154 180.233 43.8763 180.004C43.6373 179.775 42.5996 179.633 42.2436 179.587C41.384 179.465 40.5244 179.368 39.6546 179.328C39.2222 179.328 38.7848 179.328 38.3524 179.328C37.9832 179.338 37.6171 179.397 37.2639 179.506C37.1648 179.536 37.0733 179.587 36.9953 179.656C36.9173 179.724 36.8546 179.808 36.8113 179.902C36.7832 180.042 36.7832 180.185 36.8113 180.324C36.8231 180.579 36.7992 180.834 36.74 181.082C36.7095 181.194 36.6332 181.332 36.5061 181.311C36.3789 181.291 36.3026 181.22 36.267 180.97C36.2067 180.464 36.1795 179.954 36.1856 179.445C36.1856 179.205 36.1856 178.875 36.1856 178.636C36.1856 178.397 36.1653 178.178 36.1704 177.944Z" fill="#37474F"/>
<path d="M32.7217 200.202C32.6759 202.501 32.8997 204.063 34.1256 205.767C35.6922 207.944 41.4043 209.933 43.7898 206.642C44.9902 205.004 45.2445 203.112 45.3157 201.189C43.7084 198.783 35.0462 198.015 32.7217 200.202Z" fill="#455A64"/>
<path d="M78.0826 66.4747C78.0826 66.4747 67.6198 68.8297 51.9332 67.7514C51.9332 78.1175 53.0268 90.0096 48.0624 89.9435L42.1367 89.8011C41.8061 105.325 39.1815 137.69 39.1815 137.69C38.9475 139.597 36.1856 147.705 36.0838 154.602C35.9262 165.421 35.6973 173.621 35.6973 173.621C35.6973 173.621 41.74 176.011 46.1804 174.353C46.1804 174.353 51.9535 151.357 53.5761 144.18C55.5039 135.63 59.4865 119.831 59.4865 119.831L59.9698 142.329C59.4048 146.862 59.3434 151.444 59.7866 155.991C60.2953 160.569 62.1518 173.239 62.1518 173.239C62.1518 173.239 67.7113 174.358 72.5333 172.929C72.5333 172.929 75.4376 145.681 75.6767 141.484C75.9361 136.907 77.3806 94.857 77.5129 90.9354C78.8354 71.1644 78.0826 66.4747 78.0826 66.4747Z" fill="#455A64"/>
<path d="M51.9332 67.7513C51.2008 58.3618 51.2211 50.6456 47.7013 46.0831L52.1977 45.137C52.1977 45.137 56.0888 53.7535 56.0888 68.0718L51.9332 67.7513Z" fill="#455A64"/>
<path d="M73.9524 67.5073C73.9524 57.2784 71.6991 48.5094 68.1284 44.6793L73.2708 45.4474C73.2708 45.4474 78.0826 53.1889 78.0826 67.5073H73.9524Z" fill="#455A64"/>
<path d="M57.5842 69.8979C57.5842 69.8979 65.8497 70.4065 72.7927 69.0891L73.108 76.1237L66.1803 80.4675L57.5842 77.6598V69.8979Z" fill="#37474F"/>
<path d="M44.2731 90.3148C48.2558 91.9679 57.9251 92.9598 65.687 92.858C73.4489 92.7563 77.513 90.9303 77.513 90.9303L77.3858 95.6607C77.3858 95.6607 63.6117 101.439 43.683 94.6434L44.2731 90.3148Z" fill="#E67503"/>
<path opacity="0.3" d="M44.2731 90.3148C48.2558 91.9679 57.9251 92.9598 65.687 92.858C73.4489 92.7563 77.513 90.9303 77.513 90.9303L77.3858 95.6607C77.3858 95.6607 63.6117 101.439 43.683 94.6434L44.2731 90.3148Z" fill="black"/>
<path d="M59.4866 119.831L63.1793 104.908C63.1793 104.908 68.7134 104.979 72.3349 101.597C72.3349 101.597 71.8263 105.406 65.2495 107.441L61.8314 119.297L59.8935 141.907L59.4866 119.831Z" fill="#37474F"/>
<path d="M53.6067 44.5012L53.6372 45.5185C54.4333 47.7757 55.0107 50.1041 55.3615 52.4717C56.4297 58.9162 56.6128 67.3648 56.6128 76.8866V103.122C56.6128 103.122 44.6851 103.885 40.8957 94.7807L42.4216 75.6964C42.4216 75.6964 40.2344 65.8287 39.6393 60.1878C39.0442 54.5469 37.9811 50.5948 43.2558 46.2815L53.6067 44.5012Z" fill="#E67503"/>
<path d="M41.3229 70.3607C41.918 73.3821 42.4317 75.6964 42.4317 75.6964L42.3758 76.4441C46.0634 78.8551 51.5314 80.4014 56.6178 80.1674V74.8368C51.0634 75.0911 44.9597 73.199 41.3229 70.3607Z" fill="#F0F0F0"/>
<path d="M56.6076 90.7573V85.4064C51.3788 85.6455 45.6769 83.9822 41.9892 81.4237L41.6026 86.4745C45.2649 89.206 51.1906 91.0015 56.6076 90.7573Z" fill="#F0F0F0"/>
<path d="M65.163 44.3792C68.5 46.3887 70.9133 49.6295 71.8821 53.4025C73.4895 59.7199 73.7285 64.7046 73.9523 72.8175C74.1761 80.9303 73.8455 103.565 73.8455 103.565C73.8455 103.565 77.406 102.003 78.1893 100.31C78.1893 100.31 79.2066 71.5662 78.0825 61.378C76.9584 51.1899 73.2708 45.4473 73.2708 45.4473C73.2708 45.4473 70.636 44.369 65.163 44.3792Z" fill="#E67503"/>
<path d="M74.0389 79.145C75.5782 79.1004 77.1104 78.9166 78.6167 78.5956C78.6167 76.8154 78.6167 75.0351 78.6167 73.2701C77.0818 73.5927 75.5204 73.7732 73.9524 73.8093C74.0083 75.3454 74.0287 77.1714 74.0389 79.145Z" fill="#F0F0F0"/>
<path d="M78.5303 89.211C78.5608 87.5732 78.5964 85.7624 78.6167 83.8601C77.1193 84.1659 75.5974 84.3362 74.0695 84.3688C74.0695 86.1744 74.0695 87.9801 74.0695 89.7044C75.5678 89.6682 77.0602 89.5031 78.5303 89.211Z" fill="#F0F0F0"/>
<path d="M45.921 46.3883C42.8692 46.3883 39.3087 46.256 37.3097 50.6609C36.6586 52.0953 34.6495 60.5286 32.4165 68.3057C28.4186 63.2193 25.0056 58.0057 24.5631 57.08C23.3779 54.6029 23.3627 52.9294 22.1521 50.371C21.4549 48.9702 20.9158 47.4963 20.5448 45.9763C20.2549 44.959 19.3495 45.7067 19.0189 46.1645C18.4894 46.937 18.1976 47.8476 18.1796 48.784C18.1796 49.4452 18.1796 50.1217 18.1287 50.7728C18.0779 51.4239 17.8592 51.3984 17.3302 51.1034C16.2417 50.493 15.2956 49.4401 14.4106 48.5958C13.5255 47.7514 12.3149 46.958 11.3587 46.0526C10.4024 45.1472 9.91923 44.2265 9.141 43.311C8.55606 42.6243 7.55912 41.7342 6.79107 42.7159C6.33329 43.311 6.75546 44.0027 6.95892 44.5978C7.1929 45.2743 6.95892 45.7728 6.83176 46.4391C6.6069 47.1631 6.62837 47.9412 6.89279 48.6517C7.25902 49.3689 7.58455 49.8114 7.48791 50.6558C7.41161 51.3526 7.16238 52.019 7.2641 52.7362C7.34549 53.3262 7.77275 53.7534 8.06776 54.2621C8.58868 55.1653 9.23422 55.9906 9.98535 56.7137C10.8706 57.6102 11.8284 58.4319 12.849 59.1705C15.2956 61.0728 16.2061 61.6679 17.025 62.3037C18.2508 63.2498 19.5173 65.6761 20.2294 67.0138C21.618 69.6384 24.614 76.9527 28.6119 82.1866C30.9262 85.2029 34.0747 86.1642 36.8519 82.7563C38.3066 80.9659 39.5427 78.1277 40.3463 75.9812C43.4338 67.7564 45.6667 60.9914 45.6667 60.9914C45.6667 60.9914 48.1591 53.3058 45.921 46.3883Z" fill="#FFA8A7"/>
<path d="M26.0432 59.4655C25.2498 58.2651 24.7208 57.3953 24.5631 57.0698C23.378 54.5927 23.3627 52.9193 22.1521 50.3608C21.4556 48.9633 20.9166 47.4928 20.5448 45.9763C20.2549 44.959 19.3495 45.7067 19.0189 46.1645C18.4894 46.937 18.1976 47.8476 18.1796 48.784C18.1796 49.4452 18.1796 50.1217 18.1287 50.7728C18.0779 51.4239 17.8592 51.3984 17.3302 51.1034C16.2417 50.493 15.2956 49.4401 14.4106 48.5958C13.5255 47.7514 12.3149 46.958 11.3587 46.0526C10.4024 45.1472 9.91923 44.2265 9.141 43.311C8.55606 42.6243 7.55912 41.7342 6.79107 42.7159C6.33329 43.311 6.75546 44.0027 6.95892 44.5978C7.1929 45.2743 6.95892 45.7728 6.83176 46.4391C6.6069 47.1631 6.62837 47.9412 6.89279 48.6517C7.25902 49.3689 7.58455 49.8114 7.48791 50.6558C7.41161 51.3526 7.16238 52.019 7.2641 52.7361C7.34549 53.3262 7.77275 53.7534 8.06776 54.2621C8.58868 55.1653 9.23422 55.9906 9.98535 56.7137C10.8706 57.6102 11.8284 58.4319 12.849 59.1705C15.2956 61.0728 16.2061 61.6679 17.025 62.3037C18.1898 63.204 19.3902 65.437 20.1175 66.8002C22.5489 65.2437 24.7513 62.2529 26.0432 59.4655Z" fill="#455A64"/>
<path d="M25.2701 58.2804L24.8886 57.7107C24.8886 57.7107 25.0412 57.0444 25.6618 57.9955C26.2198 58.7876 26.7017 59.6306 27.1012 60.5133C27.1775 60.8745 26.5621 63.9874 24.6292 65.5336C22.6964 67.0799 20.9975 67.5428 20.4583 67.4767C19.9192 67.4105 19.7666 66.9222 19.441 66.2763C19.1155 65.6303 18.3627 64.8368 18.5916 64.2417L19.029 64.8572C20.7646 64.4119 22.3206 63.4421 23.4848 62.08C25.1989 59.8979 25.2701 58.2804 25.2701 58.2804Z" fill="#E67503"/>
<path opacity="0.2" d="M25.2701 58.2804L24.8886 57.7107C24.8886 57.7107 25.0412 57.0444 25.6618 57.9955C26.2198 58.7876 26.7017 59.6306 27.1012 60.5133C27.1775 60.8745 26.5621 63.9874 24.6292 65.5336C22.6964 67.0799 20.9975 67.5428 20.4583 67.4767C19.9192 67.4105 19.7666 66.9222 19.441 66.2763C19.1155 65.6303 18.3627 64.8368 18.5916 64.2417L19.029 64.8572C20.7646 64.4119 22.3206 63.4421 23.4848 62.08C25.1989 59.8979 25.2701 58.2804 25.2701 58.2804Z" fill="black"/>
<path d="M32.4165 68.3057C33.8797 71.0741 34.764 74.1113 35.0157 77.2324C35.5243 72.5987 34.1154 68.3617 32.8133 66.9324L32.4165 68.3057Z" fill="#F28F8F"/>
<path d="M46.4246 45.7322C43.5152 46.19 42.8946 46.2408 41.0381 46.8817C39.1815 47.5226 37.8489 48.1584 36.1348 53.7484C34.4868 59.14 32.9507 65.2743 32.9507 65.2743C32.9507 65.2743 34.5783 69.5367 42.6149 70.3607L46.8722 58.489C46.8722 58.489 48.1845 51.3273 46.4246 45.7322Z" fill="#EBEBEB"/>
<path d="M17.8337 52.2784C17.8724 52.5978 17.8157 52.9216 17.6706 53.2087C17.5255 53.4959 17.2985 53.7336 17.0183 53.8919C16.7382 54.0501 16.4174 54.1218 16.0965 54.0978C15.7757 54.0738 15.4691 53.9552 15.2156 53.7571C14.9621 53.559 14.773 53.2902 14.6722 52.9846C14.5714 52.679 14.5634 52.3505 14.6492 52.0404C14.7351 51.7303 14.9109 51.4526 15.1545 51.2424C15.3981 51.0322 15.6985 50.8989 16.0178 50.8593C16.2304 50.8323 16.4462 50.8477 16.6528 50.9045C16.8593 50.9613 17.0526 51.0585 17.2214 51.1905C17.3903 51.3224 17.5313 51.4865 17.6364 51.6732C17.7415 51.86 17.8085 52.0656 17.8337 52.2784Z" fill="#263238"/>
<path d="M110.941 57.4005H109.14C108.676 57.4005 108.231 57.5848 107.903 57.913C107.575 58.2411 107.391 58.6862 107.391 59.1502V78.1837C107.391 80.477 106.48 82.6764 104.858 84.298C103.236 85.9196 101.037 86.8306 98.7437 86.8306H24.4664C22.1731 86.8306 19.9737 85.9196 18.3521 84.298C16.7305 82.6764 15.8195 80.477 15.8195 78.1837V53.4025C15.8195 53.3014 15.8597 53.2043 15.9312 53.1328C16.0027 53.0612 16.0998 53.0211 16.2009 53.0211C16.3021 53.0211 16.3992 53.0612 16.4707 53.1328C16.5422 53.2043 16.5824 53.3014 16.5824 53.4025V78.0057C16.5824 79.0621 16.7906 80.1082 17.195 81.0842C17.5995 82.0602 18.1923 82.947 18.9396 83.6938C19.6868 84.4406 20.574 85.0328 21.5502 85.4366C22.5264 85.8405 23.5727 86.048 24.6292 86.0473H98.5809C99.6374 86.048 100.684 85.8405 101.66 85.4366C102.636 85.0328 103.523 84.4406 104.271 83.6938C105.018 82.947 105.611 82.0602 106.015 81.0842C106.42 80.1082 106.628 79.0621 106.628 78.0057V59.1502C106.628 58.4838 106.892 57.8447 107.364 57.3735C107.835 56.9022 108.474 56.6375 109.14 56.6375H112.238C111.827 56.9267 111.393 57.1819 110.941 57.4005Z" fill="#37474F"/>
<path d="M14.2885 52.8176C13.144 52.309 13.022 51.3273 14.0189 50.5796C14.5827 50.2003 15.2281 49.9597 15.9026 49.8775C16.5771 49.7953 17.2615 49.8738 17.8999 50.1065C19.0443 50.6152 19.1664 51.5969 18.1694 52.3446C17.6057 52.7239 16.9602 52.9645 16.2857 53.0467C15.6112 53.1289 14.9268 53.0504 14.2885 52.8176Z" fill="#37474F"/>
<path d="M14.1562 52.2428C12.9762 51.7342 12.849 50.7169 13.8765 49.9336C14.4566 49.5398 15.1215 49.2885 15.8171 49.2002C16.5127 49.1118 17.2193 49.1888 17.8795 49.425C19.0595 49.9336 19.1867 50.9509 18.1592 51.7342C17.5791 52.128 16.9142 52.3793 16.2186 52.4676C15.523 52.556 14.8164 52.479 14.1562 52.2428Z" fill="#263238"/>
<path d="M14.024 51.6477C12.8032 51.1391 12.6761 50.0608 13.734 49.2673C14.3327 48.863 15.0186 48.6062 15.7355 48.5178C16.4525 48.4294 17.1802 48.5119 17.8591 48.7586C19.0748 49.2673 19.2071 50.3456 18.1491 51.1391C17.5504 51.5433 16.8645 51.8002 16.1476 51.8886C15.4306 51.977 14.7029 51.8944 14.024 51.6477Z" fill="#37474F"/>
<path d="M13.8866 51.0323C12.6303 50.5236 12.4929 49.3995 13.5865 48.5806C14.2047 48.1681 14.9114 47.9072 15.6493 47.8188C16.3872 47.7304 17.1356 47.8171 17.8337 48.0719C19.09 48.5806 19.2274 49.7047 18.1338 50.5287C17.5152 50.9403 16.8083 51.2004 16.0704 51.2879C15.3325 51.3754 14.5844 51.2878 13.8866 51.0323Z" fill="#263238"/>
<path d="M13.7645 50.3863C12.4827 49.842 12.3454 48.723 13.4593 47.8838C14.0906 47.4639 14.8122 47.199 15.5652 47.1106C16.3183 47.0222 17.0815 47.1128 17.7929 47.3751C19.0747 47.9194 19.2121 49.0435 18.0981 49.8777C17.4671 50.2983 16.7455 50.5636 15.9923 50.652C15.2392 50.7405 14.4757 50.6494 13.7645 50.3863Z" fill="#37474F"/>
<path d="M13.6323 31.2765C11.588 31.5258 9.72647 32.5767 8.45692 34.1983C7.18736 35.8198 6.61375 37.8791 6.86221 39.9234C7.60992 46.0272 12.7828 46.4443 13.0829 48.9112C13.1304 49.1465 13.2398 49.3648 13.3998 49.5436C13.5599 49.7225 13.7648 49.8553 13.9934 49.9285C14.6128 50.1521 15.2761 50.2272 15.9299 50.1477C16.5837 50.0682 17.2096 49.8363 17.7574 49.4707C17.962 49.3473 18.1298 49.1714 18.2434 48.9612C18.357 48.7509 18.4122 48.5142 18.4033 48.2754C18.1032 45.8085 23.0269 44.1757 22.2843 38.0567C22.1621 37.0431 21.8413 36.0636 21.3402 35.1741C20.8391 34.2846 20.1676 33.5026 19.364 32.8729C18.5604 32.2431 17.6405 31.778 16.657 31.5041C15.6735 31.2302 14.6457 31.1528 13.6323 31.2765Z" fill="#E67503"/>
<g opacity="0.6">
<path opacity="0.6" d="M13.6323 31.2765C11.588 31.5258 9.72647 32.5767 8.45692 34.1983C7.18736 35.8198 6.61375 37.8791 6.86221 39.9234C7.60992 46.0272 12.7828 46.4443 13.0829 48.9112C13.1304 49.1465 13.2398 49.3648 13.3998 49.5436C13.5599 49.7225 13.7648 49.8553 13.9934 49.9285C14.6128 50.1521 15.2761 50.2272 15.9299 50.1477C16.5837 50.0682 17.2096 49.8363 17.7574 49.4707C17.962 49.3473 18.1298 49.1714 18.2434 48.9612C18.357 48.7509 18.4122 48.5142 18.4033 48.2754C18.1032 45.8085 23.0269 44.1757 22.2843 38.0567C22.1621 37.0431 21.8413 36.0636 21.3402 35.1741C20.8391 34.2846 20.1676 33.5026 19.364 32.8729C18.5604 32.2431 17.6405 31.778 16.657 31.5041C15.6735 31.2302 14.6457 31.1528 13.6323 31.2765Z" fill="white"/>
</g>
<path d="M14.4411 49.5114C13.6069 49.1554 13.5153 48.4229 14.2427 47.8787C14.6539 47.6032 15.1241 47.4283 15.6154 47.3682C16.1067 47.3081 16.6053 47.3645 17.0707 47.5328C17.9049 47.8889 17.9965 48.6213 17.2691 49.1656C16.8584 49.4422 16.3881 49.6178 15.8966 49.6779C15.4051 49.738 14.9063 49.681 14.4411 49.5114Z" fill="#E67503"/>
<path d="M16.7401 48.2042C16.672 48.2129 16.6033 48.1942 16.5489 48.1522C16.4946 48.1103 16.4591 48.0485 16.4502 47.9804C16.2702 46.4955 16.2702 44.9943 16.4502 43.5094C16.5002 43.0809 16.5784 42.6561 16.6842 42.2378C16.4375 42.1807 16.1973 42.0989 15.967 41.9937C15.5574 41.8057 15.1784 41.5571 14.8429 41.2561C14.5891 41.6277 14.2824 41.9601 13.9324 42.2429C13.7371 42.4004 13.5257 42.5368 13.3017 42.6498C13.5062 43.0307 13.6846 43.4249 13.8358 43.8299C14.3667 45.228 14.7287 46.6846 14.9141 48.1686C14.9199 48.2378 14.8988 48.3065 14.8553 48.3605C14.8117 48.4145 14.7489 48.4496 14.6801 48.4585C14.6102 48.4643 14.5408 48.4425 14.4866 48.3978C14.4325 48.3532 14.3979 48.2892 14.3902 48.2195C14.2075 46.781 13.8558 45.3691 13.3424 44.013C13.1937 43.6103 13.0151 43.2193 12.8083 42.8431C12.5529 42.9286 12.2804 42.9507 12.0145 42.9072C11.7486 42.8638 11.4974 42.7563 11.2824 42.5939C11.1213 42.4739 11.0083 42.3005 10.9635 42.1048C10.9188 41.909 10.9453 41.7037 11.0382 41.5257C11.1026 41.4024 11.2023 41.3011 11.3247 41.2349C11.4471 41.1687 11.5865 41.1407 11.7249 41.1544C12.1471 41.19 12.6049 41.5613 13.0321 42.2124C13.2361 42.1137 13.4274 41.9907 13.6018 41.8462C13.9439 41.5776 14.2395 41.2545 14.4767 40.8899C14.2931 40.7019 14.149 40.479 14.0529 40.2344C13.9568 39.9898 13.9106 39.7284 13.9172 39.4657C13.9433 39.3088 14.0195 39.1645 14.1344 39.0544C14.2492 38.9443 14.3966 38.8744 14.5545 38.8549C14.7124 38.8354 14.8724 38.8676 15.0105 38.9465C15.1486 39.0254 15.2576 39.1469 15.321 39.2928C15.3948 39.5471 15.4153 39.8139 15.3811 40.0764C15.347 40.339 15.259 40.5917 15.1226 40.8187C15.4393 41.1179 15.8038 41.362 16.201 41.541C16.4059 41.6372 16.6209 41.7105 16.8419 41.7597C17.1013 41.0273 17.4522 40.5542 17.8592 40.422C17.9905 40.38 18.1313 40.3774 18.2642 40.4144C18.397 40.4515 18.5162 40.5266 18.6069 40.6305C18.7366 40.7832 18.8078 40.977 18.8078 41.1773C18.8078 41.3776 18.7366 41.5714 18.6069 41.7241C18.4392 41.9309 18.2238 42.094 17.9794 42.1994C17.7349 42.3048 17.4685 42.3494 17.203 42.3294C17.0882 42.7462 17.0066 43.1713 16.9589 43.601C16.7936 45.0391 16.7936 46.4914 16.9589 47.9296C16.9639 47.964 16.9621 47.999 16.9536 48.0327C16.945 48.0664 16.93 48.0981 16.9092 48.126C16.8884 48.1539 16.8623 48.1774 16.8324 48.1952C16.8026 48.213 16.7695 48.2247 16.7351 48.2297L16.7401 48.2042ZM11.6486 41.6631C11.6079 41.6631 11.5571 41.6936 11.5113 41.78C11.4045 41.9682 11.5774 42.1361 11.6333 42.187C11.7584 42.2765 11.9012 42.3383 12.0521 42.3681C12.203 42.3979 12.3585 42.3951 12.5082 42.3599C12.1674 41.8818 11.8673 41.6732 11.6893 41.6631H11.6486ZM17.3912 41.7648C17.5453 41.7662 17.6977 41.7326 17.8369 41.6665C17.9762 41.6005 18.0985 41.5036 18.1949 41.3833C18.2355 41.3273 18.3678 41.1188 18.2203 40.9611C18.1983 40.9293 18.1667 40.9052 18.1301 40.8924C18.0936 40.8796 18.0539 40.8787 18.0168 40.8899C17.849 40.951 17.6099 41.2256 17.3912 41.7699V41.7648ZM14.6191 39.364C14.4868 39.364 14.4512 39.4403 14.436 39.5268C14.4359 39.8321 14.544 40.1277 14.7412 40.3609C14.8759 40.0863 14.9101 39.7731 14.8378 39.4759C14.8228 39.4328 14.7914 39.3975 14.7504 39.3775C14.7095 39.3575 14.6623 39.3545 14.6191 39.3691V39.364Z" fill="white"/>
<path d="M18.6068 28.8147C18.5434 28.7901 18.4856 28.753 18.4368 28.7057C18.388 28.6583 18.3491 28.6017 18.3226 28.5391C18.296 28.4765 18.2823 28.4092 18.2822 28.3412C18.2821 28.2732 18.2956 28.2059 18.322 28.1432L19.3393 25.6611C19.391 25.5374 19.4895 25.4391 19.6134 25.3877C19.7372 25.3362 19.8763 25.3358 20.0005 25.3864C20.0633 25.411 20.1205 25.4479 20.1689 25.4949C20.2173 25.5418 20.2559 25.5979 20.2824 25.6599C20.3089 25.7219 20.3228 25.7886 20.3233 25.856C20.3238 25.9235 20.3109 25.9903 20.2854 26.0527L19.2681 28.54C19.2435 28.6034 19.2064 28.6612 19.1591 28.71C19.1118 28.7588 19.0551 28.7977 18.9925 28.8242C18.9299 28.8508 18.8626 28.8645 18.7947 28.8646C18.7267 28.8647 18.6593 28.8512 18.5967 28.8248L18.6068 28.8147Z" fill="#E0E0E0"/>
<path d="M12.727 28.0822C12.6437 28.049 12.5706 27.9943 12.5152 27.9237C12.4598 27.8532 12.4241 27.7692 12.4116 27.6804L12.0403 25.0252C12.0214 24.8903 12.0569 24.7535 12.139 24.6447C12.221 24.536 12.3429 24.4643 12.4778 24.4454C12.6127 24.4265 12.7495 24.462 12.8583 24.544C12.967 24.626 13.0387 24.7479 13.0576 24.8828L13.4238 27.5379C13.4339 27.6048 13.4305 27.6731 13.4138 27.7386C13.3972 27.8042 13.3676 27.8657 13.3269 27.9197C13.2862 27.9737 13.2351 28.0191 13.1766 28.0531C13.1181 28.0871 13.0535 28.1091 12.9864 28.1178C12.8983 28.1288 12.8089 28.1165 12.727 28.0822Z" fill="#E0E0E0"/>
<path d="M7.26923 30.3914C7.18716 30.3579 7.11527 30.3036 7.06068 30.2337L5.41268 28.1178C5.37126 28.0643 5.34078 28.0033 5.32297 27.938C5.30515 27.8728 5.30036 27.8047 5.30887 27.7377C5.31737 27.6706 5.339 27.6059 5.37252 27.5472C5.40604 27.4884 5.45079 27.4369 5.50423 27.3955C5.55767 27.3541 5.61874 27.3236 5.68396 27.3058C5.74917 27.288 5.81726 27.2832 5.88433 27.2917C5.9514 27.3002 6.01614 27.3218 6.07485 27.3553C6.13356 27.3889 6.18509 27.4336 6.22651 27.487L7.87451 29.5979C7.91672 29.651 7.94788 29.7121 7.96615 29.7774C7.98442 29.8427 7.98944 29.911 7.98091 29.9783C7.97238 30.0457 7.95047 30.1106 7.91647 30.1693C7.88248 30.228 7.83708 30.2793 7.78296 30.3202C7.71159 30.3771 7.62624 30.4137 7.53585 30.4262C7.44546 30.4387 7.35337 30.4267 7.26923 30.3914Z" fill="#E0E0E0"/>
<path d="M1.21635 34.1096C1.09022 34.0577 0.989885 33.9577 0.93742 33.8318C0.884956 33.7059 0.884661 33.5643 0.936598 33.4382C0.988535 33.3121 1.08845 33.2117 1.21436 33.1593C1.34028 33.1068 1.48188 33.1065 1.60801 33.1584L4.09019 34.1757C4.15265 34.2011 4.20949 34.2385 4.25747 34.2859C4.30546 34.3332 4.34365 34.3896 4.36987 34.4517C4.39608 34.5138 4.4098 34.5805 4.41025 34.6479C4.4107 34.7153 4.39787 34.7821 4.37249 34.8446C4.34711 34.907 4.30967 34.9639 4.26232 35.0119C4.21497 35.0599 4.15863 35.098 4.09652 35.1243C4.03441 35.1505 3.96774 35.1642 3.90033 35.1647C3.83292 35.1651 3.76607 35.1523 3.70362 35.1269L1.22144 34.1096H1.21635Z" fill="#E0E0E0"/>
<path d="M0.315962 41.3629C0.233582 41.329 0.161562 41.274 0.10711 41.2035C0.0526574 41.1329 0.0176829 41.0494 0.005689 40.9611C-0.00434447 40.8942 -0.000937403 40.826 0.0157108 40.7604C0.0323589 40.6949 0.0619145 40.6333 0.102647 40.5793C0.143379 40.5253 0.194471 40.48 0.252933 40.446C0.311395 40.4119 0.376053 40.3899 0.443123 40.3812L3.09825 40.0099C3.23315 39.991 3.37002 40.0265 3.47877 40.1085C3.58751 40.1906 3.65921 40.3124 3.6781 40.4473C3.69699 40.5822 3.66151 40.7191 3.57948 40.8279C3.49744 40.9366 3.37557 41.0083 3.24067 41.0272L0.585543 41.3985C0.49413 41.413 0.400483 41.4006 0.315962 41.3629Z" fill="#E0E0E0"/>
<path d="M25.6313 37.838C25.5214 37.7993 25.4281 37.7241 25.367 37.625C25.3059 37.5258 25.2807 37.4087 25.2956 37.2931C25.3104 37.1776 25.3645 37.0707 25.4488 36.9903C25.533 36.9098 25.6423 36.8607 25.7584 36.8512L28.4135 36.4799C28.4808 36.4699 28.5494 36.4735 28.6153 36.4904C28.6811 36.5074 28.7429 36.5374 28.797 36.5787C28.851 36.6199 28.8963 36.6716 28.93 36.7306C28.9637 36.7897 28.9853 36.8549 28.9934 36.9224C29.0034 36.9893 29 37.0575 28.9834 37.1231C28.9667 37.1886 28.9372 37.2502 28.8964 37.3042C28.8557 37.3582 28.8046 37.4035 28.7462 37.4375C28.6877 37.4715 28.623 37.4936 28.556 37.5023L25.9008 37.8685C25.8099 37.8846 25.7163 37.874 25.6313 37.838Z" fill="#E0E0E0"/>
<path d="M23.3322 32.3853C23.2476 32.3512 23.1739 32.295 23.1185 32.2225C23.0747 32.1692 23.0422 32.1074 23.023 32.0411C23.0038 31.9747 22.9983 31.9052 23.0069 31.8366C23.0155 31.7681 23.0379 31.702 23.0728 31.6425C23.1078 31.5829 23.1545 31.531 23.2101 31.4901L25.326 29.8421C25.3795 29.8007 25.4405 29.7702 25.5058 29.7524C25.571 29.7346 25.6391 29.7298 25.7061 29.7383C25.7732 29.7468 25.8379 29.7684 25.8967 29.8019C25.9554 29.8354 26.0069 29.8802 26.0483 29.9336C26.0897 29.9871 26.1202 30.0482 26.138 30.1134C26.1558 30.1786 26.1606 30.2467 26.1521 30.3137C26.1436 30.3808 26.122 30.4455 26.0885 30.5043C26.0549 30.563 26.0102 30.6145 25.9568 30.6559L23.8408 32.3039C23.7709 32.3615 23.687 32.3995 23.5975 32.4138C23.5081 32.4281 23.4165 32.4183 23.3322 32.3853Z" fill="#E0E0E0"/>
<path d="M40.8906 91.0422L38.1947 92.5274C38.0197 92.6365 37.8731 92.7856 37.767 92.9625C37.6609 93.1394 37.5983 93.3389 37.5844 93.5447C37.5182 95.9506 37.2944 105.411 37.681 109.933C37.7084 110.14 37.7809 110.338 37.8934 110.514C38.0059 110.69 38.1556 110.839 38.3321 110.95C39.858 111.81 43.9984 114.079 45.8956 114.603C46.329 114.677 46.7744 114.629 47.1825 114.465L49.095 113.697C49.2732 113.614 49.4255 113.484 49.5356 113.321C49.6458 113.158 49.7097 112.968 49.7206 112.771C49.7206 107.97 50.5955 101.485 51.389 96.2558C51.4105 96.063 51.3734 95.8682 51.2827 95.6968C51.192 95.5253 51.0518 95.3851 50.8803 95.2944L42.0757 91.0015C41.8863 90.925 41.683 90.8891 41.4788 90.8961C41.2747 90.9031 41.0743 90.9528 40.8906 91.0422Z" fill="#455A64"/>
<path d="M37.681 109.913C37.2944 105.391 37.5182 95.9302 37.5844 93.5243C37.5747 93.4477 37.5877 93.3699 37.6217 93.3005C37.6556 93.2311 37.7091 93.1731 37.7755 93.1337C37.842 93.0943 37.9185 93.0751 37.9956 93.0785C38.0728 93.082 38.1473 93.1078 38.21 93.153L46.4093 97.2222C46.5806 97.3184 46.7221 97.46 46.8181 97.6314C46.9141 97.8028 46.961 97.9974 46.9536 98.1937C46.7807 100.325 46.2568 108.341 46.5212 114.002C46.5319 114.084 46.5224 114.168 46.4936 114.245C46.4648 114.323 46.4175 114.392 46.3559 114.447C46.2943 114.502 46.2202 114.541 46.14 114.561C46.0598 114.581 45.9759 114.582 45.8956 114.562C43.9984 114.053 39.8631 111.769 38.3321 110.91C38.158 110.8 38.0097 110.655 37.8974 110.483C37.785 110.311 37.7112 110.116 37.681 109.913Z" fill="#37474F"/>
<path d="M45.977 114.587C46.3794 114.632 46.7866 114.576 47.1622 114.425L49.0798 113.657C49.2547 113.57 49.4038 113.439 49.5119 113.276C49.6199 113.114 49.6832 112.926 49.6952 112.731C50.0716 107.802 50.5701 101.449 51.3687 96.2202C51.3916 96.0447 51.3577 95.8664 51.272 95.7115L46.8366 97.7461C46.9099 97.8926 46.9432 98.0557 46.9333 98.2192C46.7552 100.361 46.2364 108.392 46.5009 114.033C46.5075 114.105 46.4986 114.177 46.475 114.245C46.4514 114.314 46.4136 114.376 46.3641 114.428C46.3145 114.481 46.2544 114.522 46.1877 114.549C46.1209 114.577 46.0491 114.59 45.977 114.587Z" fill="#263238"/>
<path d="M38.7288 95.0706L45.9109 98.4226L45.565 104.526L38.5355 101.51C38.5355 101.51 38.6016 97.1459 38.7288 95.0706Z" fill="#263238"/>
<path d="M45.5905 104.155L38.856 101.271C38.856 101.271 38.9171 97.2832 39.029 95.2232L45.8956 98.4226L45.5905 104.155Z" fill="#E67503"/>
<path opacity="0.4" d="M45.5905 104.155L38.856 101.271C38.856 101.271 38.9171 97.2832 39.029 95.2232L45.8956 98.4226L45.5905 104.155Z" fill="black"/>
<path d="M42.5843 97.4155L41.0787 99.5925L42.0248 99.918L41.2873 101.841L42.9709 99.5721L42.0248 99.2161L42.5843 97.4155Z" fill="#FAFAFA"/>
<path d="M45.1123 105.925L45.0666 106.53C45.0676 106.57 45.0582 106.61 45.0393 106.645C45.0203 106.68 44.9925 106.71 44.9585 106.731C44.9246 106.752 44.8857 106.764 44.8458 106.765C44.8058 106.767 44.7662 106.758 44.7309 106.739L43.6424 106.291C43.5542 106.249 43.48 106.183 43.4286 106.1C43.3772 106.017 43.3508 105.921 43.3524 105.823L43.388 105.208C43.3859 105.168 43.3944 105.128 43.4127 105.093C43.431 105.058 43.4584 105.028 43.4921 105.007C43.5258 104.985 43.5646 104.973 43.6044 104.972C43.6442 104.971 43.6837 104.98 43.7187 104.999L44.8224 105.457C44.9105 105.499 44.9847 105.566 45.0362 105.649C45.0876 105.731 45.114 105.827 45.1123 105.925Z" fill="#263238"/>
<path d="M45.1174 107.894L45.0869 108.499C45.0884 108.538 45.0796 108.578 45.0612 108.613C45.0429 108.648 45.0157 108.678 44.9824 108.7C44.949 108.721 44.9107 108.734 44.871 108.736C44.8314 108.738 44.7918 108.73 44.7563 108.712L43.6576 108.28C43.5701 108.24 43.4959 108.175 43.4437 108.094C43.3914 108.013 43.3633 107.919 43.3626 107.822V107.202C43.36 107.162 43.368 107.123 43.3856 107.087C43.4033 107.052 43.43 107.022 43.4631 107C43.4962 106.978 43.5345 106.966 43.574 106.964C43.6135 106.962 43.6529 106.97 43.6881 106.988L44.797 107.431C44.89 107.468 44.9701 107.531 45.0271 107.614C45.0841 107.696 45.1155 107.793 45.1174 107.894Z" fill="#263238"/>
<path d="M45.1276 109.862V110.467C45.13 110.507 45.1219 110.547 45.1039 110.583C45.086 110.619 45.0589 110.65 45.0254 110.672C44.9919 110.694 44.9531 110.707 44.913 110.71C44.8729 110.712 44.8329 110.704 44.797 110.686L43.6983 110.274C43.6079 110.236 43.5306 110.172 43.4755 110.091C43.4204 110.01 43.3901 109.914 43.388 109.816V109.196C43.3854 109.156 43.3934 109.117 43.4111 109.081C43.4287 109.046 43.4555 109.016 43.4886 108.994C43.5216 108.972 43.5599 108.96 43.5994 108.958C43.639 108.956 43.6783 108.964 43.7135 108.982L44.8275 109.404C44.9159 109.444 44.9912 109.508 45.0444 109.589C45.0975 109.67 45.1264 109.765 45.1276 109.862Z" fill="#263238"/>
<path d="M45.1377 111.856V112.461C45.1406 112.501 45.133 112.541 45.1157 112.577C45.0984 112.613 45.072 112.644 45.0391 112.666C45.0061 112.689 44.9679 112.703 44.9281 112.706C44.8883 112.709 44.8483 112.702 44.8121 112.685L43.7033 112.288C43.6135 112.251 43.5361 112.19 43.4803 112.111C43.4244 112.031 43.3923 111.938 43.3879 111.841V111.22C43.3839 111.18 43.3906 111.14 43.4072 111.104C43.4238 111.068 43.4498 111.037 43.4825 111.014C43.5151 110.991 43.5533 110.978 43.593 110.975C43.6327 110.971 43.6726 110.979 43.7084 110.996L44.8325 111.403C44.9211 111.442 44.9969 111.505 45.051 111.585C45.105 111.665 45.1351 111.759 45.1377 111.856Z" fill="#263238"/>
<path d="M42.6708 104.811L42.6403 105.442C42.6424 105.482 42.6339 105.521 42.6156 105.557C42.5973 105.592 42.5699 105.622 42.5362 105.643C42.5025 105.664 42.4637 105.676 42.4239 105.678C42.3841 105.679 42.3446 105.669 42.3097 105.65L41.2313 105.203C41.1413 105.162 41.065 105.097 41.0117 105.013C40.9584 104.93 40.9305 104.834 40.9312 104.735V104.094C40.9279 104.054 40.9355 104.015 40.9531 103.979C40.9707 103.943 40.9977 103.913 41.0312 103.892C41.0647 103.87 41.1034 103.858 41.1431 103.857C41.1829 103.856 41.2221 103.866 41.2568 103.885L42.3554 104.343C42.4483 104.381 42.5278 104.446 42.584 104.529C42.6401 104.613 42.6703 104.711 42.6708 104.811Z" fill="#263238"/>
<path d="M42.6658 106.769L42.6353 107.4C42.6374 107.44 42.6289 107.48 42.6106 107.515C42.5923 107.55 42.5649 107.58 42.5312 107.602C42.4975 107.623 42.4587 107.635 42.4189 107.636C42.3791 107.637 42.3396 107.628 42.3046 107.609L41.2263 107.166C41.1353 107.127 41.058 107.061 41.0037 106.978C40.9495 106.895 40.9208 106.798 40.9211 106.698V106.057C40.9178 106.018 40.9254 105.978 40.943 105.942C40.9606 105.907 40.9876 105.877 41.0211 105.855C41.0546 105.834 41.0933 105.822 41.133 105.821C41.1728 105.82 41.212 105.829 41.2467 105.849L42.3453 106.302C42.4392 106.339 42.5198 106.403 42.5768 106.487C42.6339 106.57 42.6649 106.668 42.6658 106.769Z" fill="#263238"/>
<path d="M42.6556 108.723V109.353C42.6581 109.393 42.6502 109.432 42.6325 109.468C42.6148 109.503 42.5881 109.533 42.555 109.555C42.5219 109.577 42.4837 109.589 42.4441 109.591C42.4046 109.593 42.3652 109.585 42.33 109.567L41.2415 109.13C41.1515 109.089 41.0752 109.023 41.0219 108.94C40.9686 108.857 40.9406 108.76 40.9414 108.662V108.021C40.9377 107.981 40.9447 107.942 40.9617 107.906C40.9787 107.871 41.005 107.84 41.0379 107.818C41.0707 107.796 41.1089 107.784 41.1483 107.782C41.1878 107.78 41.227 107.789 41.2619 107.807L42.3605 108.26C42.4488 108.301 42.5236 108.366 42.5758 108.448C42.6281 108.53 42.6558 108.625 42.6556 108.723Z" fill="#263238"/>
<path d="M42.6454 110.681V111.312C42.647 111.351 42.6384 111.39 42.6203 111.424C42.6023 111.459 42.5755 111.488 42.5425 111.509C42.5096 111.53 42.4717 111.543 42.4326 111.544C42.3936 111.546 42.3547 111.538 42.3199 111.52L41.2314 111.088C41.142 111.049 41.0657 110.985 41.0116 110.904C40.9574 110.823 40.9278 110.728 40.9262 110.63V109.984C40.9236 109.945 40.9316 109.905 40.9492 109.87C40.9669 109.834 40.9936 109.804 41.0267 109.782C41.0598 109.761 41.0981 109.748 41.1376 109.746C41.1771 109.744 41.2165 109.752 41.2517 109.77L42.3504 110.218C42.4387 110.259 42.5134 110.324 42.5657 110.406C42.618 110.488 42.6456 110.584 42.6454 110.681Z" fill="#263238"/>
<path d="M40.2345 103.718V104.374C40.2368 104.413 40.2285 104.452 40.2105 104.487C40.1924 104.522 40.1653 104.551 40.132 104.572C40.0987 104.593 40.0605 104.604 40.0212 104.605C39.9819 104.606 39.9432 104.596 39.9089 104.577L38.8357 104.13C38.7457 104.089 38.6694 104.023 38.6161 103.94C38.5628 103.857 38.5348 103.76 38.5356 103.662V102.99C38.5327 102.952 38.5403 102.913 38.5574 102.879C38.5745 102.845 38.6005 102.816 38.6328 102.795C38.6651 102.774 38.7024 102.762 38.7408 102.761C38.7792 102.759 38.8172 102.768 38.851 102.787L39.9395 103.25C40.0285 103.291 40.1038 103.357 40.1561 103.44C40.2085 103.523 40.2357 103.619 40.2345 103.718Z" fill="#263238"/>
<path d="M40.2446 105.605V106.261C40.2481 106.3 40.2408 106.339 40.2234 106.374C40.2061 106.409 40.1794 106.439 40.1464 106.46C40.1133 106.481 40.075 106.493 40.0359 106.493C39.9967 106.494 39.958 106.484 39.9242 106.464L38.8509 106.017C38.76 105.977 38.6826 105.911 38.6284 105.828C38.5741 105.745 38.5454 105.648 38.5458 105.549V104.877C38.5423 104.838 38.5496 104.799 38.567 104.764C38.5843 104.729 38.611 104.699 38.644 104.678C38.6771 104.657 38.7154 104.645 38.7545 104.645C38.7937 104.644 38.8324 104.654 38.8662 104.674L39.9547 105.137C40.0428 105.179 40.117 105.245 40.1684 105.328C40.2199 105.411 40.2463 105.507 40.2446 105.605Z" fill="#263238"/>
<path d="M40.2497 107.507V108.163C40.252 108.202 40.2437 108.241 40.2257 108.276C40.2077 108.311 40.1806 108.341 40.1473 108.361C40.114 108.382 40.0757 108.394 40.0365 108.395C39.9972 108.396 39.9584 108.386 39.9242 108.367L38.8509 107.919C38.7622 107.876 38.6868 107.81 38.633 107.728C38.5792 107.645 38.549 107.549 38.5458 107.451V106.78C38.5423 106.741 38.5496 106.701 38.567 106.666C38.5843 106.631 38.611 106.601 38.644 106.58C38.6771 106.559 38.7154 106.548 38.7545 106.547C38.7937 106.546 38.8324 106.556 38.8662 106.576L39.9547 107.039C40.0438 107.08 40.119 107.146 40.1714 107.229C40.2237 107.312 40.2509 107.409 40.2497 107.507Z" fill="#263238"/>
<path d="M40.2547 109.409V110.065C40.2582 110.104 40.2509 110.144 40.2335 110.179C40.2162 110.214 40.1895 110.244 40.1565 110.265C40.1234 110.286 40.0851 110.297 40.046 110.298C40.0068 110.299 39.9681 110.289 39.9343 110.269L38.856 109.821C38.7659 109.781 38.6896 109.715 38.6363 109.632C38.583 109.549 38.5551 109.452 38.5559 109.353V108.682C38.553 108.644 38.5605 108.605 38.5776 108.571C38.5947 108.536 38.6208 108.507 38.6531 108.487C38.6854 108.466 38.7227 108.454 38.761 108.453C38.7994 108.451 38.8375 108.46 38.8712 108.478L39.9597 108.936C40.0473 108.981 40.1211 109.048 40.1731 109.132C40.2251 109.215 40.2533 109.311 40.2547 109.409Z" fill="#263238"/>
<path d="M163.082 189.424L158.387 187.827C157.985 183.331 158.565 172.435 165.874 166.042C173.296 159.551 178.138 163.712 177.995 166.55C177.843 169.648 171.185 172.552 167.823 176.723C164.15 181.26 163.006 184.363 163.082 189.424Z" fill="#E67503"/>
<path opacity="0.5" d="M163.082 189.424L158.387 187.827C157.985 183.331 158.565 172.435 165.874 166.042C173.296 159.551 178.138 163.712 177.995 166.55C177.843 169.648 171.185 172.552 167.823 176.723C164.15 181.26 163.006 184.363 163.082 189.424Z" fill="white"/>
<path d="M159.913 188.595C159.847 188.594 159.783 188.566 159.737 188.519C159.69 188.471 159.664 188.407 159.664 188.341C159.73 176.245 168.713 165.66 173.189 164.974C173.222 164.969 173.256 164.97 173.289 164.978C173.322 164.987 173.353 165.001 173.38 165.021C173.407 165.041 173.43 165.066 173.447 165.095C173.465 165.124 173.476 165.156 173.481 165.19C173.486 165.223 173.485 165.257 173.477 165.29C173.468 165.323 173.454 165.354 173.434 165.381C173.414 165.408 173.389 165.431 173.36 165.448C173.331 165.466 173.299 165.477 173.265 165.482C168.881 166.154 160.234 176.922 160.173 188.346C160.172 188.379 160.165 188.412 160.151 188.443C160.138 188.473 160.119 188.501 160.095 188.524C160.07 188.547 160.042 188.565 160.011 188.578C159.98 188.59 159.947 188.596 159.913 188.595Z" fill="white"/>
<path d="M174.237 178.58C170.167 177.242 161.317 181.693 159.603 188.244L163.082 189.419C165.892 187.123 169.293 185.669 172.894 185.223C178.626 184.648 178.29 179.918 174.237 178.58Z" fill="#E67503"/>
<path opacity="0.65" d="M174.237 178.58C170.167 177.242 161.317 181.693 159.603 188.244L163.082 189.419C165.892 187.123 169.293 185.669 172.894 185.223C178.626 184.648 178.29 179.918 174.237 178.58Z" fill="white"/>
<path d="M161.19 189.129C161.149 189.13 161.109 189.122 161.073 189.104C161.013 189.071 160.969 189.017 160.949 188.952C160.929 188.888 160.935 188.818 160.966 188.758C164.45 182.028 172.014 180.04 175.091 180.864C175.123 180.872 175.154 180.887 175.18 180.907C175.207 180.927 175.229 180.952 175.246 180.981C175.262 181.01 175.273 181.042 175.277 181.075C175.281 181.108 175.278 181.142 175.269 181.174C175.251 181.239 175.209 181.294 175.151 181.328C175.093 181.362 175.024 181.373 174.959 181.357C172.019 180.569 164.786 182.501 161.419 188.987C161.398 189.03 161.366 189.066 161.325 189.092C161.285 189.117 161.238 189.13 161.19 189.129Z" fill="white"/>
<path d="M157.263 114.033V189.251C157.286 189.502 157.375 189.741 157.522 189.945C157.668 190.149 157.867 190.31 158.097 190.411C158.72 190.729 159.41 190.895 160.109 190.895C160.808 190.895 161.498 190.729 162.121 190.411C162.35 190.309 162.548 190.148 162.695 189.944C162.842 189.74 162.931 189.501 162.955 189.251V114.033H157.263Z" fill="#455A64"/>
<path d="M157.263 128.133L162.955 124.847V114.033H157.263V128.133Z" fill="#37474F"/>
<path d="M149.313 126.922L188.57 104.257V33.9977L149.313 56.6629V126.922Z" fill="#E67503"/>
<path d="M188.57 33.9978L170.905 23.7994L131.648 46.4646L149.313 56.6629L188.57 33.9978Z" fill="#E67503"/>
<path opacity="0.2" d="M188.57 33.9978L170.905 23.7994L131.648 46.4646L149.313 56.6629L188.57 33.9978Z" fill="white"/>
<path d="M131.648 46.4646V116.724L149.313 126.922V56.6629L131.648 46.4646Z" fill="#E67503"/>
<path opacity="0.2" d="M131.648 46.4646V116.724L149.313 126.922V56.6629L131.648 46.4646Z" fill="black"/>
<path d="M152.284 57.2275C152.823 56.9173 153.265 57.1716 153.265 57.7972C153.246 58.1376 153.148 58.4687 152.977 58.7638C152.807 59.059 152.569 59.3098 152.284 59.4961C151.739 59.8115 151.302 59.5571 151.302 58.9315C151.32 58.5904 151.419 58.2584 151.589 57.9624C151.76 57.6663 151.998 57.4146 152.284 57.2275Z" fill="#37474F"/>
<path d="M152.284 120.696C152.823 120.381 153.265 120.635 153.265 121.261C153.246 121.601 153.148 121.932 152.977 122.227C152.807 122.522 152.569 122.773 152.284 122.96C151.739 123.275 151.302 123.021 151.302 122.395C151.32 122.054 151.418 121.723 151.588 121.427C151.759 121.132 151.997 120.882 152.284 120.696Z" fill="#37474F"/>
<path d="M185.625 37.9652C186.169 37.6498 186.607 37.9041 186.607 38.5298C186.589 38.8704 186.491 39.202 186.32 39.4973C186.15 39.7926 185.911 40.0433 185.625 40.2287C185.086 40.544 184.648 40.2897 184.648 39.6641C184.666 39.3241 184.764 38.9931 184.934 38.6979C185.103 38.4028 185.34 38.1517 185.625 37.9652Z" fill="#37474F"/>
<path d="M185.625 101.429C186.169 101.113 186.607 101.368 186.607 101.993C186.589 102.334 186.491 102.665 186.32 102.961C186.15 103.256 185.911 103.507 185.625 103.692C185.086 104.008 184.648 103.753 184.648 103.128C184.666 102.788 184.764 102.457 184.934 102.161C185.103 101.866 185.34 101.615 185.625 101.429Z" fill="#37474F"/>
<path d="M188.57 33.9978V83.8601L210.162 71.3933V1.13428L170.905 23.7995L188.57 33.9978Z" fill="#E67503"/>
<path d="M210.162 1.13428L170.905 23.7995L168.942 22.6652L208.199 0L210.162 1.13428Z" fill="#E67503"/>
<path opacity="0.2" d="M210.162 1.13428L170.905 23.7995L168.942 22.6652L208.199 0L210.162 1.13428Z" fill="white"/>
<path d="M168.942 24.9338V22.6652L170.905 23.7995L168.942 24.9338Z" fill="#E67503"/>
<path opacity="0.2" d="M168.942 24.9338V22.6652L170.905 23.7995L168.942 24.9338Z" fill="black"/>
<path opacity="0.2" d="M170.905 23.7994L196.185 30.7373V79.4654L188.57 83.8601V33.9978L170.905 23.7994Z" fill="black"/>
</svg>
