<svg width="98" height="61" viewBox="0 0 98 61" fill="none" xmlns="http://www.w3.org/2000/svg">
<path d="M91.5691 58.4778H83.3281V62.4354H91.5691V58.4778Z" fill="#263238" stroke="#263238" stroke-width="0.310182" stroke-linecap="round" stroke-linejoin="round"/>
<path d="M91.5648 58.4778H88.7148V62.4354H91.5648V58.4778Z" fill="white" stroke="#263238" stroke-width="0.310182" stroke-linecap="round" stroke-linejoin="round"/>
<path d="M80.1743 64.4441V56.458H55.4399V86.8271H71.7067H80.1743H96.4411V64.4441H80.1743Z" fill="#0286FF" stroke="#263238" stroke-width="0.310182" stroke-linecap="round" stroke-linejoin="round"/>
<path d="M80.166 56.676H63.8794V61.2909H80.166V56.676Z" fill="#263238" stroke="#263238" stroke-width="0.310182" stroke-linecap="round" stroke-linejoin="round"/>
<path d="M81.2041 55.5656H52.6226V60.1804H81.2041V55.5656Z" fill="white" stroke="#263238" stroke-width="0.310182" stroke-linecap="round" stroke-linejoin="round"/>
<path d="M73.2446 55.6505V57.4749" stroke="#263238" stroke-width="0.232636" stroke-linecap="round" stroke-linejoin="round"/>
<path d="M73.9814 55.6505V57.4749" stroke="#263238" stroke-width="0.232636" stroke-linecap="round" stroke-linejoin="round"/>
<path d="M73.9814 57.9678V59.3644" stroke="#263238" stroke-width="0.232636" stroke-linecap="round" stroke-linejoin="round"/>
<path d="M74.7207 55.6505V57.4749" stroke="#263238" stroke-width="0.232636" stroke-linecap="round" stroke-linejoin="round"/>
<path d="M74.7207 58.0471V59.3418" stroke="#263238" stroke-width="0.232636" stroke-linecap="round" stroke-linejoin="round"/>
<path d="M75.4067 58.0471V58.863" stroke="#263238" stroke-width="0.232636" stroke-linecap="round" stroke-linejoin="round"/>
<path d="M75.4585 55.6505V57.4749" stroke="#263238" stroke-width="0.232636" stroke-linecap="round" stroke-linejoin="round"/>
<path d="M76.2935 57.0132V57.475" stroke="#263238" stroke-width="0.232636" stroke-linecap="round" stroke-linejoin="round"/>
<path d="M76.3418 55.6505V56.6874" stroke="#263238" stroke-width="0.232636" stroke-linecap="round" stroke-linejoin="round"/>
<path d="M73.2446 57.8433V58.9254" stroke="#263238" stroke-width="0.232636" stroke-linecap="round" stroke-linejoin="round"/>
<path d="M14.4516 53.7043H8.05762V59.3816H14.4516V53.7043Z" fill="#0286FF" stroke="#263238" stroke-width="0.310182" stroke-linecap="round" stroke-linejoin="round"/>
<path d="M17.3456 53.7043H10.9517V59.3816H17.3456V53.7043Z" fill="#263238" stroke="#263238" stroke-width="0.310182" stroke-linecap="round" stroke-linejoin="round"/>
<path d="M33.6072 58.5232H6.7793V63.1381H33.6072V58.5232Z" fill="#263238"/>
<path d="M26.5758 48.9846H18.7881V56.2539H26.5758V48.9846Z" fill="#263238"/>
<path d="M22.6836 44.874L17.9668 49.1291H27.4005L22.6836 44.874Z" fill="#0286FF" stroke="#263238" stroke-width="0.310182" stroke-linecap="round" stroke-linejoin="round"/>
<path d="M27.4 49.1291L22.6832 44.874L20.1108 49.1291H27.4Z" fill="#263238"/>
<path d="M19.5868 55.1123H19.04V59.4949H19.5868V55.1123Z" fill="#263238"/>
<path d="M26.1591 55.1123H25.6123V59.4949H26.1591V55.1123Z" fill="#263238"/>
<path d="M22.5624 55.1123H22.0156V59.4949H22.5624V55.1123Z" fill="#263238"/>
<path d="M23.5775 55.1123H23.0308V59.4949H23.5775V55.1123Z" fill="#263238"/>
<path d="M72.484 14.4312H29.5225V86.8269H72.484V14.4312Z" fill="#263238" stroke="#263238" stroke-width="0.310182" stroke-linecap="round" stroke-linejoin="round"/>
<path d="M72.4848 14.4312H47.7476V86.8269H72.4848V14.4312Z" fill="white" stroke="#263238" stroke-width="0.310182" stroke-linecap="round" stroke-linejoin="round"/>
<path d="M69.6117 14.4312H50.6196V86.8269H69.6117V14.4312Z" fill="#0286FF" stroke="#263238" stroke-width="0.310182" stroke-linecap="round" stroke-linejoin="round"/>
<path d="M72.4848 14.4312H47.7476V19.3888H72.4848V14.4312Z" fill="#263238" stroke="#263238" stroke-width="0.310182" stroke-linecap="round" stroke-linejoin="round"/>
<path d="M37.8313 22.5533H32.3779V27.5053H37.8313V22.5533Z" fill="white"/>
<g style="mix-blend-mode:multiply" opacity="0.6">
<g style="mix-blend-mode:multiply" opacity="0.6">
<path d="M37.8313 22.8848V22.5533H37.0324L32.3779 26.3325V27.3127" fill="#0286FF"/>
</g>
<g style="mix-blend-mode:multiply" opacity="0.6">
<path d="M37.831 24.9444V23.9642L33.4683 27.5054H34.6751" fill="#0286FF"/>
</g>
</g>
<path d="M37.8313 22.5533H32.3779V27.5053H37.8313V22.5533Z" stroke="#263238" stroke-width="0.310182" stroke-linecap="round" stroke-linejoin="round"/>
<path d="M37.8313 21.1255H32.3779V23.2785H37.8313V21.1255Z" fill="white" stroke="#263238" stroke-width="0.310182" stroke-linecap="round" stroke-linejoin="round"/>
<path d="M45.6277 22.5533H40.1743V27.5053H45.6277V22.5533Z" fill="white"/>
<g style="mix-blend-mode:multiply" opacity="0.6">
<g style="mix-blend-mode:multiply" opacity="0.6">
<path d="M40.1743 26.3325V27.3127L45.6277 22.8848V22.5533H44.8288" fill="#0286FF"/>
</g>
<g style="mix-blend-mode:multiply" opacity="0.6">
<path d="M45.6264 24.9444V23.9642L41.2637 27.5054H42.4705" fill="#0286FF"/>
</g>
</g>
<path d="M45.6277 22.5533H40.1743V27.5053H45.6277V22.5533Z" stroke="#263238" stroke-width="0.310182" stroke-linecap="round" stroke-linejoin="round"/>
<path d="M45.6277 21.1255H40.1743V23.2785H45.6277V21.1255Z" fill="white" stroke="#263238" stroke-width="0.310182" stroke-linecap="round" stroke-linejoin="round"/>
<path d="M37.8313 32.0607H32.3779V37.0126H37.8313V32.0607Z" fill="white"/>
<g style="mix-blend-mode:multiply" opacity="0.6">
<g style="mix-blend-mode:multiply" opacity="0.6">
<path d="M32.3779 35.8426V36.82L37.8313 32.3921V32.0607H37.0324" fill="#0286FF"/>
</g>
<g style="mix-blend-mode:multiply" opacity="0.6">
<path d="M37.831 34.4516V33.4714L33.4683 37.0126H34.6751" fill="#0286FF"/>
</g>
</g>
<path d="M37.8313 32.0607H32.3779V37.0126H37.8313V32.0607Z" stroke="#263238" stroke-width="0.310182" stroke-linecap="round" stroke-linejoin="round"/>
<path d="M37.8313 30.6329H32.3779V32.786H37.8313V30.6329Z" fill="white" stroke="#263238" stroke-width="0.310182" stroke-linecap="round" stroke-linejoin="round"/>
<path d="M45.6277 32.0607H40.1743V37.0126H45.6277V32.0607Z" fill="white"/>
<g style="mix-blend-mode:multiply" opacity="0.6">
<g style="mix-blend-mode:multiply" opacity="0.6">
<path d="M45.6277 32.3921V32.0607H44.8288L40.1743 35.8426V36.82" fill="#0286FF"/>
</g>
<g style="mix-blend-mode:multiply" opacity="0.6">
<path d="M41.2637 37.0126H42.4705L45.6264 34.4516V33.4714" fill="#0286FF"/>
</g>
</g>
<path d="M45.6277 32.0607H40.1743V37.0126H45.6277V32.0607Z" stroke="#263238" stroke-width="0.310182" stroke-linecap="round" stroke-linejoin="round"/>
<path d="M45.6277 30.6329H40.1743V32.786H45.6277V30.6329Z" fill="white" stroke="#263238" stroke-width="0.310182" stroke-linecap="round" stroke-linejoin="round"/>
<path d="M37.8313 41.568H32.3779V46.52H37.8313V41.568Z" fill="white"/>
<g style="mix-blend-mode:multiply" opacity="0.6">
<g style="mix-blend-mode:multiply" opacity="0.6">
<path d="M32.3779 45.35V46.3302L37.8313 41.8994V41.568H37.0324" fill="#0286FF"/>
</g>
<g style="mix-blend-mode:multiply" opacity="0.6">
<path d="M37.831 43.959V42.9788L33.4683 46.5199H34.6751" fill="#0286FF"/>
</g>
</g>
<path d="M37.8313 41.568H32.3779V46.52H37.8313V41.568Z" stroke="#263238" stroke-width="0.310182" stroke-linecap="round" stroke-linejoin="round"/>
<path d="M37.8313 40.1431H32.3779V42.2961H37.8313V40.1431Z" fill="white" stroke="#263238" stroke-width="0.310182" stroke-linecap="round" stroke-linejoin="round"/>
<path d="M45.6277 41.568H40.1743V46.52H45.6277V41.568Z" fill="white"/>
<g style="mix-blend-mode:multiply" opacity="0.6">
<g style="mix-blend-mode:multiply" opacity="0.6">
<path d="M40.1743 45.35V46.3302L45.6277 41.8994V41.568H44.8288" fill="#0286FF"/>
</g>
<g style="mix-blend-mode:multiply" opacity="0.6">
<path d="M41.2637 46.5199H42.4705L45.6264 43.959V42.9788" fill="#0286FF"/>
</g>
</g>
<path d="M45.6277 41.568H40.1743V46.52H45.6277V41.568Z" stroke="#263238" stroke-width="0.310182" stroke-linecap="round" stroke-linejoin="round"/>
<path d="M45.6277 40.1431H40.1743V42.2961H45.6277V40.1431Z" fill="white" stroke="#263238" stroke-width="0.310182" stroke-linecap="round" stroke-linejoin="round"/>
<path d="M37.8313 51.0754H32.3779V56.0274H37.8313V51.0754Z" fill="white"/>
<g style="mix-blend-mode:multiply" opacity="0.6">
<g style="mix-blend-mode:multiply" opacity="0.6">
<path d="M37.0324 51.0754L32.3779 54.8574V55.8376L37.8313 51.4069V51.0754H37.0324Z" fill="#0286FF"/>
</g>
<g style="mix-blend-mode:multiply" opacity="0.6">
<path d="M34.6751 56.0301L37.831 53.4663V52.4861L33.4683 56.0301H34.6751Z" fill="#0286FF"/>
</g>
</g>
<path d="M37.8313 51.0754H32.3779V56.0274H37.8313V51.0754Z" stroke="#263238" stroke-width="0.310182" stroke-linecap="round" stroke-linejoin="round"/>
<path d="M37.8313 49.6504H32.3779V51.8034H37.8313V49.6504Z" fill="white" stroke="#263238" stroke-width="0.310182" stroke-linecap="round" stroke-linejoin="round"/>
<path d="M45.6277 51.0754H40.1743V56.0274H45.6277V51.0754Z" fill="white"/>
<g style="mix-blend-mode:multiply" opacity="0.6">
<g style="mix-blend-mode:multiply" opacity="0.6">
<path d="M40.1743 54.8574V55.8376L45.6277 51.4069V51.0754H44.8288" fill="#0286FF"/>
</g>
<g style="mix-blend-mode:multiply" opacity="0.6">
<path d="M41.2637 56.0301H42.4705L45.6264 53.4663V52.4861" fill="#0286FF"/>
</g>
</g>
<path d="M45.6277 51.0754H40.1743V56.0274H45.6277V51.0754Z" stroke="#263238" stroke-width="0.310182" stroke-linecap="round" stroke-linejoin="round"/>
<path d="M45.6277 49.6504H40.1743V51.8034H45.6277V49.6504Z" fill="white" stroke="#263238" stroke-width="0.310182" stroke-linecap="round" stroke-linejoin="round"/>
<path d="M37.8313 60.5828H32.3779V65.5347H37.8313V60.5828Z" fill="white"/>
<g style="mix-blend-mode:multiply" opacity="0.6">
<g style="mix-blend-mode:multiply" opacity="0.6">
<path d="M37.0324 60.5828L32.3779 64.3647V65.3449L37.8313 60.9142V60.5828H37.0324Z" fill="#0286FF"/>
</g>
</g>
<path d="M37.8313 60.5828H32.3779V65.5347H37.8313V60.5828Z" stroke="#263238" stroke-width="0.310182" stroke-linecap="round" stroke-linejoin="round"/>
<path d="M37.8313 59.1577H32.3779V61.3108H37.8313V59.1577Z" fill="white" stroke="#263238" stroke-width="0.310182" stroke-linecap="round" stroke-linejoin="round"/>
<path d="M45.6277 60.5828H40.1743V65.5347H45.6277V60.5828Z" fill="white"/>
<g style="mix-blend-mode:multiply" opacity="0.6">
<g style="mix-blend-mode:multiply" opacity="0.6">
<path d="M44.8288 60.5828L40.1743 64.3647V65.3449L45.6277 60.9142V60.5828H44.8288Z" fill="#0286FF"/>
</g>
</g>
<path d="M45.6277 60.5828H40.1743V65.5347H45.6277V60.5828Z" stroke="#263238" stroke-width="0.310182" stroke-linecap="round" stroke-linejoin="round"/>
<path d="M45.6277 59.1577H40.1743V61.3108H45.6277V59.1577Z" fill="white" stroke="#263238" stroke-width="0.310182" stroke-linecap="round" stroke-linejoin="round"/>
<path d="M55.1971 22.5533H49.7437V27.5053H55.1971V22.5533Z" fill="white"/>
<g style="mix-blend-mode:multiply" opacity="0.6">
<g style="mix-blend-mode:multiply" opacity="0.6">
<path d="M49.7437 26.3325V27.3127L55.1971 22.8848V22.5533H54.3982" fill="#0286FF"/>
</g>
<g style="mix-blend-mode:multiply" opacity="0.6">
<path d="M55.1973 24.9444V23.9642L50.8374 27.5054H52.0442" fill="#0286FF"/>
</g>
</g>
<path d="M55.1971 22.5533H49.7437V27.5053H55.1971V22.5533Z" stroke="#263238" stroke-width="0.310182" stroke-linecap="round" stroke-linejoin="round"/>
<path d="M55.1971 21.1255H49.7437V23.2785H55.1971V21.1255Z" fill="white" stroke="#263238" stroke-width="0.310182" stroke-linecap="round" stroke-linejoin="round"/>
<path d="M62.9939 22.5533H57.5405V27.5053H62.9939V22.5533Z" fill="white"/>
<g style="mix-blend-mode:multiply" opacity="0.6">
<g style="mix-blend-mode:multiply" opacity="0.6">
<path d="M62.9939 22.8848V22.5533H62.195L57.5405 26.3325V27.3127" fill="#0286FF"/>
</g>
<g style="mix-blend-mode:multiply" opacity="0.6">
<path d="M62.9942 24.9444V23.9642L58.6343 27.5054H59.8411" fill="#0286FF"/>
</g>
</g>
<path d="M62.9939 22.5533H57.5405V27.5053H62.9939V22.5533Z" stroke="#263238" stroke-width="0.310182" stroke-linecap="round" stroke-linejoin="round"/>
<path d="M62.9939 21.1255H57.5405V23.2785H62.9939V21.1255Z" fill="white" stroke="#263238" stroke-width="0.310182" stroke-linecap="round" stroke-linejoin="round"/>
<path d="M70.7898 22.5533H65.3364V27.5053H70.7898V22.5533Z" fill="white"/>
<g style="mix-blend-mode:multiply" opacity="0.6">
<g style="mix-blend-mode:multiply" opacity="0.6">
<path d="M65.3364 26.3325V27.3127L70.7898 22.8848V22.5533H69.9909" fill="#0286FF"/>
</g>
<g style="mix-blend-mode:multiply" opacity="0.6">
<path d="M66.4297 27.5054H67.6365L70.7896 24.9444V23.9642" fill="#0286FF"/>
</g>
</g>
<path d="M70.7898 22.5533H65.3364V27.5053H70.7898V22.5533Z" stroke="#263238" stroke-width="0.310182" stroke-linecap="round" stroke-linejoin="round"/>
<path d="M70.7898 21.1255H65.3364V23.2785H70.7898V21.1255Z" fill="white" stroke="#263238" stroke-width="0.310182" stroke-linecap="round" stroke-linejoin="round"/>
<path d="M55.1971 32.0607H49.7437V37.0126H55.1971V32.0607Z" fill="white"/>
<g style="mix-blend-mode:multiply" opacity="0.6">
<g style="mix-blend-mode:multiply" opacity="0.6">
<path d="M49.7437 35.8426V36.82L55.1971 32.3921V32.0607H54.3982" fill="#0286FF"/>
</g>
<g style="mix-blend-mode:multiply" opacity="0.6">
<path d="M50.8374 37.0126H52.0442L55.1973 34.4516V33.4714" fill="#0286FF"/>
</g>
</g>
<path d="M55.1971 32.0607H49.7437V37.0126H55.1971V32.0607Z" stroke="#263238" stroke-width="0.310182" stroke-linecap="round" stroke-linejoin="round"/>
<path d="M55.1971 30.6329H49.7437V32.786H55.1971V30.6329Z" fill="white" stroke="#263238" stroke-width="0.310182" stroke-linecap="round" stroke-linejoin="round"/>
<path d="M62.9939 32.0607H57.5405V37.0126H62.9939V32.0607Z" fill="white"/>
<g style="mix-blend-mode:multiply" opacity="0.6">
<g style="mix-blend-mode:multiply" opacity="0.6">
<path d="M57.5405 35.8426V36.82L62.9939 32.3921V32.0607H62.195" fill="#0286FF"/>
</g>
<g style="mix-blend-mode:multiply" opacity="0.6">
<path d="M58.6343 37.0126H59.8411L62.9942 34.4516V33.4714" fill="#0286FF"/>
</g>
</g>
<path d="M62.9939 32.0607H57.5405V37.0126H62.9939V32.0607Z" stroke="#263238" stroke-width="0.310182" stroke-linecap="round" stroke-linejoin="round"/>
<path d="M62.9939 30.6329H57.5405V32.786H62.9939V30.6329Z" fill="white" stroke="#263238" stroke-width="0.310182" stroke-linecap="round" stroke-linejoin="round"/>
<path d="M70.7898 32.0607H65.3364V37.0126H70.7898V32.0607Z" fill="white"/>
<g style="mix-blend-mode:multiply" opacity="0.6">
<g style="mix-blend-mode:multiply" opacity="0.6">
<path d="M65.3364 35.8426V36.82L70.7898 32.3921V32.0607H69.9909" fill="#0286FF"/>
</g>
<g style="mix-blend-mode:multiply" opacity="0.6">
<path d="M70.7896 34.4516V33.4714L66.4297 37.0126H67.6365" fill="#0286FF"/>
</g>
</g>
<path d="M70.7898 32.0607H65.3364V37.0126H70.7898V32.0607Z" stroke="#263238" stroke-width="0.310182" stroke-linecap="round" stroke-linejoin="round"/>
<path d="M70.7898 30.6329H65.3364V32.786H70.7898V30.6329Z" fill="white" stroke="#263238" stroke-width="0.310182" stroke-linecap="round" stroke-linejoin="round"/>
<path d="M55.1971 41.568H49.7437V46.52H55.1971V41.568Z" fill="white"/>
<g style="mix-blend-mode:multiply" opacity="0.6">
<g style="mix-blend-mode:multiply" opacity="0.6">
<path d="M49.7437 45.35V46.3302L55.1971 41.8994V41.568H54.3982" fill="#0286FF"/>
</g>
<g style="mix-blend-mode:multiply" opacity="0.6">
<path d="M55.1973 43.959V42.9788L50.8374 46.5199H52.0442" fill="#0286FF"/>
</g>
</g>
<path d="M55.1971 41.568H49.7437V46.52H55.1971V41.568Z" stroke="#263238" stroke-width="0.310182" stroke-linecap="round" stroke-linejoin="round"/>
<path d="M55.1971 40.1431H49.7437V42.2961H55.1971V40.1431Z" fill="white" stroke="#263238" stroke-width="0.310182" stroke-linecap="round" stroke-linejoin="round"/>
<path d="M62.9939 41.568H57.5405V46.52H62.9939V41.568Z" fill="white"/>
<g style="mix-blend-mode:multiply" opacity="0.6">
<g style="mix-blend-mode:multiply" opacity="0.6">
<path d="M57.5405 45.35V46.3302L62.9939 41.8994V41.568H62.195" fill="#0286FF"/>
</g>
<g style="mix-blend-mode:multiply" opacity="0.6">
<path d="M62.9942 43.959V42.9788L58.6343 46.5199H59.8411" fill="#0286FF"/>
</g>
</g>
<path d="M62.9939 41.568H57.5405V46.52H62.9939V41.568Z" stroke="#263238" stroke-width="0.310182" stroke-linecap="round" stroke-linejoin="round"/>
<path d="M62.9939 40.1431H57.5405V42.2961H62.9939V40.1431Z" fill="white" stroke="#263238" stroke-width="0.310182" stroke-linecap="round" stroke-linejoin="round"/>
<path d="M70.7898 41.568H65.3364V46.52H70.7898V41.568Z" fill="white"/>
<g style="mix-blend-mode:multiply" opacity="0.6">
<g style="mix-blend-mode:multiply" opacity="0.6">
<path d="M65.3364 45.35V46.3302L70.7898 41.8994V41.568H69.9909" fill="#0286FF"/>
</g>
<g style="mix-blend-mode:multiply" opacity="0.6">
<path d="M66.4297 46.5199H67.6365L70.7896 43.959V42.9788" fill="#0286FF"/>
</g>
</g>
<path d="M70.7898 41.568H65.3364V46.52H70.7898V41.568Z" stroke="#263238" stroke-width="0.310182" stroke-linecap="round" stroke-linejoin="round"/>
<path d="M70.7898 40.1431H65.3364V42.2961H70.7898V40.1431Z" fill="white" stroke="#263238" stroke-width="0.310182" stroke-linecap="round" stroke-linejoin="round"/>
<path d="M55.1971 51.0754H49.7437V56.0274H55.1971V51.0754Z" fill="white"/>
<g style="mix-blend-mode:multiply" opacity="0.6">
<g style="mix-blend-mode:multiply" opacity="0.6">
<path d="M54.3982 51.0754L49.7437 54.8574V55.8376L55.1971 51.4069V51.0754H54.3982Z" fill="#0286FF"/>
</g>
<g style="mix-blend-mode:multiply" opacity="0.6">
<path d="M52.0442 56.0301L55.1973 53.4663V52.4861L50.8374 56.0301H52.0442Z" fill="#0286FF"/>
</g>
</g>
<path d="M55.1971 51.0754H49.7437V56.0274H55.1971V51.0754Z" stroke="#263238" stroke-width="0.310182" stroke-linecap="round" stroke-linejoin="round"/>
<path d="M55.1971 49.6504H49.7437V51.8034H55.1971V49.6504Z" fill="white" stroke="#263238" stroke-width="0.310182" stroke-linecap="round" stroke-linejoin="round"/>
<path d="M62.9939 51.0754H57.5405V56.0274H62.9939V51.0754Z" fill="white"/>
<g style="mix-blend-mode:multiply" opacity="0.6">
<g style="mix-blend-mode:multiply" opacity="0.6">
<path d="M57.5405 54.8574V55.8376L62.9939 51.4069V51.0754H62.195" fill="#0286FF"/>
</g>
<g style="mix-blend-mode:multiply" opacity="0.6">
<path d="M62.9942 53.4663V52.4861L58.6343 56.0301H59.8411" fill="#0286FF"/>
</g>
</g>
<path d="M62.9939 51.0754H57.5405V56.0274H62.9939V51.0754Z" stroke="#263238" stroke-width="0.310182" stroke-linecap="round" stroke-linejoin="round"/>
<path d="M62.9939 49.6504H57.5405V51.8034H62.9939V49.6504Z" fill="white" stroke="#263238" stroke-width="0.310182" stroke-linecap="round" stroke-linejoin="round"/>
<path d="M70.7898 51.0754H65.3364V56.0274H70.7898V51.0754Z" fill="white"/>
<g style="mix-blend-mode:multiply" opacity="0.6">
<g style="mix-blend-mode:multiply" opacity="0.6">
<path d="M65.3364 54.8574V55.8376L70.7898 51.4069V51.0754H69.9909" fill="#0286FF"/>
</g>
<g style="mix-blend-mode:multiply" opacity="0.6">
<path d="M66.4297 56.0301H67.6365L70.7896 53.4663V52.4861" fill="#0286FF"/>
</g>
</g>
<path d="M70.7898 51.0754H65.3364V56.0274H70.7898V51.0754Z" stroke="#263238" stroke-width="0.310182" stroke-linecap="round" stroke-linejoin="round"/>
<path d="M70.7898 49.6504H65.3364V51.8034H70.7898V49.6504Z" fill="white" stroke="#263238" stroke-width="0.310182" stroke-linecap="round" stroke-linejoin="round"/>
<path d="M55.1971 60.5828H49.7437V65.5347H55.1971V60.5828Z" fill="white"/>
<g style="mix-blend-mode:multiply" opacity="0.6">
<g style="mix-blend-mode:multiply" opacity="0.6">
<path d="M54.3982 60.5828L49.7437 64.3647V65.3449L55.1971 60.9142V60.5828H54.3982Z" fill="#0286FF"/>
</g>
</g>
<path d="M55.1971 60.5828H49.7437V65.5347H55.1971V60.5828Z" stroke="#263238" stroke-width="0.310182" stroke-linecap="round" stroke-linejoin="round"/>
<path d="M55.1971 59.1577H49.7437V61.3108H55.1971V59.1577Z" fill="white" stroke="#263238" stroke-width="0.310182" stroke-linecap="round" stroke-linejoin="round"/>
<path d="M62.9939 60.5828H57.5405V65.5347H62.9939V60.5828Z" fill="white"/>
<g style="mix-blend-mode:multiply" opacity="0.6">
<g style="mix-blend-mode:multiply" opacity="0.6">
<path d="M62.195 60.5828L57.5405 64.3647V65.3449L62.9939 60.9142V60.5828H62.195Z" fill="#0286FF"/>
</g>
</g>
<path d="M62.9939 60.5828H57.5405V65.5347H62.9939V60.5828Z" stroke="#263238" stroke-width="0.310182" stroke-linecap="round" stroke-linejoin="round"/>
<path d="M62.9939 59.1577H57.5405V61.3108H62.9939V59.1577Z" fill="white" stroke="#263238" stroke-width="0.310182" stroke-linecap="round" stroke-linejoin="round"/>
<path d="M70.7898 60.5828H65.3364V65.5347H70.7898V60.5828Z" fill="white"/>
<g style="mix-blend-mode:multiply" opacity="0.6">
<g style="mix-blend-mode:multiply" opacity="0.6">
<path d="M70.7898 60.9142V60.5828H69.9909L65.3364 64.3647V65.3449" fill="#0286FF"/>
</g>
</g>
<path d="M70.7898 60.5828H65.3364V65.5347H70.7898V60.5828Z" stroke="#263238" stroke-width="0.310182" stroke-linecap="round" stroke-linejoin="round"/>
<path d="M70.7898 59.1578H65.3364V61.3109H70.7898V59.1578Z" fill="white" stroke="#263238" stroke-width="0.310182" stroke-linecap="round" stroke-linejoin="round"/>
<path d="M41.074 10.7059H29.5015V17.8393H41.074V10.7059Z" fill="#263238" stroke="#263238" stroke-width="0.310182" stroke-linecap="round" stroke-linejoin="round"/>
<path d="M41.0756 10.7059H37.0698V17.8393H41.0756V10.7059Z" fill="white" stroke="#263238" stroke-width="0.310182" stroke-linecap="round" stroke-linejoin="round"/>
<path d="M70.4045 12.4481H65.6479V17.8392H70.4045V12.4481Z" fill="#263238" stroke="#263238" stroke-width="0.310182" stroke-linecap="round" stroke-linejoin="round"/>
<path d="M73.5288 14.4312H28.4766V17.842H73.5288V14.4312Z" fill="#263238" stroke="#263238" stroke-width="0.310182" stroke-linecap="round" stroke-linejoin="round"/>
<path d="M73.5306 14.4312H46.5894V17.842H73.5306V14.4312Z" fill="white" stroke="#263238" stroke-width="0.310182" stroke-linecap="round" stroke-linejoin="round"/>
<path d="M47.7476 14.4312V15.8618" stroke="#263238" stroke-width="0.232636" stroke-linecap="round" stroke-linejoin="round"/>
<path d="M48.4829 14.4312V15.8618" stroke="#263238" stroke-width="0.232636" stroke-linecap="round" stroke-linejoin="round"/>
<path d="M48.4829 16.2471V17.3406" stroke="#263238" stroke-width="0.232636" stroke-linecap="round" stroke-linejoin="round"/>
<path d="M49.2227 14.4312V15.8618" stroke="#263238" stroke-width="0.232636" stroke-linecap="round" stroke-linejoin="round"/>
<path d="M49.2227 16.3096V17.3238" stroke="#263238" stroke-width="0.232636" stroke-linecap="round" stroke-linejoin="round"/>
<path d="M49.9092 16.3096V16.9498" stroke="#263238" stroke-width="0.232636" stroke-linecap="round" stroke-linejoin="round"/>
<path d="M49.9595 14.4312V15.8618" stroke="#263238" stroke-width="0.232636" stroke-linecap="round" stroke-linejoin="round"/>
<path d="M50.7949 15.4993V15.8619" stroke="#263238" stroke-width="0.232636" stroke-linecap="round" stroke-linejoin="round"/>
<path d="M50.8433 14.4312V15.2442" stroke="#263238" stroke-width="0.232636" stroke-linecap="round" stroke-linejoin="round"/>
<path d="M47.7476 16.151V16.9981" stroke="#263238" stroke-width="0.232636" stroke-linecap="round" stroke-linejoin="round"/>
</svg>
