<svg width="42" height="42" viewBox="0 0 42 42" fill="none" xmlns="http://www.w3.org/2000/svg">
<g clip-path="url(#clip0_397_2419)">
<path d="M6.30903 0H21C21.0131 1.42242 20.9729 2.84484 21.0205 4.26645C18.4546 4.2648 15.8878 4.26645 13.3219 4.26562C11.6837 4.26562 10.0456 4.26562 8.40739 4.26562C7.73637 4.26234 7.06454 4.27137 6.39352 4.26234C5.88985 4.25988 5.40751 3.95719 5.17864 3.51094C4.94895 3.08684 5.03672 2.59137 5.02032 2.13117C5.03672 1.69066 4.95387 1.22309 5.15157 0.810469C5.35501 0.355195 5.81602 0.0475781 6.30903 0Z" fill="#EAEAEA"/>
<path d="M20.9996 0H35.8464C36.4018 0.125508 36.8734 0.5775 36.9719 1.14598C37.0195 1.71855 36.9817 2.29687 36.9924 2.87191C37.0072 3.60691 36.3493 4.29598 35.6052 4.26727C34.9252 4.2648 34.2452 4.26562 33.5651 4.26562C31.9425 4.26645 30.3191 4.2648 28.6966 4.26644C26.138 4.2648 23.5795 4.2648 21.0201 4.26644C20.9725 2.84484 21.0127 1.42242 20.9996 0Z" fill="#D8D8D8"/>
<path d="M8.40724 4.26562C10.0454 4.26562 11.6836 4.26562 13.3217 4.26562C13.3226 6.56414 13.3209 8.86348 13.3226 11.162C13.3152 11.6058 13.4924 12.0463 13.8065 12.3596C15.3865 13.9338 16.9754 15.499 18.5545 17.074C17.0927 17.3668 15.6834 17.9205 14.416 18.7064C12.6876 16.969 10.9584 15.2324 9.23002 13.4941C8.69846 12.9716 8.38838 12.2341 8.40068 11.4868C8.40396 9.08004 8.39002 6.67242 8.40724 4.26562Z" fill="#FF3D4A"/>
<path d="M13.3223 4.26562C15.8882 4.26645 18.455 4.2648 21.0209 4.26645C21.0496 7.05387 21.025 9.84129 21.0332 12.6287C21.0242 14.0282 21.0529 15.4284 21.0184 16.8279C20.1924 16.8418 19.3663 16.9124 18.555 17.074C16.9759 15.499 15.387 13.9338 13.8071 12.3596C13.4929 12.0463 13.3157 11.6058 13.3231 11.162C13.3214 8.86348 13.3231 6.56414 13.3223 4.26562Z" fill="#FF3D4A"/>
<path d="M21.0205 4.26637C23.5799 4.26473 26.1385 4.26473 28.697 4.26637C28.6962 6.56406 28.697 8.86258 28.697 11.1603C28.6945 11.5868 28.5551 12.0273 28.2442 12.3292C26.6741 13.91 25.1098 15.4956 23.5364 17.0739C22.7055 16.9279 21.8638 16.8278 21.0181 16.8278C21.0525 15.4284 21.0238 14.0281 21.0328 12.6286C21.0246 9.84121 21.0492 7.05379 21.0205 4.26637Z" fill="#C20020"/>
<path d="M28.6967 4.26645C30.3193 4.2648 31.9427 4.26645 33.5653 4.26562C33.603 6.64453 33.5727 9.02508 33.5809 11.4048C33.6071 12.1972 33.2979 12.9831 32.7433 13.5475C31.0362 15.2685 29.3202 16.9805 27.6139 18.7007C26.3646 17.9246 24.9774 17.3701 23.5361 17.074C25.1095 15.4957 26.6738 13.91 28.2439 12.3293C28.5548 12.0274 28.6943 11.5869 28.6967 11.1604C28.6967 8.86266 28.6959 6.56414 28.6967 4.26645Z" fill="#C20020"/>
<path d="M18.5549 17.0742C19.3662 16.9126 20.1922 16.8421 21.0183 16.8281C20.9707 18.0602 21.024 19.294 20.992 20.5269C19.4482 20.5605 17.9044 20.9404 16.5648 21.7213C14.6445 22.8172 13.163 24.658 12.5116 26.772C11.9095 28.703 11.9834 30.8399 12.7339 32.7192C13.6043 34.9406 15.4147 36.7675 17.6263 37.6624C18.6902 38.107 19.842 38.3088 20.9912 38.3318C21.0101 39.5541 20.9994 40.7771 20.9953 42.0002H20.75C17.6804 41.9404 14.6568 40.7091 12.4239 38.6017C10.6274 36.9266 9.33457 34.7175 8.77184 32.3255C8.17711 29.8219 8.37317 27.1354 9.33539 24.7474C10.3263 22.2594 12.1384 20.1127 14.4164 18.7066C15.6838 17.9208 17.0931 17.3671 18.5549 17.0742Z" fill="#FFA000"/>
<path d="M20.4329 24.7846C20.5117 24.5295 20.7496 24.3752 21.0006 24.3252C21.0022 27.1536 20.9973 29.9812 21.0022 32.8097C20.4502 33.0361 20.0178 33.4618 19.5265 33.7883C19.2172 34.0041 18.9277 34.2485 18.6036 34.4413C18.2271 34.6726 17.6808 34.4528 17.5512 34.0361C17.4749 33.8375 17.538 33.6267 17.5963 33.4339C17.8334 32.7096 18.0803 31.9886 18.3075 31.2609C18.4133 30.9451 18.2853 30.5834 18.013 30.3947C17.4175 29.9484 16.8096 29.5178 16.2083 29.0789C16.0262 28.9477 15.8466 28.7795 15.8096 28.5465C15.7145 28.129 16.0516 27.6713 16.4864 27.668C17.3059 27.6434 18.1278 27.677 18.9482 27.6557C19.2484 27.6581 19.5371 27.4654 19.6348 27.1782C19.9161 26.3858 20.1524 25.577 20.4329 24.7846Z" fill="#FFA000"/>
<path d="M21.0182 16.8281C21.8639 16.8281 22.7056 16.9282 23.5366 17.0742C24.9779 17.3704 26.365 17.9249 27.6143 18.7009C29.3468 19.7755 30.8111 21.2767 31.843 23.0354C33.3582 25.5833 33.8963 28.6743 33.3951 31.5905C32.9496 34.2064 31.638 36.6641 29.7193 38.4975C27.5946 40.5671 24.7145 41.8132 21.7581 42.0002H20.9952C20.9993 40.7771 21.01 39.5541 20.9911 38.3318C19.8419 38.3088 18.6902 38.107 17.6262 37.6624C15.4146 36.7675 13.6042 34.9406 12.7339 32.7192C11.9833 30.8399 11.9095 28.703 12.5116 26.772C13.1629 24.658 14.6444 22.8172 16.5647 21.7213C17.9043 20.9404 19.4481 20.5605 20.992 20.5269C21.0239 19.294 20.9706 18.0602 21.0182 16.8281ZM21.0223 20.5409C20.9698 21.8 21.0141 23.0633 21.001 24.325C20.75 24.375 20.5121 24.5292 20.4333 24.7843C20.1528 25.5768 19.9165 26.3856 19.6352 27.178C19.5375 27.4651 19.2488 27.6579 18.9486 27.6554C18.1282 27.6768 17.3063 27.6431 16.4868 27.6677C16.052 27.671 15.7149 28.1287 15.81 28.5463C15.847 28.7793 16.0266 28.9474 16.2087 29.0787C16.81 29.5175 17.4179 29.9482 18.0134 30.3945C18.2857 30.5831 18.4137 30.9449 18.3079 31.2607C18.0807 31.9883 17.8337 32.7094 17.5967 33.4337C17.5384 33.6265 17.4753 33.8373 17.5516 34.0358C17.6812 34.4525 18.2275 34.6724 18.604 34.4411C18.928 34.2483 19.2176 34.0038 19.5269 33.7881C20.0182 33.4616 20.4505 33.0359 21.0026 32.8095C21.0034 34.6396 20.987 36.4705 21.0108 38.2998C24.1485 38.3876 27.2132 36.5525 28.7349 33.825C29.7841 31.9965 30.1294 29.7882 29.7258 27.7227C29.3354 25.6572 28.1697 23.754 26.5192 22.4546C24.9737 21.2168 23.0001 20.5425 21.0223 20.5409Z" fill="#DF7D00"/>
<path d="M21.0756 24.3274C21.3914 24.3077 21.6752 24.5292 21.7737 24.822C22.0526 25.5931 22.2749 26.3839 22.5554 27.155C22.653 27.4323 22.9164 27.6431 23.215 27.6513C24.0607 27.6898 24.9097 27.6349 25.7563 27.6726C26.2575 27.7087 26.4913 28.374 26.2321 28.7677C26.0639 29.0122 25.7989 29.164 25.5668 29.3403C25.0779 29.698 24.5832 30.0482 24.0984 30.4108C23.8162 30.6052 23.7195 30.9826 23.8327 31.3009C24.0591 32.0244 24.3093 32.7413 24.5439 33.4624C24.6046 33.6609 24.6497 33.8816 24.5636 34.0801C24.4208 34.4443 23.9573 34.665 23.5972 34.4829C23.2502 34.2934 22.9533 34.0268 22.6284 33.8045C22.1207 33.4599 21.6695 33.0178 21.0862 32.7996C21.0428 32.259 21.0739 31.7159 21.0657 31.1737C21.0731 28.8916 21.0534 26.6087 21.0756 24.3274Z" fill="#DF7D00"/>
<path d="M21.022 20.5405C22.9998 20.5422 24.9735 21.2165 26.5189 22.4543C28.1694 23.7537 29.3351 25.6568 29.7255 27.7224C30.1291 29.7879 29.7838 31.9962 28.7346 33.8247C27.2129 36.5522 24.1482 38.3872 21.0105 38.2995C20.9867 36.4702 21.0031 34.6392 21.0023 32.8091C20.9974 29.9807 21.0023 27.1531 21.0007 24.3246C21.0138 23.063 20.9695 21.7997 21.022 20.5405ZM21.0753 24.3271C21.0532 26.6084 21.0729 28.8913 21.0655 31.1734C21.0737 31.7156 21.0425 32.2587 21.086 32.7993C21.6692 33.0175 22.1204 33.4596 22.6282 33.8042C22.953 34.0265 23.25 34.2931 23.597 34.4826C23.9571 34.6647 24.4206 34.444 24.5633 34.0798C24.6494 33.8813 24.6043 33.6606 24.5436 33.4621C24.309 32.741 24.0588 32.0241 23.8324 31.3006C23.7192 30.9823 23.816 30.6049 24.0982 30.4105C24.583 30.0479 25.0776 29.6977 25.5665 29.34C25.7987 29.1637 26.0637 29.0119 26.2318 28.7674C26.491 28.3737 26.2572 27.7084 25.756 27.6723C24.9095 27.6346 24.0605 27.6896 23.2147 27.651C22.9161 27.6428 22.6528 27.432 22.5552 27.1547C22.2746 26.3836 22.0523 25.5928 21.7734 24.8217C21.675 24.5289 21.3912 24.3074 21.0753 24.3271Z" fill="#C46608"/>
</g>
<defs>
<clipPath id="clip0_397_2419">
<rect width="42" height="42" fill="white"/>
</clipPath>
</defs>
</svg>
