<svg width="40" height="40" viewBox="0 0 40 40" fill="none" xmlns="http://www.w3.org/2000/svg">
<g clip-path="url(#clip0_397_2572)">
<g clip-path="url(#clip1_397_2572)">
<path d="M-0.078125 11.2217C2.67891 8.47012 5.42266 5.70371 8.19141 2.96387C9.22187 5.71934 10.2367 8.48184 11.2539 11.2428C7.63281 11.2561 4.01094 11.2451 0.389844 11.2498C0.242187 11.2537 0.0960937 11.2732 -0.0507813 11.292L-0.078125 11.2943V11.2217Z" fill="#00AAF0"/>
<path d="M8.19141 2.96387C12.0984 2.97012 16.0055 2.96309 19.9133 2.96777C17.0375 5.7334 14.1414 8.47793 11.2633 11.2404C17.0375 11.242 22.8117 11.2482 28.5852 11.2381C25.718 19.0303 22.8227 26.8123 19.9594 34.6061C20.0016 34.5709 20.0875 34.499 20.1297 34.4631C20.0648 34.5443 19.9937 34.6193 19.9242 34.6967C19.8984 34.6693 19.8469 34.6146 19.8211 34.5873C19.8063 34.4451 19.7844 34.3045 19.7328 34.1725C16.9016 26.5311 14.0883 18.8826 11.2539 11.2428C10.2367 8.48184 9.22187 5.71934 8.19141 2.96387Z" fill="#00C3FF"/>
<path d="M19.9312 2.96797C23.8319 2.96484 27.7335 2.96562 31.6351 2.96719C30.6132 5.72031 29.5999 8.47656 28.578 11.2305C25.6921 8.47969 22.8069 5.72812 19.9312 2.96797Z" fill="#00C3FF"/>
<path d="M19.9137 2.96777C19.9176 2.96777 19.927 2.96777 19.9316 2.96777C22.8074 5.72793 25.6926 8.47949 28.5785 11.2303C32.359 11.267 36.141 11.2271 39.9223 11.249V11.2639C33.3215 18.9936 26.7285 26.7311 20.1301 34.4631C20.0879 34.499 20.002 34.5709 19.9598 34.6061C22.823 26.8123 25.7184 19.0303 28.5855 11.2381C22.8121 11.2482 17.0379 11.242 11.2637 11.2404C14.1418 8.47793 17.0379 5.7334 19.9137 2.96777Z" fill="#87DAFF"/>
<path d="M31.6356 2.96729L31.6794 2.97119C34.4247 5.72275 37.1778 8.4665 39.9224 11.2188V11.2493C36.1411 11.2274 32.3591 11.2673 28.5786 11.2306C29.6005 8.47666 30.6138 5.72041 31.6356 2.96729Z" fill="#A5E9FF"/>
<path d="M-0.0507812 11.2924C0.0960937 11.2736 0.242188 11.2541 0.389844 11.2502C4.01094 11.2455 7.63281 11.2564 11.2539 11.2432C14.0883 18.883 16.9016 26.5314 19.7328 34.1729C19.7844 34.3049 19.8062 34.4455 19.8211 34.5877C13.1922 26.8268 6.56953 19.0604 -0.0507812 11.2924Z" fill="#0096DC"/>
</g>
</g>
<defs>
<clipPath id="clip0_397_2572">
<rect width="40" height="40" fill="white"/>
</clipPath>
<clipPath id="clip1_397_2572">
<rect width="40" height="40" fill="white" transform="translate(-0.078125 -1.17188)"/>
</clipPath>
</defs>
</svg>
