<svg width="243" height="227" viewBox="0 0 243 227" fill="none" xmlns="http://www.w3.org/2000/svg">
<path d="M192.011 170.962C192.011 170.962 190.032 162.551 191.516 155.124C193.001 147.696 196.464 152.65 200.428 147.696C204.392 142.743 202.407 133.342 206.86 129.378C211.313 125.414 217.751 125.915 219.235 118.488C220.719 111.06 221.714 105.1 224.683 106.113C227.652 107.125 222.209 116.008 222.209 121.462C222.209 126.916 225.178 130.368 223.199 135.816C221.22 141.264 212.803 139.279 212.803 145.711C212.803 152.143 216.266 158.581 213.298 163.04C210.329 167.498 202.407 168.482 201.417 170.956C200.428 173.43 197.925 177.889 195.474 177.889C193.024 177.889 192.011 170.962 192.011 170.962Z" fill="#A606AD"/>
<path d="M190.422 171.043C190.917 169.559 189.927 156.689 185.474 154.215C181.021 151.742 176.068 152.731 173.594 148.272C171.12 143.814 171.114 141.84 168.641 141.346C166.167 140.851 154.287 138.866 155.771 141.346C157.255 143.825 166.167 139.856 166.167 144.809C166.167 149.763 165.177 157.679 168.146 159.658C171.114 161.637 179.037 161.142 178.542 165.601C178.047 170.06 176.563 171.538 179.037 173.028C181.51 174.518 188.443 180.945 189.432 175.997L190.422 171.043Z" fill="#A606AD"/>
<path d="M195.911 181.969C195.911 181.969 193.583 174.757 199.945 161.497C206.307 148.238 210.899 138.15 213.781 132.975" stroke="#263238" stroke-width="0.585" stroke-miterlimit="10"/>
<path d="M190.719 183.121C190.719 183.121 189.857 179.658 186.97 170.147C184.083 160.636 180.631 158.04 175.73 154.867C170.829 151.695 170.544 146.509 169.677 145.065" stroke="#263238" stroke-width="0.585" stroke-miterlimit="10"/>
<path d="M202.826 177.929C202.826 177.929 203.408 172.743 208.018 171.299C212.628 169.856 216.953 170.438 217.82 167.266C218.688 164.093 218.682 160.921 220.702 159.192C222.721 157.463 225.312 156.596 225.603 157.446C225.894 158.296 222.692 158.89 222.692 161.771C222.692 164.652 227.017 171.858 220.678 174.74C214.34 177.621 209.147 175.031 206.842 177.068C204.537 179.105 203.094 180.525 203.094 180.525L202.826 177.929Z" fill="#A606AD"/>
<path d="M202.25 183.121C202.25 183.121 204.27 175.624 209.171 173.896C214.072 172.167 219.526 175.915 221.854 172.452C224.182 168.989 222.436 165.537 222.139 163.232" stroke="#263238" stroke-width="0.585" stroke-miterlimit="10"/>
<path d="M205.492 181.969H187.622C187.433 181.968 187.245 182.005 187.07 182.077C186.895 182.149 186.736 182.254 186.602 182.388C186.468 182.522 186.361 182.68 186.289 182.855C186.216 183.03 186.179 183.217 186.179 183.407V183.407C186.179 183.79 186.331 184.157 186.601 184.427C186.872 184.698 187.239 184.85 187.622 184.85H187.768L189.159 188.5C189.267 188.782 189.459 189.026 189.708 189.197C189.958 189.369 190.253 189.46 190.556 189.46H202.564C202.867 189.46 203.162 189.367 203.411 189.196C203.66 189.025 203.852 188.782 203.961 188.5L205.352 184.85H205.492C205.875 184.85 206.242 184.698 206.513 184.427C206.783 184.157 206.936 183.79 206.936 183.407V183.407C206.936 183.217 206.898 183.03 206.826 182.855C206.753 182.68 206.646 182.522 206.512 182.388C206.378 182.254 206.219 182.149 206.044 182.077C205.869 182.005 205.681 181.968 205.492 181.969V181.969Z" fill="#263238"/>
<path d="M81.1927 166.957C84.827 166.414 88.5282 167.335 91.4839 169.518C96.2395 173.174 99.8542 182.469 101.723 195.485C103.591 208.5 104.633 214.111 115.617 215.962C126.601 217.813 152.922 217.062 168.644 216.696C184.366 216.329 183.639 201.701 170.478 200.24C157.317 198.779 148.202 202.289 134.47 199.251C120.739 196.212 146.694 192.19 166.45 195.118C186.205 198.046 194.972 198.773 205.583 197.679" stroke="#263238" stroke-width="1.17" stroke-linecap="round" stroke-linejoin="round"/>
<path d="M81.1927 147.492C81.1927 147.492 91.8506 147.574 94.7726 158.552C97.6947 169.53 98.7948 184.885 99.1615 196.969C99.5282 209.053 99.8949 219.28 113.789 222.202C127.683 225.124 165.355 224.03 175.594 221.835C185.833 219.641 197.172 209.769 188.761 207.574C180.35 205.38 168.644 207.574 173.045 210.485C177.445 213.395 189.139 212.679 203.033 210.852" stroke="#263238" stroke-width="1.17" stroke-linecap="round" stroke-linejoin="round"/>
<path d="M83.3814 185.671C83.3814 185.671 89.8948 185.089 92.4385 192.464C94.9822 199.839 91.8564 201.521 93.2884 205.2C94.7203 208.878 103.638 205.444 103.597 208.494C103.556 211.276 100.029 212.062 79.7026 210.863C53.125 209.297 35.5404 213.413 36.9548 215.962C38.3693 218.512 59.6035 216.544 54.5045 220.491C49.4055 224.437 36.9548 219.909 27.3272 219.641C17.6997 219.373 16 221.62 16 221.62" stroke="#263238" stroke-width="1.17" stroke-linecap="round" stroke-linejoin="round"/>
<path d="M84.1672 81.6884H20.1735C19.0291 81.6884 18.1013 82.6161 18.1013 83.7606V204.996C18.1013 206.14 19.0291 207.068 20.1735 207.068H84.1672C85.3116 207.068 86.2394 206.14 86.2394 204.996V83.7606C86.2394 82.6161 85.3116 81.6884 84.1672 81.6884Z" fill="#263238" stroke="#263238" stroke-width="0.585" stroke-linecap="round" stroke-linejoin="round"/>
<path d="M84.5805 100.466H19.7311V148.493H84.5805V100.466Z" fill="#616161"/>
<path d="M84.5805 156.299H19.7311V204.326H84.5805V156.299Z" fill="#616161"/>
<path d="M76.5361 162.149H39.7197V199.693H76.5361V162.149Z" fill="#E67503" stroke="#263238" stroke-width="0.585" stroke-linecap="round" stroke-linejoin="round"/>
<path d="M76.5361 105.833H39.7197V115.1H76.5361V105.833Z" fill="#E67503" stroke="#263238" stroke-width="0.585" stroke-linecap="round" stroke-linejoin="round"/>
<path d="M76.5361 123.627H39.7197V132.894H76.5361V123.627Z" fill="#E67503" stroke="#263238" stroke-width="0.585" stroke-linecap="round" stroke-linejoin="round"/>
<path d="M75.3021 101.543L74.592 103.493H41.9782L41.268 101.543H34.3588V110.111H41.268L41.9782 108.161H74.592L75.3021 110.111H83.1253V101.543H75.3021Z" fill="#263238" stroke="#263238" stroke-width="0.585" stroke-linecap="round" stroke-linejoin="round"/>
<path d="M75.3021 110.891L74.592 112.835H41.9782L41.268 110.891H34.3588V119.454H41.268L41.9782 117.509H74.592L75.3021 119.454H83.1253V110.891H75.3021Z" fill="#263238" stroke="#263238" stroke-width="0.585" stroke-linecap="round" stroke-linejoin="round"/>
<path d="M75.3021 120.234L74.592 122.184H41.9782L41.268 120.234H34.3588V128.802H41.268L41.9782 126.852H74.592L75.3021 128.802H83.1253V120.234H75.3021Z" fill="#263238" stroke="#263238" stroke-width="0.585" stroke-linecap="round" stroke-linejoin="round"/>
<path d="M75.3021 129.576L74.592 131.526H41.9782L41.268 129.576H34.3588V138.144H41.268L41.9782 136.2H74.592L75.3021 138.144H83.1253V129.576H75.3021Z" fill="#263238" stroke="#263238" stroke-width="0.585" stroke-linecap="round" stroke-linejoin="round"/>
<path d="M75.3021 138.924L74.592 140.868H41.9782L41.268 138.924H34.3588V147.492H41.268L41.9782 145.542H74.592L75.3021 147.492H83.1253V138.924H75.3021Z" fill="#263238" stroke="#263238" stroke-width="0.585" stroke-linecap="round" stroke-linejoin="round"/>
<path d="M75.3021 157.615L74.592 159.559H41.9782L41.268 157.615H34.3588V166.177H41.268L41.9782 164.233H74.592L75.3021 166.177H83.1253V157.615H75.3021Z" fill="#263238" stroke="#263238" stroke-width="0.585" stroke-linecap="round" stroke-linejoin="round"/>
<path d="M75.3021 166.957L74.592 168.907H41.9782L41.268 166.957H34.3588V175.525H41.268L41.9782 173.581H74.592L75.3021 175.525H83.1253V166.957H75.3021Z" fill="#263238" stroke="#263238" stroke-width="0.585" stroke-linecap="round" stroke-linejoin="round"/>
<path d="M75.3021 176.305L74.592 178.249H41.9782L41.268 176.305H34.3588V184.868H41.268L41.9782 182.923H74.592L75.3021 184.868H83.1253V176.305H75.3021Z" fill="#263238" stroke="#263238" stroke-width="0.585" stroke-linecap="round" stroke-linejoin="round"/>
<path d="M75.3021 185.648L74.592 187.598H41.9782L41.268 185.648H34.3588V194.216H41.268L41.9782 192.266H74.592L75.3021 194.216H83.1253V185.648H75.3021Z" fill="#263238" stroke="#263238" stroke-width="0.585" stroke-linecap="round" stroke-linejoin="round"/>
<path d="M75.3021 194.996L74.592 196.94H41.9782L41.268 194.996H34.3588V203.558H41.268L41.9782 201.614H74.592L75.3021 203.558H83.1253V194.996H75.3021Z" fill="#263238" stroke="#263238" stroke-width="0.585" stroke-linecap="round" stroke-linejoin="round"/>
<path d="M83.1136 149.989H21.035V155.839H83.1136V149.989Z" fill="white"/>
<path d="M26.2737 152.853C26.2737 152.53 26.1777 152.214 25.998 151.945C25.8183 151.676 25.5628 151.466 25.264 151.342C24.9651 151.218 24.6362 151.186 24.3189 151.249C24.0016 151.312 23.7102 151.468 23.4814 151.697C23.2527 151.925 23.0969 152.217 23.0338 152.534C22.9707 152.851 23.0031 153.18 23.1269 153.479C23.2507 153.778 23.4603 154.034 23.7293 154.213C23.9983 154.393 24.3145 154.489 24.638 154.489C24.8528 154.489 25.0655 154.447 25.264 154.364C25.4624 154.282 25.6427 154.162 25.7946 154.01C25.9465 153.858 26.067 153.678 26.1492 153.479C26.2314 153.281 26.2737 153.068 26.2737 152.853V152.853Z" fill="#263238" stroke="#263238" stroke-width="0.585" stroke-linecap="round" stroke-linejoin="round"/>
<path d="M30.0863 154.489C30.9897 154.489 31.722 153.757 31.722 152.853C31.722 151.95 30.9897 151.218 30.0863 151.218C29.183 151.218 28.4507 151.95 28.4507 152.853C28.4507 153.757 29.183 154.489 30.0863 154.489Z" fill="#E67503" stroke="#263238" stroke-width="0.585" stroke-linecap="round" stroke-linejoin="round"/>
<path d="M37.1702 152.853C37.1702 152.53 37.0743 152.214 36.8946 151.945C36.7148 151.676 36.4594 151.466 36.1605 151.342C35.8616 151.218 35.5328 151.186 35.2155 151.249C34.8982 151.312 34.6067 151.468 34.378 151.697C34.1492 151.925 33.9935 152.217 33.9304 152.534C33.8672 152.851 33.8996 153.18 34.0234 153.479C34.1472 153.778 34.3569 154.034 34.6259 154.213C34.8948 154.393 35.2111 154.489 35.5346 154.489C35.9684 154.489 36.3844 154.317 36.6911 154.01C36.9979 153.703 37.1702 153.287 37.1702 152.853V152.853Z" fill="#263238" stroke="#263238" stroke-width="0.585" stroke-linecap="round" stroke-linejoin="round"/>
<path d="M83.1136 93.9178H21.035V99.7677H83.1136V93.9178Z" fill="white"/>
<path d="M26.2737 96.7933C26.2737 96.4698 26.1777 96.1536 25.998 95.8846C25.8183 95.6156 25.5628 95.406 25.264 95.2822C24.9651 95.1584 24.6362 95.126 24.3189 95.1891C24.0016 95.2522 23.7102 95.408 23.4814 95.6367C23.2527 95.8655 23.0969 96.1569 23.0338 96.4742C22.9707 96.7915 23.0031 97.1204 23.1269 97.4192C23.2507 97.7181 23.4603 97.9736 23.7293 98.1533C23.9983 98.333 24.3145 98.429 24.638 98.429C24.8528 98.429 25.0655 98.3866 25.264 98.3044C25.4624 98.2222 25.6427 98.1018 25.7946 97.9499C25.9465 97.798 26.067 97.6177 26.1492 97.4192C26.2314 97.2208 26.2737 97.0081 26.2737 96.7933V96.7933Z" fill="white" stroke="#263238" stroke-width="0.585" stroke-linecap="round" stroke-linejoin="round"/>
<path d="M31.7161 96.7933C31.7161 96.4698 31.6202 96.1536 31.4404 95.8846C31.2607 95.6156 31.0053 95.406 30.7064 95.2822C30.4075 95.1584 30.0787 95.126 29.7614 95.1891C29.4441 95.2522 29.1526 95.408 28.9239 95.6367C28.6951 95.8655 28.5394 96.1569 28.4763 96.4742C28.4131 96.7915 28.4455 97.1204 28.5693 97.4192C28.6931 97.7181 28.9028 97.9736 29.1718 98.1533C29.4407 98.333 29.757 98.429 30.0805 98.429C30.5143 98.429 30.9303 98.2566 31.237 97.9499C31.5438 97.6431 31.7161 97.2271 31.7161 96.7933V96.7933Z" fill="#E67503" stroke="#263238" stroke-width="0.585" stroke-linecap="round" stroke-linejoin="round"/>
<path d="M37.1702 96.7933C37.1702 96.4698 37.0743 96.1536 36.8946 95.8846C36.7148 95.6156 36.4594 95.406 36.1605 95.2822C35.8616 95.1584 35.5328 95.126 35.2155 95.1891C34.8982 95.2522 34.6067 95.408 34.378 95.6367C34.1492 95.8655 33.9935 96.1569 33.9304 96.4742C33.8672 96.7915 33.8996 97.1204 34.0234 97.4192C34.1472 97.7181 34.3569 97.9736 34.6259 98.1533C34.8948 98.333 35.2111 98.429 35.5346 98.429C35.9684 98.429 36.3844 98.2566 36.6911 97.9499C36.9979 97.6431 37.1702 97.2271 37.1702 96.7933V96.7933Z" fill="white" stroke="#263238" stroke-width="0.585" stroke-linecap="round" stroke-linejoin="round"/>
<path d="M83.1136 86.3916H21.035V92.2414H83.1136V86.3916Z" fill="white"/>
<path d="M26.2737 89.2554C26.2737 88.9319 26.1777 88.6157 25.998 88.3467C25.8183 88.0777 25.5628 87.8681 25.264 87.7443C24.9651 87.6205 24.6362 87.5881 24.3189 87.6512C24.0016 87.7143 23.7102 87.8701 23.4814 88.0988C23.2527 88.3276 23.0969 88.619 23.0338 88.9363C22.9707 89.2536 23.0031 89.5825 23.1269 89.8813C23.2507 90.1802 23.4603 90.4357 23.7293 90.6154C23.9983 90.7951 24.3145 90.891 24.638 90.891C24.8528 90.891 25.0655 90.8487 25.264 90.7665C25.4624 90.6843 25.6427 90.5639 25.7946 90.412C25.9465 90.2601 26.067 90.0798 26.1492 89.8813C26.2314 89.6829 26.2737 89.4702 26.2737 89.2554Z" fill="#E67503" stroke="#263238" stroke-width="0.585" stroke-linecap="round" stroke-linejoin="round"/>
<path d="M31.7161 89.2554C31.7161 88.9319 31.6202 88.6157 31.4404 88.3467C31.2607 88.0777 31.0053 87.8681 30.7064 87.7443C30.4075 87.6205 30.0787 87.5881 29.7614 87.6512C29.4441 87.7143 29.1526 87.8701 28.9239 88.0988C28.6951 88.3276 28.5394 88.619 28.4763 88.9363C28.4131 89.2536 28.4455 89.5825 28.5693 89.8813C28.6931 90.1802 28.9028 90.4357 29.1718 90.6154C29.4407 90.7951 29.757 90.891 30.0805 90.891C30.5143 90.891 30.9303 90.7187 31.237 90.412C31.5438 90.1052 31.7161 89.6892 31.7161 89.2554Z" fill="#263238" stroke="#263238" stroke-width="0.585" stroke-linecap="round" stroke-linejoin="round"/>
<path d="M37.1702 89.2554C37.1702 88.9319 37.0743 88.6157 36.8946 88.3467C36.7148 88.0777 36.4594 87.8681 36.1605 87.7443C35.8616 87.6205 35.5328 87.5881 35.2155 87.6512C34.8982 87.7143 34.6067 87.8701 34.378 88.0988C34.1492 88.3276 33.9935 88.619 33.9304 88.9363C33.8672 89.2536 33.8996 89.5825 34.0234 89.8813C34.1472 90.1802 34.3569 90.4357 34.6259 90.6154C34.8948 90.7951 35.2111 90.891 35.5346 90.891C35.9684 90.891 36.3844 90.7187 36.6911 90.412C36.9979 90.1052 37.1702 89.6892 37.1702 89.2554Z" fill="#263238" stroke="#263238" stroke-width="0.585" stroke-linecap="round" stroke-linejoin="round"/>
<path d="M31.4309 101.689H21.1921V106.077H31.4309V101.689Z" fill="#263238" stroke="#263238" stroke-width="0.585" stroke-linecap="round" stroke-linejoin="round"/>
<path d="M31.4309 111.194H21.1921V115.583H31.4309V111.194Z" fill="#263238" stroke="#263238" stroke-width="0.585" stroke-linecap="round" stroke-linejoin="round"/>
<path d="M31.4309 120.705H21.1921V125.094H31.4309V120.705Z" fill="#E67503" stroke="#263238" stroke-width="0.585" stroke-linecap="round" stroke-linejoin="round"/>
<path d="M31.4309 130.21H21.1921V134.599H31.4309V130.21Z" fill="#E67503" stroke="#263238" stroke-width="0.585" stroke-linecap="round" stroke-linejoin="round"/>
<path d="M31.4309 139.722H21.1921V144.11H31.4309V139.722Z" fill="#E67503" stroke="#263238" stroke-width="0.585" stroke-linecap="round" stroke-linejoin="round"/>
<path d="M31.4309 157.516H21.1921V161.905H31.4309V157.516Z" fill="#E67503" stroke="#263238" stroke-width="0.585" stroke-linecap="round" stroke-linejoin="round"/>
<path d="M31.4309 167.027H21.1921V171.416H31.4309V167.027Z" fill="#263238" stroke="#263238" stroke-width="0.585" stroke-linecap="round" stroke-linejoin="round"/>
<path d="M31.4309 176.532H21.1921V180.921H31.4309V176.532Z" fill="#E67503" stroke="#263238" stroke-width="0.585" stroke-linecap="round" stroke-linejoin="round"/>
<path d="M31.4309 186.043H21.1921V190.432H31.4309V186.043Z" fill="#263238" stroke="#263238" stroke-width="0.585" stroke-linecap="round" stroke-linejoin="round"/>
<path d="M31.4309 195.549H21.1921V199.938H31.4309V195.549Z" fill="#E67503" stroke="#263238" stroke-width="0.585" stroke-linecap="round" stroke-linejoin="round"/>
<path d="M117.189 55.0932C117.189 55.0932 107.375 57.5903 104.651 61.3215C101.926 65.0526 90.8844 90.4254 90.8844 90.4254C90.8844 90.4254 87.3046 94.4417 91.1754 98.3125C95.0462 102.183 102.788 103.615 105.658 100.175C108.527 96.7351 112.677 80.5301 113.254 78.6674C113.83 76.8048 118.126 61.0304 118.556 60.1748C118.987 59.3191 119.4 55.6055 117.189 55.0932Z" fill="#FFE1B5" stroke="#263238" stroke-width="0.585" stroke-linecap="round" stroke-linejoin="round"/>
<path d="M117.189 55.0932C117.189 55.0932 107.375 57.5903 104.651 61.3215C103.003 63.5741 98.3117 73.7605 94.86 81.4497C96.5364 81.1121 103.521 80.076 111.7 84.1971C112.485 81.4497 113.067 79.2786 113.254 78.6674C113.836 76.8047 118.126 61.0304 118.556 60.1748C118.987 59.3191 119.4 55.6055 117.189 55.0932Z" fill="#263238" stroke="#263238" stroke-width="0.585" stroke-linecap="round" stroke-linejoin="round"/>
<path d="M145.943 22.037C147.631 22.9898 148.983 24.4415 149.814 26.1931C150.978 28.9172 150.978 33.0732 150.978 33.0732C150.978 33.0732 169.331 32.4911 176.357 32.3573C183.382 32.2234 188.115 33.9347 188.254 37.3748C188.394 40.8149 186.823 47.5553 182.952 50.1339C179.081 52.7125 167.038 48.5565 160.873 46.8394C154.709 45.1222 152.556 45.6752 148.114 45.0931C143.673 44.5111 142.375 42.7998 141.659 40.0756C140.943 37.3515 142.375 32.1885 142.375 28.0324C142.375 23.8764 141.787 21.1755 145.943 22.037Z" fill="#FFE1B5" stroke="#263238" stroke-width="0.585" stroke-linecap="round" stroke-linejoin="round"/>
<path d="M172.754 39.6682C172.754 39.6682 170.175 46.2631 165.443 49.8487C162.049 52.4215 157.468 53.8883 155.157 54.5054C146.886 52.177 135.21 51.0827 128.382 52.5961C128.382 52.5961 118.847 54.8779 117.188 55.0874C115.53 55.297 111.589 68.5625 110.757 77.6837C109.924 86.8049 112.625 109.407 112.625 111.066C112.625 112.725 113.661 140.304 115.32 147.975C116.979 155.647 118.847 166.02 119.051 167.463C119.255 168.907 120.71 179.687 120.71 183.22C120.71 186.754 119.028 195.252 119.028 195.252C119.028 195.252 111.566 200.229 108.661 203.127C105.756 206.026 110.797 209.088 114.482 209.763C120.733 210.927 128.161 204.786 128.161 204.786L136.49 201.474C138.696 200.59 139.348 198.22 139.401 196.096L139.785 180.741C141.089 186.173 142.16 191.662 142.998 197.208C143.335 199.478 143.685 201.864 145.053 203.698C145.812 204.75 146.794 205.623 147.928 206.253C148.755 206.637 149.634 206.556 150.466 207.033C151.997 207.918 152.625 209.827 154.11 210.788C157.306 212.678 160.975 213.617 164.686 213.494C164.686 213.494 172.975 213.913 173.417 209.35C173.86 204.786 162.631 197.324 162.631 197.324C162.631 197.324 160.972 167.056 159.721 157.102C158.469 147.149 155.157 130.979 155.157 123.924C155.157 116.869 158.475 83.6966 158.475 83.6966C158.475 83.6966 158.813 82.8235 159.331 81.4032L159.878 81.1005C164.61 78.3764 177.8 67.7651 182.102 61.0246C186.223 54.5752 187.713 42.4738 187.83 38.9348" fill="#FFE1B5"/>
<path d="M172.754 39.6682C172.754 39.6682 170.175 46.2631 165.443 49.8487C162.049 52.4215 157.468 53.8883 155.157 54.5054C146.886 52.177 135.21 51.0827 128.382 52.5961C128.382 52.5961 118.847 54.8779 117.188 55.0874C115.53 55.297 111.589 68.5625 110.757 77.6837C109.924 86.8049 112.625 109.407 112.625 111.066C112.625 112.725 113.661 140.304 115.32 147.975C116.979 155.647 118.847 166.02 119.051 167.463C119.255 168.907 120.71 179.687 120.71 183.22C120.71 186.754 119.028 195.252 119.028 195.252C119.028 195.252 111.566 200.229 108.661 203.127C105.756 206.026 110.797 209.088 114.482 209.763C120.733 210.927 128.161 204.786 128.161 204.786L136.49 201.474C138.696 200.59 139.348 198.22 139.401 196.096L139.785 180.741C141.089 186.173 142.16 191.662 142.998 197.208C143.335 199.478 143.685 201.864 145.053 203.698C145.812 204.75 146.794 205.623 147.928 206.253C148.755 206.637 149.634 206.556 150.466 207.033C151.997 207.918 152.625 209.827 154.11 210.788C157.306 212.678 160.975 213.617 164.686 213.494C164.686 213.494 172.975 213.913 173.417 209.35C173.86 204.786 162.631 197.324 162.631 197.324C162.631 197.324 160.972 167.056 159.721 157.102C158.469 147.149 155.157 130.979 155.157 123.924C155.157 116.869 158.475 83.6966 158.475 83.6966C158.475 83.6966 158.813 82.8235 159.331 81.4032L159.878 81.1005C164.61 78.3764 177.8 67.7651 182.102 61.0246C186.223 54.5752 187.713 42.4738 187.83 38.9348" stroke="#263238" stroke-width="0.585" stroke-linecap="round" stroke-linejoin="round"/>
<path d="M173.377 209.35C173.79 204.786 162.591 197.324 162.591 197.324C162.591 197.324 162.463 194.996 162.253 191.416C155.757 192.981 149.097 193.763 142.416 193.744C142.614 194.908 142.808 196.073 142.998 197.237C143.335 199.507 143.685 201.893 145.053 203.727C145.812 204.78 146.794 205.652 147.928 206.282C148.755 206.666 149.634 206.585 150.466 207.062C151.997 207.947 152.625 209.856 154.11 210.817C157.306 212.707 160.975 213.646 164.686 213.523C164.686 213.523 172.957 213.913 173.377 209.35Z" fill="#263238" stroke="#263238" stroke-width="0.585" stroke-linecap="round" stroke-linejoin="round"/>
<path d="M136.49 201.474C138.696 200.59 139.348 198.22 139.401 196.096C139.401 195.293 139.441 194.489 139.459 193.686C132.84 193.462 126.265 192.521 119.849 190.88C119.453 193.302 119.069 195.252 119.069 195.252C119.069 195.252 111.606 200.229 108.702 203.127C105.797 206.026 110.838 209.088 114.523 209.763C120.774 210.927 128.201 204.786 128.201 204.786L136.49 201.474Z" fill="#263238" stroke="#263238" stroke-width="0.585" stroke-linecap="round" stroke-linejoin="round"/>
<path d="M173.377 209.35C173.377 209.286 173.377 209.216 173.377 209.146C171.545 210.457 169.428 211.314 167.201 211.649C160.646 212.813 154.674 209.466 153.074 208.011C151.473 206.556 150.454 205.386 147.975 203.785C145.495 202.184 143.254 198.244 143.254 198.244L143.161 198.389C143.469 200.281 143.9 202.173 145.035 203.698C145.794 204.75 146.776 205.623 147.911 206.253C148.737 206.637 149.616 206.556 150.448 207.033C151.979 207.918 152.608 209.827 154.092 210.788C157.288 212.678 160.957 213.617 164.669 213.494C164.669 213.494 172.957 213.913 173.377 209.35Z" fill="#E67503" stroke="#263238" stroke-width="0.585" stroke-linecap="round" stroke-linejoin="round"/>
<path d="M136.49 201.474C138.417 200.7 139.156 198.803 139.354 196.922C137.445 198.087 133.033 200.63 130.233 201.748C126.595 203.203 124.115 207.569 116.985 207.569C111.897 207.569 109.109 205.578 107.928 204.431C107.299 206.888 111.42 209.187 114.517 209.763C120.768 210.927 128.196 204.786 128.196 204.786L136.49 201.474Z" fill="#E67503" stroke="#263238" stroke-width="0.585" stroke-linecap="round" stroke-linejoin="round"/>
<path d="M163.4 51.1991C160.801 52.6418 158.032 53.7544 155.157 54.5112C146.886 52.1828 135.21 51.0885 128.382 52.6019C128.382 52.6019 118.847 54.8837 117.188 55.0932C115.53 55.3028 111.589 68.5683 110.757 77.6895C110.244 83.324 111.077 94.0808 111.787 101.887C129.069 108.22 147.497 106.048 156.508 104.325C157.416 93.9877 158.446 83.7024 158.446 83.7024C158.446 83.7024 158.784 82.8293 159.302 81.409L159.849 81.1063C163.068 79.2553 170.181 73.7663 175.763 68.3006C164.558 65.0701 163.202 56.2341 163.4 51.1991Z" fill="#263238" stroke="#263238" stroke-width="0.585" stroke-linecap="round" stroke-linejoin="round"/>
<path d="M147.334 61.0886C147.3 59.3477 146.855 57.6396 146.036 56.1031C145.216 54.5667 144.046 53.2454 142.62 52.2469C137.323 51.7346 132.142 51.7696 128.382 52.6019C128.382 52.6019 125.745 53.2364 123.003 53.8592C121.157 55.8165 120.118 58.3983 120.093 61.0886C120.093 67.5555 126.193 72.8 133.714 72.8C141.234 72.8 147.334 67.5555 147.334 61.0886Z" fill="#616161" stroke="#263238" stroke-width="0.585" stroke-linecap="round" stroke-linejoin="round"/>
<path d="M143.254 198.244C146.364 199.338 149.66 199.801 152.951 199.606C160.105 199.297 162.591 197.324 162.591 197.324C162.591 197.324 160.932 167.056 159.68 157.102C158.429 147.149 155.117 130.979 155.117 123.924C155.117 119.768 156.281 106.537 157.218 96.3742L156.77 96.4266C155.579 96.565 154.372 96.4453 153.231 96.0757C152.09 95.706 151.042 95.0951 150.159 94.2844C149.275 93.4737 148.576 92.4822 148.11 91.3774C147.644 90.2726 147.421 89.0803 147.457 87.8817L147.654 81.2635C142.26 81.6153 136.844 81.4594 131.479 80.7978C121.839 79.7093 111.886 76.4439 111.886 76.4439L110.838 76.764C110.838 77.0725 110.774 77.381 110.745 77.6837C109.918 86.8107 112.613 109.407 112.613 111.066C112.613 112.725 113.649 140.304 115.308 147.975C116.967 155.647 118.836 166.02 119.039 167.463C119.243 168.907 120.698 179.687 120.698 183.22C120.698 186.754 119.104 194.932 119.045 195.234C120.291 195.619 122.899 196.399 127.596 197.732C134.744 199.757 139.36 197.318 139.36 197.318C139.36 194.833 139.773 180.735 139.773 180.735C139.773 180.735 142.404 192.667 143.254 198.244Z" fill="#E67503" stroke="#263238" stroke-width="0.585" stroke-linecap="round" stroke-linejoin="round"/>
<path d="M119.569 85.1808L138.19 88.2426V99.7212L127.73 110.187L119.313 99.9773L119.569 85.1808Z" stroke="#263238" stroke-width="0.585" stroke-linecap="round" stroke-linejoin="round"/>
<path d="M132.998 149.728C131.653 142.16 130.669 134.687 130.669 129.32L123.207 124.343" stroke="#263238" stroke-width="0.585" stroke-linecap="round" stroke-linejoin="round"/>
<path d="M139.785 180.741C139.785 180.741 136.642 168.593 134.045 155.286" stroke="#263238" stroke-width="0.585" stroke-linecap="round" stroke-linejoin="round"/>
<path d="M145.332 116.427C145.501 117.099 145.759 117.745 146.1 118.348C148.4 122.422 151.712 122.94 151.712 122.94L152.224 112.224" stroke="#263238" stroke-width="0.585" stroke-linecap="round" stroke-linejoin="round"/>
<path d="M146.1 110.181C145.704 110.954 145.42 111.779 145.256 112.632" stroke="#263238" stroke-width="0.585" stroke-linecap="round" stroke-linejoin="round"/>
<path d="M155.245 142.777C155.513 144.192 155.786 145.583 156.054 146.91" stroke="#263238" stroke-width="0.585" stroke-linecap="round" stroke-linejoin="round"/>
<path d="M151.712 122.94C151.712 122.94 153.027 130.804 154.546 139.046" stroke="#263238" stroke-width="0.585" stroke-linecap="round" stroke-linejoin="round"/>
<path d="M127.177 48.1898L127.061 54.3016C127.061 54.3016 124.953 55.9896 124.534 60.4134C124.115 64.8372 128.329 68.9525 133.068 68.9525C137.806 68.9525 141.921 65.2621 142.66 61.8919C143.399 58.5217 142.445 53.6729 142.445 53.6729L142.131 46.298C142.131 46.298 137.474 49.2433 133.068 48.4051C128.661 47.5669 127.381 45.9779 127.381 45.9779L127.177 48.1898Z" fill="#FFE1B5" stroke="#263238" stroke-width="0.585" stroke-linecap="round" stroke-linejoin="round"/>
<path d="M123.865 32.2408C123.865 32.2408 123.58 35.7333 124.336 36.589C125.093 37.4446 126.135 38.1024 126.327 37.3457C126.519 36.589 126.607 32.6192 126.799 31.7694C126.991 30.9195 123.958 29.8543 123.865 32.2408Z" fill="#FFE1B5" stroke="#263238" stroke-width="0.585" stroke-linecap="round" stroke-linejoin="round"/>
<path d="M125.716 32.1826C125.716 32.1826 124.849 39.1676 124.849 42.5495C124.849 45.9313 123.539 47.2061 127.759 49.4063C131.979 51.6066 135.635 51.886 138.551 50.8615C141.467 49.8371 143.074 47.3691 143.207 45.3202C143.341 43.2712 143.353 40.0814 143.353 40.0814C143.353 40.0814 147.427 36.4376 146.566 33.6786C145.705 30.9195 143.795 34.4062 143.795 34.4062C144.598 32.0094 144.992 29.4946 144.959 26.9672C144.814 23.1721 141.898 22.7355 140.728 22.7355C139.558 22.7355 132.416 20.5411 129.069 22.7064C125.722 24.8717 125.716 32.1826 125.716 32.1826Z" fill="#FFE1B5" stroke="#263238" stroke-width="0.585" stroke-linecap="round" stroke-linejoin="round"/>
<path d="M143.807 34.3771C144.61 31.9803 145.003 29.4655 144.971 26.9381C144.826 23.143 141.909 22.7064 140.739 22.7064H140.664C140.047 23.7425 139.284 25.3374 139.284 25.3374L139.866 25.6284C139.866 25.6284 139.284 28.8415 140.448 29.2781C141.612 29.7146 141.03 30.7333 141.03 32.4853C141.03 34.2374 142.055 35.5471 142.637 35.5471C143.097 35.5471 143.801 34.3829 144.115 33.8765C143.923 34.1559 143.807 34.3771 143.807 34.3771Z" fill="#263238" stroke="#263238" stroke-width="0.585" stroke-linecap="round" stroke-linejoin="round"/>
<path d="M132.282 34.7962C132.282 34.7962 131.054 35.9254 131.618 36.781C132.183 37.6367 134.267 38.1024 134.837 37.0604C135.033 36.7102 135.103 36.3031 135.034 35.9076C134.965 35.5122 134.762 35.1526 134.459 34.8893" stroke="#263238" stroke-width="0.585" stroke-linecap="round" stroke-linejoin="round"/>
<path d="M130.96 33.6611C130.96 34.2432 130.728 34.6972 130.437 34.6972C130.146 34.6972 129.919 34.2315 129.919 33.6611C129.919 33.0907 130.151 32.6192 130.437 32.6192C130.722 32.6192 130.96 33.0848 130.96 33.6611Z" fill="#263238"/>
<path d="M137.247 33.9289C137.247 34.5109 137.014 34.9708 136.729 34.9708C136.444 34.9708 136.205 34.5051 136.205 33.9289C136.205 33.3526 136.438 32.8928 136.729 32.8928C137.02 32.8928 137.247 33.3468 137.247 33.9289Z" fill="#263238"/>
<path d="M135.687 31.1058C135.687 31.1058 137.672 29.7786 139.564 31.8625" stroke="#263238" stroke-width="0.585" stroke-linecap="round" stroke-linejoin="round"/>
<path d="M132.672 40.4132C132.422 40.2878 132.149 40.2167 131.87 40.2046C131.591 40.1926 131.313 40.2399 131.054 40.3434C130.833 40.435 130.635 40.5728 130.472 40.7476C130.31 40.9223 130.186 41.1298 130.111 41.3562C130.111 41.3562 128.9 42.3283 130.175 42.7532C131.449 43.1781 134.249 43.149 134.954 43.1199C135.235 43.0807 135.491 42.9327 135.665 42.7074C135.839 42.4822 135.918 42.1977 135.885 41.915C135.891 41.8004 135.867 41.6863 135.815 41.5841C135.762 41.4819 135.684 41.3952 135.588 41.3329C135.295 40.8535 134.838 40.4963 134.302 40.3273C133.766 40.1582 133.187 40.1888 132.672 40.4132Z" fill="#666666" stroke="#263238" stroke-width="0.429597" stroke-linecap="round" stroke-linejoin="round"/>
<path d="M129.837 41.7229C131.797 41.4129 133.801 41.532 135.71 42.0721" stroke="#263238" stroke-width="0.499676" stroke-linecap="round" stroke-linejoin="round"/>
<path d="M123.236 24.1674L138.848 26.3619C138.848 26.3619 145.408 24.6156 145.996 23.3001C146.583 21.9846 144.389 15.4246 143.219 13.8181C142.049 12.2115 130.821 14.9822 127.317 15.5643C123.813 16.1464 121.193 17.0137 121.356 18.7948C121.519 20.576 123.236 24.1674 123.236 24.1674Z" fill="#E67503" stroke="#263238" stroke-width="0.585" stroke-linecap="round" stroke-linejoin="round"/>
<path d="M123.236 24.1674C123.236 24.1674 114.336 31.4609 114.191 32.1826C114.045 32.9044 127.171 33.2013 131.257 32.3282C135.343 31.455 138.824 26.3444 138.824 26.3444L123.236 24.1674Z" fill="#E67503" stroke="#263238" stroke-width="0.585" stroke-linecap="round" stroke-linejoin="round"/>
<path d="M113.51 120.868L137.957 106.531C138.767 107.138 139.746 107.474 140.758 107.492C141.769 107.51 142.76 107.21 143.591 106.634C144.422 106.058 145.051 105.235 145.389 104.281C145.726 103.328 145.755 102.293 145.472 101.322L140.367 104.308L139.203 102.3L144.313 99.3079C143.606 98.5837 142.688 98.1007 141.691 97.9275C140.693 97.7542 139.666 97.8995 138.756 98.3428C137.846 98.786 137.098 99.5046 136.619 100.397C136.141 101.289 135.955 102.309 136.089 103.313L111.612 117.649C110.803 117.043 109.823 116.707 108.812 116.689C107.8 116.67 106.809 116.97 105.978 117.547C105.147 118.123 104.518 118.946 104.18 119.899C103.843 120.853 103.814 121.888 104.098 122.859L109.069 119.948L110.233 121.962L105.262 124.873C105.968 125.598 106.886 126.083 107.884 126.257C108.881 126.431 109.909 126.285 110.819 125.842C111.729 125.398 112.477 124.679 112.955 123.786C113.433 122.893 113.617 121.872 113.481 120.868H113.51Z" fill="#E67503" stroke="#263238" stroke-width="0.585" stroke-linecap="round" stroke-linejoin="round"/>
<path d="M134.331 110.21C134.331 110.21 137.34 112.364 137.34 114.366C137.34 116.369 133.754 118.528 131.321 118.668C128.888 118.808 128.452 116.089 128.882 114.657C129.313 113.225 134.331 110.21 134.331 110.21Z" fill="#FFE1B5" stroke="#263238" stroke-width="0.585" stroke-linecap="round" stroke-linejoin="round"/>
<path d="M102.788 92.288C102.788 92.288 119.418 101.601 121.711 101.322C124.005 101.042 127.159 99.0285 128.882 99.5757C130.605 100.123 135.332 107.463 135.763 108.755C136.193 110.047 132.323 114.634 131.461 115.35C130.6 116.066 127.875 118.936 127.305 119.221C126.735 119.506 123.003 122.806 121.141 122.806C119.278 122.806 116.123 121.369 115.832 120.653C115.541 119.937 116.263 118.936 116.263 118.936L107.532 114.919C107.532 114.919 90.896 105.885 88.0322 101.299C85.1684 96.7118 92.3338 88.5395 92.3338 88.5395" fill="#FFE1B5"/>
<path d="M102.788 92.288C102.788 92.288 119.418 101.601 121.711 101.322C124.005 101.042 127.159 99.0285 128.882 99.5757C130.605 100.123 135.332 107.463 135.763 108.755C136.193 110.047 132.323 114.634 131.461 115.35C130.6 116.066 127.875 118.936 127.305 119.221C126.735 119.506 123.003 122.806 121.141 122.806C119.278 122.806 116.123 121.369 115.832 120.653C115.541 119.937 116.263 118.936 116.263 118.936L107.532 114.919C107.532 114.919 90.896 105.885 88.0322 101.299C85.1684 96.7118 92.3338 88.5395 92.3338 88.5395" stroke="#263238" stroke-width="0.585" stroke-linecap="round" stroke-linejoin="round"/>
<path d="M122.002 114.797C122.511 114.865 122.982 115.098 123.344 115.461C123.707 115.824 123.939 116.297 124.005 116.805C124.296 118.668 123.574 121.968 123.574 121.968" stroke="#263238" stroke-width="0.585" stroke-linecap="round" stroke-linejoin="round"/>
<path d="M125.297 112.073C125.297 112.073 127.305 112.218 127.305 114.081V119.244" stroke="#263238" stroke-width="0.585" stroke-linecap="round" stroke-linejoin="round"/>
<path d="M127.451 106.916C127.451 106.916 131.176 109.64 131.461 111.217C131.619 112.598 131.619 113.992 131.461 115.373" stroke="#263238" stroke-width="0.585" stroke-linecap="round" stroke-linejoin="round"/>
<path d="M144.057 97.0844C144.895 97.0844 147.113 91.5313 147.113 89.4475C147.113 87.3637 148.085 72.0957 150.309 65.0002C151.904 59.9187 153.277 55.9955 153.929 54.1736C152.235 53.7428 150.437 53.3586 148.563 53.0094C147.451 56.3796 144.057 66.8978 142.672 73.5859C141.007 81.636 141.42 91.217 141.56 92.0494C141.7 92.8818 143.237 97.0844 144.057 97.0844Z" fill="#E67503" stroke="#263238" stroke-width="0.585" stroke-linecap="round" stroke-linejoin="round"/>
<path d="M147.119 80.2396L142.353 79.6139C141.961 79.5625 141.602 79.8381 141.551 80.2296L141.052 84.0329C141 84.4243 141.276 84.7833 141.667 84.8347L146.433 85.4605C146.824 85.5119 147.183 85.2363 147.235 84.8448L147.734 81.0415C147.786 80.6501 147.51 80.2911 147.119 80.2396Z" fill="#E67503" stroke="#263238" stroke-width="0.584122" stroke-linecap="round" stroke-linejoin="round"/>
<path d="M145.865 81.448L143.401 81.121C143.009 81.069 142.649 81.3446 142.597 81.7365L142.349 83.6003C142.297 83.9923 142.573 84.3522 142.965 84.4042L145.429 84.7312C145.821 84.7832 146.181 84.5077 146.233 84.1157L146.48 82.2519C146.532 81.8599 146.257 81.5 145.865 81.448Z" fill="#E67503" stroke="#263238" stroke-width="0.585" stroke-linecap="round" stroke-linejoin="round"/>
<path d="M112.968 95.0005C113.807 95.0005 116.024 89.4475 116.024 87.3636C116.024 85.2798 116.996 70.0119 119.22 62.9164C120.629 58.4227 121.589 55.5531 122.13 54.0571C119.959 54.5461 117.899 54.9943 117.212 55.0816C116.7 55.1456 115.978 56.4437 115.192 58.4693C114.272 61.3215 113.149 65.0293 112.282 68.644C111.603 71.6222 111.107 74.6391 110.797 77.6779C110.602 80.7264 110.588 83.7838 110.757 86.834C110.757 86.9387 110.768 87.0202 110.791 87.0784C110.879 87.9224 112.136 95.0005 112.968 95.0005Z" fill="#E67503" stroke="#263238" stroke-width="0.585" stroke-linecap="round" stroke-linejoin="round"/>
<path d="M116.132 76.253L111.346 75.7423C110.952 75.7003 110.6 75.9851 110.558 76.3782L110.15 80.1983C110.108 80.5915 110.393 80.9442 110.786 80.9861L115.573 81.4968C115.966 81.5388 116.319 81.2541 116.361 80.8609L116.768 77.0408C116.81 76.6477 116.525 76.2949 116.132 76.253Z" fill="#E67503" stroke="#263238" stroke-width="0.585" stroke-linecap="round" stroke-linejoin="round"/>
<path d="M114.865 77.1018L112.394 76.8382C112 76.7962 111.648 77.0809 111.606 77.4741L111.406 79.3436C111.364 79.7368 111.649 80.0895 112.042 80.1315L114.514 80.3952C114.907 80.4371 115.26 80.1524 115.302 79.7592L115.501 77.8897C115.543 77.4965 115.258 77.1438 114.865 77.1018Z" fill="#E67503" stroke="#263238" stroke-width="0.585" stroke-linecap="round" stroke-linejoin="round"/>
</svg>
