<svg width="26" height="41" viewBox="0 0 26 41" fill="none" xmlns="http://www.w3.org/2000/svg">
<path d="M5.79919 1.58691H13.0265C13.0309 3.40092 13.0177 5.21565 13.0324 7.02966C14.8155 7.04659 16.5993 7.02671 18.3831 7.03849C19.0876 7.75113 19.8003 8.45642 20.5078 9.16685C20.5107 16.6783 20.5107 24.1891 20.5078 31.7005C19.7995 32.4102 19.0884 33.1162 18.3831 33.8289C16.5993 33.8414 14.8155 33.82 13.0316 33.8385C13.0184 35.6525 13.0316 37.4665 13.0258 39.2805H5.82422C5.69539 39.2621 5.56876 39.2378 5.44287 39.209C6.17392 37.4046 6.92705 35.609 7.67356 33.8105C9.06572 33.8105 10.4571 33.8097 11.8493 33.8105C12.2402 33.8083 12.6326 33.8355 13.0221 33.781C13.0294 24.8833 13.0294 15.9848 13.0221 7.08708C12.6569 7.0326 12.2881 7.0569 11.9215 7.0569C10.505 7.05837 9.08928 7.05542 7.67283 7.05837C6.93 5.25835 6.17097 3.46497 5.44434 1.65833C5.56214 1.63035 5.67993 1.60606 5.79919 1.58691Z" fill="#40E35B"/>
<path d="M0.170188 6.92383C1.96579 7.68064 3.77095 8.41537 5.56949 9.16556C5.56876 16.6778 5.56949 24.19 5.56876 31.7022C3.77022 32.4524 1.96579 33.1871 0.170188 33.9439C0.120863 33.7658 0.0906783 33.5824 0.0928869 33.3977C0.0950955 24.7326 0.0921509 16.0675 0.0936233 7.4031C0.0958319 7.2404 0.127489 7.0799 0.170188 6.92383Z" fill="#40E35B"/>
<path d="M13.0272 1.58691H20.3965C20.4518 1.60458 20.5607 1.63918 20.6152 1.65612C19.8753 3.45171 19.1406 5.24952 18.3838 7.03849C16.6 7.02671 14.8161 7.04659 13.033 7.02966C13.0183 5.21565 13.0316 3.40092 13.0272 1.58691Z" fill="#1BD16A"/>
<path d="M5.04824 1.93133C5.16161 1.81575 5.29634 1.72152 5.44505 1.6582C6.17168 3.46484 6.93071 5.25823 7.67353 7.05825C6.97561 7.76353 6.2696 8.46145 5.57021 9.16526C3.77166 8.41507 1.9665 7.68034 0.170898 6.92352C0.283537 6.65922 0.508815 6.4737 0.705381 6.27345C2.15275 4.82608 3.60086 3.37871 5.04824 1.93133Z" fill="#1BD16A"/>
<path d="M20.5083 9.16677C22.2987 8.40848 24.0995 7.67448 25.8951 6.92871C26.0055 7.24749 25.9746 7.58688 25.9768 7.91743C25.9768 16.2601 25.9768 24.6027 25.9768 32.9461C25.9739 33.2781 26.0063 33.6197 25.8951 33.9392C24.0995 33.192 22.2987 32.4587 20.5083 31.7004C20.5112 24.189 20.5112 16.6782 20.5083 9.16677Z" fill="#1BD16A"/>
<path d="M0.170898 33.9439C1.9665 33.1871 3.77093 32.4523 5.56947 31.7021C6.2718 32.4045 6.97561 33.1046 7.67427 33.8106C6.92776 35.6092 6.17463 37.4048 5.44358 39.2092C5.29707 39.1444 5.16382 39.0531 5.05192 38.9398C3.51694 37.4055 1.98343 35.8705 0.448446 34.337C0.332863 34.2236 0.237157 34.0911 0.170898 33.9439Z" fill="#1BD16A"/>
<path d="M13.032 33.8387C14.8158 33.8203 16.5997 33.8416 18.3835 33.8291C19.1484 35.6144 19.8559 37.4247 20.6326 39.2041C20.5737 39.2233 20.4551 39.2615 20.3955 39.2807H13.0261C13.032 37.4667 13.0188 35.6527 13.032 33.8387Z" fill="#1BD16A"/>
<path d="M20.6152 1.65625C20.7801 1.72177 20.9215 1.8322 21.0452 1.95736C22.5558 3.46804 24.0658 4.97873 25.5765 6.48868C25.7061 6.61678 25.8194 6.76255 25.8953 6.92893C24.0997 7.6747 22.2989 8.4087 20.5085 9.16698C19.801 8.45655 19.0883 7.75127 18.3838 7.03862C19.1406 5.24965 19.8753 3.45185 20.6152 1.65625Z" fill="#12B857"/>
<path d="M18.3833 33.829C19.0886 33.1164 19.7998 32.4104 20.508 31.7007C22.2984 32.459 24.0992 33.1922 25.8948 33.9395C25.8182 34.1051 25.7048 34.2502 25.5767 34.3783C24.1411 35.8138 22.7041 37.2487 21.2692 38.685C21.0741 38.8764 20.8901 39.0951 20.6324 39.2041C19.8557 37.4247 19.1482 35.6143 18.3833 33.829Z" fill="#12B857"/>
<path d="M7.67291 7.05863C9.08937 7.05568 10.5051 7.05863 11.9215 7.05716C12.2882 7.05716 12.657 7.03286 13.0222 7.08734C13.0295 15.9851 13.0295 24.8836 13.0222 33.7813C12.6327 33.8358 12.2403 33.8085 11.8494 33.8107C10.4572 33.81 9.06581 33.8107 7.67365 33.8107C6.97499 33.1047 6.27118 32.4046 5.56885 31.7023C5.56958 24.1901 5.56885 16.6778 5.56958 9.16564C6.26898 8.46183 6.97499 7.76391 7.67291 7.05863Z" fill="#4AFF56"/>
</svg>
