<svg width="208" height="149" viewBox="0 0 208 149" fill="none" xmlns="http://www.w3.org/2000/svg">
<path d="M170.71 69.7358C170.71 69.7358 170.71 67.4813 167.554 64.3565C164.397 61.2317 162.395 59.4191 162.395 59.4191C162.395 59.4191 160.826 64.5774 163.748 67.7203C165.893 69.9276 168.219 71.9517 170.701 73.7714L170.71 69.7358Z" fill="#FFD202"/>
<path d="M166.156 83.741C166.156 83.741 166.156 81.4865 163 78.3617C159.843 75.2369 157.85 73.4243 157.85 73.4243C157.85 73.4243 156.277 78.5826 159.203 81.7255C161.348 83.9328 163.674 85.9569 166.156 87.7766V83.741Z" fill="#FFD202"/>
<path d="M170.511 73.5549C170.511 73.5549 170.75 71.3275 174.204 68.5364C177.658 65.7452 179.854 64.1761 179.854 64.1761C179.854 64.1761 180.869 69.4697 177.64 72.2924C175.274 74.2613 172.748 76.029 170.088 77.577L170.511 73.5549Z" fill="#FFD202"/>
<path d="M165.01 90.0942C165.01 90.0942 165.461 87.9028 169.208 85.4905C172.955 83.0781 175.282 81.748 175.282 81.748C175.282 81.748 175.733 87.1228 172.229 89.5802C169.669 91.2901 166.971 92.7833 164.163 94.0442L165.01 90.0942Z" fill="#FFD202"/>
<path d="M166.043 108.13C166.043 108.13 166.043 105.876 169.199 102.747C172.356 99.6173 174.353 97.8137 174.353 97.8137C174.353 97.8137 175.927 102.972 173.001 106.11C170.856 108.32 168.531 110.346 166.048 112.166L166.043 108.13Z" fill="#FFD202"/>
<path d="M165.993 112.531C165.993 112.531 166.309 110.313 163.649 106.76C160.988 103.207 159.243 101.141 159.243 101.141C159.243 101.141 156.957 106.025 159.397 109.546C161.205 112.037 163.218 114.372 165.416 116.526L165.993 112.531Z" fill="#FFD202"/>
<path d="M162.896 125.576C162.896 125.576 162.896 123.322 166.052 120.197C169.208 117.072 171.21 115.259 171.21 115.259C171.21 115.259 172.78 120.418 169.858 123.561C167.712 125.769 165.386 127.794 162.905 129.616L162.896 125.576Z" fill="#FFD202"/>
<path d="M164.992 137.403C164.992 137.403 164.424 135.235 166.665 131.402C168.906 127.569 170.408 125.324 170.408 125.324C170.408 125.324 173.23 129.914 171.206 133.692C169.691 136.371 167.955 138.919 166.016 141.308L164.992 137.403Z" fill="#FFD202"/>
<path d="M170.994 69.1631C170.836 71.4977 170.55 73.8219 170.137 76.1251C168.893 82.537 165.79 86.6763 164.55 92.466C163.31 98.2556 166.873 105.718 165.903 113.158C164.934 120.598 162.057 124.733 162.882 129.697C163.707 134.662 168.054 148.108 168.054 148.108" stroke="#263238" stroke-width="0.283087" stroke-linecap="round" stroke-linejoin="round"/>
<path d="M170.484 75.0475L173.866 72.4503" stroke="#263238" stroke-width="0.283087" stroke-linecap="round" stroke-linejoin="round"/>
<path d="M170.642 72.058L169.222 69.5374" stroke="#263238" stroke-width="0.283087" stroke-linecap="round" stroke-linejoin="round"/>
<path d="M164.74 92.1999C164.74 92.1999 167.572 90.0762 170.484 87.9524" stroke="#263238" stroke-width="0.283087" stroke-linecap="round" stroke-linejoin="round"/>
<path d="M166.156 87.7766C166.156 87.7766 163.793 83.1503 161.119 80.0841" stroke="#263238" stroke-width="0.283087" stroke-linecap="round" stroke-linejoin="round"/>
<path d="M166.156 111.323C167.771 108.338 169.812 105.603 172.216 103.207" stroke="#263238" stroke-width="0.283087" stroke-linecap="round" stroke-linejoin="round"/>
<path d="M165.606 114.47C164.746 112.446 163.719 110.497 162.535 108.645C160.885 106.205 160.646 105.889 160.646 105.889" stroke="#263238" stroke-width="0.283087" stroke-linecap="round" stroke-linejoin="round"/>
<path d="M162.896 129.697C163.615 127.92 164.468 126.2 165.448 124.553C166.428 123.021 167.534 121.573 168.753 120.224" stroke="#263238" stroke-width="0.283087" stroke-linecap="round" stroke-linejoin="round"/>
<path d="M166.016 141.308C165.852 139.609 166.144 137.896 166.864 136.348C168.045 134.067 169.38 131.077 169.93 129.896" stroke="#263238" stroke-width="0.283087" stroke-linecap="round" stroke-linejoin="round"/>
<path d="M145.089 99.6986C145.089 99.6986 144.846 98.2917 146.474 95.9786C148.101 93.6654 149.179 92.3262 149.179 92.3262C149.179 92.3262 150.721 95.3924 149.233 97.674C148.128 99.2924 146.89 100.816 145.531 102.228L145.089 99.6986Z" fill="#FFD202"/>
<path d="M149.468 107.986C149.468 107.986 149.224 106.579 150.852 104.266C152.48 101.953 153.557 100.614 153.557 100.614C153.557 100.614 155.1 103.68 153.612 105.966C152.506 107.583 151.267 109.104 149.91 110.516L149.468 107.986Z" fill="#FFD202"/>
<path d="M145.626 102.07C145.626 102.07 145.238 100.718 142.767 99.3242C140.296 97.9309 138.754 97.2004 138.754 97.2004C138.754 97.2004 138.691 100.632 141.009 102.048C142.706 103.025 144.481 103.859 146.316 104.541L145.626 102.07Z" fill="#FFD202"/>
<path d="M150.875 111.846C150.875 111.846 150.342 110.52 147.745 109.411C145.148 108.302 143.525 107.725 143.525 107.725C143.525 107.725 143.822 111.143 146.293 112.306C148.084 113.099 149.938 113.742 151.835 114.227L150.875 111.846Z" fill="#FFD202"/>
<path d="M152.182 123.267C152.182 123.267 151.943 121.861 149.63 120.233C147.317 118.605 145.86 117.699 145.86 117.699C145.86 117.699 145.437 121.103 147.605 122.753C149.19 123.907 150.869 124.925 152.624 125.797L152.182 123.267Z" fill="#FFD202"/>
<path d="M152.696 126.022C152.696 126.022 152.245 124.67 153.539 122.145C154.833 119.62 155.69 118.145 155.69 118.145C155.69 118.145 157.652 120.959 156.506 123.434C155.643 125.192 154.634 126.873 153.49 128.462L152.696 126.022Z" fill="#FFD202"/>
<path d="M156.637 137.363C156.637 137.363 156.8 135.947 159.013 134.206C161.227 132.466 162.621 131.46 162.621 131.46C162.621 131.46 163.238 134.838 161.169 136.61C159.653 137.85 158.036 138.962 156.335 139.933L156.637 137.363Z" fill="#FFD202"/>
<path d="M156.046 133.864C156.046 133.864 155.803 132.457 153.494 130.829C151.185 129.201 149.734 128.295 149.734 128.295C149.734 128.295 149.31 131.699 151.479 133.354C153.064 134.506 154.743 135.524 156.497 136.398L156.046 133.864Z" fill="#FFD202"/>
<path d="M156.046 141.511C156.046 141.511 156.164 140.086 154.342 137.926C152.52 135.767 151.339 134.522 151.339 134.522C151.339 134.522 150.063 137.706 151.745 139.856C152.978 141.371 154.335 142.78 155.803 144.068L156.046 141.511Z" fill="#FFD202"/>
<path d="M144.85 99.3649C145.203 100.812 145.635 102.239 146.145 103.639C147.619 107.526 150.013 109.785 151.42 113.28C152.827 116.774 151.42 121.847 152.809 126.406C154.198 130.964 156.497 133.246 156.497 136.447C156.497 139.649 155.253 148.554 155.253 148.554" stroke="#263238" stroke-width="0.283087" stroke-linecap="round" stroke-linejoin="round"/>
<path d="M145.811 102.999L143.408 101.741" stroke="#263238" stroke-width="0.283087" stroke-linecap="round" stroke-linejoin="round"/>
<path d="M145.387 101.141L146 99.4099" stroke="#263238" stroke-width="0.283087" stroke-linecap="round" stroke-linejoin="round"/>
<path d="M151.271 113.136C151.271 113.136 149.265 112.112 147.213 111.093" stroke="#263238" stroke-width="0.283087" stroke-linecap="round" stroke-linejoin="round"/>
<path d="M149.905 110.516C150.497 108.658 151.275 106.865 152.227 105.164" stroke="#263238" stroke-width="0.283087" stroke-linecap="round" stroke-linejoin="round"/>
<path d="M152.462 125.278C151.124 123.585 149.547 122.095 147.781 120.855" stroke="#263238" stroke-width="0.283087" stroke-linecap="round" stroke-linejoin="round"/>
<path d="M153.147 127.19C153.468 125.83 153.901 124.498 154.441 123.209C155.212 121.5 155.343 121.275 155.343 121.275" stroke="#263238" stroke-width="0.283087" stroke-linecap="round" stroke-linejoin="round"/>
<path d="M156.389 138.878C157.171 137.909 158.037 137.011 158.977 136.195C159.575 135.755 160.136 135.266 160.655 134.734" stroke="#263238" stroke-width="0.283087" stroke-linecap="round" stroke-linejoin="round"/>
<path d="M156.497 136.447C155.853 135.408 155.131 134.42 154.337 133.49C153.556 132.636 152.705 131.849 151.794 131.136" stroke="#263238" stroke-width="0.283087" stroke-linecap="round" stroke-linejoin="round"/>
<path d="M155.803 144.068C155.722 142.984 155.353 141.941 154.734 141.047C153.747 139.744 152.584 138.012 152.11 137.331" stroke="#263238" stroke-width="0.283087" stroke-linecap="round" stroke-linejoin="round"/>
<path d="M86.7204 68.6078C86.7204 68.6078 86.3221 65.41 82.855 59.9514C79.3879 54.4927 82.726 52.7592 86.322 48.3665C89.9181 43.9738 95.5058 44.905 98.5689 45.5614C101.632 46.2178 106.827 47.5586 108.022 51.6877C109.217 55.8167 109.621 64.8714 109.756 65.6737C109.89 66.4759 108.426 66.734 107.758 66.605C107.091 66.4759 105.626 59.0145 103.764 57.4156C101.901 55.8167 93.6657 56.8826 91.3768 59.6596C89.0878 62.4367 89.7835 66.4535 89.9125 68.187C90.0416 69.9206 89.2505 70.4311 88.4483 70.5825C87.646 70.734 86.7204 68.6078 86.7204 68.6078Z" fill="#263238" stroke="#263238" stroke-width="0.524228" stroke-linecap="round" stroke-linejoin="round"/>
<path d="M98.3613 77.8308C98.3613 77.8308 86.019 80.6359 82.2322 81.7579C78.4454 82.8799 74.9391 83.7214 75.6403 85.4045C76.3416 87.0875 71.8535 101.113 71.8535 101.113L65.5421 116.395L74.5183 123.407L81.6712 109.522L88.1228 141.079H131.461C131.461 141.079 130.199 88.4844 128.095 85.8196C125.991 83.1548 109.301 77.4044 105.234 76.9837C102.908 76.707 100.55 76.9976 98.3613 77.8308V77.8308Z" fill="#FFD202" stroke="#263238" stroke-width="0.524228" stroke-linecap="round" stroke-linejoin="round"/>
<path d="M118.793 108.069C116.928 104.07 115.342 99.946 114.047 95.7271" stroke="#263238" stroke-width="0.524228" stroke-linecap="round" stroke-linejoin="round"/>
<path d="M114.743 106.925C116.169 108.686 118.194 109.86 120.432 110.224" stroke="#263238" stroke-width="0.524228" stroke-linecap="round" stroke-linejoin="round"/>
<path d="M113.071 104.053C113.284 104.641 113.559 105.205 113.89 105.736" stroke="#263238" stroke-width="0.524228" stroke-linecap="round" stroke-linejoin="round"/>
<path d="M79.2702 96.4676L81.6713 109.528L77.2898 96.462" stroke="#263238" stroke-width="0.524228" stroke-linecap="round" stroke-linejoin="round"/>
<path d="M78.4286 91.901L78.9335 94.65" stroke="#263238" stroke-width="0.524228" stroke-linecap="round" stroke-linejoin="round"/>
<path d="M88.5828 70.072C88.5828 70.072 87.2532 66.8743 86.0527 66.8743C84.8521 66.8743 85.1214 68.6078 85.6543 70.605C86.1873 72.6022 87.7862 74.8631 88.9811 74.8631H90.1817L88.5828 70.072Z" fill="white" stroke="#263238" stroke-width="0.524228" stroke-linecap="round" stroke-linejoin="round"/>
<path d="M107.893 64.7424C107.893 64.7424 109.223 60.8827 109.89 62.8799C110.53 65.0935 110.576 67.4365 110.025 69.6737C109.492 71.7999 109.357 72.6022 108.824 72.4788C108.291 72.3553 107.893 64.7424 107.893 64.7424Z" fill="white" stroke="#263238" stroke-width="0.524228" stroke-linecap="round" stroke-linejoin="round"/>
<path d="M95.0459 97.124L95.4835 97.6065L96.4989 98.7173L98.7542 103.615L97.4302 134.212L101.8 140.967L105.638 132.49L99.9435 103.486L101.138 98.1843L102.328 94.6107L101.537 93.9487L100.207 96.5966L96.2353 96.4676L94.3839 95.009L93.5873 96.7313L95.0459 97.124Z" fill="#263238" stroke="#263238" stroke-width="0.524228" stroke-linecap="round" stroke-linejoin="round"/>
<path d="M92.6615 76.9949C92.6615 76.9949 89.4805 80.8378 89.2169 84.5461C88.9532 88.2544 92.0219 99.5083 92.0219 99.5083C92.0219 99.5083 96.1285 96.462 98.7541 96.462C101.38 96.462 107.495 101.629 107.495 101.629C107.495 101.629 111.601 88.3835 109.481 80.5686C107.36 72.7537 98.2211 70.7677 92.6615 76.9949Z" fill="white" stroke="#263238" stroke-width="0.524228" stroke-linecap="round" stroke-linejoin="round"/>
<path d="M92.9252 78.3189C92.9252 78.3189 93.9855 83.2221 94.7765 86.3975C95.5675 89.5728 97.6938 96.995 98.7541 96.462C99.8144 95.929 104.448 84.9388 104.583 82.1618C104.718 79.3848 95.7078 72.0748 92.9252 78.3189Z" fill="#FFD202"/>
<path opacity="0.5" d="M92.9252 78.3189C92.9252 78.3189 93.9855 83.2221 94.7765 86.3975C95.5675 89.5728 97.6938 96.995 98.7541 96.462C99.8144 95.929 104.448 84.9388 104.583 82.1618C104.718 79.3848 95.7078 72.0748 92.9252 78.3189Z" fill="white" stroke="#263238" stroke-width="0.524228" stroke-linecap="round" stroke-linejoin="round"/>
<path d="M92.9252 78.3189C92.9252 78.3189 93.9855 83.2221 94.7765 86.3975C95.5675 89.5728 97.6938 96.995 98.7541 96.462C99.8144 95.929 104.448 84.9388 104.583 82.1618C104.718 79.3848 95.7078 72.0748 92.9252 78.3189Z" stroke="#263238" stroke-width="0.524228" stroke-linecap="round" stroke-linejoin="round"/>
<path d="M89.3515 58.1786C89.3515 58.1786 87.5451 61.3259 87.82 63.7495C88.0949 66.173 88.4202 71.0033 89.7386 74.5938C91.057 78.1843 95.2814 81.9936 98.4399 85.0623C101.598 88.131 104.437 86.1506 105.447 84.692C106.457 83.2334 107.966 77.887 108.712 73.786C109.458 69.685 107.932 59.7607 106.535 57.2417C105.138 54.7228 96.1903 50.8069 89.3515 58.1786Z" fill="white"/>
<path d="M89.3515 58.1786C88.866 59.0712 88.4732 60.0111 88.179 60.9836C88.5156 61.1575 92.0107 62.9472 93.5535 62.9472C95.0962 62.9472 89.2224 63.8504 91.0289 66.0159C92.8354 68.1814 101.486 66.1954 104.19 64.2095C106.894 62.2235 107.079 62.7677 107.079 62.7677C107.079 62.7677 108.342 71.7831 107.438 76.6527C106.535 81.5223 105.093 84.4059 102.748 85.1296C100.403 85.8533 97.0654 82.8855 94.9952 80.6415C93.8987 79.4987 92.6838 78.4757 91.3711 77.5896C93.2673 80.2432 96.1341 82.8743 98.4399 85.1127C101.593 88.1815 104.437 86.2011 105.447 84.7425C106.457 83.2838 107.966 77.9374 108.712 73.8364C109.458 69.7354 107.932 59.8111 106.535 57.2922C105.138 54.7732 96.1902 50.8069 89.3515 58.1786Z" fill="#FFD202"/>
<path opacity="0.5" d="M89.3515 58.1786C88.866 59.0712 88.4732 60.0111 88.179 60.9836C88.5156 61.1575 92.0107 62.9472 93.5535 62.9472C95.0962 62.9472 89.2224 63.8504 91.0289 66.0159C92.8354 68.1814 101.486 66.1954 104.19 64.2095C106.894 62.2235 107.079 62.7677 107.079 62.7677C107.079 62.7677 108.342 71.7831 107.438 76.6527C106.535 81.5223 105.093 84.4059 102.748 85.1296C100.403 85.8533 97.0654 82.8855 94.9952 80.6415C93.8987 79.4987 92.6838 78.4757 91.3711 77.5896C93.2673 80.2432 96.1341 82.8743 98.4399 85.1127C101.593 88.1815 104.437 86.2011 105.447 84.7425C106.457 83.2838 107.966 77.9374 108.712 73.8364C109.458 69.7354 107.932 59.8111 106.535 57.2922C105.138 54.7732 96.1902 50.8069 89.3515 58.1786Z" fill="white"/>
<path d="M96.2912 71.5868C96.4259 72.3385 96.2295 73.0061 95.8536 73.0734C95.4778 73.1408 95.0626 72.5854 94.9224 71.8336C94.7821 71.0818 94.9841 70.4086 95.36 70.3413C95.7358 70.274 96.1566 70.8294 96.2912 71.5868Z" fill="#263238"/>
<path d="M103.141 70.0664C103.276 70.8182 103.085 71.4858 102.704 71.5531C102.322 71.6204 101.912 71.065 101.772 70.3133C101.632 69.5615 101.834 68.8883 102.21 68.821C102.586 68.7537 103.006 69.3091 103.141 70.0664Z" fill="#263238"/>
<path d="M91.6572 69.5727C91.6572 69.5727 91.9658 67.8897 96.4427 67.8897" stroke="#263238" stroke-width="0.524228" stroke-linecap="round" stroke-linejoin="round"/>
<path d="M100.28 67.2558C100.28 67.2558 101.671 64.0131 104.448 65.8701" stroke="#263238" stroke-width="0.524228" stroke-linecap="round" stroke-linejoin="round"/>
<path d="M100.605 69.7242C100.605 69.7242 100.762 72.5012 101.997 73.7354C103.231 74.9696 103.074 75.4185 101.997 76.361C101.652 76.6298 101.248 76.812 100.819 76.892C100.389 76.9721 99.9464 76.9477 99.5282 76.821" stroke="#263238" stroke-width="0.524228" stroke-linecap="round" stroke-linejoin="round"/>
<path d="M100.28 80.2151C100.28 80.2151 102.748 79.9066 103.831 78.9809" stroke="#263238" stroke-width="0.524228" stroke-linecap="round" stroke-linejoin="round"/>
<path d="M89.3515 58.1786C89.3515 58.1786 87.5451 61.3259 87.82 63.7495C88.0949 66.173 88.4202 71.0033 89.7386 74.5938C91.057 78.1843 95.2814 81.9936 98.4399 85.0623C101.598 88.131 104.437 86.1506 105.447 84.692C106.457 83.2334 107.966 77.887 108.712 73.786C109.458 69.685 107.932 59.7607 106.535 57.2417C105.138 54.7228 96.1903 50.8069 89.3515 58.1786Z" stroke="#263238" stroke-width="0.524228" stroke-linecap="round" stroke-linejoin="round"/>
<path d="M84.6559 58.3805C84.6559 58.3805 89.8901 60.4338 92.3922 60.4338C94.8944 60.4338 93.5143 60.8883 91.9378 62.2515C90.3614 63.6148 90.1201 65.4381 96.0388 65.4381C101.957 65.4381 107.186 59.065 109.009 53.6063C110.833 48.1477 111.742 49.0509 108.555 47.4352C105.368 45.8195 97.1721 49.9373 97.1721 49.9373" fill="#263238"/>
<path d="M84.6559 58.3805C84.6559 58.3805 89.8901 60.4338 92.3922 60.4338C94.8944 60.4338 93.5143 60.8883 91.9378 62.2515C90.3614 63.6148 90.1201 65.4381 96.0388 65.4381C101.957 65.4381 107.186 59.065 109.009 53.6063C110.833 48.1477 111.742 49.0509 108.555 47.4352C105.368 45.8195 97.1721 49.9373 97.1721 49.9373" stroke="#263238" stroke-width="0.524228" stroke-linecap="round" stroke-linejoin="round"/>
<path d="M106.187 51.5867C106.187 51.5867 107.612 60.1309 99.545 62.504" stroke="white" stroke-width="0.524228" stroke-linecap="round" stroke-linejoin="round"/>
<path d="M104.527 51.5867C104.527 51.5867 101.195 56.8658 95.2759 57.5222C89.3572 58.1786 86.0192 54.6723 86.0192 54.6723" stroke="white" stroke-width="0.524228" stroke-linecap="round" stroke-linejoin="round"/>
<path d="M88.3921 60.1309C88.3921 60.1309 85.0709 60.3665 83.4103 58.4479" stroke="white" stroke-width="0.524228" stroke-linecap="round" stroke-linejoin="round"/>
<path d="M76.3416 119.907C76.3416 119.907 75.5001 116.541 70.7315 114.717C65.9629 112.894 65.4019 113.736 64.7006 115.138C63.9994 116.541 61.8956 118.644 62.3164 120.047C62.7371 121.45 64.4201 124.816 70.5913 126.078C76.7624 127.34 75.5001 124.255 76.2014 123.413C76.9026 122.572 77.6039 122.992 76.3416 119.907Z" fill="white" stroke="#263238" stroke-width="0.524228" stroke-linecap="round" stroke-linejoin="round"/>
<path d="M31.04 131.688C31.04 131.688 24.7286 133.792 25.0091 135.194C25.2896 136.597 31.1802 133.511 31.1802 133.511C31.1802 133.511 32.162 135.335 33.9853 134.633C35.8086 133.932 34.2658 131.127 33.284 131.267C32.3022 131.407 31.04 131.688 31.04 131.688Z" fill="white" stroke="#263238" stroke-width="0.524228" stroke-linecap="round" stroke-linejoin="round"/>
<path d="M64.841 130.566C64.841 130.566 73.3964 125.932 73.3964 123.688C73.3964 121.444 66.9448 118.499 65.2617 118.639C63.5787 118.779 62.8774 119.34 61.6152 121.444C60.3529 123.548 50.1144 133.085 50.1144 133.085C50.1144 133.085 43.3823 128.316 41.4187 128.316C39.4552 128.316 34.9671 133.506 34.6866 135.609C34.4061 137.713 43.9433 138.695 47.7301 138.695C52.3921 138.701 64.841 130.566 64.841 130.566Z" fill="white"/>
<path d="M73.3962 123.688C73.3962 121.444 66.9446 118.499 65.2616 118.639C64.8259 118.642 64.395 118.73 63.9936 118.9C63.5922 119.069 63.2281 119.316 62.9222 119.626C64.8101 119.37 66.7299 119.747 68.3808 120.698C71.831 122.768 68.8969 125.702 66.6529 127.25C64.4088 128.799 51.8253 136.911 49.0652 137.253C46.305 137.595 43.6963 135.666 41.9796 133.786C40.2629 131.907 39.0623 130.527 36.9922 131.733L36.8632 131.828C36.1184 132.698 35.4852 133.657 34.9782 134.684C34.8595 135.084 34.7732 135.493 34.7201 135.907C35.326 137.803 44.1283 138.712 47.73 138.712C52.392 138.712 64.8408 130.577 64.8408 130.577C64.8408 130.577 73.3962 125.932 73.3962 123.688Z" fill="#FFD202"/>
<path opacity="0.5" d="M73.3962 123.688C73.3962 121.444 66.9446 118.499 65.2616 118.639C64.8259 118.642 64.395 118.73 63.9936 118.9C63.5922 119.069 63.2281 119.316 62.9222 119.626C64.8101 119.37 66.7299 119.747 68.3808 120.698C71.831 122.768 68.8969 125.702 66.6529 127.25C64.4088 128.799 51.8253 136.911 49.0652 137.253C46.305 137.595 43.6963 135.666 41.9796 133.786C40.2629 131.907 39.0623 130.527 36.9922 131.733L36.8632 131.828C36.1184 132.698 35.4852 133.657 34.9782 134.684C34.8595 135.084 34.7732 135.493 34.7201 135.907C35.326 137.803 44.1283 138.712 47.73 138.712C52.392 138.712 64.8408 130.577 64.8408 130.577C64.8408 130.577 73.3962 125.932 73.3962 123.688Z" fill="white"/>
<path d="M64.841 130.566C64.841 130.566 73.3964 125.932 73.3964 123.688C73.3964 121.444 66.9448 118.499 65.2617 118.639C63.5787 118.779 62.8774 119.34 61.6152 121.444C60.3529 123.548 50.1144 133.085 50.1144 133.085C50.1144 133.085 43.3823 128.316 41.4187 128.316C39.4552 128.316 34.9671 133.506 34.6866 135.609C34.4061 137.713 43.9433 138.695 47.7301 138.695C52.3921 138.701 64.841 130.566 64.841 130.566Z" stroke="#263238" stroke-width="0.524228" stroke-linecap="round" stroke-linejoin="round"/>
<path d="M33.5645 128.602C33.5645 128.602 30.8997 129.865 30.6192 130.706C30.3387 131.548 28.5154 136.457 29.7777 137.018C31.0399 137.579 32.723 131.828 33.284 131.267C33.845 130.706 34.6865 129.444 33.5645 128.602Z" fill="white" stroke="#263238" stroke-width="0.524228" stroke-linecap="round" stroke-linejoin="round"/>
<path d="M36.3696 128.462C36.3696 128.462 34.6865 127.06 33.5645 128.602C32.4425 130.145 31.601 135.615 32.162 136.737C32.723 137.859 34.1255 136.737 34.6865 135.615C35.2475 134.493 36.3696 128.462 36.3696 128.462Z" fill="white" stroke="#263238" stroke-width="0.524228" stroke-linecap="round" stroke-linejoin="round"/>
<path d="M42.2601 129.163C42.2601 129.163 39.5953 126.919 38.0525 126.779C36.5097 126.639 35.9487 127.761 35.8085 129.023C35.6682 130.285 33.7047 136.036 34.2657 136.316C34.8267 136.597 35.9487 136.457 36.65 135.194C37.4418 133.455 38.144 131.676 38.7538 129.865L39.8758 130.706" fill="white"/>
<path d="M42.2601 129.163C42.2601 129.163 39.5953 126.919 38.0525 126.779C36.5097 126.639 35.9487 127.761 35.8085 129.023C35.6682 130.285 33.7047 136.036 34.2657 136.316C34.8267 136.597 35.9487 136.457 36.65 135.194C37.4418 133.455 38.144 131.676 38.7538 129.865L39.8758 130.706" stroke="#263238" stroke-width="0.524228" stroke-linecap="round" stroke-linejoin="round"/>
<path d="M49.5533 136.03C49.5533 136.03 50.1143 132.664 49.1325 131.262C48.1508 129.859 45.7665 129.999 43.9432 127.896C42.1199 125.792 40.7174 127.054 41.1381 128.877C41.5589 130.701 45.6262 131.823 45.6262 131.823C45.6262 131.823 42.2601 132.103 41.9796 133.786C41.6991 135.469 45.4411 136.221 45.4411 136.221" fill="white"/>
<path d="M49.5533 136.03C49.5533 136.03 50.1143 132.664 49.1325 131.262C48.1508 129.859 45.7665 129.999 43.9432 127.896C42.1199 125.792 40.7174 127.054 41.1381 128.877C41.5589 130.701 45.6262 131.823 45.6262 131.823C45.6262 131.823 42.2601 132.103 41.9796 133.786C41.6991 135.469 45.4411 136.221 45.4411 136.221" stroke="#263238" stroke-width="0.524228" stroke-linecap="round" stroke-linejoin="round"/>
<path d="M39.9994 124.064C42.0026 124.253 43.9413 124.873 45.6824 125.881" stroke="#263238" stroke-width="0.524228" stroke-linecap="round" stroke-linejoin="round"/>
<path d="M42.2715 123.155C42.2715 123.155 45.228 124.064 46.5913 125.203" stroke="#263238" stroke-width="0.524228" stroke-linecap="round" stroke-linejoin="round"/>
<path d="M120.521 91.8561C119.664 93.3434 118.914 94.8901 118.277 96.4845C117.716 98.1675 119.259 118.925 119.259 118.925C121.121 118.342 123.1 118.245 125.01 118.644C127.955 119.346 133.845 122.572 133.845 122.572C133.845 122.572 134.406 116.541 133.425 112.053C132.443 107.564 130.62 89.4718 129.357 87.6485C128.095 85.8252 128.516 84.8435 125.851 85.8252" fill="#FFD202"/>
<path d="M120.521 91.8561C119.664 93.3434 118.914 94.8901 118.277 96.4845C117.716 98.1675 119.259 118.925 119.259 118.925C121.121 118.342 123.1 118.245 125.01 118.644C127.955 119.346 133.845 122.572 133.845 122.572C133.845 122.572 134.406 116.541 133.425 112.053C132.443 107.564 130.62 89.4718 129.357 87.6485C128.095 85.8252 128.516 84.8435 125.851 85.8252" stroke="#263238" stroke-width="0.524228" stroke-linecap="round" stroke-linejoin="round"/>
<path d="M135.809 119.065C135.809 119.065 132.022 115.839 129.077 115.138C126.131 114.437 120.521 115.138 119.68 115.419C118.838 115.699 118.277 116.681 118.137 118.083C117.997 119.486 117.015 120.468 117.716 121.309C118.417 122.151 122.345 124.816 125.57 125.657C128.796 126.499 133.705 126.218 134.406 124.114C135.108 122.011 136.51 120.608 135.809 119.065Z" fill="white" stroke="#263238" stroke-width="0.524228" stroke-linecap="round" stroke-linejoin="round"/>
<path d="M60.7006 130.42C60.7006 130.42 56.2125 132.356 54.7314 132.838C53.2503 133.32 52.7903 134.656 54.0862 135.082C55.3822 135.508 61.2728 133.309 61.8282 133.472C62.3836 133.635 68.4425 135.57 70.378 135.716C71.6531 135.756 72.9037 135.36 73.9236 134.594C73.9236 134.594 64.7286 128.793 60.7006 130.42Z" fill="white" stroke="#263238" stroke-width="0.524228" stroke-linecap="round" stroke-linejoin="round"/>
<path d="M129.784 128.053C130.517 127.807 131.164 127.356 131.648 126.753C132.132 126.15 132.432 125.421 132.512 124.652C132.593 123.883 132.45 123.107 132.102 122.417C131.753 121.726 131.213 121.151 130.547 120.759C129.558 120.199 128.497 119.778 127.394 119.508C124.044 118.712 120.536 118.906 117.295 120.069C115.893 120.63 84.4089 130.269 82.1481 130.588C79.8872 130.908 65.054 125.915 62.7932 125.752C59.803 125.539 56.3471 133.438 55.3766 135.548C55.193 135.882 55.0912 136.255 55.0793 136.636C55.0776 136.826 55.1381 137.012 55.2515 137.165C55.3649 137.318 55.525 137.43 55.7076 137.483C56.1396 137.556 56.5098 137.203 56.7791 136.86C58.7763 134.375 59.8703 131.133 62.3892 129.175L58.8998 135.907C58.6846 136.259 58.5469 136.653 58.4958 137.062C58.4735 137.267 58.5156 137.474 58.6161 137.654C58.7166 137.834 58.8707 137.978 59.0568 138.067C59.6178 138.269 60.1789 137.781 60.4874 137.298C61.1998 136.125 61.8351 134.907 62.3892 133.651C62.9518 132.387 63.9056 131.337 65.1101 130.656C63.7357 133.013 62.6221 135.513 61.789 138.112C61.718 138.31 61.7215 138.528 61.7989 138.724C61.8763 138.92 62.0223 139.081 62.2097 139.177C62.7707 139.419 63.1634 138.886 63.4271 138.431L67.1803 131.867C66.1873 134.112 65.2953 136.423 64.4986 138.751C64.4288 138.906 64.4073 139.078 64.4369 139.245C64.4634 139.326 64.5079 139.4 64.5672 139.461C64.6265 139.522 64.699 139.569 64.7792 139.598C64.9925 139.673 65.2229 139.686 65.4433 139.636C65.6638 139.585 65.8654 139.473 66.0246 139.312C66.3383 138.99 66.5844 138.609 66.7483 138.19C67.4215 136.715 67.8984 135.138 68.594 133.702C70.5295 134.117 72.1452 135.946 74.2602 136.249C76.3753 136.552 80.2238 135.604 80.2238 135.604C80.2238 135.604 118.709 130.319 123.758 129.337C125.787 129.01 127.798 128.582 129.784 128.053V128.053Z" fill="white"/>
<path d="M129.088 122.6C128.224 124.844 105.458 130.364 95.6292 132.086C85.8002 133.809 80.2799 135.71 76.4875 134.33C72.695 132.95 69.2448 131.054 68.3808 132.26C67.6796 133.236 66.4117 137.169 65.9573 139.357L66.0134 139.312C66.3271 138.99 66.5732 138.609 66.7371 138.19C67.4103 136.715 67.8872 135.138 68.5828 133.702C70.5183 134.117 72.134 135.946 74.249 136.249C76.364 136.552 80.2126 135.604 80.2126 135.604C80.2126 135.604 118.698 130.319 123.747 129.337C125.779 129.022 127.794 128.604 129.784 128.086C130.517 127.841 131.164 127.39 131.648 126.787C132.132 126.184 132.432 125.454 132.512 124.685C132.593 123.916 132.45 123.14 132.102 122.45C131.753 121.76 131.213 121.185 130.547 120.793C129.558 120.233 128.497 119.812 127.394 119.542C127.394 119.542 129.952 120.361 129.088 122.6Z" fill="#FFD202"/>
<path opacity="0.5" d="M129.088 122.6C128.224 124.844 105.458 130.364 95.6292 132.086C85.8002 133.809 80.2799 135.71 76.4875 134.33C72.695 132.95 69.2448 131.054 68.3808 132.26C67.6796 133.236 66.4117 137.169 65.9573 139.357L66.0134 139.312C66.3271 138.99 66.5732 138.609 66.7371 138.19C67.4103 136.715 67.8872 135.138 68.5828 133.702C70.5183 134.117 72.134 135.946 74.249 136.249C76.364 136.552 80.2126 135.604 80.2126 135.604C80.2126 135.604 118.698 130.319 123.747 129.337C125.779 129.022 127.794 128.604 129.784 128.086C130.517 127.841 131.164 127.39 131.648 126.787C132.132 126.184 132.432 125.454 132.512 124.685C132.593 123.916 132.45 123.14 132.102 122.45C131.753 121.76 131.213 121.185 130.547 120.793C129.558 120.233 128.497 119.812 127.394 119.542C127.394 119.542 129.952 120.361 129.088 122.6Z" fill="white"/>
<path d="M129.784 128.053C130.517 127.807 131.164 127.356 131.648 126.753C132.132 126.15 132.432 125.421 132.512 124.652C132.593 123.883 132.45 123.107 132.102 122.417C131.753 121.726 131.213 121.151 130.547 120.759C129.558 120.199 128.497 119.778 127.394 119.508C124.044 118.712 120.536 118.906 117.295 120.069C115.893 120.63 84.4089 130.269 82.1481 130.588C79.8872 130.908 65.054 125.915 62.7932 125.752C59.803 125.539 56.3471 133.438 55.3766 135.548C55.193 135.882 55.0912 136.255 55.0793 136.636C55.0776 136.826 55.1381 137.012 55.2515 137.165C55.3649 137.318 55.525 137.43 55.7076 137.483C56.1396 137.556 56.5098 137.203 56.7791 136.86C58.7763 134.375 59.8703 131.133 62.3892 129.175L58.8998 135.907C58.6846 136.259 58.5469 136.653 58.4958 137.062C58.4735 137.267 58.5156 137.474 58.6161 137.654C58.7166 137.834 58.8707 137.978 59.0568 138.067C59.6178 138.269 60.1789 137.781 60.4874 137.298C61.1998 136.125 61.8351 134.907 62.3892 133.651C62.9518 132.387 63.9056 131.337 65.1101 130.656C63.7357 133.013 62.6221 135.513 61.789 138.112C61.718 138.31 61.7215 138.528 61.7989 138.724C61.8763 138.92 62.0223 139.081 62.2097 139.177C62.7707 139.419 63.1634 138.886 63.4271 138.431L67.1803 131.867C66.1873 134.112 65.2953 136.423 64.4986 138.751C64.4288 138.906 64.4073 139.078 64.4369 139.245C64.4634 139.326 64.5079 139.4 64.5672 139.461C64.6265 139.522 64.699 139.569 64.7792 139.598C64.9925 139.673 65.2229 139.686 65.4433 139.636C65.6638 139.585 65.8654 139.473 66.0246 139.312C66.3383 138.99 66.5844 138.609 66.7483 138.19C67.4215 136.715 67.8984 135.138 68.594 133.702C70.5295 134.117 72.1452 135.946 74.2602 136.249C76.3753 136.552 80.2238 135.604 80.2238 135.604C80.2238 135.604 118.709 130.319 123.758 129.337C125.787 129.01 127.798 128.582 129.784 128.053V128.053Z" stroke="#263238" stroke-width="0.524228" stroke-linecap="round" stroke-linejoin="round"/>
<path d="M64.3456 145.772H18.0194L16.5089 120.305C16.4671 120.058 16.4794 119.805 16.5449 119.563C16.6105 119.322 16.7276 119.097 16.8884 118.905C17.0491 118.713 17.2496 118.558 17.476 118.451C17.7024 118.344 17.9493 118.287 18.1998 118.285H64.1472C64.3991 118.285 64.6481 118.339 64.8767 118.445C65.1053 118.551 65.308 118.706 65.4707 118.898C65.6334 119.09 65.7522 119.316 65.8188 119.559C65.8854 119.802 65.8981 120.057 65.8561 120.305L64.3456 145.772Z" fill="#263238" stroke="#263238" stroke-width="0.283087" stroke-linecap="round" stroke-linejoin="round"/>
<path d="M20.301 118.894H63.8135C64.0593 118.891 64.3027 118.942 64.5267 119.044C64.7506 119.145 64.9496 119.294 65.1098 119.481C65.2701 119.667 65.3876 119.886 65.4542 120.123C65.5208 120.36 65.5349 120.608 65.4954 120.851" stroke="white" stroke-width="0.283087" stroke-linecap="round" stroke-linejoin="round"/>
<path d="M16.8472 120.449C16.8835 120.023 17.0791 119.626 17.395 119.338C17.7109 119.05 18.1239 118.891 18.5516 118.894" stroke="white" stroke-width="0.283087" stroke-linecap="round" stroke-linejoin="round"/>
<path d="M64.5395 143.292H17.8256V145.772H64.5395V143.292Z" fill="white" stroke="#263238" stroke-width="0.283087" stroke-linecap="round" stroke-linejoin="round"/>
<path d="M41.0157 134.112C42.8436 134.112 44.3254 133.223 44.3254 132.128C44.3254 131.032 42.8436 130.144 41.0157 130.144C39.1878 130.144 37.7061 131.032 37.7061 132.128C37.7061 133.223 39.1878 134.112 41.0157 134.112Z" fill="white" stroke="#263238" stroke-width="0.283087" stroke-linecap="round" stroke-linejoin="round"/>
<path d="M202.811 35.8296H119.109C116.287 35.8296 114 38.1169 114 40.9384V88.9645C114 91.786 116.287 94.0732 119.109 94.0732H202.811C205.632 94.0732 207.919 91.786 207.919 88.9645V40.9384C207.919 38.1169 205.632 35.8296 202.811 35.8296Z" fill="#FFD202"/>
<path d="M163.169 69.3005C170.761 68.0803 175.927 60.9361 174.707 53.3435C173.487 45.7509 166.342 40.5851 158.75 41.8053C151.157 43.0255 145.991 50.1697 147.212 57.7623C148.432 65.3549 155.576 70.5207 163.169 69.3005Z" fill="#263238"/>
<path d="M160.854 58.127L156.214 64.0834C156.056 64.3314 155.84 64.5362 155.583 64.6795C155.326 64.8227 155.038 64.8999 154.744 64.9041C154.341 64.9096 153.952 64.7556 153.662 64.4757C153.515 64.3404 153.398 64.175 153.32 63.9905C153.242 63.8061 153.205 63.6071 153.211 63.4071C153.226 62.959 153.384 62.5275 153.662 62.1761L158.951 55.6334L153.991 49.0863C153.761 48.779 153.634 48.4062 153.631 48.0221C153.629 47.7931 153.676 47.5662 153.766 47.3559C153.857 47.1456 153.991 46.9564 154.158 46.8002C154.315 46.6359 154.504 46.5053 154.714 46.4161C154.923 46.327 155.148 46.2812 155.376 46.2816C155.667 46.2864 155.952 46.3639 156.206 46.5073C156.46 46.6506 156.673 46.8552 156.827 47.1023L161.309 53.0046L165.819 47.2015C165.98 46.9307 166.205 46.7039 166.475 46.5411C166.745 46.3783 167.051 46.2845 167.365 46.2681C167.56 46.2676 167.754 46.3074 167.933 46.385C168.112 46.4626 168.273 46.5763 168.407 46.719C168.549 46.8528 168.662 47.0142 168.74 47.1933C168.817 47.3724 168.857 47.5654 168.858 47.7606C168.853 48.1098 168.732 48.4476 168.515 48.721L163.208 55.5117L168.335 62.2753C168.577 62.5776 168.712 62.952 168.718 63.3394C168.719 63.5635 168.672 63.7851 168.579 63.9891C168.487 64.1931 168.351 64.3745 168.181 64.5208C167.85 64.839 167.409 65.0167 166.95 65.0168C166.658 65.0132 166.37 64.9361 166.115 64.7928C165.86 64.6494 165.645 64.4443 165.489 64.1962L160.854 58.127Z" fill="white"/>
<path d="M187.489 83.9864H134.413C133.336 83.9864 132.304 83.5589 131.543 82.7978C130.782 82.0368 130.355 81.0046 130.355 79.9283C130.355 78.852 130.782 77.8198 131.543 77.0587C132.304 76.2977 133.336 75.8701 134.413 75.8701H187.489C188.565 75.8701 189.598 76.2977 190.359 77.0587C191.12 77.8198 191.547 78.852 191.547 79.9283C191.547 81.0046 191.12 82.0368 190.359 82.7978C189.598 83.5589 188.565 83.9864 187.489 83.9864Z" fill="white"/>
<path d="M141.686 81.2359C141.65 81.2359 141.615 81.2288 141.583 81.2148C141.55 81.2009 141.521 81.1804 141.496 81.1548C141.47 81.1283 141.449 81.0966 141.435 81.0617C141.421 81.0268 141.414 80.9895 141.415 80.9519C141.415 80.8884 141.432 80.8261 141.465 80.7715L141.871 80.1402H141.041C141.003 80.1422 140.964 80.136 140.929 80.122C140.893 80.108 140.86 80.0866 140.834 80.0591C140.787 80.0051 140.762 79.9363 140.762 79.8652C140.762 79.7941 140.787 79.7253 140.834 79.6713C140.86 79.6438 140.893 79.6224 140.929 79.6084C140.964 79.5944 141.003 79.5882 141.041 79.5901L141.857 79.6127L141.496 79.0265C141.46 78.9665 141.44 78.8982 141.438 78.8281C141.437 78.7905 141.443 78.7531 141.457 78.7182C141.471 78.6833 141.492 78.6517 141.519 78.6252C141.544 78.5994 141.574 78.579 141.608 78.565C141.641 78.5511 141.677 78.5439 141.713 78.544C141.763 78.5433 141.813 78.5574 141.855 78.5847C141.898 78.612 141.931 78.6511 141.952 78.6973L142.349 79.4053L142.727 78.7289C142.751 78.6763 142.789 78.6312 142.837 78.5986C142.884 78.566 142.94 78.5471 142.998 78.544C143.033 78.544 143.068 78.5512 143.101 78.5652C143.133 78.5791 143.163 78.5996 143.187 78.6252C143.214 78.65 143.235 78.6801 143.249 78.7135C143.263 78.7469 143.269 78.7829 143.268 78.8191C143.268 78.8831 143.249 78.9457 143.214 78.9995L142.818 79.6352L143.643 79.6127C143.681 79.6104 143.72 79.6165 143.755 79.6305C143.791 79.6445 143.823 79.6661 143.85 79.6938C143.896 79.7478 143.922 79.8166 143.922 79.8877C143.922 79.9589 143.896 80.0277 143.85 80.0816C143.823 80.1093 143.791 80.131 143.755 80.145C143.72 80.159 143.681 80.1651 143.643 80.1628H142.809L143.178 80.74C143.22 80.8096 143.243 80.8888 143.246 80.9699C143.247 81.0064 143.241 81.0429 143.228 81.077C143.215 81.1111 143.195 81.1421 143.169 81.1683C143.146 81.1936 143.117 81.2139 143.085 81.2278C143.053 81.2418 143.019 81.2491 142.984 81.2495C142.929 81.2481 142.874 81.2308 142.828 81.1997C142.782 81.1685 142.745 81.1248 142.723 81.0736L142.349 80.4108L141.974 81.0736C141.947 81.1258 141.906 81.169 141.854 81.1978C141.803 81.2267 141.744 81.2399 141.686 81.2359Z" fill="black"/>
<path d="M145.825 81.2359C145.79 81.2359 145.755 81.2287 145.722 81.2148C145.69 81.2008 145.66 81.1804 145.636 81.1548C145.609 81.1283 145.588 81.0966 145.574 81.0617C145.56 81.0268 145.554 80.9894 145.555 80.9518C145.555 80.8884 145.572 80.826 145.604 80.7715L146.01 80.1402H145.18C145.142 80.1422 145.104 80.136 145.068 80.122C145.032 80.108 145 80.0865 144.973 80.059C144.927 80.0051 144.901 79.9363 144.901 79.8652C144.901 79.794 144.927 79.7252 144.973 79.6713C145 79.6438 145.032 79.6223 145.068 79.6084C145.104 79.5944 145.142 79.5881 145.18 79.5901L145.997 79.6127L145.613 79.0039C145.577 78.9439 145.557 78.8756 145.555 78.8055C145.554 78.768 145.56 78.7306 145.574 78.6957C145.588 78.6608 145.609 78.6291 145.636 78.6026C145.661 78.5768 145.691 78.5564 145.725 78.5424C145.758 78.5285 145.794 78.5214 145.83 78.5215C145.88 78.5207 145.93 78.5348 145.972 78.5621C146.015 78.5894 146.048 78.6286 146.069 78.6748L146.466 79.3827L146.844 78.7063C146.868 78.6537 146.906 78.6086 146.954 78.576C147.001 78.5434 147.057 78.5246 147.115 78.5215C147.15 78.5215 147.185 78.5286 147.218 78.5426C147.25 78.5566 147.28 78.577 147.304 78.6026C147.331 78.6274 147.352 78.6575 147.366 78.6909C147.38 78.7243 147.386 78.7603 147.385 78.7965C147.385 78.8605 147.366 78.9231 147.331 78.9769L146.935 79.6127L147.76 79.5901C147.798 79.5878 147.836 79.5939 147.872 79.6079C147.908 79.6219 147.94 79.6436 147.967 79.6713C148.013 79.7252 148.039 79.794 148.039 79.8652C148.039 79.9363 148.013 80.0051 147.967 80.059C147.94 80.0868 147.908 80.1084 147.872 80.1224C147.836 80.1364 147.798 80.1425 147.76 80.1402H146.925L147.295 80.7174C147.337 80.787 147.36 80.8662 147.363 80.9473C147.364 80.9839 147.358 81.0203 147.345 81.0544C147.332 81.0885 147.312 81.1196 147.286 81.1457C147.262 81.171 147.234 81.1913 147.202 81.2052C147.17 81.2192 147.136 81.2265 147.101 81.2269C147.045 81.2261 146.991 81.209 146.944 81.1778C146.898 81.1466 146.862 81.1025 146.84 81.051L146.466 80.3882L146.091 81.051C146.069 81.1039 146.032 81.1494 145.985 81.1822C145.938 81.2149 145.883 81.2335 145.825 81.2359Z" fill="black"/>
<path d="M149.965 81.2359C149.929 81.2359 149.894 81.2287 149.862 81.2148C149.829 81.2008 149.8 81.1804 149.775 81.1548C149.749 81.1283 149.728 81.0966 149.714 81.0617C149.7 81.0268 149.693 80.9894 149.694 80.9518C149.694 80.8884 149.711 80.826 149.744 80.7715L150.149 80.1402H149.32C149.281 80.1422 149.243 80.136 149.207 80.122C149.172 80.108 149.139 80.0865 149.112 80.059C149.066 80.0051 149.041 79.9363 149.041 79.8652C149.041 79.794 149.066 79.7252 149.112 79.6713C149.139 79.6438 149.172 79.6223 149.207 79.6084C149.243 79.5944 149.281 79.5881 149.32 79.5901L150.136 79.6127L149.753 79.0039C149.716 78.9439 149.696 78.8756 149.694 78.8055C149.693 78.768 149.7 78.7306 149.714 78.6957C149.728 78.6608 149.749 78.6291 149.775 78.6026C149.8 78.5768 149.831 78.5564 149.864 78.5424C149.897 78.5285 149.933 78.5214 149.969 78.5215C150.02 78.5207 150.069 78.5348 150.112 78.5621C150.154 78.5894 150.188 78.6286 150.208 78.6748L150.605 79.3827L150.984 78.7063C151.007 78.6537 151.045 78.6086 151.093 78.576C151.141 78.5434 151.196 78.5246 151.254 78.5215C151.29 78.5215 151.325 78.5286 151.357 78.5426C151.39 78.5566 151.419 78.577 151.444 78.6026C151.47 78.6274 151.491 78.6575 151.505 78.6909C151.519 78.7243 151.526 78.7603 151.525 78.7965C151.524 78.8605 151.505 78.9231 151.471 78.9769L151.074 79.6127L151.899 79.5901C151.937 79.5878 151.976 79.5939 152.012 79.6079C152.047 79.6219 152.08 79.6436 152.106 79.6713C152.153 79.7252 152.178 79.794 152.178 79.8652C152.178 79.9363 152.153 80.0051 152.106 80.059C152.08 80.0868 152.047 80.1084 152.012 80.1224C151.976 80.1364 151.937 80.1425 151.899 80.1402H151.065L151.435 80.7174C151.476 80.787 151.5 80.8662 151.502 80.9473C151.503 80.9839 151.497 81.0203 151.484 81.0544C151.471 81.0885 151.451 81.1196 151.426 81.1457C151.402 81.171 151.373 81.1913 151.341 81.2052C151.31 81.2192 151.275 81.2265 151.241 81.2269C151.185 81.2261 151.13 81.209 151.084 81.1778C151.037 81.1466 151.001 81.1025 150.979 81.051L150.605 80.3882L150.231 81.051C150.208 81.1039 150.172 81.1494 150.124 81.1822C150.077 81.2149 150.022 81.2335 149.965 81.2359Z" fill="black"/>
<path d="M154.122 81.2359C154.087 81.2359 154.052 81.2287 154.019 81.2148C153.986 81.2008 153.957 81.1804 153.933 81.1548C153.906 81.1283 153.885 81.0966 153.871 81.0617C153.857 81.0268 153.85 80.9894 153.851 80.9518C153.851 80.8884 153.869 80.826 153.901 80.7715L154.307 80.1402H153.477C153.439 80.1422 153.401 80.136 153.365 80.122C153.329 80.108 153.297 80.0865 153.27 80.059C153.223 80.0051 153.198 79.9363 153.198 79.8652C153.198 79.794 153.223 79.7252 153.27 79.6713C153.297 79.6438 153.329 79.6223 153.365 79.6084C153.401 79.5944 153.439 79.5881 153.477 79.5901L154.293 79.6127L153.91 79.0039C153.874 78.9439 153.854 78.8756 153.851 78.8055C153.85 78.768 153.857 78.7306 153.871 78.6957C153.885 78.6608 153.906 78.6291 153.933 78.6026C153.958 78.5768 153.988 78.5564 154.021 78.5424C154.055 78.5285 154.09 78.5214 154.127 78.5215C154.177 78.5207 154.227 78.5348 154.269 78.5621C154.312 78.5894 154.345 78.6286 154.366 78.6748L154.762 79.3827L155.141 78.7063C155.165 78.6537 155.203 78.6086 155.25 78.576C155.298 78.5434 155.354 78.5246 155.412 78.5215C155.447 78.5215 155.482 78.5286 155.515 78.5426C155.547 78.5566 155.577 78.577 155.601 78.6026C155.627 78.6274 155.648 78.6575 155.662 78.6909C155.676 78.7243 155.683 78.7603 155.682 78.7965C155.682 78.8605 155.663 78.9231 155.628 78.9769L155.231 79.6127L156.056 79.5901C156.095 79.5878 156.133 79.5939 156.169 79.6079C156.205 79.6219 156.237 79.6436 156.264 79.6713C156.31 79.7252 156.336 79.794 156.336 79.8652C156.336 79.9363 156.31 80.0051 156.264 80.059C156.237 80.0868 156.205 80.1084 156.169 80.1224C156.133 80.1364 156.095 80.1425 156.056 80.1402H155.222L155.592 80.7174C155.634 80.787 155.657 80.8662 155.66 80.9473C155.661 80.9839 155.655 81.0203 155.642 81.0544C155.628 81.0885 155.609 81.1196 155.583 81.1457C155.559 81.171 155.531 81.1913 155.499 81.2052C155.467 81.2192 155.433 81.2265 155.398 81.2269C155.342 81.2255 155.288 81.2083 155.242 81.1771C155.195 81.146 155.159 81.1022 155.137 81.051L154.762 80.3882L154.388 81.051C154.366 81.1039 154.329 81.1494 154.282 81.1822C154.235 81.2149 154.179 81.2335 154.122 81.2359Z" fill="black"/>
<path d="M158.243 81.2359C158.208 81.2359 158.173 81.2287 158.14 81.2148C158.108 81.2008 158.078 81.1804 158.054 81.1548C158.027 81.1283 158.006 81.0966 157.992 81.0617C157.978 81.0268 157.972 80.9894 157.973 80.9518C157.975 80.8887 157.992 80.8269 158.022 80.7715L158.428 80.1402H157.598C157.56 80.1422 157.522 80.136 157.486 80.122C157.45 80.108 157.418 80.0865 157.391 80.059C157.345 80.0051 157.319 79.9363 157.319 79.8652C157.319 79.794 157.345 79.7252 157.391 79.6713C157.418 79.6438 157.45 79.6223 157.486 79.6084C157.522 79.5944 157.56 79.5881 157.598 79.5901L158.415 79.6127L158.031 79.0039C157.995 78.9439 157.975 78.8756 157.973 78.8055C157.972 78.768 157.978 78.7306 157.992 78.6957C158.006 78.6608 158.027 78.6291 158.054 78.6026C158.079 78.5768 158.109 78.5564 158.143 78.5424C158.176 78.5285 158.212 78.5214 158.248 78.5215C158.298 78.5207 158.348 78.5349 158.39 78.5621C158.433 78.5894 158.466 78.6286 158.487 78.6748L158.884 79.3827L159.262 78.7063C159.286 78.6537 159.324 78.6086 159.372 78.576C159.419 78.5434 159.475 78.5246 159.533 78.5215C159.568 78.5209 159.604 78.5279 159.636 78.5418C159.669 78.5558 159.698 78.5765 159.722 78.6026C159.749 78.6274 159.77 78.6575 159.784 78.6909C159.798 78.7243 159.804 78.7603 159.803 78.7965C159.803 78.8605 159.784 78.9231 159.749 78.9769L159.352 79.6127L160.178 79.5901C160.216 79.5878 160.254 79.5939 160.29 79.6079C160.326 79.6219 160.358 79.6436 160.385 79.6713C160.431 79.7252 160.457 79.794 160.457 79.8652C160.457 79.9363 160.431 80.0051 160.385 80.059C160.358 80.0868 160.326 80.1084 160.29 80.1224C160.254 80.1364 160.216 80.1425 160.178 80.1402H159.343L159.713 80.7174C159.755 80.787 159.778 80.8662 159.781 80.9473C159.782 80.9839 159.776 81.0203 159.763 81.0544C159.75 81.0885 159.73 81.1196 159.704 81.1457C159.68 81.171 159.652 81.1913 159.62 81.2052C159.588 81.2192 159.554 81.2265 159.519 81.2269C159.464 81.2255 159.409 81.2083 159.363 81.1771C159.317 81.146 159.28 81.1022 159.258 81.051L158.884 80.3882L158.509 81.051C158.487 81.1039 158.45 81.1494 158.403 81.1822C158.356 81.2149 158.301 81.2335 158.243 81.2359Z" fill="black"/>
<path d="M162.382 81.2359C162.347 81.2359 162.312 81.2287 162.279 81.2148C162.247 81.2008 162.217 81.1804 162.193 81.1548C162.166 81.1283 162.145 81.0966 162.131 81.0617C162.117 81.0268 162.111 80.9894 162.112 80.9518C162.114 80.8887 162.131 80.8269 162.161 80.7715L162.567 80.1402H161.742C161.703 80.1425 161.664 80.1365 161.627 80.1225C161.591 80.1085 161.558 80.0869 161.53 80.059C161.484 80.0051 161.458 79.9363 161.458 79.8652C161.458 79.794 161.484 79.7252 161.53 79.6713C161.558 79.6434 161.591 79.6218 161.627 79.6078C161.664 79.5938 161.703 79.5878 161.742 79.5901L162.554 79.6127L162.17 79.0039C162.134 78.9439 162.114 78.8756 162.112 78.8055C162.111 78.768 162.117 78.7306 162.131 78.6957C162.145 78.6608 162.166 78.6291 162.193 78.6026C162.218 78.5768 162.248 78.5564 162.282 78.5424C162.315 78.5285 162.351 78.5214 162.387 78.5215C162.437 78.5207 162.487 78.5349 162.53 78.5621C162.572 78.5894 162.606 78.6286 162.626 78.6748L163.023 79.3827L163.401 78.7063C163.425 78.6537 163.463 78.6086 163.511 78.576C163.559 78.5434 163.614 78.5246 163.672 78.5215C163.708 78.5209 163.743 78.5279 163.775 78.5418C163.808 78.5558 163.837 78.5765 163.861 78.6026C163.888 78.6274 163.909 78.6575 163.923 78.6909C163.937 78.7243 163.943 78.7603 163.943 78.7965C163.942 78.8605 163.923 78.9231 163.888 78.9769L163.492 79.6127L164.317 79.5901C164.355 79.5878 164.394 79.5939 164.429 79.6079C164.465 79.6219 164.498 79.6436 164.524 79.6713C164.571 79.7252 164.596 79.794 164.596 79.8652C164.596 79.9363 164.571 80.0051 164.524 80.059C164.498 80.0868 164.465 80.1084 164.429 80.1224C164.394 80.1364 164.355 80.1425 164.317 80.1402H163.483L163.852 80.7174C163.894 80.787 163.917 80.8662 163.92 80.9473C163.921 80.9839 163.915 81.0203 163.902 81.0544C163.889 81.0885 163.869 81.1196 163.843 81.1457C163.82 81.171 163.791 81.1913 163.759 81.2052C163.727 81.2192 163.693 81.2265 163.658 81.2269C163.603 81.2255 163.548 81.2083 163.502 81.1771C163.456 81.146 163.419 81.1022 163.397 81.051L163.023 80.3882L162.648 81.051C162.626 81.1039 162.589 81.1494 162.542 81.1822C162.495 81.2149 162.44 81.2335 162.382 81.2359Z" fill="black"/>
<path d="M166.522 81.236C166.486 81.236 166.451 81.2288 166.419 81.2148C166.386 81.2009 166.357 81.1804 166.332 81.1548C166.306 81.1283 166.285 81.0966 166.271 81.0617C166.257 81.0268 166.25 80.9895 166.251 80.9519C166.251 80.8884 166.268 80.8261 166.301 80.7715L166.707 80.1403H165.877C165.839 80.1422 165.8 80.136 165.765 80.122C165.729 80.108 165.696 80.0866 165.67 80.0591C165.623 80.0051 165.598 79.9363 165.598 79.8652C165.598 79.7941 165.623 79.7253 165.67 79.6713C165.696 79.6438 165.729 79.6224 165.765 79.6084C165.8 79.5944 165.839 79.5882 165.877 79.5901L166.693 79.6127L166.296 79.0265C166.26 78.9665 166.24 78.8982 166.238 78.8281C166.237 78.7905 166.243 78.7531 166.257 78.7182C166.271 78.6833 166.292 78.6517 166.319 78.6252C166.344 78.5994 166.374 78.579 166.408 78.565C166.441 78.5511 166.477 78.5439 166.513 78.544C166.563 78.5433 166.613 78.5574 166.655 78.5847C166.698 78.612 166.731 78.6511 166.752 78.6973L167.149 79.4053L167.527 78.7289C167.551 78.6763 167.589 78.6312 167.637 78.5986C167.684 78.566 167.74 78.5471 167.798 78.544C167.833 78.5435 167.869 78.5504 167.901 78.5644C167.934 78.5784 167.963 78.5991 167.987 78.6252C168.014 78.65 168.035 78.6801 168.049 78.7135C168.063 78.7469 168.069 78.7829 168.068 78.8191C168.068 78.8831 168.049 78.9457 168.014 78.9995L167.618 79.6352L168.443 79.6127C168.481 79.6104 168.519 79.6165 168.555 79.6305C168.591 79.6445 168.623 79.6661 168.65 79.6939C168.696 79.7478 168.722 79.8166 168.722 79.8877C168.722 79.9589 168.696 80.0277 168.65 80.0816C168.623 80.1093 168.591 80.131 168.555 80.145C168.519 80.159 168.481 80.1651 168.443 80.1628H167.609L167.978 80.74C168.02 80.8096 168.043 80.8888 168.046 80.9699C168.047 81.0065 168.041 81.0429 168.028 81.077C168.015 81.1111 167.995 81.1421 167.969 81.1683C167.945 81.1936 167.917 81.2139 167.885 81.2278C167.853 81.2418 167.819 81.2491 167.784 81.2495C167.729 81.2481 167.674 81.2308 167.628 81.1997C167.582 81.1685 167.545 81.1248 167.523 81.0736L167.149 80.4108L166.774 81.0736C166.75 81.1203 166.714 81.1599 166.67 81.1884C166.625 81.2168 166.574 81.2332 166.522 81.236Z" fill="black"/>
<path d="M170.661 81.2359C170.626 81.2359 170.591 81.2287 170.558 81.2148C170.526 81.2008 170.496 81.1804 170.472 81.1548C170.445 81.1283 170.424 81.0966 170.41 81.0617C170.396 81.0268 170.389 80.9894 170.391 80.9519C170.393 80.8887 170.41 80.8269 170.44 80.7715L170.846 80.1402H170.021C169.982 80.1431 169.944 80.1373 169.908 80.1233C169.872 80.1092 169.84 80.0873 169.813 80.0591C169.764 80.0064 169.737 79.9371 169.737 79.8652C169.737 79.7932 169.764 79.7239 169.813 79.6713C169.84 79.6431 169.872 79.6211 169.908 79.6071C169.944 79.593 169.982 79.5872 170.021 79.5901L170.832 79.6127L170.449 79.0039C170.413 78.9439 170.393 78.8756 170.391 78.8055C170.389 78.7687 170.396 78.7319 170.409 78.6975C170.422 78.6631 170.442 78.6317 170.468 78.6052C170.494 78.5787 170.524 78.5576 170.558 78.5432C170.592 78.5288 170.629 78.5214 170.666 78.5215C170.716 78.5207 170.766 78.5349 170.808 78.5621C170.851 78.5894 170.884 78.6286 170.905 78.6748L171.301 79.3827L171.68 78.7063C171.704 78.6537 171.742 78.6086 171.79 78.576C171.837 78.5434 171.893 78.5246 171.951 78.5215C171.986 78.5203 172.022 78.527 172.054 78.541C172.087 78.555 172.116 78.5761 172.14 78.6026C172.167 78.6274 172.187 78.6575 172.201 78.6909C172.215 78.7243 172.222 78.7603 172.221 78.7965C172.221 78.8605 172.202 78.9231 172.167 78.9769L171.77 79.6127L172.595 79.5901C172.634 79.5878 172.672 79.5939 172.708 79.6079C172.744 79.6219 172.776 79.6436 172.803 79.6713C172.849 79.7252 172.875 79.794 172.875 79.8652C172.875 79.9363 172.849 80.0051 172.803 80.0591C172.776 80.0868 172.744 80.1084 172.708 80.1224C172.672 80.1364 172.634 80.1425 172.595 80.1402H171.761L172.131 80.7174C172.173 80.787 172.196 80.8662 172.199 80.9473C172.2 80.9829 172.194 81.0183 172.182 81.0516C172.169 81.0849 172.15 81.1154 172.126 81.1413C172.102 81.1673 172.072 81.1882 172.04 81.2029C172.008 81.2176 171.973 81.2257 171.937 81.2269C171.881 81.2255 171.827 81.2083 171.781 81.1771C171.734 81.146 171.698 81.1022 171.676 81.051L171.301 80.3882L170.927 81.051C170.905 81.1039 170.868 81.1494 170.821 81.1822C170.774 81.2149 170.718 81.2335 170.661 81.2359Z" fill="black"/>
<path d="M174.801 81.2359C174.765 81.2359 174.73 81.2287 174.697 81.2148C174.665 81.2008 174.636 81.1804 174.611 81.1548C174.584 81.1283 174.563 81.0966 174.55 81.0617C174.536 81.0268 174.529 80.9894 174.53 80.9519C174.532 80.8887 174.549 80.8269 174.58 80.7715L174.985 80.1402H174.156C174.118 80.1424 174.08 80.1363 174.045 80.1223C174.01 80.1082 173.979 80.0867 173.953 80.0591C173.904 80.0064 173.876 79.9371 173.876 79.8652C173.876 79.7932 173.904 79.7239 173.953 79.6713C173.979 79.6437 174.01 79.6221 174.045 79.608C174.08 79.594 174.118 79.5879 174.156 79.5901L174.972 79.6127L174.589 79.0039C174.552 78.9439 174.532 78.8756 174.53 78.8055C174.529 78.7687 174.535 78.7319 174.548 78.6975C174.562 78.6631 174.582 78.6317 174.607 78.6052C174.633 78.5787 174.664 78.5576 174.698 78.5432C174.732 78.5288 174.768 78.5214 174.805 78.5215C174.856 78.5207 174.905 78.5349 174.948 78.5621C174.99 78.5894 175.024 78.6286 175.044 78.6748L175.441 79.3827L175.82 78.7063C175.843 78.6537 175.881 78.6086 175.929 78.576C175.977 78.5434 176.032 78.5246 176.09 78.5215C176.126 78.5203 176.161 78.527 176.194 78.541C176.227 78.555 176.256 78.5761 176.279 78.6026C176.306 78.6274 176.327 78.6575 176.341 78.6909C176.355 78.7243 176.362 78.7603 176.361 78.7965C176.36 78.8605 176.341 78.9231 176.307 78.9769L175.91 79.6127L176.735 79.5901C176.773 79.5878 176.812 79.5939 176.848 79.6079C176.883 79.6219 176.916 79.6436 176.942 79.6713C176.989 79.7252 177.014 79.794 177.014 79.8652C177.014 79.9363 176.989 80.0051 176.942 80.0591C176.916 80.0868 176.883 80.1084 176.848 80.1224C176.812 80.1364 176.773 80.1425 176.735 80.1402H175.901L176.27 80.7174C176.312 80.787 176.335 80.8662 176.338 80.9473C176.339 80.9829 176.334 81.0183 176.321 81.0516C176.309 81.0849 176.29 81.1154 176.265 81.1413C176.241 81.1673 176.212 81.1882 176.179 81.2029C176.147 81.2176 176.112 81.2257 176.077 81.2269C176.021 81.2255 175.966 81.2083 175.92 81.1771C175.874 81.146 175.837 81.1022 175.815 81.051L175.441 80.3882L175.067 81.051C175.044 81.1039 175.008 81.1494 174.96 81.1822C174.913 81.2149 174.858 81.2335 174.801 81.2359Z" fill="black"/>
<path d="M178.922 81.2359C178.886 81.2359 178.851 81.2287 178.819 81.2148C178.786 81.2008 178.757 81.1804 178.732 81.1548C178.706 81.1283 178.685 81.0966 178.671 81.0617C178.657 81.0268 178.65 80.9894 178.651 80.9519C178.653 80.8887 178.67 80.8269 178.701 80.7715L179.107 80.1402H178.277C178.239 80.1424 178.202 80.1363 178.167 80.1223C178.131 80.1082 178.1 80.0867 178.074 80.0591C178.025 80.0064 177.998 79.9371 177.998 79.8652C177.998 79.7932 178.025 79.7239 178.074 79.6713C178.1 79.6437 178.131 79.6221 178.167 79.608C178.202 79.594 178.239 79.5879 178.277 79.5901L179.093 79.6127L178.71 79.0039C178.674 78.9439 178.654 78.8756 178.651 78.8055C178.65 78.768 178.657 78.7306 178.671 78.6957C178.685 78.6608 178.706 78.6291 178.732 78.6026C178.758 78.5768 178.788 78.5564 178.821 78.5424C178.854 78.5285 178.89 78.5214 178.926 78.5215C178.977 78.5207 179.026 78.5349 179.069 78.5621C179.111 78.5894 179.145 78.6286 179.165 78.6748L179.562 79.3827L179.941 78.7063C179.965 78.6537 180.003 78.6086 180.05 78.576C180.098 78.5434 180.154 78.5246 180.211 78.5215C180.247 78.5203 180.282 78.527 180.315 78.541C180.348 78.555 180.377 78.5761 180.401 78.6026C180.427 78.6274 180.448 78.6575 180.462 78.6909C180.476 78.7243 180.483 78.7603 180.482 78.7965C180.481 78.8605 180.463 78.9231 180.428 78.9769L180.031 79.6127L180.856 79.5901C180.895 79.5878 180.933 79.5939 180.969 79.6079C181.005 79.6219 181.037 79.6436 181.064 79.6713C181.11 79.7252 181.135 79.794 181.135 79.8652C181.135 79.9363 181.11 80.0051 181.064 80.0591C181.037 80.0868 181.005 80.1084 180.969 80.1224C180.933 80.1364 180.895 80.1425 180.856 80.1402H180.022L180.392 80.7174C180.434 80.787 180.457 80.8662 180.459 80.9473C180.461 80.9839 180.455 81.0203 180.441 81.0544C180.428 81.0885 180.408 81.1196 180.383 81.1457C180.359 81.171 180.33 81.1913 180.299 81.2052C180.267 81.2192 180.233 81.2265 180.198 81.2269C180.142 81.2255 180.088 81.2083 180.041 81.1771C179.995 81.146 179.959 81.1022 179.936 81.051L179.562 80.3882L179.188 81.051C179.166 81.1039 179.129 81.1494 179.082 81.1822C179.035 81.2149 178.979 81.2335 178.922 81.2359Z" fill="black"/>
<path d="M193.107 91.21H198.622" stroke="white" stroke-width="0.849261" stroke-linecap="round" stroke-linejoin="round"/>
<path d="M116.62 50.6059V87.233C116.62 88.2938 117.041 89.3111 117.791 90.0611C118.541 90.8112 119.559 91.2326 120.619 91.2326H187.872" stroke="white" stroke-width="0.849261" stroke-linecap="round" stroke-linejoin="round"/>
<path d="M116.62 40.8932V46.3852" stroke="white" stroke-width="0.849261" stroke-linecap="round" stroke-linejoin="round"/>
</svg>
