<svg width="208" height="149" viewBox="0 0 208 149" fill="none" xmlns="http://www.w3.org/2000/svg">
<path d="M170.71 69.7358C170.71 69.7358 170.71 67.4813 167.554 64.3565C164.397 61.2317 162.395 59.4191 162.395 59.4191C162.395 59.4191 160.826 64.5774 163.748 67.7203C165.893 69.9276 168.219 71.9517 170.701 73.7714L170.71 69.7358Z" fill="#FFD202"/>
<path d="M166.156 83.741C166.156 83.741 166.156 81.4865 163 78.3617C159.843 75.2369 157.85 73.4243 157.85 73.4243C157.85 73.4243 156.277 78.5826 159.203 81.7255C161.348 83.9328 163.674 85.9569 166.156 87.7766V83.741Z" fill="#FFD202"/>
<path d="M170.511 73.5549C170.511 73.5549 170.75 71.3275 174.204 68.5364C177.658 65.7452 179.854 64.1761 179.854 64.1761C179.854 64.1761 180.869 69.4697 177.64 72.2924C175.274 74.2613 172.748 76.029 170.088 77.577L170.511 73.5549Z" fill="#FFD202"/>
<path d="M165.01 90.0942C165.01 90.0942 165.461 87.9028 169.208 85.4905C172.955 83.0781 175.282 81.748 175.282 81.748C175.282 81.748 175.733 87.1228 172.229 89.5802C169.669 91.2901 166.971 92.7833 164.163 94.0442L165.01 90.0942Z" fill="#FFD202"/>
<path d="M166.043 108.13C166.043 108.13 166.043 105.876 169.199 102.747C172.356 99.6173 174.353 97.8137 174.353 97.8137C174.353 97.8137 175.927 102.972 173.001 106.11C170.856 108.32 168.531 110.346 166.048 112.166L166.043 108.13Z" fill="#FFD202"/>
<path d="M165.993 112.531C165.993 112.531 166.309 110.313 163.649 106.76C160.988 103.207 159.243 101.141 159.243 101.141C159.243 101.141 156.957 106.025 159.397 109.546C161.205 112.037 163.218 114.372 165.416 116.526L165.993 112.531Z" fill="#FFD202"/>
<path d="M162.896 125.576C162.896 125.576 162.896 123.322 166.052 120.197C169.208 117.072 171.21 115.259 171.21 115.259C171.21 115.259 172.78 120.418 169.858 123.561C167.712 125.769 165.386 127.794 162.905 129.616L162.896 125.576Z" fill="#FFD202"/>
<path d="M164.992 137.403C164.992 137.403 164.424 135.235 166.665 131.402C168.906 127.569 170.408 125.324 170.408 125.324C170.408 125.324 173.23 129.914 171.206 133.692C169.691 136.371 167.955 138.919 166.016 141.308L164.992 137.403Z" fill="#FFD202"/>
<path d="M170.994 69.1631C170.836 71.4977 170.55 73.8219 170.137 76.1251C168.893 82.537 165.79 86.6763 164.55 92.466C163.31 98.2556 166.873 105.718 165.903 113.158C164.934 120.598 162.057 124.733 162.882 129.697C163.707 134.662 168.054 148.108 168.054 148.108" stroke="#263238" stroke-width="0.283087" stroke-linecap="round" stroke-linejoin="round"/>
<path d="M170.484 75.0475L173.866 72.4503" stroke="#263238" stroke-width="0.283087" stroke-linecap="round" stroke-linejoin="round"/>
<path d="M170.642 72.058L169.222 69.5374" stroke="#263238" stroke-width="0.283087" stroke-linecap="round" stroke-linejoin="round"/>
<path d="M164.74 92.1999C164.74 92.1999 167.572 90.0762 170.484 87.9524" stroke="#263238" stroke-width="0.283087" stroke-linecap="round" stroke-linejoin="round"/>
<path d="M166.156 87.7766C166.156 87.7766 163.793 83.1503 161.119 80.0841" stroke="#263238" stroke-width="0.283087" stroke-linecap="round" stroke-linejoin="round"/>
<path d="M166.156 111.323C167.771 108.338 169.812 105.603 172.216 103.207" stroke="#263238" stroke-width="0.283087" stroke-linecap="round" stroke-linejoin="round"/>
<path d="M165.606 114.47C164.746 112.446 163.719 110.497 162.535 108.645C160.885 106.205 160.646 105.889 160.646 105.889" stroke="#263238" stroke-width="0.283087" stroke-linecap="round" stroke-linejoin="round"/>
<path d="M162.896 129.697C163.615 127.92 164.468 126.2 165.448 124.553C166.428 123.021 167.534 121.573 168.753 120.224" stroke="#263238" stroke-width="0.283087" stroke-linecap="round" stroke-linejoin="round"/>
<path d="M166.016 141.308C165.852 139.609 166.144 137.896 166.864 136.348C168.045 134.067 169.38 131.077 169.93 129.896" stroke="#263238" stroke-width="0.283087" stroke-linecap="round" stroke-linejoin="round"/>
<path d="M145.089 99.6986C145.089 99.6986 144.846 98.2917 146.474 95.9786C148.101 93.6654 149.179 92.3262 149.179 92.3262C149.179 92.3262 150.721 95.3924 149.233 97.674C148.128 99.2924 146.89 100.816 145.531 102.228L145.089 99.6986Z" fill="#FFD202"/>
<path d="M149.468 107.986C149.468 107.986 149.224 106.579 150.852 104.266C152.48 101.953 153.557 100.614 153.557 100.614C153.557 100.614 155.1 103.68 153.612 105.966C152.506 107.583 151.267 109.104 149.91 110.516L149.468 107.986Z" fill="#FFD202"/>
<path d="M145.626 102.07C145.626 102.07 145.238 100.718 142.767 99.3242C140.296 97.9309 138.754 97.2004 138.754 97.2004C138.754 97.2004 138.691 100.632 141.009 102.048C142.706 103.025 144.481 103.859 146.316 104.541L145.626 102.07Z" fill="#FFD202"/>
<path d="M150.875 111.846C150.875 111.846 150.342 110.52 147.745 109.411C145.148 108.302 143.525 107.725 143.525 107.725C143.525 107.725 143.822 111.143 146.293 112.306C148.084 113.099 149.938 113.742 151.835 114.227L150.875 111.846Z" fill="#FFD202"/>
<path d="M152.182 123.267C152.182 123.267 151.943 121.861 149.63 120.233C147.317 118.605 145.86 117.699 145.86 117.699C145.86 117.699 145.437 121.103 147.605 122.753C149.19 123.907 150.869 124.925 152.624 125.797L152.182 123.267Z" fill="#FFD202"/>
<path d="M152.696 126.022C152.696 126.022 152.245 124.67 153.539 122.145C154.833 119.62 155.69 118.145 155.69 118.145C155.69 118.145 157.652 120.959 156.506 123.434C155.643 125.192 154.634 126.873 153.49 128.462L152.696 126.022Z" fill="#FFD202"/>
<path d="M156.637 137.363C156.637 137.363 156.8 135.947 159.013 134.206C161.227 132.466 162.621 131.46 162.621 131.46C162.621 131.46 163.238 134.838 161.169 136.61C159.653 137.85 158.036 138.962 156.335 139.933L156.637 137.363Z" fill="#FFD202"/>
<path d="M156.046 133.864C156.046 133.864 155.803 132.457 153.494 130.829C151.185 129.201 149.734 128.295 149.734 128.295C149.734 128.295 149.31 131.699 151.479 133.354C153.064 134.506 154.743 135.524 156.497 136.398L156.046 133.864Z" fill="#FFD202"/>
<path d="M156.046 141.511C156.046 141.511 156.164 140.086 154.342 137.926C152.52 135.767 151.339 134.522 151.339 134.522C151.339 134.522 150.063 137.706 151.745 139.856C152.978 141.371 154.335 142.78 155.803 144.068L156.046 141.511Z" fill="#FFD202"/>
<path d="M144.85 99.3649C145.203 100.812 145.635 102.239 146.145 103.639C147.619 107.526 150.013 109.785 151.42 113.28C152.827 116.774 151.42 121.847 152.809 126.406C154.198 130.964 156.497 133.246 156.497 136.447C156.497 139.649 155.253 148.554 155.253 148.554" stroke="#263238" stroke-width="0.283087" stroke-linecap="round" stroke-linejoin="round"/>
<path d="M145.811 102.999L143.408 101.741" stroke="#263238" stroke-width="0.283087" stroke-linecap="round" stroke-linejoin="round"/>
<path d="M145.387 101.141L146 99.4099" stroke="#263238" stroke-width="0.283087" stroke-linecap="round" stroke-linejoin="round"/>
<path d="M151.271 113.136C151.271 113.136 149.265 112.112 147.213 111.093" stroke="#263238" stroke-width="0.283087" stroke-linecap="round" stroke-linejoin="round"/>
<path d="M149.905 110.516C150.497 108.658 151.275 106.865 152.227 105.164" stroke="#263238" stroke-width="0.283087" stroke-linecap="round" stroke-linejoin="round"/>
<path d="M152.462 125.278C151.124 123.585 149.547 122.095 147.781 120.855" stroke="#263238" stroke-width="0.283087" stroke-linecap="round" stroke-linejoin="round"/>
<path d="M153.147 127.19C153.468 125.83 153.901 124.498 154.441 123.209C155.212 121.5 155.343 121.275 155.343 121.275" stroke="#263238" stroke-width="0.283087" stroke-linecap="round" stroke-linejoin="round"/>
<path d="M156.389 138.878C157.171 137.909 158.037 137.011 158.977 136.195C159.575 135.755 160.136 135.266 160.655 134.734" stroke="#263238" stroke-width="0.283087" stroke-linecap="round" stroke-linejoin="round"/>
<path d="M156.497 136.447C155.853 135.408 155.131 134.42 154.337 133.49C153.556 132.636 152.705 131.849 151.794 131.136" stroke="#263238" stroke-width="0.283087" stroke-linecap="round" stroke-linejoin="round"/>
<path d="M155.803 144.068C155.722 142.984 155.353 141.941 154.734 141.047C153.747 139.744 152.584 138.012 152.11 137.331" stroke="#263238" stroke-width="0.283087" stroke-linecap="round" stroke-linejoin="round"/>
<path d="M36.89 68.9737C35.5778 66.4441 35.0277 64.6315 35.0277 64.2121C35.0277 63.3824 36.8313 62.8865 36.8313 62.8865C39.645 61.3985 52.8791 63.5493 58.8356 64.5413C62.17 65.1226 65.5431 65.4542 68.9269 65.5333C68.9269 65.5333 69.752 64.875 70.7305 64.0453C71.709 63.2156 76.3533 57.7596 78.175 57.2817C79.9967 56.8037 81.647 57.9445 81.647 57.9445C81.647 57.9445 84.6275 59.7481 84.127 60.0953C83.6265 60.4425 76.3533 66.7101 74.5317 67.869C72.71 69.0278 68.9089 68.5318 65.5992 69.1946C62.7495 69.7628 51.2062 70.4662 48.5594 70.6826C46.5716 71.1541 44.4854 70.9804 42.6029 70.1866" fill="white"/>
<path d="M81.6785 57.9266C81.6785 57.9266 80.0236 56.7678 78.2065 57.2638C76.3893 57.7598 71.754 63.2202 70.762 64.0274C69.77 64.8345 68.9584 65.5154 68.9584 65.5154C65.5746 65.4362 62.2015 65.1047 58.8671 64.5234C52.9106 63.5314 39.6765 61.367 36.8628 62.8685C36.8628 62.8685 35.0592 63.3645 35.0592 64.1942C35.1219 64.658 35.2415 65.1124 35.4154 65.5469L35.6634 65.6371C35.6634 65.6371 38.9686 65.2899 46.1019 65.4612C53.2353 65.6326 69.7339 66.6111 70.7936 66.9943C71.2445 67.1657 74.4414 66.4442 77.9855 65.1907C80.691 62.9858 83.8699 60.2307 84.19 60.0368C84.659 59.7438 81.6785 57.9266 81.6785 57.9266Z" fill="#FFD202"/>
<path opacity="0.5" d="M81.6785 57.9266C81.6785 57.9266 80.0236 56.7678 78.2065 57.2638C76.3893 57.7598 71.754 63.2202 70.762 64.0274C69.77 64.8345 68.9584 65.5154 68.9584 65.5154C65.5746 65.4362 62.2015 65.1047 58.8671 64.5234C52.9106 63.5314 39.6765 61.367 36.8628 62.8685C36.8628 62.8685 35.0592 63.3645 35.0592 64.1942C35.1219 64.658 35.2415 65.1124 35.4154 65.5469L35.6634 65.6371C35.6634 65.6371 38.9686 65.2899 46.1019 65.4612C53.2353 65.6326 69.7339 66.6111 70.7936 66.9943C71.2445 67.1657 74.4414 66.4442 77.9855 65.1907C80.691 62.9858 83.8699 60.2307 84.19 60.0368C84.659 59.7438 81.6785 57.9266 81.6785 57.9266Z" fill="white"/>
<path d="M36.89 68.9737C35.5778 66.4441 35.0277 64.6315 35.0277 64.2121C35.0277 63.3824 36.8313 62.8865 36.8313 62.8865C39.645 61.3985 52.8791 63.5493 58.8356 64.5413C62.17 65.1226 65.5431 65.4542 68.9269 65.5333C68.9269 65.5333 69.752 64.875 70.7305 64.0453C71.709 63.2156 76.3533 57.7596 78.175 57.2817C79.9967 56.8037 81.647 57.9445 81.647 57.9445C81.647 57.9445 84.6275 59.7481 84.127 60.0953C83.6265 60.4425 76.3533 66.7101 74.5317 67.869C72.71 69.0278 68.9089 68.5318 65.5992 69.1946C62.7495 69.7628 51.2062 70.4662 48.5594 70.6826C46.5716 71.1541 44.4854 70.9804 42.6029 70.1866" stroke="#263238" stroke-width="0.283087" stroke-linecap="round" stroke-linejoin="round"/>
<path d="M102.231 83.6823C102.53 83.1142 102.979 82.6388 103.529 82.3074C104.079 81.976 104.709 81.8012 105.351 81.8021H135.427C135.427 81.8021 137.6 81.8021 136.951 85.9324C136.301 90.0627 127.382 115.282 125.227 122.907C123.072 130.532 122.616 146.602 122.616 146.602H86.5437C86.5437 146.602 89.4024 108.171 102.231 83.6823Z" fill="white"/>
<path opacity="0.16" d="M115.776 81.8021H105.351C104.709 81.8012 104.079 81.976 103.529 82.3074C102.979 82.6388 102.53 83.1142 102.231 83.6823C89.4024 108.171 86.5121 146.588 86.5121 146.588H102.691L106.681 131.433L123.32 134.865C123.437 133.593 123.572 132.299 123.73 131.023L123.365 126.965C123.365 126.965 119.956 123.38 118.883 122.483C117.81 121.586 118.522 119.967 118.342 112.973C118.161 105.98 111.885 100.952 109.549 96.6459C107.213 92.3398 110.807 89.6478 114.035 85.3417C115.185 83.7861 115.654 82.6408 115.776 81.8021Z" fill="black"/>
<path d="M102.231 83.6823C102.53 83.1142 102.979 82.6388 103.529 82.3074C104.079 81.976 104.709 81.8012 105.351 81.8021H135.427C135.427 81.8021 137.6 81.8021 136.951 85.9324C136.301 90.0627 127.382 115.282 125.227 122.907C123.072 130.532 122.616 146.602 122.616 146.602H86.5437C86.5437 146.602 89.4024 108.171 102.231 83.6823Z" stroke="#263238" stroke-width="0.283087" stroke-linecap="round" stroke-linejoin="round"/>
<path d="M130.21 88.9759C127.17 96.0687 120.741 124.147 119.694 146.588H122.598C122.598 146.588 123.049 130.5 125.209 122.893C127.369 115.286 136.297 90.0626 136.933 85.9188C137.568 81.775 135.409 81.7885 135.409 81.7885C135.409 81.7885 132.649 83.29 130.21 88.9759Z" fill="#263238" stroke="#263238" stroke-width="0.283087" stroke-linecap="round" stroke-linejoin="round"/>
<path d="M77.3769 74.7995C77.3769 74.7995 72.5792 71.9858 70.7621 67.0258C68.9449 62.0659 84.9882 54.1209 91.9547 53.6249C98.9212 53.1289 100.887 54.946 105.031 62.0614C109.175 69.1767 111.979 78.9343 109.829 83.7319C107.678 88.5296 104.039 89.6884 106.672 93.6519C109.306 97.6154 116.764 108.87 116.268 114.164C115.772 119.457 110.645 124.084 103.191 124.589C95.7378 125.094 85.8178 120.616 77.5482 113.316C69.2786 106.016 71.4249 95.2797 74.3919 91.8077C77.3588 88.3357 81.8363 87.01 82.1655 83.5381C82.4946 80.0661 77.3769 74.7995 77.3769 74.7995Z" fill="#263238" stroke="#263238" stroke-width="0.283087" stroke-linecap="round" stroke-linejoin="round"/>
<path d="M97.8256 66.9493C100.373 71.6928 103.561 78.0461 104.558 81.8833C106.298 88.6018 97.3431 92.8313 99.8276 96.0643" stroke="white" stroke-width="0.283087" stroke-linecap="round" stroke-linejoin="round"/>
<path d="M94.3534 60.7357C94.3534 60.7357 95.3454 62.4267 96.7162 64.9157" stroke="white" stroke-width="0.283087" stroke-linecap="round" stroke-linejoin="round"/>
<path d="M107.718 72.6712C108.012 73.5602 108.203 74.4801 108.287 75.4127" stroke="white" stroke-width="0.283087" stroke-linecap="round" stroke-linejoin="round"/>
<path d="M96.0759 58.2692C96.0759 58.2692 103.913 64.0589 107.042 70.9893" stroke="white" stroke-width="0.283087" stroke-linecap="round" stroke-linejoin="round"/>
<path d="M85.2001 62.6115C79.6043 64.1806 71.5556 66.7283 72.2095 68.1982" stroke="white" stroke-width="0.283087" stroke-linecap="round" stroke-linejoin="round"/>
<path d="M90.372 61.2316C90.372 61.2316 89.1771 61.5292 87.396 62.0072" stroke="white" stroke-width="0.283087" stroke-linecap="round" stroke-linejoin="round"/>
<path d="M83.4506 58.3098C86.6558 57.2996 90.0129 56.8571 93.3705 57.0022" stroke="white" stroke-width="0.283087" stroke-linecap="round" stroke-linejoin="round"/>
<path d="M81.1689 59.2432C81.6757 58.9792 82.2 58.7502 82.7381 58.5578" stroke="white" stroke-width="0.283087" stroke-linecap="round" stroke-linejoin="round"/>
<path d="M35.0275 64.2122C35.0255 64.2437 35.0255 64.2754 35.0275 64.3069C35.0255 64.2754 35.0255 64.2437 35.0275 64.2122ZM36.8898 68.9738C36.1303 67.5831 35.5255 66.1134 35.0862 64.591C35.5234 66.1141 36.1283 67.5841 36.8898 68.9738ZM35.0366 64.334C35.0366 64.361 35.0366 64.3926 35.0366 64.4332C35.0456 64.3926 35.0411 64.361 35.0366 64.334ZM35.0591 64.4602C35.0647 64.5045 35.0737 64.5482 35.0862 64.591C35.0737 64.5482 35.0647 64.5045 35.0591 64.4602ZM36.8898 68.9693C38.5762 72.1634 40.6742 75.1226 43.1303 77.771C49.0868 84.2235 66.2934 101.101 67.9302 102.26C69.567 103.419 69.089 106.724 67.9302 110.033C66.7714 113.343 62.4697 118.15 62.6366 123.434C62.8034 128.719 64.4402 136.835 64.2914 138.49C64.1426 140.145 60.0033 145.772 60.0033 145.772H102.686C102.686 145.772 97.3654 139.009 97.3654 136.696C97.3654 134.382 104.67 104.744 104.999 102.593C105.328 100.443 104.007 98.9546 101.36 98.7878C98.7136 98.6209 88.6223 96.4701 88.1263 94.8153C87.6303 93.1604 90.7731 86.8748 90.7731 86.8748L80.8532 87.3708C80.8532 87.3708 80.3572 91.6725 79.6944 92.5021C79.0315 93.3318 78.0395 91.6724 75.7219 90.5181C73.4042 89.3638 68.9583 88.3673 67.2854 87.0416C65.6125 85.716 49.7496 70.809 49.7496 70.809" fill="white"/>
<path d="M69.8197 88.3177C70.6449 89.7606 71.47 91.0637 71.47 91.0637C71.47 91.0637 74.2521 92.6283 74.9465 92.6283C75.6409 92.6283 79.8163 94.8829 79.8163 94.8829C79.8163 94.8829 83.2973 94.0126 82.0708 91.0547C81.6839 90.2974 81.1954 89.5965 80.6189 88.9715C80.4115 90.2836 80.0778 92.0016 79.6855 92.493C79.0227 93.3182 78.0307 91.6634 75.7131 90.5091C74.2115 89.7606 71.7811 89.0752 69.8197 88.3177Z" fill="#FFD202"/>
<path d="M61.3246 81.6217C56.2158 76.8917 49.7498 70.827 49.7498 70.827L45.9892 70.2859L45.5383 70.5384C45.5383 70.5384 56.1527 79.9308 58.4117 80.9769C59.3256 81.397 60.3188 81.6168 61.3246 81.6217Z" fill="#FFD202"/>
<path d="M66.6771 86.5185L66.2712 86.1578C66.4787 86.5005 66.5959 86.7169 66.5959 86.7169L66.6771 86.5185Z" fill="#FFD202"/>
<g opacity="0.5">
<path opacity="0.5" d="M69.8197 88.3177C70.6449 89.7606 71.47 91.0637 71.47 91.0637C71.47 91.0637 74.2521 92.6283 74.9465 92.6283C75.6409 92.6283 79.8163 94.8829 79.8163 94.8829C79.8163 94.8829 83.2973 94.0126 82.0708 91.0547C81.6839 90.2974 81.1954 89.5965 80.6189 88.9715C80.4115 90.2836 80.0778 92.0016 79.6855 92.493C79.0227 93.3182 78.0307 91.6634 75.7131 90.5091C74.2115 89.7606 71.7811 89.0752 69.8197 88.3177Z" fill="white"/>
<path opacity="0.5" d="M61.3246 81.6217C56.2158 76.8917 49.7498 70.827 49.7498 70.827L45.9892 70.2859L45.5383 70.5384C45.5383 70.5384 56.1527 79.9308 58.4117 80.9769C59.3256 81.397 60.3188 81.6168 61.3246 81.6217Z" fill="white"/>
<path opacity="0.5" d="M66.6771 86.5185L66.2712 86.1578C66.4787 86.5005 66.5959 86.7169 66.5959 86.7169L66.6771 86.5185Z" fill="white"/>
</g>
<path d="M36.8898 68.9693C38.5762 72.1634 40.6742 75.1226 43.1303 77.771C49.0868 84.2235 66.2934 101.101 67.9302 102.26C69.567 103.419 69.089 106.724 67.9302 110.033C66.7714 113.343 62.4697 118.15 62.6366 123.434C62.8034 128.719 64.4402 136.835 64.2914 138.49C64.1426 140.145 60.0033 145.772 60.0033 145.772H102.686C102.686 145.772 97.3654 139.009 97.3654 136.696C97.3654 134.382 104.67 104.744 104.999 102.593C105.328 100.443 104.007 98.9546 101.36 98.7878C98.7136 98.6209 88.6223 96.4701 88.1263 94.8153C87.6303 93.1604 90.7731 86.8748 90.7731 86.8748L80.8532 87.3708C80.8532 87.3708 80.3572 91.6725 79.6944 92.5021C79.0315 93.3318 78.0395 91.6724 75.7219 90.5181C73.4042 89.3638 68.9583 88.3673 67.2854 87.0416C65.6125 85.716 49.7496 70.809 49.7496 70.809M35.0275 64.2122C35.0255 64.2437 35.0255 64.2754 35.0275 64.3069C35.0255 64.2754 35.0255 64.2437 35.0275 64.2122V64.2122ZM36.8898 68.9738C36.1303 67.5831 35.5255 66.1134 35.0862 64.591C35.5234 66.1141 36.1283 67.5841 36.8898 68.9738V68.9738ZM35.0366 64.334C35.0366 64.361 35.0366 64.3926 35.0366 64.4332C35.0456 64.3926 35.0411 64.361 35.0366 64.334V64.334ZM35.0591 64.4602C35.0647 64.5045 35.0737 64.5482 35.0862 64.591C35.0737 64.5482 35.0647 64.5045 35.0591 64.4602Z" stroke="#263238" stroke-width="0.283087" stroke-linecap="round" stroke-linejoin="round"/>
<path d="M49.7497 70.827C49.7497 70.827 44.465 70.9261 41.5161 68.4958" stroke="#263238" stroke-width="0.283087" stroke-linecap="round" stroke-linejoin="round"/>
<path d="M88.1309 94.8152C87.6349 93.1649 90.7777 86.8748 90.7777 86.8748L80.8578 87.3708C80.8578 87.3708 80.3618 91.6724 79.6989 92.5021C79.0361 93.3317 78.0441 91.6724 75.7264 90.5181C75.5506 90.4279 75.3567 90.3422 75.1583 90.2566L74.5586 99.685C74.5586 99.685 75.4288 108.816 85.8628 107.08C90.0878 106.376 94.5969 102.607 98.4882 98.3684C94.4842 97.6334 88.5097 96.0823 88.1309 94.8152Z" fill="white"/>
<path d="M87.8514 88.1238C87.8514 88.1238 87.2517 91.4876 86.7692 95.2076C86.2868 98.9275 85.9305 101.696 85.9305 101.696L88.131 94.8153L90.611 87.5241C90.611 87.5241 88.2121 87.5241 87.8514 88.1238Z" fill="#FFD202"/>
<path opacity="0.5" d="M87.8514 88.1238C87.8514 88.1238 87.2517 91.4876 86.7692 95.2076C86.2868 98.9275 85.9305 101.696 85.9305 101.696L88.131 94.8153L90.611 87.5241C90.611 87.5241 88.2121 87.5241 87.8514 88.1238Z" fill="white"/>
<path d="M88.1309 94.8152C87.6349 93.1649 90.7777 86.8748 90.7777 86.8748L80.8578 87.3708C80.8578 87.3708 80.3618 91.6724 79.6989 92.5021C79.0361 93.3317 78.0441 91.6724 75.7264 90.5181C75.5506 90.4279 75.3567 90.3422 75.1583 90.2566L74.5586 99.685C74.5586 99.685 75.4288 108.816 85.8628 107.08C90.0878 106.376 94.5969 102.607 98.4882 98.3684C94.4842 97.6334 88.5097 96.0823 88.1309 94.8152Z" stroke="#263238" stroke-width="0.283087" stroke-linecap="round" stroke-linejoin="round"/>
<path d="M79.6945 92.5022C79.0317 93.3273 78.0397 91.6725 75.722 90.5182C74.2611 89.7832 71.9344 89.1158 70.009 88.3944C69.4634 87.1003 68.742 85.4139 68.2775 84.3948C67.4524 82.5912 66.1267 83.732 66.1267 83.732C65.4351 82.9454 64.8762 82.0514 64.4719 81.0852C63.6467 79.2816 62.3211 79.4304 60.5039 79.1012C58.6868 78.772 54.8766 75.2955 54.8766 75.2955C54.8766 75.2955 53.0955 73.9428 52.3605 73.271C51.5038 74.9574 49.4522 77.9243 45.0153 79.7776C52.09 87.1679 66.4424 101.209 67.9484 102.264C69.6032 103.419 69.1072 106.728 67.9484 110.038C66.7895 113.348 62.4879 118.154 62.6547 123.439C62.8216 128.723 64.4584 136.84 64.3096 138.495C64.1608 139.969 60.8601 144.591 60.1432 145.583L61.8251 145.772H70.5817C70.5321 141.335 70.5366 123.227 73.5712 116.012C77.0477 107.72 79.6945 92.5022 79.6945 92.5022Z" fill="#FFD202"/>
<path opacity="0.16" d="M75.722 90.5182C74.261 89.7832 71.9344 89.1158 70.009 88.3944C69.4634 87.1003 68.7419 85.4139 68.2775 84.3948C67.4523 82.5912 66.1267 83.732 66.1267 83.732C65.4351 82.9454 64.8762 82.0514 64.4719 81.0852C63.6467 79.2816 62.321 79.4304 60.5039 79.1012C58.6867 78.772 54.8766 75.2955 54.8766 75.2955C54.8766 75.2955 53.0955 73.9428 52.3605 73.271C51.9938 73.987 51.5573 74.6652 51.0574 75.2955C54.0153 77.7981 57.2799 80.4494 58.4207 80.977C60.6752 82.0186 61.2028 81.1483 62.9298 82.1944C64.6567 83.2405 66.5821 86.7035 66.5821 86.7035C66.5821 86.7035 67.6282 83.9169 68.4984 85.8332C69.3687 87.7496 71.4564 91.0502 71.4564 91.0502C71.4564 91.0502 74.2385 92.6149 74.9329 92.6149C75.4785 92.6149 78.1524 94.0037 79.2887 94.6034C79.5412 93.2822 79.6809 92.4886 79.6809 92.4886C79.0316 93.3273 78.0396 91.6725 75.722 90.5182Z" fill="black"/>
<path d="M79.6945 92.5022C79.0317 93.3273 78.0397 91.6725 75.722 90.5182C74.2611 89.7832 71.9344 89.1158 70.009 88.3944C69.4634 87.1003 68.742 85.4139 68.2775 84.3948C67.4524 82.5912 66.1267 83.732 66.1267 83.732C65.4351 82.9454 64.8762 82.0514 64.4719 81.0852C63.6467 79.2816 62.3211 79.4304 60.5039 79.1012C58.6868 78.772 54.8766 75.2955 54.8766 75.2955C54.8766 75.2955 53.0955 73.9428 52.3605 73.271C51.5038 74.9574 49.4522 77.9243 45.0153 79.7776C52.09 87.1679 66.4424 101.209 67.9484 102.264C69.6032 103.419 69.1072 106.728 67.9484 110.038C66.7895 113.348 62.4879 118.154 62.6547 123.439C62.8216 128.723 64.4584 136.84 64.3096 138.495C64.1608 139.969 60.8601 144.591 60.1432 145.583L61.8251 145.772H70.5817C70.5321 141.335 70.5366 123.227 73.5712 116.012C77.0477 107.72 79.6945 92.5022 79.6945 92.5022Z" stroke="#263238" stroke-width="0.283087" stroke-linecap="round" stroke-linejoin="round"/>
<path d="M79.8117 91.9249C79.8117 91.9249 77.7555 91.2937 76.4885 92.4029C75.2214 93.5121 73.3321 99.2026 72.2184 105.375C71.532 108.969 72.0057 112.688 73.5711 115.994C73.5711 115.994 76.1729 109.172 76.9619 105.849C77.751 102.526 79.8117 91.9249 79.8117 91.9249Z" fill="#FFD202"/>
<path opacity="0.16" d="M75.8662 92.9304C75.8662 92.9304 77.3542 92.5697 77.9674 92.7771C78.4838 92.9986 78.9665 93.2915 79.4013 93.6473L79.8116 91.9249C79.1962 91.6104 78.498 91.4953 77.8141 91.5957C76.7906 91.8031 75.8662 92.9304 75.8662 92.9304Z" fill="black"/>
<path d="M79.8117 91.9249C79.8117 91.9249 77.7555 91.2937 76.4885 92.4029C75.2214 93.5121 73.3321 99.2026 72.2184 105.375C71.532 108.969 72.0057 112.688 73.5711 115.994C73.5711 115.994 76.1729 109.172 76.9619 105.849C77.751 102.526 79.8117 91.9249 79.8117 91.9249Z" stroke="#263238" stroke-width="0.283087" stroke-linecap="round" stroke-linejoin="round"/>
<path d="M65.9644 92.466L68.6113 103.22L62.6548 89.6524" stroke="#263238" stroke-width="0.283087" stroke-linecap="round" stroke-linejoin="round"/>
<path d="M83.4009 145.772H102.691C102.691 145.772 97.37 139.009 97.37 136.696C97.37 134.382 104.675 104.744 105.004 102.593C105.333 100.443 104.012 98.9546 101.365 98.7878C98.7182 98.6209 88.6269 96.4701 88.1309 94.8153C88.1309 94.8153 84.3253 108.216 83.0041 117.316C81.8678 125.121 83.0447 141.317 83.4009 145.772Z" fill="#FFD202"/>
<path opacity="0.16" d="M101.365 98.7878C99.1961 98.6526 92.0312 97.1826 89.2401 95.7487L90.2547 98.0934C92.0928 99.0686 94.0698 99.756 96.1164 100.132C99.4757 100.731 102.6 100.614 104.643 103.617L104.742 103.766C104.869 103.189 104.954 102.783 104.981 102.593C105.337 100.443 104.012 98.9547 101.365 98.7878Z" fill="black"/>
<path d="M83.4009 145.772H102.691C102.691 145.772 97.37 139.009 97.37 136.696C97.37 134.382 104.675 104.744 105.004 102.593C105.333 100.443 104.012 98.9546 101.365 98.7878C98.7182 98.6209 88.6269 96.4701 88.1309 94.8153C88.1309 94.8153 84.3253 108.216 83.0041 117.316C81.8678 125.121 83.0447 141.317 83.4009 145.772Z" stroke="#263238" stroke-width="0.283087" stroke-linecap="round" stroke-linejoin="round"/>
<path d="M88.131 94.8153C88.131 94.8153 83.0267 111.048 83.0042 117.316C83.0042 117.316 90.2547 108.536 91.2016 102.368C92.1485 96.1996 88.131 94.8153 88.131 94.8153Z" fill="#FFD202"/>
<path opacity="0.16" d="M87.2517 96.8895C88.0187 96.8637 88.7804 97.0252 89.4709 97.3599C90.1615 97.6946 90.7602 98.1924 91.2152 98.8103C91.2152 98.8103 90.2142 95.8659 88.131 94.8153L87.2517 96.8895Z" fill="black"/>
<path d="M88.131 94.8153C88.131 94.8153 83.0267 111.048 83.0042 117.316C83.0042 117.316 90.2547 108.536 91.2016 102.368C92.1485 96.1996 88.131 94.8153 88.131 94.8153Z" stroke="#263238" stroke-width="0.283087" stroke-linecap="round" stroke-linejoin="round"/>
<path d="M142.623 142.72C142.623 142.72 146.361 142.873 148.809 143.225C150.442 143.446 152.086 143.577 153.733 143.617C153.733 143.617 152.381 140.884 150.938 140.113C149.495 139.342 146.879 137.963 144.688 138.269C142.497 138.576 139.363 140.785 139.624 141.489C139.886 142.192 141.054 142.508 142.623 142.72Z" fill="white"/>
<path d="M142.623 142.72C142.623 142.72 146.361 142.873 148.809 143.225C150.442 143.446 152.086 143.577 153.733 143.617C153.733 143.617 152.381 140.884 150.938 140.113C149.495 139.342 146.879 137.963 144.688 138.269C142.497 138.576 139.363 140.785 139.624 141.489C139.886 142.192 141.054 142.508 142.623 142.72Z" fill="#FFD202"/>
<path opacity="0.5" d="M142.623 142.72C142.623 142.72 146.361 142.873 148.809 143.225C150.442 143.446 152.086 143.577 153.733 143.617C153.733 143.617 152.381 140.884 150.938 140.113C149.495 139.342 146.879 137.963 144.688 138.269C142.497 138.576 139.363 140.785 139.624 141.489C139.886 142.192 141.054 142.508 142.623 142.72Z" fill="white"/>
<path d="M142.623 142.72C142.623 142.72 146.361 142.873 148.809 143.225C150.442 143.446 152.086 143.577 153.733 143.617C153.733 143.617 152.381 140.884 150.938 140.113C149.495 139.342 146.879 137.963 144.688 138.269C142.497 138.576 139.363 140.785 139.624 141.489C139.886 142.192 141.054 142.508 142.623 142.72Z" stroke="#263238" stroke-width="0.283087" stroke-linecap="round" stroke-linejoin="round"/>
<path d="M148.832 141.601C148.832 141.601 151.795 140.064 152.534 140.086C153.274 140.109 158.188 143.432 157.945 143.964C157.78 144.211 157.541 144.399 157.263 144.503C156.984 144.606 156.68 144.62 156.394 144.541C155.848 144.284 152.539 142.877 152.539 142.877L150.374 143.387L148.832 141.601Z" fill="white"/>
<path d="M148.832 141.601C148.832 141.601 151.795 140.064 152.534 140.086C153.274 140.109 158.188 143.432 157.945 143.964C157.701 144.496 156.538 144.929 156.394 144.541C156.25 144.153 152.539 142.877 152.539 142.877L150.374 143.387L148.832 141.601Z" fill="#FFD202"/>
<path opacity="0.5" d="M148.832 141.601C148.832 141.601 151.795 140.064 152.534 140.086C153.274 140.109 158.188 143.432 157.945 143.964C157.701 144.496 156.538 144.929 156.394 144.541C156.25 144.153 152.539 142.877 152.539 142.877L150.374 143.387L148.832 141.601Z" fill="white"/>
<path d="M148.832 141.601C148.832 141.601 151.795 140.064 152.534 140.086C153.274 140.109 158.188 143.432 157.945 143.964C157.78 144.211 157.541 144.399 157.263 144.503C156.984 144.606 156.68 144.62 156.394 144.541C155.848 144.284 152.539 142.877 152.539 142.877L150.374 143.387L148.832 141.601Z" stroke="#263238" stroke-width="0.283087" stroke-linecap="round" stroke-linejoin="round"/>
<path d="M146.717 139.072C146.717 139.072 150.667 138.946 151.452 139.342C152.236 139.739 155.781 145.817 155.248 146.259C154.716 146.701 153.246 146.57 153.292 146.079C153.337 145.587 150.027 142.332 150.027 142.332L147.452 141.768L146.717 139.072Z" fill="white"/>
<path d="M146.717 139.072C146.717 139.072 150.667 138.946 151.452 139.342C152.236 139.739 155.781 145.817 155.248 146.259C154.716 146.701 153.246 146.57 153.292 146.079C153.337 145.587 150.027 142.332 150.027 142.332L147.452 141.768L146.717 139.072Z" fill="#FFD202"/>
<path opacity="0.5" d="M146.717 139.072C146.717 139.072 150.667 138.946 151.452 139.342C152.236 139.739 155.781 145.817 155.248 146.259C154.716 146.701 153.246 146.57 153.292 146.079C153.337 145.587 150.027 142.332 150.027 142.332L147.452 141.768L146.717 139.072Z" fill="white"/>
<path d="M146.717 139.072C146.717 139.072 150.667 138.946 151.452 139.342C152.236 139.739 155.781 145.817 155.248 146.259C154.716 146.701 153.246 146.57 153.292 146.079C153.337 145.587 150.027 142.332 150.027 142.332L147.452 141.768L146.717 139.072Z" stroke="#263238" stroke-width="0.283087" stroke-linecap="round" stroke-linejoin="round"/>
<path d="M144.377 138.256C144.377 138.256 148.377 138.125 149.17 138.531C149.964 138.936 153.553 145.082 153.012 145.533C152.471 145.984 150.992 145.844 151.037 145.348C151.082 144.852 147.732 141.556 147.732 141.556L145.126 140.984L144.377 138.256Z" fill="white"/>
<path d="M144.377 138.256C144.377 138.256 148.377 138.125 149.17 138.531C149.964 138.936 153.553 145.082 153.012 145.533C152.471 145.984 150.992 145.844 151.037 145.348C151.082 144.852 147.732 141.556 147.732 141.556L145.126 140.984L144.377 138.256Z" fill="#FFD202"/>
<path opacity="0.5" d="M144.377 138.256C144.377 138.256 148.377 138.125 149.17 138.531C149.964 138.936 153.553 145.082 153.012 145.533C152.471 145.984 150.992 145.844 151.037 145.348C151.082 144.852 147.732 141.556 147.732 141.556L145.126 140.984L144.377 138.256Z" fill="white"/>
<path d="M144.377 138.256C144.377 138.256 148.377 138.125 149.17 138.531C149.964 138.936 153.553 145.082 153.012 145.533C152.471 145.984 150.992 145.844 151.037 145.348C151.082 144.852 147.732 141.556 147.732 141.556L145.126 140.984L144.377 138.256Z" stroke="#263238" stroke-width="0.283087" stroke-linecap="round" stroke-linejoin="round"/>
<path d="M98.9031 115.34C101.798 119.8 107.61 131.1 109.306 132.371C111.952 134.355 129.646 139.171 131.35 140.488C133.055 141.804 132.938 143.125 134.552 143.608C136.166 144.09 142.217 145.475 144.526 145.691C146.834 145.907 145.802 144.478 145.802 144.478L141.865 141.773L145.297 140.925C145.297 140.925 148.737 145.064 149.382 145.29C150.027 145.515 151.163 145.29 151.091 144.78C150.965 143.964 147.294 137.286 145.991 137.002C144.688 136.718 136.779 137.814 136.779 137.814C136.779 137.814 120.19 126.627 119.893 126.23C119.893 126.23 118.901 123.416 118.089 122.257C117.278 121.099 116.764 121.432 116.764 121.432C116.764 121.432 117.097 119.94 116.601 119.444L113.954 116.797L113.86 116.923C113.409 116.021 112.958 114.993 112.462 113.821C111.078 110.561 106.176 101.412 105.351 100.091C104.733 99.1033 99.5569 98.3953 96.9326 98.0977" fill="#FFD202"/>
<path opacity="0.16" d="M110.428 115.625C112.593 117.545 111.871 117.545 111.389 119.232C110.906 120.918 111.75 118.632 113.792 118.754C115.835 118.876 115.235 121.513 114.992 121.996C114.748 122.478 117.517 123.078 117.034 124.156C116.552 125.233 113.792 126.798 112.232 128.363C110.672 129.927 116.313 125.838 118.234 125.72C118.82 125.68 119.302 125.756 119.708 125.747C119.282 124.541 118.736 123.381 118.076 122.284C117.246 121.126 116.75 121.459 116.75 121.459C116.75 121.459 117.084 119.967 116.588 119.471L113.941 116.824L113.846 116.95C113.395 116.048 112.945 115.02 112.449 113.848C111.064 110.588 106.163 101.439 105.338 100.118C104.72 99.1303 99.5436 98.4224 96.9193 98.1248L97.1583 100.213L97.2169 100.258C97.2169 100.258 100.459 100.857 101.541 100.979C102.623 101.101 103.944 102.057 103.823 102.783C103.701 103.509 100.581 106.746 101.541 106.99C102.502 107.233 103.584 104.586 104.666 104.947C105.748 105.308 108.251 113.704 110.428 115.625Z" fill="black"/>
<path d="M98.9031 115.34C101.798 119.8 107.61 131.1 109.306 132.371C111.952 134.355 129.646 139.171 131.35 140.488C133.055 141.804 132.938 143.125 134.552 143.608C136.166 144.09 142.217 145.475 144.526 145.691C146.834 145.907 145.802 144.478 145.802 144.478L141.865 141.773L145.297 140.925C145.297 140.925 148.737 145.064 149.382 145.29C150.027 145.515 151.163 145.29 151.091 144.78C150.965 143.964 147.294 137.286 145.991 137.002C144.688 136.718 136.779 137.814 136.779 137.814C136.779 137.814 120.19 126.627 119.893 126.23C119.893 126.23 118.901 123.416 118.089 122.257C117.278 121.099 116.764 121.432 116.764 121.432C116.764 121.432 117.097 119.94 116.601 119.444L113.954 116.797L113.86 116.923C113.409 116.021 112.958 114.993 112.462 113.821C111.078 110.561 106.176 101.412 105.351 100.091C104.733 99.1033 99.5569 98.3953 96.9326 98.0977" stroke="#263238" stroke-width="0.283087" stroke-linecap="round" stroke-linejoin="round"/>
<path d="M98.9481 109.222C98.8263 109.628 98.7226 110.033 98.6415 110.448" stroke="#263238" stroke-width="0.283087" stroke-linecap="round" stroke-linejoin="round"/>
<path d="M103.331 101.759C101.914 103.374 100.719 105.171 99.7777 107.102" stroke="#263238" stroke-width="0.283087" stroke-linecap="round" stroke-linejoin="round"/>
<path d="M109.955 127.362C111.172 125.558 113.111 123.272 115.248 122.618" stroke="#263238" stroke-width="0.283087" stroke-linecap="round" stroke-linejoin="round"/>
<path d="M108.607 129.58C108.607 129.58 108.823 129.156 109.211 128.516" stroke="#263238" stroke-width="0.283087" stroke-linecap="round" stroke-linejoin="round"/>
<path d="M108.607 126.73C108.607 126.73 110.821 121.193 113.035 119.768C115.249 118.344 113.981 121.193 113.981 121.193" stroke="#263238" stroke-width="0.283087" stroke-linecap="round" stroke-linejoin="round"/>
<path d="M131.35 140.492C133.059 141.813 132.937 143.13 134.552 143.612C136.166 144.095 142.217 145.479 144.526 145.696C146.834 145.912 145.802 144.483 145.802 144.483L141.865 141.777L145.297 140.929C145.297 140.929 148.737 145.069 149.382 145.294C150.027 145.52 151.253 145.601 151.091 144.785C150.775 143.207 147.294 137.291 145.991 137.007C144.688 136.722 136.779 137.818 136.779 137.818C136.779 137.818 121.669 127.447 120.015 126.325C113.598 126.942 110.545 130.302 109.26 132.317L109.305 132.353C111.952 134.355 129.646 139.171 131.35 140.492Z" fill="white"/>
<path d="M151.087 144.803C150.266 142.796 147.29 137.309 145.987 137.025C144.684 136.741 136.775 137.836 136.775 137.836C136.775 137.836 121.665 127.465 120.01 126.343C118.326 126.489 116.673 126.889 115.109 127.529C117.494 128.881 133.393 137.899 135.399 138.301C137.528 138.752 144.63 137.584 145.879 138.422C146.672 138.955 149.035 142.702 150.631 145.362C151.087 145.294 151.253 145.209 151.087 144.803Z" fill="#FFD202"/>
<path opacity="0.5" d="M151.087 144.803C149.806 141.931 147.29 137.309 145.987 137.025C144.684 136.741 136.775 137.836 136.775 137.836C136.775 137.836 121.665 127.465 120.01 126.343C118.326 126.489 116.673 126.889 115.109 127.529C117.494 128.881 133.393 137.899 135.399 138.301C137.528 138.752 144.63 137.584 145.879 138.422C146.672 138.955 149.035 142.702 150.631 145.362C151.086 145.294 151.267 145.204 151.087 144.803Z" fill="white"/>
<path d="M131.35 140.492C133.059 141.813 132.937 143.13 134.552 143.612C136.166 144.095 142.217 145.479 144.526 145.696C146.834 145.912 145.802 144.483 145.802 144.483L141.865 141.777L145.297 140.929C145.297 140.929 148.737 145.069 149.382 145.294C150.027 145.52 151.253 145.601 151.091 144.785C150.775 143.207 147.294 137.291 145.991 137.007C144.688 136.722 136.779 137.818 136.779 137.818C136.779 137.818 121.669 127.447 120.015 126.325C113.598 126.942 110.545 130.302 109.26 132.317L109.305 132.353C111.952 134.355 129.646 139.171 131.35 140.492Z" stroke="#263238" stroke-width="0.283087" stroke-linecap="round" stroke-linejoin="round"/>
<path d="M91.4992 61.7548L77.9179 67.4227C77.7533 69.8096 77.1623 72.1477 76.1729 74.3261C74.5677 77.7214 75.5055 84.1468 77.0476 87.6143C78.5898 91.0818 85.3849 89.7245 87.8694 89.2917C89.5545 88.9711 91.2049 88.4895 92.7978 87.8533C93.5232 88.1328 94.3077 88.2232 95.0776 88.1159C95.8475 88.0086 96.5774 87.7072 97.1987 87.2401C97.1987 87.2401 89.9301 66.8365 91.4992 61.7548Z" fill="white"/>
<path d="M91.4992 61.7548L77.9179 67.4227C77.7533 69.8096 77.1623 72.1477 76.1729 74.3261C74.5677 77.7214 75.5055 84.1468 77.0476 87.6143C77.3058 88.1719 77.7211 88.642 78.2426 88.967V88.7055C78.2426 88.7055 75.722 82.4604 76.1999 78.8577C76.6779 75.2549 78.725 73.4468 78.964 71.1697C79.203 68.8926 79.0812 67.8105 83.6489 66.1286C88.2166 64.4467 90.133 62.8866 90.6109 64.5639C91.0889 66.2413 93.0143 77.2976 94.3354 79.9399C95.6566 82.5822 95.5348 85.3507 93.4967 86.5456C91.4368 87.7822 89.2296 88.7548 86.927 89.4405L87.8874 89.2736C89.5725 88.9531 91.2229 88.4714 92.8159 87.8353C93.5412 88.1148 94.3257 88.2052 95.0956 88.0979C95.8655 87.9906 96.5954 87.6892 97.2167 87.222C97.2167 87.222 89.9301 66.8365 91.4992 61.7548Z" fill="#FFD202"/>
<path opacity="0.5" d="M91.4992 61.7548L77.9179 67.4227C77.7533 69.8096 77.1623 72.1477 76.1729 74.3261C74.5677 77.7214 75.5055 84.1468 77.0476 87.6143C77.3058 88.1719 77.7211 88.642 78.2426 88.967V88.7055C78.2426 88.7055 75.722 82.4604 76.1999 78.8577C76.6779 75.2549 78.725 73.4468 78.964 71.1697C79.203 68.8926 79.0812 67.8105 83.6489 66.1286C88.2166 64.4467 90.133 62.8866 90.6109 64.5639C91.0889 66.2413 93.0143 77.2976 94.3354 79.9399C95.6566 82.5822 95.5348 85.3507 93.4967 86.5456C91.4368 87.7822 89.2296 88.7548 86.927 89.4405L87.8874 89.2736C89.5725 88.9531 91.2229 88.4714 92.8159 87.8353C93.5412 88.1148 94.3257 88.2052 95.0956 88.0979C95.8655 87.9906 96.5954 87.6892 97.2167 87.222C97.2167 87.222 89.9301 66.8365 91.4992 61.7548Z" fill="white"/>
<path d="M91.4992 61.7548L77.9179 67.4227C77.7533 69.8096 77.1623 72.1477 76.1729 74.3261C74.5677 77.7214 75.5055 84.1468 77.0476 87.6143C78.5898 91.0818 85.3849 89.7245 87.8694 89.2917C89.5545 88.9711 91.2049 88.4895 92.7978 87.8533C93.5232 88.1328 94.3077 88.2232 95.0776 88.1159C95.8475 88.0086 96.5774 87.7072 97.1987 87.2401C97.1987 87.2401 89.9301 66.8365 91.4992 61.7548Z" stroke="#263238" stroke-width="0.283087" stroke-linecap="round" stroke-linejoin="round"/>
<path d="M84.6363 70.6421C84.6732 71.4406 84.5741 72.2396 84.3432 73.0049C83.9825 73.9067 80.5782 77.4508 80.6819 77.8341C80.7856 78.2174 81.0922 79.4483 81.6964 79.5656" stroke="#263238" stroke-width="0.283087" stroke-linecap="round" stroke-linejoin="round"/>
<path d="M88.4105 73.812C88.884 72.8651 90.4396 73.7895 90.4171 75.9223" stroke="#263238" stroke-width="0.283087" stroke-linecap="round" stroke-linejoin="round"/>
<path d="M80.7 71.0255C80.7 71.0255 82.0256 70.4438 83.2115 72.5901" stroke="#263238" stroke-width="0.283087" stroke-linecap="round" stroke-linejoin="round"/>
<path d="M86.5258 76.9368C88.0576 77.0139 89.5141 77.6249 90.6425 78.6638" stroke="#263238" stroke-width="0.141544" stroke-linecap="round" stroke-linejoin="round"/>
<path d="M79.0992 74.1187C79.8913 74.2244 80.665 74.4383 81.3989 74.7545" stroke="#263238" stroke-width="0.141544" stroke-linecap="round" stroke-linejoin="round"/>
<path d="M84.4877 68.6401C84.1376 68.4549 83.7493 68.3537 83.3533 68.3443C82.9574 68.3349 82.5647 68.4176 82.2061 68.586C80.9932 69.1676 80.2492 69.8079 80.3304 69.0639C80.4115 68.3199 81.8364 67.4993 82.2648 67.391C82.6931 67.2828 84.6095 66.9852 84.4877 68.6401Z" fill="#263238"/>
<path d="M87.8875 66.9582C89.1515 67.981 90.1558 69.2881 90.8183 70.7729C91.7202 73.0275 92.4326 70.5655 91.7202 69.091C91.0077 67.6166 88.9471 66.0474 87.8875 66.9582Z" fill="#263238"/>
<path d="M97.3972 91.0952C97.3972 92.1459 96.802 92.9981 96.0715 92.9981C95.3411 92.9981 94.7504 92.1459 94.7504 91.0952C94.7504 90.0446 95.3411 87.3708 96.0715 87.3708C96.802 87.3708 97.3972 90.0446 97.3972 91.0952Z" fill="#FFD202" stroke="#263238" stroke-width="0.283087" stroke-linecap="round" stroke-linejoin="round"/>
<path d="M88.5277 73.4017C88.4759 73.5395 88.4352 73.6813 88.406 73.8256C88.2752 74.4929 88.1445 75.8862 88.406 75.9449C88.6675 76.0035 89.3078 74.7003 89.4205 74.033C89.4459 73.9021 89.461 73.7694 89.4656 73.6362C89.1579 73.5397 88.8447 73.4614 88.5277 73.4017Z" fill="#263238"/>
<path d="M80.8352 70.8947C80.7951 71.0125 80.7634 71.1331 80.7405 71.2554C80.6052 71.9227 80.6097 73.3882 80.8938 73.4423C81.1778 73.4964 81.6423 72.1256 81.773 71.4583C81.8057 71.2964 81.8238 71.1319 81.8271 70.9668C81.5044 70.8781 81.1674 70.8535 80.8352 70.8947Z" fill="#263238"/>
<path d="M88.4105 73.8345L88.8614 72.9958C89.5763 73.1351 90.224 73.5097 90.7011 74.06" stroke="#263238" stroke-width="0.212315" stroke-linecap="round" stroke-linejoin="round"/>
<path d="M80.8352 70.8946L81.2861 70.3671C81.2861 70.3671 81.48 70.2724 82.5441 70.7549" stroke="#263238" stroke-width="0.212315" stroke-linecap="round" stroke-linejoin="round"/>
<path d="M79.1262 83.1233C79.1262 83.1233 79.8837 81.7299 80.8983 81.7299C81.9128 81.7299 82.6703 84.007 82.6703 84.007" stroke="#263238" stroke-width="0.283087" stroke-linecap="round" stroke-linejoin="round"/>
<path d="M104.346 145.772H58.0194L56.5089 120.305C56.4671 120.058 56.4794 119.805 56.5449 119.563C56.6105 119.322 56.7276 119.097 56.8884 118.905C57.0491 118.713 57.2496 118.558 57.476 118.451C57.7024 118.344 57.9493 118.287 58.1998 118.285H104.147C104.399 118.285 104.648 118.339 104.877 118.445C105.105 118.551 105.308 118.706 105.471 118.898C105.633 119.09 105.752 119.316 105.819 119.559C105.885 119.802 105.898 120.057 105.856 120.305L104.346 145.772Z" fill="#263238" stroke="#263238" stroke-width="0.283087" stroke-linecap="round" stroke-linejoin="round"/>
<path d="M60.301 118.894H103.814C104.059 118.891 104.303 118.942 104.527 119.044C104.751 119.145 104.95 119.294 105.11 119.481C105.27 119.667 105.388 119.886 105.454 120.123C105.521 120.36 105.535 120.608 105.495 120.851" stroke="white" stroke-width="0.283087" stroke-linecap="round" stroke-linejoin="round"/>
<path d="M56.8472 120.449C56.8835 120.023 57.0791 119.626 57.395 119.338C57.7109 119.05 58.1239 118.891 58.5516 118.894" stroke="white" stroke-width="0.283087" stroke-linecap="round" stroke-linejoin="round"/>
<path d="M104.54 143.292H57.8256V145.772H104.54V143.292Z" fill="white" stroke="#263238" stroke-width="0.283087" stroke-linecap="round" stroke-linejoin="round"/>
<path d="M81.0157 134.112C82.8436 134.112 84.3254 133.223 84.3254 132.128C84.3254 131.032 82.8436 130.144 81.0157 130.144C79.1878 130.144 77.7061 131.032 77.7061 132.128C77.7061 133.223 79.1878 134.112 81.0157 134.112Z" fill="white" stroke="#263238" stroke-width="0.283087" stroke-linecap="round" stroke-linejoin="round"/>
<path d="M202.811 35.8296H119.109C116.287 35.8296 114 38.1169 114 40.9384V88.9645C114 91.786 116.287 94.0732 119.109 94.0732H202.811C205.632 94.0732 207.919 91.786 207.919 88.9645V40.9384C207.919 38.1169 205.632 35.8296 202.811 35.8296Z" fill="#FFD202"/>
<path d="M163.169 69.3005C170.761 68.0803 175.927 60.9361 174.707 53.3435C173.487 45.7509 166.342 40.5851 158.75 41.8053C151.157 43.0255 145.991 50.1697 147.212 57.7623C148.432 65.3549 155.576 70.5207 163.169 69.3005Z" fill="#263238"/>
<path d="M160.854 58.127L156.214 64.0834C156.056 64.3314 155.84 64.5362 155.583 64.6795C155.326 64.8227 155.038 64.8999 154.744 64.9041C154.341 64.9096 153.952 64.7556 153.662 64.4757C153.515 64.3404 153.398 64.175 153.32 63.9905C153.242 63.8061 153.205 63.6071 153.211 63.4071C153.226 62.959 153.384 62.5275 153.662 62.1761L158.951 55.6334L153.991 49.0863C153.761 48.779 153.634 48.4062 153.631 48.0221C153.629 47.7931 153.676 47.5662 153.766 47.3559C153.857 47.1456 153.991 46.9564 154.158 46.8002C154.315 46.6359 154.504 46.5053 154.714 46.4161C154.923 46.327 155.148 46.2812 155.376 46.2816C155.667 46.2864 155.952 46.3639 156.206 46.5073C156.46 46.6506 156.673 46.8552 156.827 47.1023L161.309 53.0046L165.819 47.2015C165.98 46.9307 166.205 46.7039 166.475 46.5411C166.745 46.3783 167.051 46.2845 167.365 46.2681C167.56 46.2676 167.754 46.3074 167.933 46.385C168.112 46.4626 168.273 46.5763 168.407 46.719C168.549 46.8528 168.662 47.0142 168.74 47.1933C168.817 47.3724 168.857 47.5654 168.858 47.7606C168.853 48.1098 168.732 48.4476 168.515 48.721L163.208 55.5117L168.335 62.2753C168.577 62.5776 168.712 62.952 168.718 63.3394C168.719 63.5635 168.672 63.7851 168.579 63.9891C168.487 64.1931 168.351 64.3745 168.181 64.5208C167.85 64.839 167.409 65.0167 166.95 65.0168C166.658 65.0132 166.37 64.9361 166.115 64.7928C165.86 64.6494 165.645 64.4443 165.489 64.1962L160.854 58.127Z" fill="white"/>
<path d="M187.489 83.9864H134.413C133.336 83.9864 132.304 83.5589 131.543 82.7978C130.782 82.0368 130.355 81.0046 130.355 79.9283C130.355 78.852 130.782 77.8198 131.543 77.0587C132.304 76.2977 133.336 75.8701 134.413 75.8701H187.489C188.565 75.8701 189.598 76.2977 190.359 77.0587C191.12 77.8198 191.547 78.852 191.547 79.9283C191.547 81.0046 191.12 82.0368 190.359 82.7978C189.598 83.5589 188.565 83.9864 187.489 83.9864Z" fill="white"/>
<path d="M141.686 81.2359C141.65 81.2359 141.615 81.2288 141.583 81.2148C141.55 81.2009 141.521 81.1804 141.496 81.1548C141.47 81.1283 141.449 81.0966 141.435 81.0617C141.421 81.0268 141.414 80.9895 141.415 80.9519C141.415 80.8884 141.432 80.8261 141.465 80.7715L141.871 80.1402H141.041C141.003 80.1422 140.964 80.136 140.929 80.122C140.893 80.108 140.86 80.0866 140.834 80.0591C140.787 80.0051 140.762 79.9363 140.762 79.8652C140.762 79.7941 140.787 79.7253 140.834 79.6713C140.86 79.6438 140.893 79.6224 140.929 79.6084C140.964 79.5944 141.003 79.5882 141.041 79.5901L141.857 79.6127L141.496 79.0265C141.46 78.9665 141.44 78.8982 141.438 78.8281C141.437 78.7905 141.443 78.7531 141.457 78.7182C141.471 78.6833 141.492 78.6517 141.519 78.6252C141.544 78.5994 141.574 78.579 141.608 78.565C141.641 78.5511 141.677 78.5439 141.713 78.544C141.763 78.5433 141.813 78.5574 141.855 78.5847C141.898 78.612 141.931 78.6511 141.952 78.6973L142.349 79.4053L142.727 78.7289C142.751 78.6763 142.789 78.6312 142.837 78.5986C142.884 78.566 142.94 78.5471 142.998 78.544C143.033 78.544 143.068 78.5512 143.101 78.5652C143.133 78.5791 143.163 78.5996 143.187 78.6252C143.214 78.65 143.235 78.6801 143.249 78.7135C143.263 78.7469 143.269 78.7829 143.268 78.8191C143.268 78.8831 143.249 78.9457 143.214 78.9995L142.818 79.6352L143.643 79.6127C143.681 79.6104 143.72 79.6165 143.755 79.6305C143.791 79.6445 143.823 79.6661 143.85 79.6938C143.896 79.7478 143.922 79.8166 143.922 79.8877C143.922 79.9589 143.896 80.0277 143.85 80.0816C143.823 80.1093 143.791 80.131 143.755 80.145C143.72 80.159 143.681 80.1651 143.643 80.1628H142.809L143.178 80.74C143.22 80.8096 143.243 80.8888 143.246 80.9699C143.247 81.0064 143.241 81.0429 143.228 81.077C143.215 81.1111 143.195 81.1421 143.169 81.1683C143.146 81.1936 143.117 81.2139 143.085 81.2278C143.053 81.2418 143.019 81.2491 142.984 81.2495C142.929 81.2481 142.874 81.2308 142.828 81.1997C142.782 81.1685 142.745 81.1248 142.723 81.0736L142.349 80.4108L141.974 81.0736C141.947 81.1258 141.906 81.169 141.854 81.1978C141.803 81.2267 141.744 81.2399 141.686 81.2359Z" fill="black"/>
<path d="M145.825 81.2359C145.79 81.2359 145.755 81.2287 145.722 81.2148C145.69 81.2008 145.66 81.1804 145.636 81.1548C145.609 81.1283 145.588 81.0966 145.574 81.0617C145.56 81.0268 145.554 80.9894 145.555 80.9518C145.555 80.8884 145.572 80.826 145.604 80.7715L146.01 80.1402H145.18C145.142 80.1422 145.104 80.136 145.068 80.122C145.032 80.108 145 80.0865 144.973 80.059C144.927 80.0051 144.901 79.9363 144.901 79.8652C144.901 79.794 144.927 79.7252 144.973 79.6713C145 79.6438 145.032 79.6223 145.068 79.6084C145.104 79.5944 145.142 79.5881 145.18 79.5901L145.997 79.6127L145.613 79.0039C145.577 78.9439 145.557 78.8756 145.555 78.8055C145.554 78.768 145.56 78.7306 145.574 78.6957C145.588 78.6608 145.609 78.6291 145.636 78.6026C145.661 78.5768 145.691 78.5564 145.725 78.5424C145.758 78.5285 145.794 78.5214 145.83 78.5215C145.88 78.5207 145.93 78.5348 145.972 78.5621C146.015 78.5894 146.048 78.6286 146.069 78.6748L146.466 79.3827L146.844 78.7063C146.868 78.6537 146.906 78.6086 146.954 78.576C147.001 78.5434 147.057 78.5246 147.115 78.5215C147.15 78.5215 147.185 78.5286 147.218 78.5426C147.25 78.5566 147.28 78.577 147.304 78.6026C147.331 78.6274 147.352 78.6575 147.366 78.6909C147.38 78.7243 147.386 78.7603 147.385 78.7965C147.385 78.8605 147.366 78.9231 147.331 78.9769L146.935 79.6127L147.76 79.5901C147.798 79.5878 147.836 79.5939 147.872 79.6079C147.908 79.6219 147.94 79.6436 147.967 79.6713C148.013 79.7252 148.039 79.794 148.039 79.8652C148.039 79.9363 148.013 80.0051 147.967 80.059C147.94 80.0868 147.908 80.1084 147.872 80.1224C147.836 80.1364 147.798 80.1425 147.76 80.1402H146.925L147.295 80.7174C147.337 80.787 147.36 80.8662 147.363 80.9473C147.364 80.9839 147.358 81.0203 147.345 81.0544C147.332 81.0885 147.312 81.1196 147.286 81.1457C147.262 81.171 147.234 81.1913 147.202 81.2052C147.17 81.2192 147.136 81.2265 147.101 81.2269C147.045 81.2261 146.991 81.209 146.944 81.1778C146.898 81.1466 146.862 81.1025 146.84 81.051L146.466 80.3882L146.091 81.051C146.069 81.1039 146.032 81.1494 145.985 81.1822C145.938 81.2149 145.883 81.2335 145.825 81.2359Z" fill="black"/>
<path d="M149.965 81.2359C149.929 81.2359 149.894 81.2287 149.862 81.2148C149.829 81.2008 149.8 81.1804 149.775 81.1548C149.749 81.1283 149.728 81.0966 149.714 81.0617C149.7 81.0268 149.693 80.9894 149.694 80.9518C149.694 80.8884 149.711 80.826 149.744 80.7715L150.149 80.1402H149.32C149.281 80.1422 149.243 80.136 149.207 80.122C149.172 80.108 149.139 80.0865 149.112 80.059C149.066 80.0051 149.041 79.9363 149.041 79.8652C149.041 79.794 149.066 79.7252 149.112 79.6713C149.139 79.6438 149.172 79.6223 149.207 79.6084C149.243 79.5944 149.281 79.5881 149.32 79.5901L150.136 79.6127L149.753 79.0039C149.716 78.9439 149.696 78.8756 149.694 78.8055C149.693 78.768 149.7 78.7306 149.714 78.6957C149.728 78.6608 149.749 78.6291 149.775 78.6026C149.8 78.5768 149.831 78.5564 149.864 78.5424C149.897 78.5285 149.933 78.5214 149.969 78.5215C150.02 78.5207 150.069 78.5348 150.112 78.5621C150.154 78.5894 150.188 78.6286 150.208 78.6748L150.605 79.3827L150.984 78.7063C151.007 78.6537 151.045 78.6086 151.093 78.576C151.141 78.5434 151.196 78.5246 151.254 78.5215C151.29 78.5215 151.325 78.5286 151.357 78.5426C151.39 78.5566 151.419 78.577 151.444 78.6026C151.47 78.6274 151.491 78.6575 151.505 78.6909C151.519 78.7243 151.526 78.7603 151.525 78.7965C151.524 78.8605 151.505 78.9231 151.471 78.9769L151.074 79.6127L151.899 79.5901C151.937 79.5878 151.976 79.5939 152.012 79.6079C152.047 79.6219 152.08 79.6436 152.106 79.6713C152.153 79.7252 152.178 79.794 152.178 79.8652C152.178 79.9363 152.153 80.0051 152.106 80.059C152.08 80.0868 152.047 80.1084 152.012 80.1224C151.976 80.1364 151.937 80.1425 151.899 80.1402H151.065L151.435 80.7174C151.476 80.787 151.5 80.8662 151.502 80.9473C151.503 80.9839 151.497 81.0203 151.484 81.0544C151.471 81.0885 151.451 81.1196 151.426 81.1457C151.402 81.171 151.373 81.1913 151.341 81.2052C151.31 81.2192 151.275 81.2265 151.241 81.2269C151.185 81.2261 151.13 81.209 151.084 81.1778C151.037 81.1466 151.001 81.1025 150.979 81.051L150.605 80.3882L150.231 81.051C150.208 81.1039 150.172 81.1494 150.124 81.1822C150.077 81.2149 150.022 81.2335 149.965 81.2359Z" fill="black"/>
<path d="M154.122 81.2359C154.087 81.2359 154.052 81.2287 154.019 81.2148C153.986 81.2008 153.957 81.1804 153.933 81.1548C153.906 81.1283 153.885 81.0966 153.871 81.0617C153.857 81.0268 153.85 80.9894 153.851 80.9518C153.851 80.8884 153.869 80.826 153.901 80.7715L154.307 80.1402H153.477C153.439 80.1422 153.401 80.136 153.365 80.122C153.329 80.108 153.297 80.0865 153.27 80.059C153.223 80.0051 153.198 79.9363 153.198 79.8652C153.198 79.794 153.223 79.7252 153.27 79.6713C153.297 79.6438 153.329 79.6223 153.365 79.6084C153.401 79.5944 153.439 79.5881 153.477 79.5901L154.293 79.6127L153.91 79.0039C153.874 78.9439 153.854 78.8756 153.851 78.8055C153.85 78.768 153.857 78.7306 153.871 78.6957C153.885 78.6608 153.906 78.6291 153.933 78.6026C153.958 78.5768 153.988 78.5564 154.021 78.5424C154.055 78.5285 154.09 78.5214 154.127 78.5215C154.177 78.5207 154.227 78.5348 154.269 78.5621C154.312 78.5894 154.345 78.6286 154.366 78.6748L154.762 79.3827L155.141 78.7063C155.165 78.6537 155.203 78.6086 155.25 78.576C155.298 78.5434 155.354 78.5246 155.412 78.5215C155.447 78.5215 155.482 78.5286 155.515 78.5426C155.547 78.5566 155.577 78.577 155.601 78.6026C155.627 78.6274 155.648 78.6575 155.662 78.6909C155.676 78.7243 155.683 78.7603 155.682 78.7965C155.682 78.8605 155.663 78.9231 155.628 78.9769L155.231 79.6127L156.056 79.5901C156.095 79.5878 156.133 79.5939 156.169 79.6079C156.205 79.6219 156.237 79.6436 156.264 79.6713C156.31 79.7252 156.336 79.794 156.336 79.8652C156.336 79.9363 156.31 80.0051 156.264 80.059C156.237 80.0868 156.205 80.1084 156.169 80.1224C156.133 80.1364 156.095 80.1425 156.056 80.1402H155.222L155.592 80.7174C155.634 80.787 155.657 80.8662 155.66 80.9473C155.661 80.9839 155.655 81.0203 155.642 81.0544C155.628 81.0885 155.609 81.1196 155.583 81.1457C155.559 81.171 155.531 81.1913 155.499 81.2052C155.467 81.2192 155.433 81.2265 155.398 81.2269C155.342 81.2255 155.288 81.2083 155.242 81.1771C155.195 81.146 155.159 81.1022 155.137 81.051L154.762 80.3882L154.388 81.051C154.366 81.1039 154.329 81.1494 154.282 81.1822C154.235 81.2149 154.179 81.2335 154.122 81.2359Z" fill="black"/>
<path d="M158.243 81.2359C158.208 81.2359 158.173 81.2287 158.14 81.2148C158.108 81.2008 158.078 81.1804 158.054 81.1548C158.027 81.1283 158.006 81.0966 157.992 81.0617C157.978 81.0268 157.972 80.9894 157.973 80.9518C157.975 80.8887 157.992 80.8269 158.022 80.7715L158.428 80.1402H157.598C157.56 80.1422 157.522 80.136 157.486 80.122C157.45 80.108 157.418 80.0865 157.391 80.059C157.345 80.0051 157.319 79.9363 157.319 79.8652C157.319 79.794 157.345 79.7252 157.391 79.6713C157.418 79.6438 157.45 79.6223 157.486 79.6084C157.522 79.5944 157.56 79.5881 157.598 79.5901L158.415 79.6127L158.031 79.0039C157.995 78.9439 157.975 78.8756 157.973 78.8055C157.972 78.768 157.978 78.7306 157.992 78.6957C158.006 78.6608 158.027 78.6291 158.054 78.6026C158.079 78.5768 158.109 78.5564 158.143 78.5424C158.176 78.5285 158.212 78.5214 158.248 78.5215C158.298 78.5207 158.348 78.5349 158.39 78.5621C158.433 78.5894 158.466 78.6286 158.487 78.6748L158.884 79.3827L159.262 78.7063C159.286 78.6537 159.324 78.6086 159.372 78.576C159.419 78.5434 159.475 78.5246 159.533 78.5215C159.568 78.5209 159.604 78.5279 159.636 78.5418C159.669 78.5558 159.698 78.5765 159.722 78.6026C159.749 78.6274 159.77 78.6575 159.784 78.6909C159.798 78.7243 159.804 78.7603 159.803 78.7965C159.803 78.8605 159.784 78.9231 159.749 78.9769L159.352 79.6127L160.178 79.5901C160.216 79.5878 160.254 79.5939 160.29 79.6079C160.326 79.6219 160.358 79.6436 160.385 79.6713C160.431 79.7252 160.457 79.794 160.457 79.8652C160.457 79.9363 160.431 80.0051 160.385 80.059C160.358 80.0868 160.326 80.1084 160.29 80.1224C160.254 80.1364 160.216 80.1425 160.178 80.1402H159.343L159.713 80.7174C159.755 80.787 159.778 80.8662 159.781 80.9473C159.782 80.9839 159.776 81.0203 159.763 81.0544C159.75 81.0885 159.73 81.1196 159.704 81.1457C159.68 81.171 159.652 81.1913 159.62 81.2052C159.588 81.2192 159.554 81.2265 159.519 81.2269C159.464 81.2255 159.409 81.2083 159.363 81.1771C159.317 81.146 159.28 81.1022 159.258 81.051L158.884 80.3882L158.509 81.051C158.487 81.1039 158.45 81.1494 158.403 81.1822C158.356 81.2149 158.301 81.2335 158.243 81.2359Z" fill="black"/>
<path d="M162.382 81.2359C162.347 81.2359 162.312 81.2287 162.279 81.2148C162.247 81.2008 162.217 81.1804 162.193 81.1548C162.166 81.1283 162.145 81.0966 162.131 81.0617C162.117 81.0268 162.111 80.9894 162.112 80.9518C162.114 80.8887 162.131 80.8269 162.161 80.7715L162.567 80.1402H161.742C161.703 80.1425 161.664 80.1365 161.627 80.1225C161.591 80.1085 161.558 80.0869 161.53 80.059C161.484 80.0051 161.458 79.9363 161.458 79.8652C161.458 79.794 161.484 79.7252 161.53 79.6713C161.558 79.6434 161.591 79.6218 161.627 79.6078C161.664 79.5938 161.703 79.5878 161.742 79.5901L162.554 79.6127L162.17 79.0039C162.134 78.9439 162.114 78.8756 162.112 78.8055C162.111 78.768 162.117 78.7306 162.131 78.6957C162.145 78.6608 162.166 78.6291 162.193 78.6026C162.218 78.5768 162.248 78.5564 162.282 78.5424C162.315 78.5285 162.351 78.5214 162.387 78.5215C162.437 78.5207 162.487 78.5349 162.53 78.5621C162.572 78.5894 162.606 78.6286 162.626 78.6748L163.023 79.3827L163.401 78.7063C163.425 78.6537 163.463 78.6086 163.511 78.576C163.559 78.5434 163.614 78.5246 163.672 78.5215C163.708 78.5209 163.743 78.5279 163.775 78.5418C163.808 78.5558 163.837 78.5765 163.861 78.6026C163.888 78.6274 163.909 78.6575 163.923 78.6909C163.937 78.7243 163.943 78.7603 163.943 78.7965C163.942 78.8605 163.923 78.9231 163.888 78.9769L163.492 79.6127L164.317 79.5901C164.355 79.5878 164.394 79.5939 164.429 79.6079C164.465 79.6219 164.498 79.6436 164.524 79.6713C164.571 79.7252 164.596 79.794 164.596 79.8652C164.596 79.9363 164.571 80.0051 164.524 80.059C164.498 80.0868 164.465 80.1084 164.429 80.1224C164.394 80.1364 164.355 80.1425 164.317 80.1402H163.483L163.852 80.7174C163.894 80.787 163.917 80.8662 163.92 80.9473C163.921 80.9839 163.915 81.0203 163.902 81.0544C163.889 81.0885 163.869 81.1196 163.843 81.1457C163.82 81.171 163.791 81.1913 163.759 81.2052C163.727 81.2192 163.693 81.2265 163.658 81.2269C163.603 81.2255 163.548 81.2083 163.502 81.1771C163.456 81.146 163.419 81.1022 163.397 81.051L163.023 80.3882L162.648 81.051C162.626 81.1039 162.589 81.1494 162.542 81.1822C162.495 81.2149 162.44 81.2335 162.382 81.2359Z" fill="black"/>
<path d="M166.522 81.236C166.486 81.236 166.451 81.2288 166.419 81.2148C166.386 81.2009 166.357 81.1804 166.332 81.1548C166.306 81.1283 166.285 81.0966 166.271 81.0617C166.257 81.0268 166.25 80.9895 166.251 80.9519C166.251 80.8884 166.268 80.8261 166.301 80.7715L166.707 80.1403H165.877C165.839 80.1422 165.8 80.136 165.765 80.122C165.729 80.108 165.696 80.0866 165.67 80.0591C165.623 80.0051 165.598 79.9363 165.598 79.8652C165.598 79.7941 165.623 79.7253 165.67 79.6713C165.696 79.6438 165.729 79.6224 165.765 79.6084C165.8 79.5944 165.839 79.5882 165.877 79.5901L166.693 79.6127L166.296 79.0265C166.26 78.9665 166.24 78.8982 166.238 78.8281C166.237 78.7905 166.243 78.7531 166.257 78.7182C166.271 78.6833 166.292 78.6517 166.319 78.6252C166.344 78.5994 166.374 78.579 166.408 78.565C166.441 78.5511 166.477 78.5439 166.513 78.544C166.563 78.5433 166.613 78.5574 166.655 78.5847C166.698 78.612 166.731 78.6511 166.752 78.6973L167.149 79.4053L167.527 78.7289C167.551 78.6763 167.589 78.6312 167.637 78.5986C167.684 78.566 167.74 78.5471 167.798 78.544C167.833 78.5435 167.869 78.5504 167.901 78.5644C167.934 78.5784 167.963 78.5991 167.987 78.6252C168.014 78.65 168.035 78.6801 168.049 78.7135C168.063 78.7469 168.069 78.7829 168.068 78.8191C168.068 78.8831 168.049 78.9457 168.014 78.9995L167.618 79.6352L168.443 79.6127C168.481 79.6104 168.519 79.6165 168.555 79.6305C168.591 79.6445 168.623 79.6661 168.65 79.6939C168.696 79.7478 168.722 79.8166 168.722 79.8877C168.722 79.9589 168.696 80.0277 168.65 80.0816C168.623 80.1093 168.591 80.131 168.555 80.145C168.519 80.159 168.481 80.1651 168.443 80.1628H167.609L167.978 80.74C168.02 80.8096 168.043 80.8888 168.046 80.9699C168.047 81.0065 168.041 81.0429 168.028 81.077C168.015 81.1111 167.995 81.1421 167.969 81.1683C167.945 81.1936 167.917 81.2139 167.885 81.2278C167.853 81.2418 167.819 81.2491 167.784 81.2495C167.729 81.2481 167.674 81.2308 167.628 81.1997C167.582 81.1685 167.545 81.1248 167.523 81.0736L167.149 80.4108L166.774 81.0736C166.75 81.1203 166.714 81.1599 166.67 81.1884C166.625 81.2168 166.574 81.2332 166.522 81.236Z" fill="black"/>
<path d="M170.661 81.2359C170.626 81.2359 170.591 81.2287 170.558 81.2148C170.526 81.2008 170.496 81.1804 170.472 81.1548C170.445 81.1283 170.424 81.0966 170.41 81.0617C170.396 81.0268 170.389 80.9894 170.391 80.9519C170.393 80.8887 170.41 80.8269 170.44 80.7715L170.846 80.1402H170.021C169.982 80.1431 169.944 80.1373 169.908 80.1233C169.872 80.1092 169.84 80.0873 169.813 80.0591C169.764 80.0064 169.737 79.9371 169.737 79.8652C169.737 79.7932 169.764 79.7239 169.813 79.6713C169.84 79.6431 169.872 79.6211 169.908 79.6071C169.944 79.593 169.982 79.5872 170.021 79.5901L170.832 79.6127L170.449 79.0039C170.413 78.9439 170.393 78.8756 170.391 78.8055C170.389 78.7687 170.396 78.7319 170.409 78.6975C170.422 78.6631 170.442 78.6317 170.468 78.6052C170.494 78.5787 170.524 78.5576 170.558 78.5432C170.592 78.5288 170.629 78.5214 170.666 78.5215C170.716 78.5207 170.766 78.5349 170.808 78.5621C170.851 78.5894 170.884 78.6286 170.905 78.6748L171.301 79.3827L171.68 78.7063C171.704 78.6537 171.742 78.6086 171.79 78.576C171.837 78.5434 171.893 78.5246 171.951 78.5215C171.986 78.5203 172.022 78.527 172.054 78.541C172.087 78.555 172.116 78.5761 172.14 78.6026C172.167 78.6274 172.187 78.6575 172.201 78.6909C172.215 78.7243 172.222 78.7603 172.221 78.7965C172.221 78.8605 172.202 78.9231 172.167 78.9769L171.77 79.6127L172.595 79.5901C172.634 79.5878 172.672 79.5939 172.708 79.6079C172.744 79.6219 172.776 79.6436 172.803 79.6713C172.849 79.7252 172.875 79.794 172.875 79.8652C172.875 79.9363 172.849 80.0051 172.803 80.0591C172.776 80.0868 172.744 80.1084 172.708 80.1224C172.672 80.1364 172.634 80.1425 172.595 80.1402H171.761L172.131 80.7174C172.173 80.787 172.196 80.8662 172.199 80.9473C172.2 80.9829 172.194 81.0183 172.182 81.0516C172.169 81.0849 172.15 81.1154 172.126 81.1413C172.102 81.1673 172.072 81.1882 172.04 81.2029C172.008 81.2176 171.973 81.2257 171.937 81.2269C171.881 81.2255 171.827 81.2083 171.781 81.1771C171.734 81.146 171.698 81.1022 171.676 81.051L171.301 80.3882L170.927 81.051C170.905 81.1039 170.868 81.1494 170.821 81.1822C170.774 81.2149 170.718 81.2335 170.661 81.2359Z" fill="black"/>
<path d="M174.801 81.2359C174.765 81.2359 174.73 81.2287 174.697 81.2148C174.665 81.2008 174.636 81.1804 174.611 81.1548C174.584 81.1283 174.563 81.0966 174.55 81.0617C174.536 81.0268 174.529 80.9894 174.53 80.9519C174.532 80.8887 174.549 80.8269 174.58 80.7715L174.985 80.1402H174.156C174.118 80.1424 174.08 80.1363 174.045 80.1223C174.01 80.1082 173.979 80.0867 173.953 80.0591C173.904 80.0064 173.876 79.9371 173.876 79.8652C173.876 79.7932 173.904 79.7239 173.953 79.6713C173.979 79.6437 174.01 79.6221 174.045 79.608C174.08 79.594 174.118 79.5879 174.156 79.5901L174.972 79.6127L174.589 79.0039C174.552 78.9439 174.532 78.8756 174.53 78.8055C174.529 78.7687 174.535 78.7319 174.548 78.6975C174.562 78.6631 174.582 78.6317 174.607 78.6052C174.633 78.5787 174.664 78.5576 174.698 78.5432C174.732 78.5288 174.768 78.5214 174.805 78.5215C174.856 78.5207 174.905 78.5349 174.948 78.5621C174.99 78.5894 175.024 78.6286 175.044 78.6748L175.441 79.3827L175.82 78.7063C175.843 78.6537 175.881 78.6086 175.929 78.576C175.977 78.5434 176.032 78.5246 176.09 78.5215C176.126 78.5203 176.161 78.527 176.194 78.541C176.227 78.555 176.256 78.5761 176.279 78.6026C176.306 78.6274 176.327 78.6575 176.341 78.6909C176.355 78.7243 176.362 78.7603 176.361 78.7965C176.36 78.8605 176.341 78.9231 176.307 78.9769L175.91 79.6127L176.735 79.5901C176.773 79.5878 176.812 79.5939 176.848 79.6079C176.883 79.6219 176.916 79.6436 176.942 79.6713C176.989 79.7252 177.014 79.794 177.014 79.8652C177.014 79.9363 176.989 80.0051 176.942 80.0591C176.916 80.0868 176.883 80.1084 176.848 80.1224C176.812 80.1364 176.773 80.1425 176.735 80.1402H175.901L176.27 80.7174C176.312 80.787 176.335 80.8662 176.338 80.9473C176.339 80.9829 176.334 81.0183 176.321 81.0516C176.309 81.0849 176.29 81.1154 176.265 81.1413C176.241 81.1673 176.212 81.1882 176.179 81.2029C176.147 81.2176 176.112 81.2257 176.077 81.2269C176.021 81.2255 175.966 81.2083 175.92 81.1771C175.874 81.146 175.837 81.1022 175.815 81.051L175.441 80.3882L175.067 81.051C175.044 81.1039 175.008 81.1494 174.96 81.1822C174.913 81.2149 174.858 81.2335 174.801 81.2359Z" fill="black"/>
<path d="M178.922 81.2359C178.886 81.2359 178.851 81.2287 178.819 81.2148C178.786 81.2008 178.757 81.1804 178.732 81.1548C178.706 81.1283 178.685 81.0966 178.671 81.0617C178.657 81.0268 178.65 80.9894 178.651 80.9519C178.653 80.8887 178.67 80.8269 178.701 80.7715L179.107 80.1402H178.277C178.239 80.1424 178.202 80.1363 178.167 80.1223C178.131 80.1082 178.1 80.0867 178.074 80.0591C178.025 80.0064 177.998 79.9371 177.998 79.8652C177.998 79.7932 178.025 79.7239 178.074 79.6713C178.1 79.6437 178.131 79.6221 178.167 79.608C178.202 79.594 178.239 79.5879 178.277 79.5901L179.093 79.6127L178.71 79.0039C178.674 78.9439 178.654 78.8756 178.651 78.8055C178.65 78.768 178.657 78.7306 178.671 78.6957C178.685 78.6608 178.706 78.6291 178.732 78.6026C178.758 78.5768 178.788 78.5564 178.821 78.5424C178.854 78.5285 178.89 78.5214 178.926 78.5215C178.977 78.5207 179.026 78.5349 179.069 78.5621C179.111 78.5894 179.145 78.6286 179.165 78.6748L179.562 79.3827L179.941 78.7063C179.965 78.6537 180.003 78.6086 180.05 78.576C180.098 78.5434 180.154 78.5246 180.211 78.5215C180.247 78.5203 180.282 78.527 180.315 78.541C180.348 78.555 180.377 78.5761 180.401 78.6026C180.427 78.6274 180.448 78.6575 180.462 78.6909C180.476 78.7243 180.483 78.7603 180.482 78.7965C180.481 78.8605 180.463 78.9231 180.428 78.9769L180.031 79.6127L180.856 79.5901C180.895 79.5878 180.933 79.5939 180.969 79.6079C181.005 79.6219 181.037 79.6436 181.064 79.6713C181.11 79.7252 181.135 79.794 181.135 79.8652C181.135 79.9363 181.11 80.0051 181.064 80.0591C181.037 80.0868 181.005 80.1084 180.969 80.1224C180.933 80.1364 180.895 80.1425 180.856 80.1402H180.022L180.392 80.7174C180.434 80.787 180.457 80.8662 180.459 80.9473C180.461 80.9839 180.455 81.0203 180.441 81.0544C180.428 81.0885 180.408 81.1196 180.383 81.1457C180.359 81.171 180.33 81.1913 180.299 81.2052C180.267 81.2192 180.233 81.2265 180.198 81.2269C180.142 81.2255 180.088 81.2083 180.041 81.1771C179.995 81.146 179.959 81.1022 179.936 81.051L179.562 80.3882L179.188 81.051C179.166 81.1039 179.129 81.1494 179.082 81.1822C179.035 81.2149 178.979 81.2335 178.922 81.2359Z" fill="black"/>
<path d="M193.107 91.21H198.622" stroke="white" stroke-width="0.849261" stroke-linecap="round" stroke-linejoin="round"/>
<path d="M116.62 50.6059V87.233C116.62 88.2938 117.041 89.3111 117.791 90.0611C118.541 90.8112 119.559 91.2326 120.619 91.2326H187.872" stroke="white" stroke-width="0.849261" stroke-linecap="round" stroke-linejoin="round"/>
<path d="M116.62 40.8932V46.3852" stroke="white" stroke-width="0.849261" stroke-linecap="round" stroke-linejoin="round"/>
</svg>
