<svg width="42" height="42" viewBox="0 0 42 42" fill="none" xmlns="http://www.w3.org/2000/svg">
<g clip-path="url(#clip0_397_2516)">
<path d="M8.29104 0H21.0002C21.0166 1.22555 20.9657 2.45191 21.0272 3.67582C17.2251 3.67336 13.4221 3.67582 9.61913 3.675C9.20487 3.67172 8.79061 3.68074 8.37635 3.67254C7.9383 3.6668 7.5183 3.40348 7.32061 3.01301C7.1426 2.69473 7.19182 2.3182 7.18608 1.96957C7.19346 1.64062 7.16311 1.3084 7.21315 0.981914C7.30256 0.461836 7.76932 0.0500391 8.29104 0Z" fill="#EAEAEA"/>
<path d="M20.9999 0H33.4178C33.892 0.101719 34.3038 0.488906 34.3743 0.976992C34.4276 1.46918 34.3956 1.96711 34.3973 2.46176C34.3997 2.91047 34.138 3.35098 33.7353 3.55113C33.3341 3.77098 32.8608 3.67008 32.4244 3.6832C28.6255 3.66516 24.8267 3.6791 21.027 3.67582C20.9655 2.45191 21.0163 1.22555 20.9999 0Z" fill="#D8D8D8"/>
<path d="M9.61921 3.67511C13.4222 3.67593 17.2251 3.67347 21.0273 3.67593C21.0371 8.37878 21.0347 13.0816 21.0289 17.7845C19.8559 17.7869 18.6845 17.9576 17.5606 18.2931C15.1555 15.9913 12.7126 13.7297 10.2952 11.4418C9.85054 11.0079 9.60609 10.3869 9.61511 9.76757C9.61675 7.73648 9.60773 5.70538 9.61921 3.67511Z" fill="#FF3D4A"/>
<path d="M21.0269 3.6759C24.8265 3.67918 28.6254 3.66524 32.4243 3.68328C32.4456 5.57164 32.4268 7.46082 32.4341 9.34918C32.4341 9.80036 32.4448 10.2712 32.252 10.6904C32.0839 11.1129 31.7697 11.4508 31.4391 11.7519C29.1324 13.9347 26.8158 16.1077 24.5198 18.3021C23.4008 17.9649 22.2335 17.7804 21.0638 17.7853L21.0285 17.7845C21.0342 13.0816 21.0367 8.37875 21.0269 3.6759Z" fill="#C20020"/>
<path d="M5.0598 16.2823C5.34035 15.7139 6.06632 15.4194 6.66351 15.6376C6.99164 15.7459 7.22214 16.0166 7.46003 16.252C9.14414 17.9353 10.8274 19.6185 12.5107 21.3026C10.7774 23.0138 9.5789 25.2598 9.13429 27.6551C8.81683 29.3434 8.86687 31.0988 9.268 32.769C7.94402 32.3112 6.55195 31.9897 5.35183 31.235C4.24277 30.5755 3.30187 29.6288 2.67843 28.4976C2.35933 27.9103 2.06894 27.3073 1.76132 26.7143C1.62269 26.4362 1.44714 26.1573 1.44058 25.8365C1.41351 25.2475 1.87699 24.6873 2.45777 24.5987C2.77769 24.538 3.08777 24.6643 3.38636 24.7611C5.24273 25.3665 7.0991 25.971 8.95546 26.5764C8.48707 26.0843 7.97847 25.6331 7.51089 25.1401C6.34687 23.9186 5.41664 22.4232 5.08523 20.7514C4.85226 19.6743 4.93839 18.5661 4.92199 17.4734C4.93265 17.0756 4.86785 16.649 5.0598 16.2823Z" fill="#FFCF2C"/>
<path d="M15.6333 23.2646C17.1362 22.0391 19.068 21.35 21.0089 21.364C20.99 22.5723 21.0015 23.7823 21.0023 24.9906C21.2673 25.0874 21.5749 25.1989 21.6684 25.4967C21.9391 26.2293 22.1507 26.9831 22.4116 27.7189C22.4961 27.9946 22.7537 28.2062 23.0449 28.2111C23.8676 28.239 24.6929 28.198 25.5157 28.2267C25.9389 28.2415 26.2039 28.7279 26.0923 29.1118C26.0357 29.3563 25.8167 29.5048 25.6272 29.6442C25.1309 29.9937 24.642 30.3546 24.1449 30.7032C23.9702 30.8312 23.775 30.9633 23.7003 31.1782C23.5814 31.4678 23.7298 31.768 23.8135 32.0453C24.0178 32.6843 24.2524 33.3151 24.432 33.9615C24.5821 34.5316 23.848 35.032 23.3623 34.717C22.9144 34.4307 22.4985 34.0969 22.0621 33.7934C21.7266 33.5661 21.4239 33.256 21.0089 33.183C20.9851 34.927 21.0113 36.6726 20.9957 38.4175C20.7693 38.4158 20.5429 38.4142 20.3173 38.401C19.5036 38.3207 18.6956 38.1525 17.9335 37.8514C15.9311 37.0869 14.2478 35.5324 13.3184 33.6014C12.471 31.8664 12.252 29.8394 12.6892 27.9601C13.1092 26.1234 14.1674 24.4459 15.6333 23.2646ZM20.3624 25.4532C20.1057 26.1891 19.8785 26.9347 19.6274 27.673C19.543 27.9675 19.2591 28.1849 18.9515 28.1816C18.1312 28.2029 17.3092 28.1635 16.4898 28.1988C15.9319 28.253 15.6694 29.0626 16.0993 29.4276C16.7334 29.9215 17.4077 30.3628 18.0483 30.8476C18.2764 31.0174 18.3994 31.3242 18.3215 31.6023C18.0918 32.3914 17.7916 33.1609 17.5709 33.9533C17.4298 34.4996 18.0877 35.0419 18.5865 34.7507C19.2591 34.3069 19.8965 33.8098 20.5585 33.3504C20.6889 33.2569 20.8489 33.2249 20.9998 33.1814C20.9957 30.4514 21.008 27.7206 20.9941 24.9898C20.725 25.0332 20.4486 25.176 20.3624 25.4532Z" fill="#FFCF2C"/>
<path d="M6.99461 34.1355C7.82887 33.9526 8.65984 33.7549 9.4941 33.5728C9.95676 35.0222 10.6967 36.3815 11.6589 37.5603C10.7426 37.6628 9.7968 37.5964 8.92809 37.2732C8.16273 37.0008 7.50648 36.5111 6.82152 36.0887C6.57625 35.9262 6.28258 35.7958 6.13984 35.5235C5.93722 35.1576 6.03156 34.6621 6.35312 34.3955C6.52949 34.2364 6.76902 34.1863 6.99461 34.1355Z" fill="#FFCF2C"/>
<path d="M34.8751 15.9239C35.3336 15.4571 36.1367 15.458 36.6215 15.8829C36.9726 16.1634 37.1096 16.6269 37.0801 17.0633C37.0489 18.3529 37.1793 19.6654 36.875 20.9327C36.5633 22.3199 35.8406 23.5873 34.9194 24.6602C34.3443 25.3468 33.6651 25.9334 33.0441 26.5765C35.0252 25.9383 37.0005 25.2837 38.9807 24.6447C39.3056 24.5364 39.6764 24.5749 39.9676 24.7587C40.4712 25.0548 40.7124 25.7381 40.4565 26.2738C40.148 26.912 39.815 27.5387 39.4967 28.1728C38.8437 29.496 37.7814 30.6034 36.4968 31.3277C35.3476 32.0135 34.0359 32.322 32.7824 32.7551C33.3017 30.5345 33.2172 28.1704 32.4748 26.0097C31.8809 24.237 30.8473 22.6275 29.5356 21.3002C31.3157 19.5095 33.0909 17.7122 34.8751 15.9239Z" fill="#FFA81C"/>
<path d="M30.3799 37.5655C31.338 36.3818 32.0829 35.0258 32.5471 33.5747C33.4298 33.7806 34.3149 33.9742 35.1968 34.1817C35.4978 34.24 35.7743 34.4401 35.8916 34.7289C36.063 35.1087 35.9334 35.5976 35.5831 35.8289C35.054 36.1776 34.5184 36.5163 33.9778 36.8469C32.904 37.4901 31.6153 37.7091 30.3799 37.5655Z" fill="#FFA81C"/>
<path d="M17.5605 18.2928C18.6843 17.9573 19.8557 17.7866 21.0288 17.7842L21.0641 17.785C20.9763 18.9613 21.0756 20.1426 21.0107 21.3205L21.0091 21.364C19.0682 21.3501 17.1364 22.0391 15.6336 23.2647C14.1677 24.4459 13.1095 26.1235 12.6895 27.9602C12.2523 29.8395 12.4713 31.8665 13.3187 33.6014C14.2481 35.5325 15.9314 37.087 17.9338 37.8515C18.6958 38.1525 19.5038 38.3207 20.3176 38.4011C20.5481 38.4314 20.7794 38.4643 21.0132 38.4651C21.0411 39.6422 21.0411 40.8218 21.0132 41.9998H20.8286C19.1929 41.9629 17.5605 41.6134 16.0692 40.9367C14.3629 40.1738 12.8462 39.0024 11.6592 37.5603C10.697 36.3815 9.95704 35.0222 9.49438 33.5727C9.41235 33.307 9.33606 33.0387 9.26798 32.7688C8.86684 31.0987 8.8168 29.3432 9.13426 27.655C9.57887 25.2597 10.7773 23.0137 12.5107 21.3025C13.9134 19.9055 15.664 18.8629 17.5605 18.2928Z" fill="#F98F00"/>
<path d="M21.0641 17.7853C22.2338 17.7803 23.4011 17.9649 24.52 18.302C26.4018 18.8779 28.1368 19.9164 29.5354 21.3003C30.8471 22.6276 31.8807 24.237 32.4746 26.0097C33.217 28.1704 33.3015 30.5345 32.7822 32.7551C32.7117 33.0308 32.6354 33.3047 32.5468 33.5746C32.0825 35.0258 31.3376 36.3817 30.3795 37.5654C28.2648 40.1773 25.0221 41.813 21.6695 42.0001H21.0132C21.0411 40.8221 21.0411 39.6425 21.0132 38.4653C21.6112 38.3841 22.2182 38.3653 22.8089 38.2307C24.8096 37.8066 26.6397 36.6295 27.8521 34.9823C28.8464 33.6485 29.4329 32.0169 29.5166 30.3541C29.633 28.3492 29.0071 26.3124 27.7824 24.7202C26.5437 23.091 24.7071 21.927 22.6973 21.53C22.142 21.4102 21.5718 21.4004 21.0107 21.3208C21.0755 20.1428 20.9763 18.9616 21.0641 17.7853Z" fill="#FF7403"/>
<path d="M21.0105 21.3208C21.5716 21.4004 22.1418 21.4102 22.6971 21.53C24.7069 21.927 26.5436 23.091 27.7822 24.7202C29.0069 26.3124 29.6328 28.3492 29.5164 30.3541C29.4327 32.0169 28.8462 33.6485 27.8519 34.9823C26.6395 36.6295 24.8094 37.8066 22.8087 38.2307C22.218 38.3653 21.611 38.3841 21.013 38.4653C20.7792 38.4645 20.5479 38.4317 20.3174 38.4013C20.543 38.4145 20.7694 38.4161 20.9958 38.4178C21.0114 36.6729 20.9851 34.9273 21.0089 33.1833C21.424 33.2563 21.7267 33.5664 22.0622 33.7937C22.4986 34.0972 22.9145 34.431 23.3624 34.7173C23.848 35.0323 24.5822 34.5319 24.4321 33.9618C24.2524 33.3154 24.0178 32.6846 23.8136 32.0456C23.7299 31.7683 23.5814 31.4681 23.7004 31.1785C23.775 30.9636 23.9702 30.8315 24.145 30.7035C24.6421 30.3549 25.131 29.994 25.6273 29.6445C25.8168 29.5051 26.0358 29.3566 26.0924 29.1121C26.2039 28.7282 25.939 28.2418 25.5157 28.227C24.6929 28.1983 23.8677 28.2393 23.0449 28.2114C22.7537 28.2065 22.4961 27.9949 22.4116 27.7192C22.1508 26.9834 21.9391 26.2296 21.6684 25.497C21.5749 25.1992 21.2673 25.0877 21.0023 24.9909C21.0015 23.7826 20.99 22.5726 21.0089 21.3643L21.0105 21.3208Z" fill="#FF9300"/>
<path d="M20.3629 25.4537C20.449 25.1764 20.7254 25.0337 20.9945 24.9902C21.0085 27.7211 20.9962 30.4519 21.0003 33.1819C20.8493 33.2253 20.6894 33.2573 20.5589 33.3508C19.8969 33.8102 19.2596 34.3073 18.5869 34.7511C18.0881 35.0423 17.4303 34.5001 17.5714 33.9538C17.792 33.1614 18.0923 32.3919 18.3219 31.6028C18.3999 31.3247 18.2768 31.0179 18.0488 30.8481C17.4081 30.3633 16.7338 29.9219 16.0997 29.4281C15.6699 29.0631 15.9324 28.2534 16.4902 28.1993C17.3097 28.164 18.1316 28.2034 18.9519 28.1821C19.2596 28.1853 19.5434 27.968 19.6279 27.6735C19.8789 26.9352 20.1061 26.1895 20.3629 25.4537Z" fill="#FFF566"/>
</g>
<defs>
<clipPath id="clip0_397_2516">
<rect width="42" height="42" fill="white"/>
</clipPath>
</defs>
</svg>
