<svg width="42" height="51" viewBox="0 0 42 51" fill="none" xmlns="http://www.w3.org/2000/svg">
<path d="M7.40848 40.1336V34.4987L0.436523 30.472L1.13338 36.5103L7.40848 40.1336Z" fill="#263238"/>
<path d="M7.4082 40.1335L17.8661 34.0952L18.563 28.057L7.4082 34.4986V40.1335Z" fill="#37474F"/>
<path d="M0.00146484 29.2654C0.00657242 29.2101 0.0262614 29.1571 0.0585249 29.1119C0.0907883 29.0666 0.134473 29.0308 0.185119 29.0079L11.1459 22.6796C11.2842 22.6094 11.4371 22.5728 11.5922 22.5728C11.7473 22.5728 11.9002 22.6094 12.0385 22.6796L18.8165 26.593C18.8672 26.6157 18.911 26.6515 18.9433 26.6967C18.9756 26.742 18.9952 26.7951 19.0001 26.8504V28.4604C18.9955 28.5161 18.976 28.5695 18.9437 28.6151C18.9114 28.6607 18.8675 28.6967 18.8165 28.7196L7.85564 35.0462C7.71737 35.1164 7.56447 35.153 7.40938 35.153C7.25429 35.153 7.10139 35.1164 6.96312 35.0462L0.185119 31.1328C0.134578 31.1098 0.0909878 31.0739 0.0587449 31.0287C0.0265019 30.9835 0.00674405 30.9306 0.00146484 30.8754V29.2654Z" fill="#FFD202"/>
<path opacity="0.2" d="M0.184143 29.0078L7.4084 24.837V35.1542C7.25282 35.1572 7.09912 35.1199 6.96214 35.0461L0.184143 31.1327C0.133601 31.1097 0.0900113 31.0738 0.0577683 31.0286C0.0255253 30.9834 0.00576749 30.9305 0.000488281 30.8753V29.2636C0.00588633 29.2086 0.0257101 29.156 0.0579569 29.111C0.0902037 29.0661 0.133732 29.0305 0.184143 29.0078Z" fill="black"/>
<path opacity="0.1" d="M7.4082 24.8371L11.1448 22.6796C11.283 22.6094 11.4359 22.5728 11.591 22.5728C11.7461 22.5728 11.899 22.6094 12.0373 22.6796L18.8153 26.593C18.866 26.6157 18.9098 26.6515 18.9421 26.6967C18.9744 26.742 18.994 26.7951 18.9989 26.8504V28.4604C18.9943 28.5161 18.9748 28.5695 18.9425 28.6151C18.9102 28.6607 18.8663 28.6967 18.8153 28.7196L7.85446 35.0462C7.71749 35.12 7.56378 35.1572 7.4082 35.1543V24.8371Z" fill="black"/>
<path d="M6.96208 33.4362L0.184082 29.5228C-0.0613607 29.3804 -0.0613607 29.1504 0.184082 29.0079L11.1449 22.6796C11.2832 22.6094 11.4361 22.5728 11.5912 22.5728C11.7463 22.5728 11.8992 22.6094 12.0374 22.6796L18.8154 26.593C19.0609 26.7354 19.0609 26.9654 18.8154 27.1079L7.8546 33.4362C7.71633 33.5065 7.56343 33.5431 7.40834 33.5431C7.25325 33.5431 7.10035 33.5065 6.96208 33.4362Z" fill="#FFD202"/>
<path opacity="0.2" d="M16.8214 27.0512C17.0136 27.1628 17.0033 27.3481 16.7973 27.4666L9.17488 31.8691C9.06413 31.9277 8.94113 31.9593 8.81587 31.9614C8.69061 31.9634 8.56663 31.9359 8.45399 31.8811C8.26176 31.7713 8.27206 31.5842 8.47803 31.4658L16.1005 27.0649C16.2111 27.0061 16.334 26.9742 16.4593 26.9718C16.5845 26.9694 16.7086 26.9966 16.8214 27.0512Z" fill="black"/>
<path opacity="0.2" d="M9.17466 31.8692C9.06391 31.9278 8.94091 31.9594 8.81565 31.9614C8.6904 31.9635 8.56641 31.936 8.45378 31.8812L8.41602 31.8555C8.43533 31.8394 8.45601 31.825 8.47781 31.8125L16.1003 27.4117C16.2109 27.3529 16.3338 27.321 16.4591 27.3186C16.5843 27.3162 16.7084 27.3434 16.8211 27.398L16.8589 27.4255C16.8395 27.441 16.8189 27.4547 16.7971 27.4667L9.17466 31.8692Z" fill="black"/>
<path opacity="0.2" d="M11.2427 23.8313C11.4366 23.9412 11.4263 24.1282 11.2204 24.2467L3.5962 28.6475C3.48589 28.7063 3.36325 28.7382 3.23826 28.7406C3.11328 28.743 2.9895 28.7158 2.87703 28.6612C2.6848 28.5496 2.6951 28.3643 2.89935 28.2458L10.5235 23.8433C10.634 23.7848 10.7567 23.7532 10.8817 23.7511C11.0066 23.749 11.1304 23.7765 11.2427 23.8313Z" fill="black"/>
<path opacity="0.2" d="M3.59677 28.6475C3.48646 28.7063 3.36382 28.7382 3.23883 28.7406C3.11385 28.743 2.99008 28.7158 2.8776 28.6612C2.86406 28.6535 2.85139 28.6443 2.83984 28.6338C2.85889 28.6187 2.87897 28.6049 2.89992 28.5926L10.5241 24.1918C10.6343 24.1326 10.757 24.1004 10.882 24.098C11.0071 24.0957 11.1309 24.1231 11.2433 24.178C11.2564 24.1858 11.269 24.1944 11.281 24.2038C11.2623 24.2199 11.2422 24.2342 11.2209 24.2467L3.59677 28.6475Z" fill="black"/>
<path opacity="0.2" d="M4.26942 29.0732C4.07719 29.1847 4.08749 29.3701 4.29345 29.4886L7.03967 31.0711C7.14997 31.1299 7.27262 31.1618 7.39761 31.1642C7.52259 31.1665 7.64636 31.1393 7.75883 31.0848C7.95107 30.9732 7.94077 30.7878 7.73652 30.6694L4.99031 29.0869C4.8797 29.0281 4.75677 28.9962 4.63151 28.9938C4.50625 28.9914 4.38219 29.0186 4.26942 29.0732Z" fill="black"/>
<path opacity="0.2" d="M7.03773 31.0624C7.14804 31.1212 7.27069 31.1531 7.39567 31.1555C7.52065 31.1578 7.64443 31.1306 7.7569 31.0761C7.77002 31.0683 7.78263 31.0597 7.79466 31.0503C7.77595 31.0343 7.75585 31.0199 7.73459 31.0074L4.98837 29.4249C4.87776 29.3661 4.75483 29.3342 4.62957 29.3318C4.50432 29.3294 4.38026 29.3566 4.26749 29.4112C4.25477 29.4194 4.24271 29.4286 4.23145 29.4387C4.24995 29.4545 4.27009 29.4683 4.29152 29.4799L7.03773 31.0624Z" fill="black"/>
<path opacity="0.2" d="M2.87703 29.8695C2.6848 29.9794 2.6951 30.1665 2.89935 30.2849L5.64556 31.8674C5.75617 31.9262 5.8791 31.9581 6.00436 31.9605C6.12962 31.9629 6.25367 31.9357 6.36644 31.8811C6.55868 31.7696 6.54838 31.5825 6.34241 31.464L3.5962 29.8815C3.48576 29.823 3.36304 29.7914 3.23806 29.7893C3.11308 29.7872 2.98937 29.8147 2.87703 29.8695Z" fill="black"/>
<path opacity="0.2" d="M5.64369 31.8675C5.7543 31.9263 5.87723 31.9582 6.00249 31.9606C6.12775 31.963 6.2518 31.9358 6.36457 31.8812C6.3783 31.8726 6.3886 31.8623 6.40061 31.8537C6.38191 31.8377 6.36181 31.8233 6.34054 31.8108L3.59433 30.2283C3.48389 30.1698 3.36117 30.1382 3.23619 30.1361C3.1112 30.134 2.9875 30.1615 2.87516 30.2163C2.86167 30.2235 2.849 30.2321 2.8374 30.2421C2.85611 30.2581 2.87621 30.2725 2.89748 30.285L5.64369 31.8675Z" fill="black"/>
<path opacity="0.2" d="M12.6364 24.2347C12.4442 24.3462 12.4528 24.5316 12.6588 24.65L15.405 26.2325C15.5153 26.2913 15.6379 26.3232 15.7629 26.3256C15.8879 26.328 16.0117 26.3008 16.1241 26.2463C16.3181 26.1347 16.3078 25.9493 16.1018 25.8309L13.3556 24.2484C13.2453 24.1896 13.1226 24.1577 12.9977 24.1553C12.8727 24.1529 12.7489 24.1801 12.6364 24.2347Z" fill="black"/>
<path opacity="0.2" d="M15.403 26.2325C15.5136 26.2913 15.6365 26.3232 15.7618 26.3256C15.887 26.328 16.0111 26.3008 16.1238 26.2462C16.1366 26.2381 16.1486 26.2289 16.1599 26.2188C16.1411 26.2033 16.121 26.1895 16.0998 26.1776L13.3536 24.5951C13.2433 24.5363 13.1207 24.5044 12.9957 24.502C12.8707 24.4996 12.7469 24.5268 12.6344 24.5813C12.6213 24.5891 12.6087 24.5977 12.5967 24.6071C12.6154 24.6232 12.6355 24.6375 12.6567 24.65L15.403 26.2325Z" fill="black"/>
<path opacity="0.2" d="M11.2428 25.038C11.0505 25.1496 11.0608 25.3366 11.2651 25.4551L14.0113 27.0376C14.1221 27.0959 14.2449 27.1275 14.3701 27.1299C14.4953 27.1323 14.6192 27.1054 14.7322 27.0513C14.9244 26.9397 14.9141 26.7527 14.7081 26.6342L11.9619 25.0517C11.8514 24.9937 11.7288 24.9622 11.604 24.9599C11.4791 24.9575 11.3554 24.9842 11.2428 25.038Z" fill="black"/>
<path opacity="0.2" d="M14.0097 27.0375C14.1204 27.0958 14.2433 27.1274 14.3685 27.1298C14.4936 27.1322 14.6176 27.1053 14.7305 27.0512L14.7683 27.0238C14.749 27.0077 14.7283 26.9933 14.7065 26.9809L11.9603 25.3983C11.8495 25.34 11.7266 25.3084 11.6015 25.3061C11.4763 25.3037 11.3523 25.3306 11.2394 25.3846L11.2017 25.4121C11.2207 25.4277 11.2407 25.4421 11.2617 25.455L14.0097 27.0375Z" fill="black"/>
<path d="M6.71191 27.7086V29.2653L7.40877 29.6687L8.10562 29.2653V28.0844C8.1127 27.9556 8.14994 27.8303 8.21433 27.7185C8.27873 27.6067 8.36848 27.5116 8.47636 27.4408L10.1927 26.447L10.5189 26.2599C10.7231 26.1415 10.8896 26.2376 10.8896 26.4745V27.6553L11.5864 27.252V25.6952C11.5882 25.6644 11.5882 25.6334 11.5864 25.6026C11.5849 25.5789 11.5815 25.5553 11.5761 25.5322C11.5713 25.5054 11.5644 25.479 11.5556 25.4532C11.5486 25.4328 11.5406 25.4128 11.5315 25.3932C11.5221 25.3735 11.5112 25.3546 11.4989 25.3365C11.4877 25.3189 11.4751 25.3023 11.4611 25.2867C11.4481 25.2717 11.4338 25.2579 11.4182 25.2455C11.4033 25.2337 11.3872 25.2233 11.3702 25.2146L11.3479 25.2026L10.6768 24.8147C10.5929 24.7755 10.5001 24.7595 10.4079 24.7686C10.3158 24.7776 10.2278 24.8114 10.1533 24.8662L7.45682 26.423C7.24018 26.5635 7.05979 26.7531 6.93034 26.9765C6.8009 27.1999 6.72605 27.4507 6.71191 27.7086Z" fill="#455A64"/>
<path d="M10.1958 26.447V27.2503L10.8927 27.6536V26.4728C10.8927 26.2359 10.721 26.1398 10.5219 26.2582L10.1958 26.447Z" fill="#263238"/>
<path d="M7.4082 28.1102V29.6687L8.10505 29.2654V28.0845C8.11214 27.9557 8.14937 27.8303 8.21377 27.7185C8.27816 27.6067 8.36792 27.5116 8.47579 27.4408L10.1922 26.4488L10.5183 26.2617C10.7225 26.1433 10.889 26.2394 10.889 26.4762V27.6571L11.5859 27.2555V25.697C11.5877 25.6661 11.5877 25.6352 11.5859 25.6043C11.5844 25.5806 11.5809 25.5571 11.5756 25.5339C11.5708 25.5071 11.5639 25.4807 11.555 25.455C11.548 25.4346 11.54 25.4145 11.531 25.3949C11.5215 25.3753 11.5106 25.3563 11.4983 25.3383C11.4871 25.3207 11.4745 25.304 11.4606 25.2885C11.4476 25.2735 11.4332 25.2597 11.4177 25.2473C11.4027 25.2354 11.3866 25.2251 11.3696 25.2164L11.3473 25.2044C11.2653 25.1738 11.1771 25.1637 11.0903 25.1751C11.0035 25.1864 10.9209 25.2189 10.8496 25.2696L8.15311 26.8264C7.93708 26.9671 7.75711 27.1566 7.62773 27.3796C7.49834 27.6026 7.42315 27.8529 7.4082 28.1102Z" fill="#37474F"/>
<path d="M10.894 34.9003L10.6366 34.7527L9.93799 35.1543L10.1972 35.3036L10.894 34.9003Z" fill="#455A64"/>
<path d="M10.1972 35.3036L9.93971 38.6729L9.93799 35.1543L10.1972 35.3036Z" fill="#263238"/>
<path d="M10.8942 34.9003L10.6367 38.2695L10.7208 38.2301L10.8942 34.9003Z" fill="#37474F"/>
<path d="M5.05859 35.5576L5.31605 35.4083L6.0129 35.81L5.75545 35.9593L5.05859 35.5576Z" fill="#455A64"/>
<path d="M5.05859 35.5576L5.31605 38.9252L5.23195 38.8857L5.05859 35.5576Z" fill="black"/>
<path d="M2.26953 33.946L2.5287 33.7983L3.22556 34.2L2.96638 34.3493L2.26953 33.946Z" fill="#455A64"/>
<path d="M6.01332 39.3285L5.75586 35.9593L6.01332 35.8099V39.3285Z" fill="#37474F"/>
<path d="M3.22548 34.2V37.7185L2.96631 34.3493L3.22548 34.2Z" fill="#37474F"/>
<path d="M2.26953 33.9459L2.52699 37.3152L2.44289 37.2757L2.26953 33.9459Z" fill="black"/>
<path d="M15.7741 32.0837L15.5167 31.9343L14.8198 32.336L15.0773 32.4853L15.7741 32.0837Z" fill="#455A64"/>
<path d="M15.0773 32.4854L14.8198 35.8546V32.3361L15.0773 32.4854Z" fill="#263238"/>
<path d="M15.7741 32.0836L15.5166 35.4529L15.6024 35.4117L15.7741 32.0836Z" fill="#37474F"/>
<path d="M9.56396 34.3287L9.56568 33.5237L10.9594 32.7188L11.1928 32.8526L11.1911 33.6576L9.79568 34.4626L9.56396 34.3287Z" fill="#37474F"/>
<path d="M11.193 32.8527L11.1913 33.6576L9.7959 34.4626L9.79933 33.6576L11.193 32.8527Z" fill="#455A64"/>
<path d="M9.79911 33.6576L9.56568 33.5237L9.56396 34.3287L9.79568 34.4625L9.79911 33.6576Z" fill="#263238"/>
<path d="M14.4814 31.4916L14.4849 30.6866L15.8786 29.8816L16.112 30.0155L16.1086 30.8205L14.7149 31.6254L14.4814 31.4916Z" fill="#37474F"/>
<path d="M16.112 30.0154L16.1085 30.8204L14.7148 31.6253L14.7166 30.8204L16.112 30.0154Z" fill="#455A64"/>
<path d="M14.7166 30.8204L14.4849 30.6865L14.4814 31.4915L14.7149 31.6254L14.7166 30.8204Z" fill="#263238"/>
<path d="M6.46064 43.4498C6.36624 43.503 6.18945 43.5013 6.13281 43.5648V43.7965L7.2107 43.6403L7.61749 43.8789L7.46301 44.2033L6.37482 44.1295V44.3612C6.39791 44.3786 6.42198 44.3946 6.44691 44.4093C6.70444 44.5396 6.98902 44.6075 7.27764 44.6075C7.56626 44.6075 7.85084 44.5396 8.10837 44.4093C8.2033 44.3666 8.28515 44.2995 8.34548 44.2147C8.40582 44.1299 8.44247 44.0306 8.45165 43.927V43.6952L8.38814 43.7055C8.38758 43.7016 8.38758 43.6975 8.38814 43.6935L12.4663 41.3386C12.8809 41.4306 13.3146 41.376 13.6935 41.1842C13.8401 41.1124 13.9563 40.9907 14.0213 40.8409V40.6075L12.9434 40.9971L12.5366 40.7585L12.6911 40.4341L13.7793 40.2762V40.0428C13.7793 40.0428 12.5075 39.9587 12.044 40.2144C11.9266 40.2761 11.8277 40.3679 11.7574 40.4805L11.6956 40.4581V40.6881C11.6949 40.774 11.7194 40.8581 11.766 40.9301L7.68786 43.285C7.27204 43.1962 6.83831 43.2545 6.46064 43.4498Z" fill="#37474F"/>
<path d="M12.4663 41.3455V41.1138L8.38818 43.4686V43.7004L12.4663 41.3455Z" fill="#37474F"/>
<path d="M11.7665 40.7086L7.68834 43.0635C7.27388 42.9717 6.84045 43.0257 6.46113 43.2163C6.31452 43.2881 6.19829 43.4098 6.1333 43.5595L7.21119 43.4033L7.61797 43.6419L7.4635 43.9646L6.37531 44.1242C6.3984 44.1416 6.42247 44.1577 6.4474 44.1723C6.70493 44.3026 6.98951 44.3705 7.27813 44.3705C7.56675 44.3705 7.85133 44.3026 8.10886 44.1723C8.45213 43.9801 8.54139 43.6986 8.38863 43.4566L12.4668 41.1017C12.8814 41.1928 13.3148 41.1382 13.694 40.9472C13.8406 40.8754 13.9568 40.7537 14.0218 40.6039L12.9439 40.7618L12.5371 40.5233L12.6916 40.1989L13.7798 40.0392L13.7077 39.9929C13.4502 39.8626 13.1656 39.7947 12.877 39.7947C12.5883 39.7947 12.3038 39.8626 12.0462 39.9929C11.715 40.1851 11.6137 40.4666 11.7665 40.7086Z" fill="#455A64"/>
<path d="M12.6224 40.5799L12.5366 40.5302L12.6911 40.2058L13.7793 40.0461V40.2796L12.6911 40.4375L12.6224 40.5799Z" fill="#263238"/>
<path d="M7.53167 43.8274L7.61749 43.6472L7.2107 43.4069L6.13281 43.5648V43.7982L7.2107 43.6403L7.53167 43.8274Z" fill="#263238"/>
<path d="M8.95654 46.8756L9.81473 48.3517L12.6914 46.6919C12.758 46.6507 12.8114 46.5913 12.8455 46.5208C12.8795 46.4503 12.8928 46.3715 12.8836 46.2937C12.8724 46.0842 12.8118 45.8803 12.7068 45.6987C12.6018 45.517 12.4554 45.3628 12.2795 45.2484C12.2187 45.2041 12.1471 45.1769 12.0723 45.1697C11.9974 45.1624 11.922 45.1754 11.8538 45.2072L8.95654 46.8756Z" fill="#FFD202"/>
<path d="M8.78462 47.1811C8.77261 47.4059 8.45508 47.454 8.45508 47.454L9.05753 48.4993C9.05753 48.4993 9.25834 48.2521 9.45916 48.3499C9.75609 48.4787 9.98781 48.319 9.98781 47.9638C9.97628 47.7545 9.91556 47.551 9.81059 47.3697C9.70561 47.1884 9.55933 47.0344 9.38364 46.9202C9.07469 46.74 8.82067 46.8601 8.78462 47.1811Z" fill="#FFD202"/>
<path opacity="0.05" d="M8.78462 47.1811C8.77261 47.4059 8.45508 47.454 8.45508 47.454L9.05753 48.4993C9.05753 48.4993 9.25834 48.2521 9.45916 48.3499C9.75609 48.4787 9.98781 48.319 9.98781 47.9638C9.97628 47.7545 9.91556 47.551 9.81059 47.3697C9.70561 47.1884 9.55933 47.0344 9.38364 46.9202C9.07469 46.74 8.82067 46.8601 8.78462 47.1811Z" fill="black"/>
<path opacity="0.05" d="M8.59779 47.4093C8.55177 47.4301 8.50334 47.4451 8.45361 47.4539L9.05607 48.4992C9.08935 48.4614 9.12677 48.4274 9.16763 48.3979C9.15042 48.2016 9.09051 48.0114 8.99208 47.8406C8.89365 47.6698 8.75907 47.5226 8.59779 47.4093Z" fill="black"/>
<path d="M7.8252 47.5278L7.87497 47.6153C7.85781 47.6762 7.84915 47.7391 7.84922 47.8024C7.86076 48.0118 7.92147 48.2156 8.02643 48.3972C8.1314 48.5788 8.27767 48.7331 8.45339 48.8477C8.5067 48.8797 8.56458 48.9034 8.62503 48.918L8.67481 49.0056L8.87562 48.8906C8.93632 48.8464 8.9842 48.7869 9.01435 48.7181C9.04451 48.6493 9.05587 48.5738 9.04726 48.4992C9.03605 48.2899 8.97566 48.0862 8.87099 47.9046C8.76632 47.723 8.62031 47.5686 8.44481 47.4539C8.38369 47.4097 8.31186 47.3825 8.23672 47.3752C8.16159 47.368 8.08588 47.381 8.01743 47.4128L7.8252 47.5278Z" fill="#FFD202"/>
<path d="M8.85457 48.616C8.84336 48.4066 8.78297 48.2029 8.6783 48.0213C8.57363 47.8397 8.42762 47.6853 8.25211 47.5707C7.91914 47.3784 7.64795 47.5346 7.64795 47.914C7.65975 48.1233 7.72057 48.327 7.82551 48.5086C7.93046 48.6901 8.07658 48.8445 8.25211 48.9592C8.58509 49.1549 8.85457 49.0004 8.85457 48.616Z" fill="#FFD202"/>
<path opacity="0.15" d="M8.85457 48.616C8.84336 48.4066 8.78297 48.2029 8.6783 48.0213C8.57363 47.8397 8.42762 47.6853 8.25211 47.5707C7.91914 47.3784 7.64795 47.5346 7.64795 47.914C7.65975 48.1233 7.72057 48.327 7.82551 48.5086C7.93046 48.6901 8.07658 48.8445 8.25211 48.9592C8.58509 49.1549 8.85457 49.0004 8.85457 48.616Z" fill="black"/>
<path opacity="0.15" d="M8.01758 48.7722C8.06226 48.8222 8.11234 48.8671 8.1669 48.9061L8.30765 48.5044L8.13601 48.3792L8.01758 48.7722Z" fill="black"/>
<path opacity="0.2" d="M12.3858 45.8801C12.4062 45.9187 12.4112 45.9635 12.3997 46.0056C12.3882 46.0477 12.3612 46.0838 12.324 46.1067L10.2644 47.2927C10.2258 47.3138 10.1807 47.3193 10.1383 47.3081C10.0958 47.297 10.0592 47.2699 10.0361 47.2326C10.0157 47.1941 10.0107 47.1492 10.0222 47.1071C10.0336 47.065 10.0607 47.0289 10.0979 47.0061L12.1575 45.82C12.196 45.799 12.2412 45.7934 12.2836 45.8046C12.3261 45.8158 12.3627 45.8428 12.3858 45.8801Z" fill="black"/>
<path opacity="0.2" d="M12.0148 45.4389C12.0307 45.4469 12.044 45.4591 12.0534 45.4743C12.0627 45.4894 12.0676 45.5069 12.0676 45.5247C12.0676 45.5425 12.0627 45.5599 12.0534 45.5751C12.044 45.5902 12.0307 45.6025 12.0148 45.6105L9.92082 46.812C9.882 46.8307 9.83867 46.8381 9.79584 46.8332C9.75302 46.8284 9.71244 46.8115 9.67881 46.7845C9.66293 46.7765 9.64957 46.7642 9.64024 46.7491C9.63092 46.7339 9.62598 46.7165 9.62598 46.6987C9.62598 46.6809 9.63092 46.6635 9.64024 46.6483C9.64957 46.6332 9.66293 46.6209 9.67881 46.6129L11.7711 45.4114C11.8101 45.3923 11.8538 45.3848 11.8969 45.3896C11.9401 45.3945 11.981 45.4116 12.0148 45.4389Z" fill="black"/>
<path opacity="0.2" d="M12.5826 46.4225C12.582 46.4051 12.5769 46.3883 12.5677 46.3736C12.5584 46.3589 12.5455 46.3469 12.5301 46.3389C12.5147 46.3309 12.4975 46.3271 12.4802 46.3279C12.4629 46.3287 12.4461 46.3341 12.4315 46.3435L10.3376 47.545C10.302 47.5693 10.274 47.6031 10.2567 47.6425C10.2394 47.682 10.2335 47.7255 10.2397 47.7681C10.2403 47.7855 10.2454 47.8023 10.2546 47.817C10.2639 47.8317 10.2768 47.8437 10.2922 47.8517C10.3075 47.8597 10.3248 47.8635 10.3421 47.8627C10.3594 47.8619 10.3762 47.8565 10.3908 47.8471L12.4847 46.6456C12.5202 46.6212 12.5481 46.5874 12.5654 46.5479C12.5826 46.5085 12.5886 46.4651 12.5826 46.4225Z" fill="black"/>
<path d="M2.96094 51.0515V51.4531L3.96674 51.127C4.06602 50.9393 4.20271 50.774 4.36837 50.6412L8.18904 48.4357L8.30576 48.101L8.18904 48.0341L4.36837 50.2396C4.30537 50.2715 4.23508 50.2863 4.16456 50.2824C4.09405 50.2784 4.02581 50.256 3.96674 50.2173L2.96094 51.0515Z" fill="#455A64"/>
<path d="M3.07959 51.1202V51.5218L4.08539 51.1957C4.18422 51.0078 4.32098 50.8424 4.48702 50.71L8.30769 48.5044V48.1011L4.48702 50.3066C4.42422 50.339 4.35398 50.3541 4.28343 50.3505C4.21288 50.3469 4.14455 50.3246 4.08539 50.286L3.07959 51.1202Z" fill="#37474F"/>
<path d="M2.96289 51.0514L3.07961 51.1201L4.08541 50.2859L3.96869 50.2173L2.96289 51.0514Z" fill="#455A64"/>
<path d="M23.5215 38.4796V63.8615C23.5291 63.946 23.5592 64.0268 23.6087 64.0957C23.6582 64.1645 23.7253 64.2188 23.803 64.2528C24.0131 64.3603 24.2458 64.4163 24.4818 64.4163C24.7178 64.4163 24.9505 64.3603 25.1606 64.2528C25.2381 64.2185 25.305 64.1641 25.3544 64.0953C25.4039 64.0266 25.4342 63.9458 25.4421 63.8615V38.4796H23.5215Z" fill="#455A64"/>
<path d="M23.5215 43.2374L25.4421 42.1286V38.4796H23.5215V43.2374Z" fill="#37474F"/>
<path d="M20.8389 42.8289L34.0859 35.1807V11.4723L20.8389 19.1205V42.8289Z" fill="#FFD202"/>
<path d="M34.086 11.4724L28.125 8.03101L14.8779 15.6792L20.8389 19.1206L34.086 11.4724Z" fill="#FFD202"/>
<path opacity="0.2" d="M34.086 11.4724L28.125 8.03101L14.8779 15.6792L20.8389 19.1206L34.086 11.4724Z" fill="white"/>
<path d="M14.8779 15.6792V39.3876L20.8389 42.829V19.1205L14.8779 15.6792Z" fill="#FFD202"/>
<path opacity="0.2" d="M14.8779 15.6792V39.3876L20.8389 42.829V19.1205L14.8779 15.6792Z" fill="black"/>
<path d="M29.2853 17.6359L24.373 30.4143L27.4625 27.9153L25.0596 36.9503L30.552 23.2124L27.4625 25.6222L29.2853 17.6359Z" fill="#FAFAFA"/>
<path d="M21.8415 19.3111C22.0235 19.2064 22.1728 19.2922 22.1728 19.5033C22.1664 19.6182 22.1331 19.7299 22.0756 19.8295C22.018 19.9291 21.9378 20.0137 21.8415 20.0766C21.6579 20.183 21.5103 20.0972 21.5103 19.8861C21.5165 19.771 21.5497 19.6589 21.6073 19.559C21.6648 19.4592 21.7451 19.3742 21.8415 19.3111Z" fill="#37474F"/>
<path d="M21.8415 40.7281C22.0235 40.6217 22.1728 40.7075 22.1728 40.9186C22.1664 41.0335 22.1331 41.1452 22.0756 41.2448C22.018 41.3444 21.9378 41.429 21.8415 41.4919C21.6579 41.5983 21.5103 41.5125 21.5103 41.3014C21.5162 41.1864 21.5493 41.0745 21.6069 40.9749C21.6645 40.8752 21.7449 40.7906 21.8415 40.7281Z" fill="#37474F"/>
<path d="M33.0922 12.8111C33.2759 12.7047 33.4235 12.7905 33.4235 13.0016C33.4176 13.1166 33.3844 13.2284 33.3268 13.3281C33.2693 13.4278 33.1889 13.5123 33.0922 13.5749C32.9103 13.6813 32.7627 13.5955 32.7627 13.3844C32.7687 13.2696 32.8017 13.158 32.859 13.0583C32.9162 12.9587 32.9961 12.874 33.0922 12.8111Z" fill="#37474F"/>
<path d="M33.0922 34.2264C33.2759 34.12 33.4235 34.2058 33.4235 34.4169C33.4176 34.5318 33.3844 34.6437 33.3268 34.7434C33.2693 34.843 33.1889 34.9276 33.0922 34.9902C32.9103 35.0966 32.7627 35.0108 32.7627 34.7997C32.7687 34.6849 32.8017 34.5732 32.859 34.4736C32.9162 34.374 32.9961 34.2893 33.0922 34.2264Z" fill="#37474F"/>
<path d="M34.0855 11.4722V28.298L41.3716 24.0911V0.38269L28.1245 8.0309L34.0855 11.4722Z" fill="#FFD202"/>
<path d="M41.372 0.382754L28.1249 8.03096L27.4624 7.64821L40.7095 0L41.372 0.382754Z" fill="#FFD202"/>
<path opacity="0.2" d="M41.372 0.382754L28.1249 8.03096L27.4624 7.64821L40.7095 0L41.372 0.382754Z" fill="white"/>
<path d="M27.4624 8.4137V7.64819L28.1249 8.03095L27.4624 8.4137Z" fill="#FFD202"/>
<path opacity="0.2" d="M27.4624 8.4137V7.64819L28.1249 8.03095L27.4624 8.4137Z" fill="black"/>
<path opacity="0.2" d="M28.1245 8.03101L36.6549 10.3722V26.8151L34.0855 28.2981V11.4724L28.1245 8.03101Z" fill="black"/>
</svg>
