<svg xmlns="http://www.w3.org/2000/svg" viewBox="0 0 500 500"><g id="freepik--background-simple--inject-1"><path d="M55.48,273.73s2.32,72,62.43,120,143.41,51.43,210.84,56,119.23-33.62,127-91.32-43.72-74.64-71.68-140.33S358.64,130.8,299.49,90.4,147.8,74.81,99.29,144,55.48,273.73,55.48,273.73Z" style="fill:#FFC100"></path><path d="M55.48,273.73s2.32,72,62.43,120,143.41,51.43,210.84,56,119.23-33.62,127-91.32-43.72-74.64-71.68-140.33S358.64,130.8,299.49,90.4,147.8,74.81,99.29,144,55.48,273.73,55.48,273.73Z" style="fill:#fff;opacity:0.7000000000000001"></path></g><g id="freepik--Padlock--inject-1"><path d="M83.61,179.69V153.92c0-18.24,15.16-33.08,33.79-33.08s33.79,14.84,33.79,33.08v25.77h13.47V153.92c0-25.51-21.2-46.27-47.26-46.27s-47.26,20.76-47.26,46.27v25.77Z" style="fill:none;stroke:#263238;stroke-linecap:round;stroke-linejoin:round;stroke-width:1.166343341900884px"></path><rect x="65.14" y="179.87" width="103.18" height="85.35" style="fill:none;stroke:#263238;stroke-linecap:round;stroke-linejoin:round;stroke-width:1.166343341900884px"></rect><path d="M127.46,215.32a11.24,11.24,0,0,0-22.47,0,11,11,0,0,0,5.9,9.68L109,244.38h14.45L121.56,225A11,11,0,0,0,127.46,215.32Z" style="fill:none;stroke:#263238;stroke-linecap:round;stroke-linejoin:round;stroke-width:1.166343341900884px"></path></g><g id="freepik--security-barrier--inject-1"><polygon points="86.87 446.5 72.61 446.5 91.62 313.99 105.88 313.99 86.87 446.5" style="fill:#263238;stroke:#263238;stroke-miterlimit:10;stroke-width:1.166343341900884px"></polygon><polygon points="115.39 446.5 129.64 446.5 110.63 313.99 96.38 313.99 115.39 446.5" style="fill:#fff;stroke:#263238;stroke-miterlimit:10;stroke-width:1.166343341900884px"></polygon><polygon points="289.18 446.5 274.93 446.5 293.93 313.99 308.19 313.99 289.18 446.5" style="fill:#263238;stroke:#263238;stroke-miterlimit:10;stroke-width:1.166343341900884px"></polygon><polygon points="317.7 446.5 331.95 446.5 312.94 313.99 298.69 313.99 317.7 446.5" style="fill:#fff;stroke:#263238;stroke-miterlimit:10;stroke-width:1.166343341900884px"></polygon><rect x="55.73" y="293.21" width="271.93" height="26.36" style="fill:#FFC100;stroke:#263238;stroke-miterlimit:10;stroke-width:1.166343341900884px"></rect><rect x="62.36" y="293.21" width="271.93" height="26.36" style="fill:#FFC100;stroke:#263238;stroke-miterlimit:10;stroke-width:1.166343341900884px"></rect><polygon points="66.81 319.57 89.89 319.57 101.82 293.21 78.74 293.21 66.81 319.57" style="fill:#263238"></polygon><polygon points="158.17 293.21 135.09 293.21 123.16 319.57 146.24 319.57 158.17 293.21" style="fill:#263238"></polygon><polygon points="327.21 293.21 304.13 293.21 292.21 319.57 315.29 319.57 327.21 293.21" style="fill:#263238"></polygon><polygon points="270.87 293.21 247.78 293.21 235.86 319.57 258.94 319.57 270.87 293.21" style="fill:#263238"></polygon><polygon points="214.52 293.21 191.44 293.21 179.51 319.57 202.59 319.57 214.52 293.21" style="fill:#263238"></polygon><line x1="332.8" y1="304.9" x2="287.8" y2="304.9" style="fill:none;stroke:#263238;stroke-miterlimit:10;stroke-width:1.166343341900884px"></line><line x1="332.01" y1="309.31" x2="324.91" y2="309.31" style="fill:none;stroke:#263238;stroke-miterlimit:10;stroke-width:1.166343341900884px"></line><line x1="61.21" y1="308.21" x2="106.21" y2="308.21" style="fill:none;stroke:#263238;stroke-miterlimit:10;stroke-width:1.166343341900884px"></line><line x1="62" y1="303.25" x2="118.84" y2="303.25" style="fill:none;stroke:#263238;stroke-miterlimit:10;stroke-width:1.166343341900884px"></line><rect x="331.37" y="440.72" width="77.14" height="5.79" style="fill:#263238;stroke:#263238;stroke-linecap:round;stroke-linejoin:round;stroke-width:1.166343341900884px"></rect><polygon points="395.49 440.56 344.39 440.56 364.42 331.6 375.46 331.6 395.49 440.56" style="fill:#FFC100;stroke:#263238;stroke-linecap:round;stroke-linejoin:round;stroke-width:1.166343341900884px"></polygon><polygon points="356.98 372.1 382.91 372.1 380.42 358.6 359.46 358.6 356.98 372.1" style="fill:#fff;stroke:#263238;stroke-linecap:round;stroke-linejoin:round;stroke-width:1.166343341900884px"></polygon><line x1="387.81" y1="422.37" x2="389.09" y2="429.82" style="fill:#FFC100;stroke:#263238;stroke-linecap:round;stroke-linejoin:round;stroke-width:1.166343341900884px"></line><line x1="373.22" y1="337.62" x2="386.2" y2="413" style="fill:#FFC100;stroke:#263238;stroke-linecap:round;stroke-linejoin:round;stroke-width:1.166343341900884px"></line></g><g id="freepik--Floor--inject-1"><line x1="450.01" y1="446.5" x2="456.92" y2="446.5" style="fill:none;stroke:#263238;stroke-linecap:round;stroke-linejoin:round;stroke-width:1.166343341900884px"></line><line x1="39.37" y1="446.5" x2="440.36" y2="446.5" style="fill:none;stroke:#263238;stroke-linecap:round;stroke-linejoin:round;stroke-width:1.166343341900884px"></line></g></svg>