<svg width="178" height="144" viewBox="0 0 178 144" fill="none" xmlns="http://www.w3.org/2000/svg">
<path d="M23.29 53.4086C30.8618 53.4086 36.9999 47.2705 36.9999 39.6988C36.9999 32.1271 30.8618 25.989 23.29 25.989C15.7183 25.989 9.5802 32.1271 9.5802 39.6988C9.5802 47.2705 15.7183 53.4086 23.29 53.4086Z" fill="white" stroke="#2E353A" stroke-width="0.353331" stroke-linecap="round" stroke-linejoin="round"/>
<path d="M22.2699 52.0468C29.8416 52.0468 35.9797 45.9087 35.9797 38.3369C35.9797 30.7652 29.8416 24.6271 22.2699 24.6271C14.6982 24.6271 8.56006 30.7652 8.56006 38.3369C8.56006 45.9087 14.6982 52.0468 22.2699 52.0468Z" fill="white" stroke="#2E353A" stroke-width="0.353331" stroke-linecap="round" stroke-linejoin="round"/>
<path d="M22.2698 50.6849C29.0894 50.6849 34.6178 45.1566 34.6178 38.337C34.6178 31.5174 29.0894 25.989 22.2698 25.989C15.4503 25.989 9.92188 31.5174 9.92188 38.337C9.92188 45.1566 15.4503 50.6849 22.2698 50.6849Z" fill="#2E353A" stroke="#2E353A" stroke-width="0.353331" stroke-linecap="round" stroke-linejoin="round"/>
<path d="M20.8206 29.0542C20.8206 29.0542 19.4588 25.6475 17.0765 23.2653C14.6943 20.883 4.98264 19.3465 4.98264 19.3465C6.55085 20.8591 7.97692 22.5124 9.24289 24.2857C11.4544 27.3509 18.7719 34.3348 18.7719 34.3348C18.7719 34.3348 15.1985 31.2696 11.9587 30.9282C8.7188 30.5867 0.547695 32.29 0.0474231 32.29C-0.452849 32.29 3.11258 33.6519 5.66952 34.843C8.22647 36.0341 18.1009 37.0585 18.1009 37.0585C18.1009 37.0585 13.8446 38.2496 10.9541 39.274C8.06368 40.2984 5.3241 47.7866 5.3241 47.7866C5.3241 47.7866 9.07217 44.3799 12.3081 43.5303C15.5439 42.6806 20.1417 41.148 20.1417 41.148C20.1417 41.148 17.2472 44.3839 16.5683 46.5994C15.8894 48.8149 16.3976 53.9208 16.3976 53.9208C16.3976 53.9208 17.9302 49.1563 19.8042 47.2783C21.6782 45.4003 23.715 42.1883 23.715 42.1883C24.6584 43.7259 25.5121 45.3167 26.272 46.9528C27.6338 49.8472 28.4835 54.0995 28.4835 54.0995C28.4835 54.0995 30.699 49.335 30.5283 46.9528C30.3575 44.5705 27.8046 40.3103 27.8046 40.3103C27.8046 40.3103 29.5079 39.1191 32.0608 40.1395C34.6138 41.1599 39.0448 45.4202 39.0448 45.4202C39.0448 45.4202 38.0204 39.7981 36.3171 37.5866C34.6138 35.375 27.2924 34.6882 27.2924 34.6882C27.2924 34.6882 31.3819 32.3059 33.9349 31.7937C36.4879 31.2816 39.8905 32.4766 39.8905 32.4766C39.8905 32.4766 35.9757 27.0253 32.9105 26.6838C29.8454 26.3424 25.2476 31.0989 25.2476 31.0989L26.6134 24.2857C26.9509 22.5824 26.272 18.3301 26.272 18.3301C26.272 18.3301 24.398 19.3505 22.1825 22.5864C21.5341 23.5184 21.0794 24.5711 20.8455 25.6821C20.6116 26.7931 20.6031 27.9398 20.8206 29.0542Z" fill="#FFD202"/>
<path opacity="0.5" d="M20.8206 29.0542C20.8206 29.0542 19.4588 25.6475 17.0765 23.2653C14.6943 20.883 4.98264 19.3465 4.98264 19.3465C6.55085 20.8591 7.97692 22.5124 9.24289 24.2857C11.4544 27.3509 18.7719 34.3348 18.7719 34.3348C18.7719 34.3348 15.1985 31.2696 11.9587 30.9282C8.7188 30.5867 0.547695 32.29 0.0474231 32.29C-0.452849 32.29 3.11258 33.6519 5.66952 34.843C8.22647 36.0341 18.1009 37.0585 18.1009 37.0585C18.1009 37.0585 13.8446 38.2496 10.9541 39.274C8.06368 40.2984 5.3241 47.7866 5.3241 47.7866C5.3241 47.7866 9.07217 44.3799 12.3081 43.5303C15.5439 42.6806 20.1417 41.148 20.1417 41.148C20.1417 41.148 17.2472 44.3839 16.5683 46.5994C15.8894 48.8149 16.3976 53.9208 16.3976 53.9208C16.3976 53.9208 17.9302 49.1563 19.8042 47.2783C21.6782 45.4003 23.715 42.1883 23.715 42.1883C24.6584 43.7259 25.5121 45.3167 26.272 46.9528C27.6338 49.8472 28.4835 54.0995 28.4835 54.0995C28.4835 54.0995 30.699 49.335 30.5283 46.9528C30.3575 44.5705 27.8046 40.3103 27.8046 40.3103C27.8046 40.3103 29.5079 39.1191 32.0608 40.1395C34.6138 41.1599 39.0448 45.4202 39.0448 45.4202C39.0448 45.4202 38.0204 39.7981 36.3171 37.5866C34.6138 35.375 27.2924 34.6882 27.2924 34.6882C27.2924 34.6882 31.3819 32.3059 33.9349 31.7937C36.4879 31.2816 39.8905 32.4766 39.8905 32.4766C39.8905 32.4766 35.9757 27.0253 32.9105 26.6838C29.8454 26.3424 25.2476 31.0989 25.2476 31.0989L26.6134 24.2857C26.9509 22.5824 26.272 18.3301 26.272 18.3301C26.272 18.3301 24.398 19.3505 22.1825 22.5864C21.5341 23.5184 21.0794 24.5711 20.8455 25.6821C20.6116 26.7931 20.6031 27.9398 20.8206 29.0542Z" fill="black"/>
<path d="M24.1757 23.8688C24.2948 23.3804 24.4258 22.8921 24.5727 22.4117" stroke="#2E353A" stroke-width="0.176666" stroke-linecap="round" stroke-linejoin="round"/>
<path d="M12.8004 23.8688C14.3886 25.0321 16.3738 26.6481 17.414 28.0338C19.2881 30.5867 23.0361 36.0381 23.0361 36.0381C22.9288 32.3767 23.219 28.7144 23.9017 25.1155" stroke="#2E353A" stroke-width="0.176666" stroke-linecap="round" stroke-linejoin="round"/>
<path d="M10.4342 22.2409C10.4342 22.2409 10.9305 22.5585 11.673 23.0707" stroke="#2E353A" stroke-width="0.176666" stroke-linecap="round" stroke-linejoin="round"/>
<path d="M23.0359 36.0381C23.0359 36.0381 29.5077 29.5663 32.2314 29.0541C34.9551 28.5419 37.3413 30.5867 37.3413 30.5867" stroke="#2E353A" stroke-width="0.176666" stroke-linecap="round" stroke-linejoin="round"/>
<path d="M11.4702 41.4498C9.882 42.4503 9.75098 43.0379 9.75098 43.0379" stroke="#2E353A" stroke-width="0.176666" stroke-linecap="round" stroke-linejoin="round"/>
<path d="M37.1707 41.9977C37.1707 41.9977 36.1503 39.4407 32.573 38.2496C28.9956 37.0585 23.3815 36.8878 23.3815 36.8878C23.3815 36.8878 15.5002 39.4685 12.6177 40.8145" stroke="#2E353A" stroke-width="0.176666" stroke-linecap="round" stroke-linejoin="round"/>
<path d="M19.9351 35.915C21.8409 36.4709 23.3774 36.8878 23.3774 36.8878" stroke="#2E353A" stroke-width="0.176666" stroke-linecap="round" stroke-linejoin="round"/>
<path d="M7.94067 32.8896C9.79088 33.0007 12.1731 33.2548 13.4992 33.8226C14.5792 34.2871 16.7073 34.9581 18.7164 35.5577" stroke="#2E353A" stroke-width="0.176666" stroke-linecap="round" stroke-linejoin="round"/>
<path d="M5.3241 32.8022C5.3241 32.8022 5.94745 32.8022 6.86462 32.8379" stroke="#2E353A" stroke-width="0.176666" stroke-linecap="round" stroke-linejoin="round"/>
<path d="M23.0361 37.9082C23.0361 37.9082 18.2716 45.0549 17.9262 46.7662C17.7216 47.7757 17.6073 48.8015 17.5847 49.8313" stroke="#2E353A" stroke-width="0.176666" stroke-linecap="round" stroke-linejoin="round"/>
<path d="M25.1562 40.1594C26.0734 41.3505 27.1732 42.9386 27.6338 44.2092C28.1699 45.7593 28.5685 47.3536 28.8249 48.9737" stroke="#2E353A" stroke-width="0.176666" stroke-linecap="round" stroke-linejoin="round"/>
<path d="M23.715 38.4203C23.715 38.4203 24.112 38.8412 24.6242 39.4884" stroke="#2E353A" stroke-width="0.176666" stroke-linecap="round" stroke-linejoin="round"/>
<path d="M18.6568 30.5232C18.6568 30.5232 17.7793 26.9498 18.3232 23.6345C18.8672 20.3192 25.867 13.3988 25.867 13.3988C25.478 15.542 25.2853 17.7162 25.2913 19.8944C25.2913 23.6742 23.4054 33.6161 23.4054 33.6161C23.4054 33.6161 24.5211 29.0422 26.9509 26.8664C29.3808 24.6907 37.0159 21.3079 37.4289 21.018C37.8418 20.7282 35.7335 23.9124 34.3558 26.3741C32.978 28.8358 25.5414 35.4386 25.5414 35.4386C25.5414 35.4386 29.6945 33.9219 32.6405 33.0563C35.5866 32.1908 42.1695 36.6932 42.1695 36.6932C42.1695 36.6932 37.139 36.1135 34.0143 37.3086C30.8896 38.5037 26.2601 39.941 26.2601 39.941C26.2601 39.941 30.5005 40.882 32.3428 42.2835C34.185 43.6851 36.7579 48.1439 36.7579 48.1439C36.7579 48.1439 32.7319 45.1621 30.1154 44.7333C27.4989 44.3045 23.9533 42.8712 23.9533 42.8712C24.0878 44.6697 24.3237 46.4593 24.66 48.2312C25.2437 51.3797 27.0423 55.3343 27.0423 55.3343C27.0423 55.3343 22.4644 52.7535 21.2097 50.7167C19.9551 48.6799 19.5501 43.7327 19.5501 43.7327C19.5501 43.7327 17.4696 43.7566 15.9767 46.0753C14.4839 48.394 13.3841 54.437 13.3841 54.437C13.3841 54.437 10.9383 49.2754 11.0296 46.4961C11.1209 43.7169 16.6715 38.8809 16.6715 38.8809C16.6715 38.8809 11.9626 39.3296 9.58834 40.4016C7.21403 41.4736 5.14148 44.4315 5.14148 44.4315C5.14148 44.4315 5.14148 37.7215 7.43638 35.6569C9.73127 33.5923 16.2467 34.7834 16.2467 34.7834L11.1646 30.0467C9.89406 28.8556 7.96444 25.0043 7.96444 25.0043C7.96444 25.0043 10.0846 24.7423 13.7692 26.0803C14.8402 26.4553 15.8248 27.0418 16.6644 27.8051C17.5041 28.5684 18.1816 29.4927 18.6568 30.5232Z" fill="#FFD202"/>
<path d="M12.9075 28.268C12.5105 27.9385 12.1373 27.6208 11.7402 27.3112" stroke="#2E353A" stroke-width="0.176666" stroke-linecap="round" stroke-linejoin="round"/>
<path d="M22.1467 21.6335C21.5313 23.5075 20.8444 25.9731 20.8285 27.7042C20.7968 30.8806 20.9318 37.4834 20.9318 37.4834C18.8824 34.4475 16.5087 31.6438 13.8525 29.1217" stroke="#2E353A" stroke-width="0.176666" stroke-linecap="round" stroke-linejoin="round"/>
<path d="M23.1233 18.9296C23.1233 18.9296 22.901 19.4775 22.5992 20.3232" stroke="#2E353A" stroke-width="0.176666" stroke-linecap="round" stroke-linejoin="round"/>
<path d="M20.9319 37.4833C20.9319 37.4833 11.8992 36.0024 9.38989 37.1776C6.88059 38.3528 6.13416 41.3942 6.13416 41.3942" stroke="#2E353A" stroke-width="0.176666" stroke-linecap="round" stroke-linejoin="round"/>
<path d="M33.4863 35.1329C35.3485 35.0296 35.7931 35.4068 35.7931 35.4068" stroke="#2E353A" stroke-width="0.176666" stroke-linecap="round" stroke-linejoin="round"/>
<path d="M12.9275 50.5698C12.9275 50.5698 12.2684 47.8977 14.4759 44.8445C16.6835 41.7912 21.1541 38.3767 21.1541 38.3767C21.1541 38.3767 29.0592 35.8713 32.1839 35.2877" stroke="#2E353A" stroke-width="0.176666" stroke-linecap="round" stroke-linejoin="round"/>
<path d="M23.3818 35.5775C22.1589 37.1379 21.1583 38.3766 21.1583 38.3766" stroke="#2E353A" stroke-width="0.176666" stroke-linecap="round" stroke-linejoin="round"/>
<path d="M31.358 26.124C29.9207 27.3151 28.134 28.9033 27.3876 30.1222C26.7801 31.1307 25.4421 32.9015 24.1597 34.573" stroke="#2E353A" stroke-width="0.176666" stroke-linecap="round" stroke-linejoin="round"/>
<path d="M33.4307 24.5239C33.4307 24.5239 32.9264 24.8892 32.1998 25.453" stroke="#2E353A" stroke-width="0.176666" stroke-linecap="round" stroke-linejoin="round"/>
<path d="M22.0237 39.0119C22.0237 39.0119 30.0717 42.0374 31.3383 43.2245C32.0935 43.9249 32.7845 44.6916 33.4029 45.5154" stroke="#2E353A" stroke-width="0.176666" stroke-linecap="round" stroke-linejoin="round"/>
<path d="M21.6147 42.0692C21.5591 43.57 21.5869 45.4956 21.9641 46.8059C22.4322 48.38 23.0394 49.9093 23.7786 51.3758" stroke="#2E353A" stroke-width="0.176666" stroke-linecap="round" stroke-linejoin="round"/>
<path d="M21.7695 39.806C21.7695 39.806 21.706 40.3698 21.6583 41.2036" stroke="#2E353A" stroke-width="0.176666" stroke-linecap="round" stroke-linejoin="round"/>
<path d="M45.1513 48.7117H135.149C136.272 48.7117 137.35 49.158 138.144 49.9525C138.939 50.747 139.385 51.8245 139.385 52.9481V111.313C139.385 111.922 139.265 112.524 139.032 113.086C138.8 113.648 138.458 114.159 138.028 114.589C137.598 115.02 137.087 115.361 136.525 115.594C135.963 115.827 135.36 115.947 134.752 115.947H45.5484C44.9399 115.947 44.3374 115.827 43.7752 115.594C43.2131 115.361 42.7023 115.02 42.272 114.589C41.8418 114.159 41.5005 113.648 41.2676 113.086C41.0348 112.524 40.9149 111.922 40.9149 111.313V52.9481C40.9149 51.8245 41.3613 50.747 42.1557 49.9525C42.9502 49.158 44.0278 48.7117 45.1513 48.7117Z" fill="white" stroke="#2E353A" stroke-width="0.353331" stroke-linecap="round" stroke-linejoin="round"/>
<path d="M78.0901 55.3303H72.5474V58.9712H78.0901V55.3303Z" fill="#2E353A"/>
<path d="M60.1317 77.791H54.9861V82.8969H60.1317V77.791Z" fill="#2E353A"/>
<path d="M82.8663 59.8447H77.6809V64.9506H82.8663V59.8447Z" fill="#2E353A"/>
<path d="M71.6696 55.3303H66.127V58.9712H71.6696V55.3303Z" fill="#2E353A"/>
<path d="M88.9251 59.8447H83.7397V64.9506H88.9251V59.8447Z" fill="#2E353A"/>
<path d="M84.5061 55.3303H78.9634V58.9712H84.5061V55.3303Z" fill="#2E353A"/>
<path d="M57.0229 71.8076H47.2716V76.9135H57.0229V71.8076Z" fill="#2E353A"/>
<path d="M70.7444 59.8447H65.5591V64.9506H70.7444V59.8447Z" fill="#2E353A"/>
<path d="M54.1126 77.791H47.2716V82.8969H54.1126V77.791Z" fill="#2E353A"/>
<path d="M90.9262 55.3303H85.3835V58.9712H90.9262V55.3303Z" fill="#2E353A"/>
<path d="M58.6229 59.8447H53.4375V64.9506H58.6229V59.8447Z" fill="#2E353A"/>
<path d="M58.8335 55.3303H53.2908V58.9712H58.8335V55.3303Z" fill="#2E353A"/>
<path d="M65.2536 55.3303H59.7109V58.9712H65.2536V55.3303Z" fill="#2E353A"/>
<path d="M64.6819 59.8447H59.4966V64.9506H64.6819V59.8447Z" fill="#2E353A"/>
<path d="M76.8035 59.8447H71.6182V64.9506H76.8035V59.8447Z" fill="#2E353A"/>
<path d="M116.603 55.3303H111.06V58.9712H116.603V55.3303Z" fill="#2E353A"/>
<path d="M123.019 55.3303H117.476V58.9712H123.019V55.3303Z" fill="#2E353A"/>
<path d="M119.231 59.8447H114.046V64.9506H119.231V59.8447Z" fill="#2E353A"/>
<path d="M125.294 59.8447H120.109V64.9506H125.294V59.8447Z" fill="#2E353A"/>
<path d="M134.883 77.791H127.248V82.8969H134.883V77.791Z" fill="#2E353A"/>
<path d="M129.439 55.3303H123.896V58.9712H129.439V55.3303Z" fill="#2E353A"/>
<path d="M52.5642 59.8447H47.2716V64.9506H52.5642V59.8447Z" fill="#2E353A"/>
<path d="M97.3464 55.3303H91.8037V58.9712H97.3464V55.3303Z" fill="#2E353A"/>
<path d="M103.762 55.3303H98.2197V58.9712H103.762V55.3303Z" fill="#2E353A"/>
<path d="M101.051 59.8447H95.8655V64.9506H101.051V59.8447Z" fill="#2E353A"/>
<path d="M113.172 59.8447H107.987V64.9506H113.172V59.8447Z" fill="#2E353A"/>
<path d="M94.9879 59.8447H89.8025V64.9506H94.9879V59.8447Z" fill="#2E353A"/>
<path d="M107.11 59.8447H101.924V64.9506H107.11V59.8447Z" fill="#2E353A"/>
<path d="M110.183 55.3303H104.64V58.9712H110.183V55.3303Z" fill="#2E353A"/>
<path d="M102.286 77.791H97.1399V82.8969H102.286V77.791Z" fill="#2E353A"/>
<path d="M129.284 71.8076H124.139V76.9135H129.284V71.8076Z" fill="#2E353A"/>
<path d="M123.261 71.8076H118.115V76.9135H123.261V71.8076Z" fill="#2E353A"/>
<path d="M126.37 77.791H121.224V82.8969H126.37V77.791Z" fill="#2E353A"/>
<path d="M120.351 77.791H115.205V82.8969H120.351V77.791Z" fill="#2E353A"/>
<path d="M108.305 77.791H103.159V82.8969H108.305V77.791Z" fill="#2E353A"/>
<path d="M114.328 77.791H109.182V82.8969H114.328V77.791Z" fill="#2E353A"/>
<path d="M117.238 71.8076H112.092V76.9135H117.238V71.8076Z" fill="#2E353A"/>
<path d="M111.219 71.8076H106.073V76.9135H111.219V71.8076Z" fill="#2E353A"/>
<path d="M134.887 55.3303H130.317V58.9712H134.887V55.3303Z" fill="#2E353A"/>
<path d="M52.4173 55.3303H47.2716V58.9712H52.4173V55.3303Z" fill="#2E353A"/>
<path d="M134.887 83.7704H47.2716V89.0789H134.887V83.7704Z" fill="#2E353A"/>
<path d="M134.883 59.8447H126.167V64.9506H134.883V59.8447Z" fill="#2E353A"/>
<path d="M134.883 71.8076H130.158V76.9135H134.883V71.8076Z" fill="#2E353A"/>
<path d="M128.705 70.8943H127.827V65.8281H122.682V70.8943H121.808V65.8281H116.662V70.8943H115.785V65.8281H110.639V70.8943H109.762V65.8281H104.616V70.8943H103.743V65.8281H98.5971V70.8943H97.7196V65.8281H92.574V70.8943H91.6965V65.8281H86.5509V70.8943H85.6774V65.8281H80.5317V70.8943H79.6543V65.8281H74.5086V70.8943H73.6312V65.8281H68.4855V70.8943H67.612V65.8281H62.4664V70.8943H61.5889V65.8281H56.4433V70.8943H55.5658V65.8281H47.2716V70.934H134.883V65.8281H128.705V70.8943Z" fill="#2E353A"/>
<path d="M87.1305 71.8076H81.9849V76.9135H87.1305V71.8076Z" fill="#2E353A"/>
<path d="M105.196 71.8076H100.05V76.9135H105.196V71.8076Z" fill="#2E353A"/>
<path d="M75.0883 71.8076H69.9426V76.9135H75.0883V71.8076Z" fill="#2E353A"/>
<path d="M78.1969 77.791H73.0513V82.8969H78.1969V77.791Z" fill="#2E353A"/>
<path d="M81.1073 71.8076H75.9617V76.9135H81.1073V71.8076Z" fill="#2E353A"/>
<path d="M69.0651 71.8076H63.9194V76.9135H69.0651V71.8076Z" fill="#2E353A"/>
<path d="M66.1549 77.791H61.0093V82.8969H66.1549V77.791Z" fill="#2E353A"/>
<path d="M72.174 77.791H67.0283V82.8969H72.174V77.791Z" fill="#2E353A"/>
<path d="M93.1535 71.8076H88.0078V76.9135H93.1535V71.8076Z" fill="#2E353A"/>
<path d="M96.2626 77.791H91.1169V82.8969H96.2626V77.791Z" fill="#2E353A"/>
<path d="M99.1728 71.8076H94.0271V76.9135H99.1728V71.8076Z" fill="#2E353A"/>
<path d="M84.2204 77.791H79.0747V82.8969H84.2204V77.791Z" fill="#2E353A"/>
<path d="M90.2394 77.791H85.0938V82.8969H90.2394V77.791Z" fill="#2E353A"/>
<path d="M63.0419 71.8076H57.8962V76.9135H63.0419V71.8076Z" fill="#2E353A"/>
<path d="M145.007 12.1839H34.7648C34.2242 12.1843 33.6909 12.3091 33.2061 12.5485C32.7214 12.7879 32.2983 13.1356 31.9693 13.5647C31.6404 13.9937 31.4146 14.4927 31.3093 15.023C31.204 15.5533 31.2221 16.1006 31.3621 16.6228L39.4221 46.6312C39.6229 47.3803 40.0652 48.0422 40.6803 48.5145C41.2955 48.9868 42.0492 49.2431 42.8247 49.2437H54.0769V51.3202H126.215V49.2556H136.935C137.711 49.255 138.465 48.9987 139.08 48.5264C139.695 48.0541 140.137 47.3922 140.338 46.6431L148.398 16.6347C148.54 16.1127 148.56 15.5651 148.456 15.0342C148.353 14.5033 148.128 14.0033 147.8 13.573C147.473 13.1427 147.05 12.7936 146.566 12.5527C146.081 12.3119 145.548 12.1857 145.007 12.1839Z" fill="#2E353A" stroke="#2E353A" stroke-width="0.353331" stroke-linecap="round" stroke-linejoin="round"/>
<path d="M132.54 46.5955H47.2319L38.6995 15.8923H141.069L132.54 46.5955Z" fill="#FFD202" stroke="#2E353A" stroke-width="0.353331" stroke-linecap="round" stroke-linejoin="round"/>
<path d="M52.8937 33.1199V33.5169H51.3889V33.1199H52.8937Z" fill="#2E353A"/>
<path d="M54.7678 33.1199V33.5169H53.259V33.1199H54.7678Z" fill="#2E353A"/>
<path d="M56.6416 33.1199V33.5169H55.1448V33.1199H56.6416Z" fill="#2E353A"/>
<path d="M58.5119 33.1199V33.5169H57.0071V33.1199H58.5119Z" fill="#2E353A"/>
<path d="M60.3857 33.1199V33.5169H58.877V33.1199H60.3857Z" fill="#2E353A"/>
<path d="M62.2597 33.1199V33.5169H60.751V33.1199H62.2597Z" fill="#2E353A"/>
<path d="M64.13 33.1199V33.5169H62.6252V33.1199H64.13Z" fill="#2E353A"/>
<path d="M65.9841 35.2123L64.3245 30.7892H64.7215L66.3811 35.2123H65.9841Z" fill="#2E353A"/>
<path d="M51.377 26.6799V27.0769H49.8722V26.6799H51.377Z" fill="#2E353A"/>
<path d="M53.2511 26.6799V27.0769H51.7463V26.6799H53.2511Z" fill="#2E353A"/>
<path d="M55.145 26.6799V27.0769H53.6362V26.6799H55.145Z" fill="#2E353A"/>
<path d="M56.999 26.6799V27.0769H55.4902V26.6799H56.999Z" fill="#2E353A"/>
<path d="M58.8693 26.6799V27.0769H57.3645V26.6799H58.8693Z" fill="#2E353A"/>
<path d="M62.0376 26.6799V27.0769H60.5288V26.6799H62.0376Z" fill="#2E353A"/>
<path d="M63.9076 26.6799V27.0769H62.4028V26.6799H63.9076Z" fill="#2E353A"/>
<path d="M65.7816 26.6799V27.0769H64.2769V26.6799H65.7816Z" fill="#2E353A"/>
<path d="M67.6557 26.6799V27.0769H66.147V26.6799H67.6557Z" fill="#2E353A"/>
<path d="M69.5255 26.6799V27.0769H68.0208V26.6799H69.5255Z" fill="#2E353A"/>
<path d="M71.3996 26.6799V27.0769H69.8948V26.6799H71.3996Z" fill="#2E353A"/>
<path d="M73.2739 26.6799V27.0769H71.7651V26.6799H73.2739Z" fill="#2E353A"/>
<path d="M76.4381 26.6799V27.0769H74.9333V26.6799H76.4381Z" fill="#2E353A"/>
<path d="M78.3125 26.6799V27.0769H76.8037V26.6799H78.3125Z" fill="#2E353A"/>
<path d="M80.1862 26.6799V27.0769H78.6775V26.6799H80.1862Z" fill="#2E353A"/>
<path d="M83.3349 26.6799V27.0769H81.8301V26.6799H83.3349Z" fill="#2E353A"/>
<path d="M85.2248 26.6799V27.0769H83.7319V26.6799H85.2248Z" fill="#2E353A"/>
<path d="M87.0988 26.6799V27.0769H85.5901V26.6799H87.0988Z" fill="#2E353A"/>
<path d="M94.1422 26.6799V27.0769H92.6375V26.6799H94.1422Z" fill="#2E353A"/>
<path d="M96.0163 26.6799V27.0769H94.5076V26.6799H96.0163Z" fill="#2E353A"/>
<path d="M97.8904 26.6799V27.0769H96.3816V26.6799H97.8904Z" fill="#2E353A"/>
<path d="M99.7604 26.6799V27.0769H98.2556V26.6799H99.7604Z" fill="#2E353A"/>
<path d="M101.634 26.6799V27.0769H100.126V26.6799H101.634Z" fill="#2E353A"/>
<path d="M104.799 26.6799V27.0769H103.294V26.6799H104.799Z" fill="#2E353A"/>
<path d="M106.673 26.6799V27.0769H105.172V26.6799H106.673Z" fill="#2E353A"/>
<path d="M108.547 26.6799V27.0769H107.038V26.6799H108.547Z" fill="#2E353A"/>
<path d="M111.711 26.6799V27.0769H110.207V26.6799H111.711Z" fill="#2E353A"/>
<path d="M114.88 26.6799V27.0769H113.371V26.6799H114.88Z" fill="#2E353A"/>
<path d="M139.989 91.9335L135.74 108.323L139.758 109.503L139.989 91.9335Z" fill="white" stroke="#2E353A" stroke-width="0.353331" stroke-linecap="round" stroke-linejoin="round"/>
<path d="M141.894 74.6106C141.415 73.874 141.24 72.9802 141.406 72.1172C141.624 70.5013 143.574 70.132 143.574 70.132C143.574 70.132 143.999 69.8104 145.559 70.402C147.119 70.9936 159.185 72.6294 166.896 73.6736C174.606 74.7178 177.104 74.0429 176.997 76.6911C176.889 79.3394 170.124 103.106 170.021 103.853C169.917 104.599 141.894 74.6106 141.894 74.6106Z" fill="white" stroke="#2E353A" stroke-width="0.353331" stroke-miterlimit="10"/>
<path d="M174.327 79.0083L141.891 74.6113L136.65 113.275L169.085 117.672L174.327 79.0083Z" fill="white" stroke="#2E353A" stroke-width="0.353331" stroke-linecap="round" stroke-linejoin="round"/>
<path d="M168.298 86.7204L170.184 86.9784" stroke="#2E353A" stroke-width="0.176666" stroke-linecap="round" stroke-linejoin="round"/>
<path d="M156.486 85.1203L166.805 86.5219" stroke="#2E353A" stroke-width="0.176666" stroke-linecap="round" stroke-linejoin="round"/>
<path d="M143.979 83.4249L154.993 84.9178" stroke="#2E353A" stroke-width="0.176666" stroke-linecap="round" stroke-linejoin="round"/>
<path d="M165.344 89.8213L169.719 90.4168" stroke="#2E353A" stroke-width="0.176666" stroke-linecap="round" stroke-linejoin="round"/>
<path d="M143.514 86.8633L160.869 89.2138" stroke="#2E353A" stroke-width="0.176666" stroke-linecap="round" stroke-linejoin="round"/>
<path d="M152.321 91.5563L169.254 93.8512" stroke="#2E353A" stroke-width="0.176666" stroke-linecap="round" stroke-linejoin="round"/>
<path d="M143.046 90.2977L150.578 91.3221" stroke="#2E353A" stroke-width="0.176666" stroke-linecap="round" stroke-linejoin="round"/>
<path d="M157.947 95.8206L168.786 97.2896" stroke="#2E353A" stroke-width="0.176666" stroke-linecap="round" stroke-linejoin="round"/>
<path d="M148.747 94.5699L156.704 95.6498" stroke="#2E353A" stroke-width="0.176666" stroke-linecap="round" stroke-linejoin="round"/>
<path d="M142.581 93.7361L147.378 94.3872" stroke="#2E353A" stroke-width="0.176666" stroke-linecap="round" stroke-linejoin="round"/>
<path d="M164.442 100.2L168.321 100.724" stroke="#2E353A" stroke-width="0.176666" stroke-linecap="round" stroke-linejoin="round"/>
<path d="M142.117 97.1745L161.834 99.8466" stroke="#2E353A" stroke-width="0.176666" stroke-linecap="round" stroke-linejoin="round"/>
<path d="M156.891 102.673L167.857 104.162" stroke="#2E353A" stroke-width="0.176666" stroke-linecap="round" stroke-linejoin="round"/>
<path d="M141.648 100.609L155.025 102.423" stroke="#2E353A" stroke-width="0.176666" stroke-linecap="round" stroke-linejoin="round"/>
<path d="M160.277 106.636L167.388 107.597" stroke="#2E353A" stroke-width="0.176666" stroke-linecap="round" stroke-linejoin="round"/>
<path d="M145.857 104.679L158.538 106.398" stroke="#2E353A" stroke-width="0.176666" stroke-linecap="round" stroke-linejoin="round"/>
<path d="M141.184 104.047L144.364 104.476" stroke="#2E353A" stroke-width="0.176666" stroke-linecap="round" stroke-linejoin="round"/>
<path d="M174.329 79.0098C174.329 79.0098 174.884 73.618 176.87 75.7859" stroke="#2E353A" stroke-width="0.353331" stroke-linecap="round" stroke-linejoin="round"/>
<path d="M163.33 120.544L163.295 123.971L161.297 121.152L153.281 94.1887L155.314 93.5812L163.33 120.544Z" fill="white" stroke="#2E353A" stroke-width="0.353331" stroke-linecap="round" stroke-linejoin="round"/>
<path d="M154.519 94.7335L153.409 95.057L161.286 122.062L162.395 121.739L154.519 94.7335Z" fill="#FFD202" stroke="#2E353A" stroke-width="0.176666" stroke-linecap="round" stroke-linejoin="round"/>
<path d="M163.33 120.552L161.302 121.156L163.295 123.971L163.33 120.552Z" stroke="#2E353A" stroke-width="0.353331" stroke-linecap="round" stroke-linejoin="round"/>
<path d="M162.298 122.561L163.295 123.971L163.315 122.26L162.298 122.561Z" fill="#2E353A" stroke="#2E353A" stroke-width="0.353331" stroke-linecap="round" stroke-linejoin="round"/>
<path d="M153.401 90.8655C153.132 90.9464 152.906 91.1304 152.772 91.3773C152.638 91.6243 152.607 91.9141 152.686 92.1837L153.282 94.1887L155.314 93.5852L154.719 91.5802C154.638 91.3112 154.454 91.0851 154.207 90.9512C153.96 90.8173 153.67 90.7865 153.401 90.8655Z" fill="white" stroke="#2E353A" stroke-width="0.353331" stroke-linecap="round" stroke-linejoin="round"/>
<path d="M153.401 90.8655C153.132 90.9464 152.906 91.1304 152.772 91.3773C152.638 91.6243 152.607 91.9141 152.686 92.1837L152.972 93.1405L155.001 92.537L154.719 91.5802C154.638 91.3112 154.454 91.0851 154.207 90.9512C153.96 90.8173 153.67 90.7865 153.401 90.8655Z" fill="#2E353A" stroke="#2E353A" stroke-width="0.353331" stroke-linecap="round" stroke-linejoin="round"/>
</svg>
