<svg xmlns="http://www.w3.org/2000/svg" width="182.491" height="272.267" viewBox="0 0 182.491 272.267">
  <g id="password" transform="translate(-230.509 -38.007)">
    <g id="freepik--speech-bubble--inject-3">
      <g id="freepik--speach-bubble--inject-3">
        <path id="Path_12" data-name="Path 12" d="M301.16,309.74l-3.79-2.19a4.78,4.78,0,0,1-2.17-3.75V146.28a4.8,4.8,0,0,1,2.16-3.75L402.71,81.71a4.79,4.79,0,0,1,4.33,0l3.79,2.19A4.78,4.78,0,0,1,413,87.65V245.17a4.8,4.8,0,0,1-2.16,3.75L305.49,309.75a4.76,4.76,0,0,1-4.33-.01Z" fill="#455a64"/>
        <path id="Path_13" data-name="Path 13" d="M413,87.3c-.15-1.12-1.06-1.53-2.15-.9L305.49,147.23a4.48,4.48,0,0,0-1.53,1.61l-8.13-4.69a4.429,4.429,0,0,1,1.53-1.62L402.71,81.71a4.79,4.79,0,0,1,4.33,0l3.79,2.19A4.83,4.83,0,0,1,413,87.3Z" fill="#455a64"/>
        <path id="Path_14" data-name="Path 14" d="M305.12,309.92a4.83,4.83,0,0,1-4-.17l-3.8-2.2a4.8,4.8,0,0,1-2.16-3.75V146.28a4.43,4.43,0,0,1,.63-2.13l8.13,4.69a4.37,4.37,0,0,0-.64,2.14V308.5C303.32,309.74,304.1,310.31,305.12,309.92Z" fill="#263238"/>
        <path id="Path_15" data-name="Path 15" d="M303.32,151V308.5c0,1.38,1,1.94,2.17,1.25l105.35-60.83a4.8,4.8,0,0,0,2.16-3.75V87.65c0-1.38-1-1.94-2.16-1.25L305.49,147.23A4.78,4.78,0,0,0,303.32,151Z" fill="#37474f"/>
        <path id="Path_16" data-name="Path 16" d="M278.72,211c-1.36-.81-7.67-4.4-8-4.59a2,2,0,0,1-.43-3.09L295.2,176.6l8.12,4.66L278.42,208a2,2,0,0,0,.3,3Z" fill="#455a64"/>
        <path id="Path_17" data-name="Path 17" d="M303.32,181.29,278.42,208a2,2,0,0,0,1.63,3.36l23.27-1.92Z" fill="#37474f"/>
        <path id="Path_18" data-name="Path 18" d="M358.16,133.2c12.28-7.09,22.23-1.34,22.23,12.84s-9.95,31.41-22.23,38.5-22.23,1.34-22.23-12.83S345.88,140.29,358.16,133.2Z" fill="#ffd202"/>
        <path id="Path_19" data-name="Path 19" d="M358,144.36c4-2.3,7.21-.44,7.21,4.16A15.93,15.93,0,0,1,358,161c-4,2.3-7.22.44-7.22-4.16A15.93,15.93,0,0,1,358,144.36Z" fill="#fff"/>
        <path id="Path_20" data-name="Path 20" d="M372.22,168.88c0-7.55-5.31-10.62-11.85-6.84l-4.09,2.36c-6.54,3.78-11.85,13-11.85,20.53V187a12.429,12.429,0,0,0,3.82.59,20.14,20.14,0,0,0,9.91-3,43.81,43.81,0,0,0,14.06-13.9Z" fill="#fff"/>
        <path id="Path_21" data-name="Path 21" d="M344.08,254.73l28.16-16.26c1.2-.69,2.17-.13,2.17,1.25v9.07a4.78,4.78,0,0,1-2.17,3.75L344.08,268.8c-1.2.69-2.17.13-2.17-1.25v-9.07a4.78,4.78,0,0,1,2.17-3.75Z" fill="#ffd202"/>
        <path id="Path_22" data-name="Path 22" d="M330.29,234.47,386,202.29c1.43-.83,2.6-.16,2.6,1.5v3.37a5.74,5.74,0,0,1-2.6,4.5l-55.74,32.18c-1.43.83-2.59.16-2.59-1.5V239a5.73,5.73,0,0,1,2.62-4.53Z" fill="#fafafa"/>
        <path id="Path_23" data-name="Path 23" d="M336.81,211.18c.76-.44,1.35-.51,1.77-.2s.63,1,.63,2.06a5.92,5.92,0,0,1-.63,2.79,4.42,4.42,0,0,1-1.77,1.86l-1.5.87v3.23a.76.76,0,0,1-.08.32.46.46,0,0,1-.18.22l-.76.44a.15.15,0,0,1-.18,0,.33.33,0,0,1-.07-.24v-9.35a.74.74,0,0,1,.07-.32.51.51,0,0,1,.18-.22Zm-1.5,5.57,1.45-.84a2.42,2.42,0,0,0,.86-.82,2.48,2.48,0,0,0,.32-1.32c0-.54-.11-.85-.32-.94a1,1,0,0,0-.86.19l-1.45.84Z" fill="#fafafa"/>
        <path id="Path_24" data-name="Path 24" d="M343.4,207.37c.1-.06.18-.06.23,0a.78.78,0,0,1,.13.3l2.31,7.82v.09a.72.72,0,0,1-.08.32.46.46,0,0,1-.18.22l-.68.39c-.12.07-.21.08-.26,0a.4.4,0,0,1-.1-.18l-.41-1.37-3,1.72-.4,1.84a1.83,1.83,0,0,1-.11.29.54.54,0,0,1-.26.28l-.68.39a.14.14,0,0,1-.18,0,.32.32,0,0,1-.07-.23.37.37,0,0,1,0-.11l2.3-10.48a2.268,2.268,0,0,1,.13-.45.56.56,0,0,1,.23-.25Zm.52,6.06-1-3.53-1,4.72Z" fill="#fafafa"/>
        <path id="Path_25" data-name="Path 25" d="M349.57,203.66a2.45,2.45,0,0,1,1.11-.37,1.34,1.34,0,0,1,.8.18,1.29,1.29,0,0,1,.49.59,2.11,2.11,0,0,1,.18.78.6.6,0,0,1-.07.32.46.46,0,0,1-.18.22l-.66.38c-.11.06-.19.07-.24,0a.47.47,0,0,1-.15-.16.73.73,0,0,0-.42-.39,1.16,1.16,0,0,0-.86.22,3.724,3.724,0,0,0-.46.35,2.44,2.44,0,0,0-.39.46,2.529,2.529,0,0,0-.26.52,1.7,1.7,0,0,0-.09.54,1,1,0,0,0,.09.49.38.38,0,0,0,.3.19,1.639,1.639,0,0,0,.56,0l.87-.19a3,3,0,0,1,1-.12,1.12,1.12,0,0,1,.67.22,1.19,1.19,0,0,1,.38.59,3.08,3.08,0,0,1,.13,1,4.731,4.731,0,0,1-.19,1.32,5.348,5.348,0,0,1-.53,1.26,6.08,6.08,0,0,1-.86,1.12,5.151,5.151,0,0,1-1.14.89,3.081,3.081,0,0,1-1,.39,1.61,1.61,0,0,1-.86-.07,1.3,1.3,0,0,1-.59-.55,2.24,2.24,0,0,1-.26-1,.78.78,0,0,1,.07-.33.56.56,0,0,1,.19-.21l.66-.38c.1-.06.18-.08.24-.05a.308.308,0,0,1,.14.17,1.351,1.351,0,0,0,.16.29.53.53,0,0,0,.25.19.89.89,0,0,0,.4,0,2,2,0,0,0,.6-.25,3.872,3.872,0,0,0,.55-.38,2.68,2.68,0,0,0,.78-1,1.68,1.68,0,0,0,.12-.63.58.58,0,0,0-.13-.44.5.5,0,0,0-.4-.12,2.8,2.8,0,0,0-.67.11c-.26.06-.56.13-.91.19a2.4,2.4,0,0,1-.82.06.94.94,0,0,1-.58-.25,1.28,1.28,0,0,1-.35-.62,4.3,4.3,0,0,1-.11-1.06,4.5,4.5,0,0,1,.19-1.3,5.241,5.241,0,0,1,.52-1.24,5.538,5.538,0,0,1,.78-1.07A4.529,4.529,0,0,1,349.57,203.66Z" fill="#fafafa"/>
        <path id="Path_26" data-name="Path 26" d="M356.14,199.88a2.37,2.37,0,0,1,1.11-.38,1.36,1.36,0,0,1,.8.18,1.34,1.34,0,0,1,.48.59,2.11,2.11,0,0,1,.18.78.52.52,0,0,1-.07.32.46.46,0,0,1-.18.22l-.66.38c-.1.06-.18.08-.24,0a.35.35,0,0,1-.14-.17.8.8,0,0,0-.43-.38,1.13,1.13,0,0,0-.85.22,3.191,3.191,0,0,0-.47.35,2.39,2.39,0,0,0-.38.46,2.108,2.108,0,0,0-.26.52,1.71,1.71,0,0,0-.1.54,1,1,0,0,0,.09.49.38.38,0,0,0,.3.19,1.63,1.63,0,0,0,.56,0l.87-.19a3.32,3.32,0,0,1,1-.12,1.1,1.1,0,0,1,.67.22,1.28,1.28,0,0,1,.39.59,3.479,3.479,0,0,1,.12,1,4.73,4.73,0,0,1-.19,1.32,5.349,5.349,0,0,1-.53,1.26,6,6,0,0,1-.86,1.13,5.629,5.629,0,0,1-1.13.88,3.12,3.12,0,0,1-1,.39,1.59,1.59,0,0,1-.85-.07,1.27,1.27,0,0,1-.6-.55,2.12,2.12,0,0,1-.25-1,.52.52,0,0,1,.07-.32.46.46,0,0,1,.18-.22l.66-.38c.1-.06.19-.08.24-.05a.25.25,0,0,1,.14.17,2,2,0,0,0,.16.29.55.55,0,0,0,.26.19.89.89,0,0,0,.4,0,2,2,0,0,0,.6-.25,4.453,4.453,0,0,0,.54-.38,2.319,2.319,0,0,0,.46-.48,2.609,2.609,0,0,0,.32-.56,1.68,1.68,0,0,0,.12-.63.58.58,0,0,0-.13-.44.5.5,0,0,0-.4-.12,3.22,3.22,0,0,0-.66.11c-.26.06-.57.13-.91.19a2.46,2.46,0,0,1-.83.06.91.91,0,0,1-.58-.25,1.27,1.27,0,0,1-.34-.62,3.79,3.79,0,0,1-.12-1.05,4.88,4.88,0,0,1,.19-1.31,5.689,5.689,0,0,1,.52-1.24,5.191,5.191,0,0,1,.79-1.07,4,4,0,0,1,.94-.81Z" fill="#fafafa"/>
        <path id="Path_27" data-name="Path 27" d="M363.43,201.13l-.81,4.79a1.933,1.933,0,0,1-.12.42.51.51,0,0,1-.21.26l-.76.44c-.1.06-.17.06-.22,0a.49.49,0,0,1-.11-.29L360,198.3v-.11a.759.759,0,0,1,.08-.32.51.51,0,0,1,.18-.22l.69-.4a.24.24,0,0,1,.18,0q.09,0,.12.24l.79,5.69.69-4.27a1.4,1.4,0,0,1,.09-.31.53.53,0,0,1,.24-.3l.77-.45c.11-.06.19-.05.24,0a.6.6,0,0,1,.09.21l.7,3.47.79-6.6a.9.9,0,0,1,.11-.37.66.66,0,0,1,.18-.19l.69-.4a.15.15,0,0,1,.18,0,.33.33,0,0,1,.08.24.621.621,0,0,1,0,.12l-1.2,9.83a1.849,1.849,0,0,1-.11.42.58.58,0,0,1-.22.26l-.77.44q-.135.075-.21,0a1.408,1.408,0,0,1-.12-.29Z" fill="#fafafa"/>
        <path id="Path_28" data-name="Path 28" d="M368.11,196.89a10.317,10.317,0,0,1,.2-1.65,7.162,7.162,0,0,1,.52-1.54,6,6,0,0,1,.84-1.33,4.52,4.52,0,0,1,1.21-1,2.27,2.27,0,0,1,1.19-.39,1.24,1.24,0,0,1,.85.35,2.32,2.32,0,0,1,.51.95,5.669,5.669,0,0,1,.21,1.41v2.6a10.07,10.07,0,0,1-.2,1.64,7.732,7.732,0,0,1-.51,1.54,6.392,6.392,0,0,1-.85,1.33,4.729,4.729,0,0,1-1.2,1,2.38,2.38,0,0,1-1.21.39,1.15,1.15,0,0,1-.84-.34,2.11,2.11,0,0,1-.52-1,6.383,6.383,0,0,1-.2-1.41q0-.27,0-.6v-1.38C368.11,197.23,368.1,197.07,368.11,196.89Zm4.26-2.39a1.82,1.82,0,0,0-.44-1.36.891.891,0,0,0-1.05,0,2.62,2.62,0,0,0-1.06,1.18,4.37,4.37,0,0,0-.44,1.87v2.44a1.82,1.82,0,0,0,.44,1.36c.26.22.62.2,1.06-.05a2.68,2.68,0,0,0,1.05-1.17,4.32,4.32,0,0,0,.44-1.86c0-.38,0-.79,0-1.24S372.38,194.86,372.37,194.5Z" fill="#fafafa"/>
        <path id="Path_29" data-name="Path 29" d="M378,187.38c.79-.45,1.38-.52,1.79-.19a2.45,2.45,0,0,1,.61,2,6.129,6.129,0,0,1-.31,2,5,5,0,0,1-.93,1.64l1.3,2.83a.783.783,0,0,1,0,.14.58.58,0,0,1-.06.26.39.39,0,0,1-.14.18l-.8.46c-.13.07-.22.08-.28,0a.68.68,0,0,1-.13-.18l-1.23-2.67-1.25.72v3.38a.74.74,0,0,1-.07.32.59.59,0,0,1-.18.22l-.76.44a.14.14,0,0,1-.18,0,.3.3,0,0,1-.08-.23v-9.35a.76.76,0,0,1,.08-.32.46.46,0,0,1,.18-.22Zm-1.41,5.38L378,192a2.52,2.52,0,0,0,.86-.79,2.26,2.26,0,0,0,.32-1.28c0-.54-.11-.84-.32-.9a1.18,1.18,0,0,0-.86.22l-1.36.78Z" fill="#fafafa"/>
        <path id="Path_30" data-name="Path 30" d="M384.7,183.53a2.65,2.65,0,0,1,1.21-.42,1.2,1.2,0,0,1,.85.31,2.1,2.1,0,0,1,.53,1,6.36,6.36,0,0,1,.22,1.52v2.15a10,10,0,0,1-.22,1.77,7.421,7.421,0,0,1-.52,1.57,5.9,5.9,0,0,1-.84,1.28,4.6,4.6,0,0,1-1.18,1L382.38,195a.14.14,0,0,1-.18,0,.29.29,0,0,1-.08-.23v-9.35a.759.759,0,0,1,.08-.32.46.46,0,0,1,.18-.22Zm1.54,3.11a3.06,3.06,0,0,0-.12-.8,1.09,1.09,0,0,0-.29-.52.65.65,0,0,0-.48-.19,1.42,1.42,0,0,0-.7.24l-1.26.72v6.52l1.31-.75a2.6,2.6,0,0,0,.67-.56,3.431,3.431,0,0,0,.47-.72,4.119,4.119,0,0,0,.28-.86,5,5,0,0,0,.12-.94c.03-.73.03-1.44,0-2.14Z" fill="#fafafa"/>
      </g>
    </g>
    <g id="freepik--question-marks--inject-3">
      <g id="freepik--question-marks--inject-3-2" data-name="freepik--question-marks--inject-3">
        <path id="Path_31" data-name="Path 31" d="M247.38,38.39a18.76,18.76,0,0,1,4.94,1.86,14.19,14.19,0,0,1,3.93,3.12,11.26,11.26,0,0,1,2.32,4.2,10,10,0,0,1,.1,5.09,10.36,10.36,0,0,1-1.55,3.72,12.65,12.65,0,0,1-2.44,2.56,19.451,19.451,0,0,1-2.91,1.87l-2.88,1.53a15.759,15.759,0,0,0-2.46,1.59A4.72,4.72,0,0,0,244.89,66a2.2,2.2,0,0,1-.73.94,1.28,1.28,0,0,1-1.1.23l-4.24-.94a1.57,1.57,0,0,1-1-.69,1.29,1.29,0,0,1-.19-1.15,10.12,10.12,0,0,1,1.77-3.62,14.12,14.12,0,0,1,2.6-2.53,20.907,20.907,0,0,1,3-1.83c1-.51,2-1,2.87-1.49a13,13,0,0,0,2.27-1.55,3.61,3.61,0,0,0,1.21-2,4.32,4.32,0,0,0-1-3.88,7.75,7.75,0,0,0-4.44-2.41q-4.74-1.05-8,3.19a3.069,3.069,0,0,1-.78.79,1.47,1.47,0,0,1-1.11.08l-4.51-1a1.24,1.24,0,0,1-.79-.52,1.22,1.22,0,0,1-.17-1,8.94,8.94,0,0,1,2.08-3.72,13.929,13.929,0,0,1,3.89-3,16.81,16.81,0,0,1,5.11-1.7,14.9,14.9,0,0,1,5.75.19Zm-4.79,32.18a1.56,1.56,0,0,1,1.17,1.84l-1.08,4.9a1.48,1.48,0,0,1-.68,1,1.46,1.46,0,0,1-1.16.22L236,77.42a1.45,1.45,0,0,1-1-.68,1.49,1.49,0,0,1-.21-1.16l1.09-4.9a1.57,1.57,0,0,1,1.84-1.18Z" fill="#ffd202"/>
        <path id="Path_32" data-name="Path 32" d="M252.72,85.3a13.06,13.06,0,0,1,3.64-.07,10,10,0,0,1,3.32,1,8,8,0,0,1,2.56,2.1,7.57,7.57,0,0,1,1.32,6,8.37,8.37,0,0,1-.91,2.27,12.631,12.631,0,0,1-1.38,1.94c-.51.6-1,1.17-1.45,1.72a10.858,10.858,0,0,0-1.17,1.65,3.09,3.09,0,0,0-.46,1.71,1.69,1.69,0,0,1-.23.8.94.94,0,0,1-.65.42l-3,.48a1.07,1.07,0,0,1-.81-.18.88.88,0,0,1-.41-.69,6.81,6.81,0,0,1,.2-2.78,9.811,9.811,0,0,1,1-2.28,13.268,13.268,0,0,1,1.44-1.93c.53-.6,1-1.16,1.46-1.7a8.512,8.512,0,0,0,1.06-1.57,2.51,2.51,0,0,0,.27-1.58,3,3,0,0,0-1.65-2.23,5.39,5.39,0,0,0-3.46-.42,5.18,5.18,0,0,0-4.33,4.11,2.26,2.26,0,0,1-.3.71,1.06,1.06,0,0,1-.68.33l-3.16.51a.86.86,0,0,1-.64-.13.82.82,0,0,1-.35-.58A6,6,0,0,1,244.4,92a9.59,9.59,0,0,1,1.72-2.92,11.76,11.76,0,0,1,2.84-2.4,10.42,10.42,0,0,1,3.76-1.38Zm5.16,21.85a1.06,1.06,0,0,1,.79.19,1,1,0,0,1,.44.69l.56,3.43a1.07,1.07,0,0,1-.88,1.22l-3.35.55a1.07,1.07,0,0,1-.79-.19,1,1,0,0,1-.43-.69l-.56-3.43a1.072,1.072,0,0,1,.88-1.22Z" fill="#ffd202"/>
        <g id="Group_2" data-name="Group 2" opacity="0.2">
          <path id="Path_33" data-name="Path 33" d="M252.72,85.3a13.06,13.06,0,0,1,3.64-.07,10,10,0,0,1,3.32,1,8,8,0,0,1,2.56,2.1,7.57,7.57,0,0,1,1.32,6,8.37,8.37,0,0,1-.91,2.27,12.631,12.631,0,0,1-1.38,1.94c-.51.6-1,1.17-1.45,1.72a10.858,10.858,0,0,0-1.17,1.65,3.09,3.09,0,0,0-.46,1.71,1.69,1.69,0,0,1-.23.8.94.94,0,0,1-.65.42l-3,.48a1.07,1.07,0,0,1-.81-.18.88.88,0,0,1-.41-.69,6.81,6.81,0,0,1,.2-2.78,9.811,9.811,0,0,1,1-2.28,13.268,13.268,0,0,1,1.44-1.93c.53-.6,1-1.16,1.46-1.7a8.512,8.512,0,0,0,1.06-1.57,2.51,2.51,0,0,0,.27-1.58,3,3,0,0,0-1.65-2.23,5.39,5.39,0,0,0-3.46-.42,5.18,5.18,0,0,0-4.33,4.11,2.26,2.26,0,0,1-.3.71,1.06,1.06,0,0,1-.68.33l-3.16.51a.86.86,0,0,1-.64-.13.82.82,0,0,1-.35-.58A6,6,0,0,1,244.4,92a9.59,9.59,0,0,1,1.72-2.92,11.76,11.76,0,0,1,2.84-2.4,10.42,10.42,0,0,1,3.76-1.38Zm5.16,21.85a1.06,1.06,0,0,1,.79.19,1,1,0,0,1,.44.69l.56,3.43a1.07,1.07,0,0,1-.88,1.22l-3.35.55a1.07,1.07,0,0,1-.79-.19,1,1,0,0,1-.43-.69l-.56-3.43a1.072,1.072,0,0,1,.88-1.22Z"/>
        </g>
        <path id="Path_34" data-name="Path 34" d="M281,90.69a1.22,1.22,0,0,1,.51.82,1.2,1.2,0,0,1-.21.94l-2.38,3.35a1.22,1.22,0,0,1-.82.51,1.2,1.2,0,0,1-.94-.21l-3.28-2.33a1.17,1.17,0,0,1-.5-.82,1.2,1.2,0,0,1,.21-.94L276,88.66a1.27,1.27,0,0,1,1.76-.3ZM294.84,68A14.76,14.76,0,0,1,298,71a11.551,11.551,0,0,1,2,3.6,9.21,9.21,0,0,1,.41,3.9,8.15,8.15,0,0,1-1.54,3.87,8.25,8.25,0,0,1-2.36,2.3,9.85,9.85,0,0,1-2.65,1.16,16.682,16.682,0,0,1-2.78.48l-2.66.24a13,13,0,0,0-2.36.41A3.86,3.86,0,0,0,284.18,88a1.77,1.77,0,0,1-.85.48,1,1,0,0,1-.9-.18l-2.9-2.06a1.32,1.32,0,0,1-.53-.83,1.06,1.06,0,0,1,.23-.93,8.31,8.31,0,0,1,2.49-2.16,11.421,11.421,0,0,1,2.76-1.07,16.431,16.431,0,0,1,2.83-.43q1.41-.09,2.64-.21a10.41,10.41,0,0,0,2.21-.44A3,3,0,0,0,293.7,79a3.55,3.55,0,0,0,.47-3.25,6.35,6.35,0,0,0-2.57-3.23q-3.24-2.31-7.07-.15a2.5,2.5,0,0,1-.84.34,1.18,1.18,0,0,1-.86-.29l-3.08-2.19a.988.988,0,0,1-.24-1.43,7.21,7.21,0,0,1,2.75-2.15,11.63,11.63,0,0,1,3.88-1,13.62,13.62,0,0,1,4.4.35A12,12,0,0,1,294.84,68Z" fill="#ffd202"/>
        <g id="Group_3" data-name="Group 3" opacity="0.6">
          <path id="Path_35" data-name="Path 35" d="M281,90.69a1.22,1.22,0,0,1,.51.82,1.2,1.2,0,0,1-.21.94l-2.38,3.35a1.22,1.22,0,0,1-.82.51,1.2,1.2,0,0,1-.94-.21l-3.28-2.33a1.17,1.17,0,0,1-.5-.82,1.2,1.2,0,0,1,.21-.94L276,88.66a1.27,1.27,0,0,1,1.76-.3ZM294.84,68A14.76,14.76,0,0,1,298,71a11.551,11.551,0,0,1,2,3.6,9.21,9.21,0,0,1,.41,3.9,8.15,8.15,0,0,1-1.54,3.87,8.25,8.25,0,0,1-2.36,2.3,9.85,9.85,0,0,1-2.65,1.16,16.682,16.682,0,0,1-2.78.48l-2.66.24a13,13,0,0,0-2.36.41A3.86,3.86,0,0,0,284.18,88a1.77,1.77,0,0,1-.85.48,1,1,0,0,1-.9-.18l-2.9-2.06a1.32,1.32,0,0,1-.53-.83,1.06,1.06,0,0,1,.23-.93,8.31,8.31,0,0,1,2.49-2.16,11.421,11.421,0,0,1,2.76-1.07,16.431,16.431,0,0,1,2.83-.43q1.41-.09,2.64-.21a10.41,10.41,0,0,0,2.21-.44A3,3,0,0,0,293.7,79a3.55,3.55,0,0,0,.47-3.25,6.35,6.35,0,0,0-2.57-3.23q-3.24-2.31-7.07-.15a2.5,2.5,0,0,1-.84.34,1.18,1.18,0,0,1-.86-.29l-3.08-2.19a.988.988,0,0,1-.24-1.43,7.21,7.21,0,0,1,2.75-2.15,11.63,11.63,0,0,1,3.88-1,13.62,13.62,0,0,1,4.4.35A12,12,0,0,1,294.84,68Z" fill="#fff"/>
        </g>
      </g>
    </g>
  </g>
</svg>
