<svg xmlns="http://www.w3.org/2000/svg" width="416.77" height="425.594" viewBox="0 0 416.77 425.594">
  <g id="Personal_data-bro" data-name="Personal data-bro" transform="translate(-49.96 -38.076)">
    <g id="freepik--background-simple--inject-84">
      <path id="Path_1" data-name="Path 1" d="M449.2,165.8c2.82-37.49-3.73-78.87-32.38-104.4-25.7-22.91-64.9-28-98.59-18.84S255.77,73.2,231.82,97.79,188,150.31,165.74,176.35c-23.14,27.09-48.89,52.25-69,81.48s-34.57,63.74-31.51,98.71c1.28,14.55,5.71,29.1,14.62,40.93,10.71,14.22,27.09,23.57,44,30.12,31.26,12.1,65.22,15.81,98.7,19.42l107.23,11.54c22,2.38,45.48,4.53,65.36-4.91,17.5-8.32,29.7-24.74,36.43-42.39s8.6-36.62,10.09-55.37C446.79,291.12,449.2,165.8,449.2,165.8Z" fill="#ffd202"/>
      <g id="Group_1" data-name="Group 1" opacity="0.7">
        <path id="Path_2" data-name="Path 2" d="M449.2,165.62c2.82-37.49-3.73-78.87-32.38-104.4-25.7-22.91-64.9-28-98.59-18.84S255.77,73,231.82,97.61,188,150.13,165.74,176.17c-23.14,27.09-48.89,52.25-69,81.48s-34.57,63.74-31.51,98.71c1.28,14.55,5.71,29.1,14.62,40.93,10.71,14.22,27.09,23.57,44,30.12,31.26,12.1,65.22,15.82,98.7,19.42l107.23,11.55c22,2.37,45.48,4.52,65.36-4.92,17.5-8.32,29.7-24.74,36.43-42.39s8.6-36.62,10.09-55.36C446.79,290.94,449.2,165.62,449.2,165.62Z" fill="#ffd202"/>
      </g>
    </g>
    <g id="freepik--Notebook--inject-84">
      <rect id="Rectangle_1" data-name="Rectangle 1" width="219.76" height="323.08" transform="translate(120.48 130.33)" fill="#263238"/>
      <path id="Path_37" data-name="Path 37" d="M331.34,449.35H108l10.82-128.2a644.427,644.427,0,0,0,2.16-66.79l-2.5-128.09H337.05l1,157.12q.14,19-.76,38Z" fill="#bfbfbf" stroke="#263238" stroke-linecap="round" stroke-linejoin="round" stroke-width="1"/>
      <path id="Path_38" data-name="Path 38" d="M322,445H96.27l6.92-35.94c14.73-87.91,18.4-126.84,16.36-240.76l-2.32-46.38H331.38l2.52,43.8C339.32,356.35,322,445,322,445Z" fill="#fff" stroke="#263238" stroke-linecap="round" stroke-linejoin="round" stroke-width="1"/>
      <path id="Path_39" data-name="Path 39" d="M129.91,138.22a5.83,5.83,0,0,1,0-11.66.87.87,0,0,1,0,1.74,4.09,4.09,0,1,0,4.09,4.09.87.87,0,1,1,1.74,0,5.84,5.84,0,0,1-5.83,5.83Z" fill="#263238"/>
      <path id="Path_40" data-name="Path 40" d="M129.77,135.81c-5.32,0-5.61-11.51-5.62-13.81v-.08c0-2.32.27-13.88,5.62-13.88s5.72,12.48,5.75,13.91l-4.63.09a28.57,28.57,0,0,0-1.15-7.93,28,28,0,0,0-1,7.81V122a27.309,27.309,0,0,0,1,7.85,2.491,2.491,0,0,1,.17-.56l.36-1.26,3.23.94a1.28,1.28,0,0,1,.87,1.58h0C133.45,134,131.89,135.81,129.77,135.81Z" fill="#bfbfbf" stroke="#263238" stroke-linecap="round" stroke-linejoin="round" stroke-width="1"/>
      <path id="Path_41" data-name="Path 41" d="M134.87,133.26a.87.87,0,0,1-.87-.87,4.09,4.09,0,0,0-4.09-4.09.87.87,0,1,1,0-1.74,5.84,5.84,0,0,1,5.83,5.83.87.87,0,0,1-.87.87Z" fill="#263238"/>
      <path id="Path_42" data-name="Path 42" d="M157.38,138.22a5.83,5.83,0,0,1,0-11.66.87.87,0,0,1,0,1.74,4.09,4.09,0,1,0,4.09,4.09.87.87,0,1,1,1.74,0,5.84,5.84,0,0,1-5.83,5.83Z" fill="#263238"/>
      <path id="Path_43" data-name="Path 43" d="M157.24,135.81c-5.32,0-5.61-11.51-5.62-13.81v-.08c0-2.32.27-13.88,5.62-13.88S163,120.52,163,122l-4.63.09a28.57,28.57,0,0,0-1.15-7.93,28,28,0,0,0-1,7.81V122a28.05,28.05,0,0,0,1,7.85c.06-.17.11-.35.17-.56l.36-1.26L161,129a1.28,1.28,0,0,1,.86,1.58h0C160.92,134,159.36,135.81,157.24,135.81Z" fill="#bfbfbf" stroke="#263238" stroke-linecap="round" stroke-linejoin="round" stroke-width="1"/>
      <path id="Path_44" data-name="Path 44" d="M162.34,133.26a.87.87,0,0,1-.87-.87,4.09,4.09,0,0,0-4.09-4.09.87.87,0,1,1,0-1.74,5.84,5.84,0,0,1,5.83,5.83.87.87,0,0,1-.87.87Z" fill="#263238"/>
      <path id="Path_45" data-name="Path 45" d="M184.85,138.22a5.83,5.83,0,0,1,0-11.66.87.87,0,0,1,0,1.74,4.09,4.09,0,1,0,4.09,4.09.87.87,0,1,1,1.74,0,5.84,5.84,0,0,1-5.83,5.83Z" fill="#263238"/>
      <path id="Path_46" data-name="Path 46" d="M184.72,135.81c-5.33,0-5.62-11.51-5.62-13.81v-.08c0-2.32.27-13.88,5.62-13.88s5.72,12.48,5.74,13.91l-4.63.09a28.57,28.57,0,0,0-1.15-7.93,28,28,0,0,0-1,7.81V122a28.05,28.05,0,0,0,1,7.85c.06-.17.11-.35.17-.56l.37-1.26,3.23.94a1.28,1.28,0,0,1,.86,1.58h0C188.39,134,186.83,135.81,184.72,135.81Z" fill="#bfbfbf" stroke="#263238" stroke-linecap="round" stroke-linejoin="round" stroke-width="1"/>
      <path id="Path_47" data-name="Path 47" d="M189.81,133.26a.87.87,0,0,1-.87-.87,4.09,4.09,0,0,0-4.09-4.09.87.87,0,0,1,0-1.74,5.84,5.84,0,0,1,5.83,5.83.87.87,0,0,1-.87.87Z" fill="#263238"/>
      <path id="Path_48" data-name="Path 48" d="M212.33,138.22a5.83,5.83,0,0,1,0-11.66.87.87,0,0,1,0,1.74,4.09,4.09,0,1,0,4.08,4.09.87.87,0,1,1,1.74,0A5.83,5.83,0,0,1,212.33,138.22Z" fill="#263238"/>
      <path id="Path_49" data-name="Path 49" d="M212.19,135.81c-5.33,0-5.62-11.51-5.62-13.81v-.08c0-2.32.27-13.88,5.62-13.88s5.72,12.48,5.75,13.91l-4.64.09a28.2,28.2,0,0,0-1.15-7.93,28,28,0,0,0-1,7.81V122a27.6,27.6,0,0,0,1,7.85c.05-.17.11-.35.16-.56l.37-1.26L216,129a1.28,1.28,0,0,1,.86,1.58h0C215.86,134,214.31,135.81,212.19,135.81Z" fill="#bfbfbf" stroke="#263238" stroke-linecap="round" stroke-linejoin="round" stroke-width="1"/>
      <path id="Path_50" data-name="Path 50" d="M217.28,133.26a.87.87,0,0,1-.87-.87,4.09,4.09,0,0,0-4.08-4.09.87.87,0,1,1,0-1.74,5.83,5.83,0,0,1,5.82,5.83.87.87,0,0,1-.87.87Z" fill="#263238"/>
      <path id="Path_51" data-name="Path 51" d="M239.63,138.22a5.83,5.83,0,0,1,0-11.66.87.87,0,0,1,0,1.74,4.09,4.09,0,1,0,4.09,4.09.87.87,0,1,1,1.73,0A5.83,5.83,0,0,1,239.63,138.22Z" fill="#263238"/>
      <path id="Path_52" data-name="Path 52" d="M239.49,135.81c-5.33,0-5.62-11.51-5.62-13.81v-.08c0-2.32.27-13.88,5.62-13.88s5.72,12.48,5.75,13.91l-4.64.09a28.2,28.2,0,0,0-1.15-7.93,28,28,0,0,0-.95,7.81V122a27.6,27.6,0,0,0,1,7.85,3.039,3.039,0,0,1,.16-.56L240,128l3.23.94a1.28,1.28,0,0,1,.86,1.58h0C243.17,134,241.61,135.81,239.49,135.81Z" fill="#bfbfbf" stroke="#263238" stroke-linecap="round" stroke-linejoin="round" stroke-width="1"/>
      <path id="Path_53" data-name="Path 53" d="M244.58,133.26a.86.86,0,0,1-.86-.87,4.09,4.09,0,0,0-4.09-4.09.87.87,0,1,1,0-1.74,5.83,5.83,0,0,1,5.82,5.83.87.87,0,0,1-.87.87Z" fill="#263238"/>
      <path id="Path_54" data-name="Path 54" d="M267.1,138.22a5.83,5.83,0,0,1,0-11.66.87.87,0,0,1,0,1.74,4.09,4.09,0,1,0,4.09,4.09.87.87,0,1,1,1.74,0,5.84,5.84,0,0,1-5.83,5.83Z" fill="#263238"/>
      <path id="Path_55" data-name="Path 55" d="M267,135.81c-5.33,0-5.62-11.51-5.62-13.81v-.08c0-2.32.27-13.88,5.62-13.88s5.72,12.48,5.75,13.91l-4.64.09a27.83,27.83,0,0,0-1.15-7.93,28.45,28.45,0,0,0-.94,7.81V122a27.309,27.309,0,0,0,1,7.85c.05-.17.11-.35.16-.56l.37-1.26,3.23.94a1.28,1.28,0,0,1,.86,1.58h0C270.64,134,269.08,135.81,267,135.81Z" fill="#bfbfbf" stroke="#263238" stroke-linecap="round" stroke-linejoin="round" stroke-width="1"/>
      <path id="Path_56" data-name="Path 56" d="M272.06,133.26a.87.87,0,0,1-.87-.87,4.09,4.09,0,0,0-4.09-4.09.87.87,0,0,1,0-1.74,5.84,5.84,0,0,1,5.83,5.83.87.87,0,0,1-.87.87Z" fill="#263238"/>
      <path id="Path_57" data-name="Path 57" d="M294.57,138.22a5.83,5.83,0,1,1,0-11.66.87.87,0,0,1,0,1.74,4.09,4.09,0,1,0,4.09,4.09.87.87,0,1,1,1.74,0,5.84,5.84,0,0,1-5.83,5.83Z" fill="#263238"/>
      <path id="Path_58" data-name="Path 58" d="M294.43,135.81c-5.32,0-5.61-11.51-5.62-13.81v-.08c0-2.32.27-13.88,5.62-13.88s5.72,12.48,5.75,13.91l-4.64.09a28.27,28.27,0,0,0-1.14-7.93,28,28,0,0,0-.95,7.81V122a27.309,27.309,0,0,0,1,7.85c.05-.17.11-.35.16-.56L295,128l3.23.94a1.28,1.28,0,0,1,.87,1.58h0C298.11,134,296.55,135.81,294.43,135.81Z" fill="#bfbfbf" stroke="#263238" stroke-linecap="round" stroke-linejoin="round" stroke-width="1"/>
      <path id="Path_59" data-name="Path 59" d="M299.53,133.26a.87.87,0,0,1-.87-.87,4.09,4.09,0,0,0-4.09-4.09.87.87,0,0,1,0-1.74,5.84,5.84,0,0,1,5.83,5.83.87.87,0,0,1-.87.87Z" fill="#263238"/>
      <path id="Path_60" data-name="Path 60" d="M322,138.22a5.83,5.83,0,1,1,0-11.66.87.87,0,0,1,0,1.74,4.09,4.09,0,1,0,4.09,4.09.87.87,0,1,1,1.74,0,5.84,5.84,0,0,1-5.83,5.83Z" fill="#263238"/>
      <path id="Path_61" data-name="Path 61" d="M321.9,135.81c-5.32,0-5.61-11.51-5.62-13.81v-.08c0-2.32.27-13.88,5.62-13.88s5.73,12.48,5.75,13.91L323,122a28.57,28.57,0,0,0-1.15-7.93,28,28,0,0,0-.95,7.81V122a28.052,28.052,0,0,0,1,7.85c.06-.17.11-.35.17-.56l.36-1.26,3.23.94a1.28,1.28,0,0,1,.87,1.58h0C325.58,134,324,135.81,321.9,135.81Z" fill="#bfbfbf" stroke="#263238" stroke-linecap="round" stroke-linejoin="round" stroke-width="1"/>
      <path id="Path_62" data-name="Path 62" d="M327,133.26a.87.87,0,0,1-.87-.87A4.09,4.09,0,0,0,322,128.3a.87.87,0,0,1,0-1.74,5.84,5.84,0,0,1,5.83,5.83.87.87,0,0,1-.83.87Z" fill="#263238"/>
    </g>
    <g id="freepik--Signature--inject-84">
      <rect id="Rectangle_2" data-name="Rectangle 2" width="47" height="1" transform="translate(267.51 423.72)" fill="#263238"/>
      <path id="Path_63" data-name="Path 63" d="M291.48,427.34a14.378,14.378,0,0,1-2-.14c-15.6-2.21-16.1-17.21-15.592-23.55h0c.62-7.81,4.72-18.11,14.22-21.43,9-3.16,17.22,7,19.41,12.89a31.87,31.87,0,0,1-.1,22.12C305.21,423,298.09,427.34,291.48,427.34Zm-16.57-23.61c-.6,7.53.51,20.46,14.74,22.48,6.67,1,14.56-3.42,16.87-9.35a30.83,30.83,0,0,0,.09-21.4c-2.07-5.57-9.75-15.23-18.14-12.29-9.05,3.16-13,13.05-13.56,20.56Z" fill="#92e3a9"/>
      <path id="Path_64" data-name="Path 64" d="M277.83,414.4a.51.51,0,0,1-.48-.34,29.679,29.679,0,0,1-1.47-9.69,21.89,21.89,0,0,1,4.52-13,.51.51,0,0,1,.7-.1.5.5,0,0,1,.1.7,20.91,20.91,0,0,0-4.32,12.41,28.549,28.549,0,0,0,1.42,9.36.5.5,0,0,1-.31.64.45.45,0,0,1-.16.02Z" fill="#92e3a9"/>
      <path id="Path_65" data-name="Path 65" d="M287.68,424h-.12a13.66,13.66,0,0,1-9-7.23.49.49,0,0,1,.2-.67.5.5,0,0,1,.68.2,12.71,12.71,0,0,0,8.38,6.73.51.51,0,0,1,.37.61A.5.5,0,0,1,287.68,424Z" fill="#92e3a9"/>
      <path id="Path_66" data-name="Path 66" d="M291.73,424.51a.5.5,0,0,1,0-1c7.85,0,12.81-4.5,14.35-13a.508.508,0,1,1,1,.18C305.43,419.72,300.13,424.51,291.73,424.51Z" fill="#92e3a9"/>
      <path id="Path_67" data-name="Path 67" d="M306.94,408.25h0a.5.5,0,0,1-.46-.54c.1-1.06.14-2.18.14-3.33a20.229,20.229,0,0,0-2.59-9.7.5.5,0,1,1,.87-.48,21.1,21.1,0,0,1,2.72,10.18c0,1.17-.05,2.32-.14,3.42A.5.5,0,0,1,306.94,408.25Z" fill="#92e3a9"/>
      <path id="Path_68" data-name="Path 68" d="M303.36,393.2a.49.49,0,0,1-.36-.2,21.19,21.19,0,0,0-6-6,.48.48,0,0,1-.16-.68.49.49,0,0,1,.69-.16,22.05,22.05,0,0,1,6.31,6.25.5.5,0,0,1-.14.69.47.47,0,0,1-.34.1Z" fill="#92e3a9"/>
      <path id="Path_69" data-name="Path 69" d="M283.79,388.91a.46.46,0,0,1-.37-.17.48.48,0,0,1,0-.7c2.73-2.42,5.74-3.81,8.27-3.81a9.6,9.6,0,0,1,3.84.91.51.51,0,0,1,.25.66.5.5,0,0,1-.66.26,8.489,8.489,0,0,0-3.43-.83c-2.28,0-5.06,1.3-7.61,3.56A.5.5,0,0,1,283.79,388.91Z" fill="#92e3a9"/>
      <path id="Path_70" data-name="Path 70" d="M279.38,410.11a.5.5,0,0,1-.49-.4,27.6,27.6,0,0,1-.48-5.2c0-9.56,8.11-16.76,13.37-16.76a9.14,9.14,0,0,1,4.43,1.34.5.5,0,0,1,.19.68.52.52,0,0,1-.69.19,8.21,8.21,0,0,0-3.93-1.21c-4.86,0-12.37,6.77-12.37,15.76a26.419,26.419,0,0,0,.46,5,.48.48,0,0,1-.39.58Z" fill="#92e3a9"/>
      <path id="Path_71" data-name="Path 71" d="M284.2,418.85a.51.51,0,0,1-.31-.11,13.34,13.34,0,0,1-4.14-6,.5.5,0,1,1,.93-.35,12.3,12.3,0,0,0,3.83,5.52.5.5,0,0,1,.08.71A.49.49,0,0,1,284.2,418.85Z" fill="#92e3a9"/>
      <path id="Path_72" data-name="Path 72" d="M291.78,421.28a13.78,13.78,0,0,1-5.07-.91.51.51,0,0,1-.28-.65.5.5,0,0,1,.65-.28,12.811,12.811,0,0,0,4.7.84c8,0,12.37-5.6,12.37-15.77a.5.5,0,0,1,.5-.5.51.51,0,0,1,.5.5C305.15,415.32,300.4,421.28,291.78,421.28Z" fill="#92e3a9"/>
      <path id="Path_73" data-name="Path 73" d="M304.48,402.76a.5.5,0,0,1-.49-.43,17.76,17.76,0,0,0-5.85-10.62.5.5,0,1,1,.7-.71A18.789,18.789,0,0,1,305,402.19a.51.51,0,0,1-.43.57Z" fill="#92e3a9"/>
      <path id="Path_74" data-name="Path 74" d="M291.83,418c-6.71,0-10.88-5.13-10.88-13.38a14.42,14.42,0,0,1,3.4-9.12.51.51,0,0,1,.71-.06.49.49,0,0,1,.06.7,13.36,13.36,0,0,0-3.17,8.48c0,7.64,3.78,12.38,9.88,12.38a9.859,9.859,0,0,0,4.95-1.19.5.5,0,0,1,.5.86,10.74,10.74,0,0,1-5.45,1.33Z" fill="#92e3a9"/>
      <path id="Path_75" data-name="Path 75" d="M299.57,414.57a.507.507,0,0,1-.39-.81c1.65-2.12,2.53-5.27,2.53-9.1,0-7.07-6-12.39-9.88-12.39a7.41,7.41,0,0,0-4.08,1.48.5.5,0,0,1-.56-.82,8.33,8.33,0,0,1,4.64-1.66c4.28,0,10.88,5.75,10.88,13.39,0,4-.95,7.41-2.74,9.71a.51.51,0,0,1-.4.2Z" fill="#92e3a9"/>
      <path id="Path_76" data-name="Path 76" d="M286.42,412.58a.46.46,0,0,1-.36-.16,11,11,0,0,1-2.58-7.62c0-5.39,4.62-10,8.4-10a5.66,5.66,0,0,1,2.07.42.5.5,0,0,1-.36.93,4.79,4.79,0,0,0-1.71-.35c-3.33,0-7.4,4.16-7.4,9a10.09,10.09,0,0,0,2.3,6.94.5.5,0,0,1,0,.71.48.48,0,0,1-.36.13Z" fill="#92e3a9"/>
      <path id="Path_77" data-name="Path 77" d="M291.88,414.81a8.549,8.549,0,0,1-3.25-.61.5.5,0,0,1-.28-.65.49.49,0,0,1,.65-.27,7.65,7.65,0,0,0,2.88.53c4.63,0,7.39-3.37,7.39-9a9.74,9.74,0,0,0-3.62-7.42.5.5,0,1,1,.63-.77,10.74,10.74,0,0,1,4,8.19C300.27,411.07,297.13,414.81,291.88,414.81Z" fill="#92e3a9"/>
      <path id="Path_78" data-name="Path 78" d="M291.92,411.57a5.63,5.63,0,0,1-5.7-4.75.512.512,0,0,1,1-.22,4.69,4.69,0,0,0,4.73,4c3,0,4.91-2.15,4.91-5.63a.5.5,0,0,1,1,0C297.83,409,295.51,411.57,291.92,411.57Z" fill="#92e3a9"/>
      <path id="Path_79" data-name="Path 79" d="M286.51,405.44a.5.5,0,0,1-.5-.5c0-3.74,3.18-6.63,5.91-6.63,2.13,0,4.39,1.7,5.39,4.06a.5.5,0,1,1-.93.39,5.35,5.35,0,0,0-4.46-3.45c-2.27,0-4.91,2.46-4.91,5.63A.5.5,0,0,1,286.51,405.44Z" fill="#92e3a9"/>
      <path id="Path_80" data-name="Path 80" d="M292,408.34a3.26,3.26,0,1,1,0-6.52.5.5,0,0,1,0,1,2.27,2.27,0,1,0,2.43,2.26,2.17,2.17,0,0,0-.77-1.64.5.5,0,1,1,.66-.76,3.22,3.22,0,0,1,1.11,2.4,3.35,3.35,0,0,1-3.43,3.26Z" fill="#92e3a9"/>
      <path id="Path_81" data-name="Path 81" d="M272.58,416.22a.47.47,0,0,1-.17,0,.53.53,0,0,1-.33-.39,22.13,22.13,0,0,1,10-22,12.14,12.14,0,0,1,5.53-2c.15-.47.29-.94.42-1.42A21,21,0,0,0,269.5,412.9a.5.5,0,0,1-1,.08,22,22,0,0,1,20.17-23.68.48.48,0,0,1,.42.17.49.49,0,0,1,.1.45c-.16.62-.33,1.24-.52,1.85a6.45,6.45,0,0,1,5.13,2.8,5.39,5.39,0,0,1,.82,2.35l.48-.58a.5.5,0,0,1,.84.53c-1,2.23-1.79,4.24-1.35,6.22a3.509,3.509,0,0,0,.65,1.33,19,19,0,0,1,6.75-4.48.49.49,0,0,1,.48.07.51.51,0,0,1,.19.31,51.75,51.75,0,0,1,11.66-6.4.5.5,0,1,1,.36.93,50.77,50.77,0,0,0-12.22,6.87,14.52,14.52,0,0,1-8.26,10l-3.4,3.46a.5.5,0,0,1-.58.1.53.53,0,0,1-.27-.53,19.39,19.39,0,0,1,4.6-9.61,4.559,4.559,0,0,1-.93-1.85,6.351,6.351,0,0,1-.15-1.56l-.3.47a20,20,0,0,1-5.87,5,.5.5,0,0,1-.65-.74l7-8.39a4.85,4.85,0,0,0-.68-3,5.57,5.57,0,0,0-4.6-2.34,52.7,52.7,0,0,1-15.46,23.34A.52.52,0,0,1,272.58,416.22Zm14.72-23.4a11.65,11.65,0,0,0-4.68,1.8,21.15,21.15,0,0,0-9.68,20.11,51.6,51.6,0,0,0,14.36-21.91Zm4.21,19.73-.21.73.8-.82-.4.09a.31.31,0,0,1-.19,0Zm5.29-5.85a48.991,48.991,0,0,0-3.92,4.49c.25-.09.5-.18.75-.29l4-4a3.84,3.84,0,0,1-.83-.2Zm-1.53-.83a18.349,18.349,0,0,0-2.77,4.19,47.9,47.9,0,0,1,3.33-3.8,5.587,5.587,0,0,1-.56-.39Zm3.23,1.5-1.1,1.12A11.629,11.629,0,0,0,298.5,407.37Zm-.85-1.52a2,2,0,0,0,1.28-.33.5.5,0,0,1,.66.1.46.46,0,0,1,.1.18,13.268,13.268,0,0,0,1.47-3.06q-1.83,1.47-3.51,3.11Zm-1.7-.72a3,3,0,0,0,.61.39,51.345,51.345,0,0,1,4.84-4.24,18.16,18.16,0,0,0-5.4,3.85Zm-2.86-4.8-3.3,4a12.321,12.321,0,0,0,2.56-2.64,8,8,0,0,0,.74-1.36Z" fill="#263238"/>
    </g>
    <g id="freepik--Texts--inject-84">
      <rect id="Rectangle_3" data-name="Rectangle 3" width="11.09" height="1" transform="translate(313.43 178.53)" fill="#263238"/>
      <rect id="Rectangle_4" data-name="Rectangle 4" width="6.68" height="1" transform="translate(301.89 178.53)" fill="#263238"/>
      <rect id="Rectangle_5" data-name="Rectangle 5" width="166.92" height="1" transform="translate(129.91 178.53)" fill="#263238"/>
      <rect id="Rectangle_6" data-name="Rectangle 6" width="8.83" height="1" transform="translate(242.73 403.3)" fill="#263238"/>
      <rect id="Rectangle_7" data-name="Rectangle 7" width="31.72" height="1" transform="translate(204.56 403.3)" fill="#263238"/>
      <path id="Path_82" data-name="Path 82" d="M248.23,424.72c-12.25-.22-23.21-.22-35.52,0v-1c12.32-.22,23.28-.22,35.55,0Z" fill="#263238"/>
      <rect id="Rectangle_8" data-name="Rectangle 8" width="5.02" height="1" transform="translate(201.24 423.72)" fill="#263238"/>
      <rect id="Rectangle_9" data-name="Rectangle 9" width="6.2" height="1" transform="translate(252.12 240.58)" fill="#263238"/>
      <rect id="Rectangle_10" data-name="Rectangle 10" width="1" height="4.08" transform="translate(241.552 241.566) rotate(-89.64)" fill="#263238"/>
      <path id="Path_83" data-name="Path 83" d="M211.33,241.58v-1c7.9-.05,15.81-.07,23.51-.05v1C227.13,241.51,219.23,241.53,211.33,241.58Z" fill="#263238"/>
      <rect id="Rectangle_11" data-name="Rectangle 11" width="13.66" height="1" transform="translate(244.67 261)" fill="#263238"/>
      <rect id="Rectangle_12" data-name="Rectangle 12" width="26.63" height="1" transform="translate(211.33 261)" fill="#263238"/>
      <path id="Path_84" data-name="Path 84" d="M240.51,282.48c-5.81,0-11.61,0-17.72-.07v-1c12.22.09,23.18.09,35.52,0v1C252.15,282.45,246.33,282.48,240.51,282.48Z" fill="#263238"/>
      <rect id="Rectangle_13" data-name="Rectangle 13" width="4.8" height="1" transform="translate(211.33 281.41)" fill="#263238"/>
      <rect id="Rectangle_14" data-name="Rectangle 14" width="47" height="1" transform="translate(211.33 301.82)" fill="#263238"/>
      <path id="Path_85" data-name="Path 85" d="M240,323.43h-7.05v-1c8.25.07,16.79,0,25.36-.16v1C252.17,323.37,246,323.43,240,323.43Z" fill="#263238"/>
      <path id="Path_86" data-name="Path 86" d="M226.2,323.32l-4-.08v-1l4,.08Z" fill="#263238"/>
      <rect id="Rectangle_15" data-name="Rectangle 15" width="4.36" height="1" transform="translate(211.33 322.24)" fill="#263238"/>
      <path id="Path_87" data-name="Path 87" d="M239.5,343.39c-5.77,0-11.54-.11-17.64-.33v-1c12.17.44,23,.44,35.19,0v1C251,343.28,245.27,343.39,239.5,343.39Z" fill="#263238"/>
      <rect id="Rectangle_16" data-name="Rectangle 16" width="5.25" height="1" transform="translate(210.11 342.06)" fill="#263238"/>
      <rect id="Rectangle_17" data-name="Rectangle 17" width="6.7" height="1" transform="translate(249.3 362.48)" fill="#263238"/>
      <path id="Path_88" data-name="Path 88" d="M226,363.49H209v-1h34v1Z" fill="#263238"/>
      <path id="Path_89" data-name="Path 89" d="M218.57,383.89v-1c12.53-.39,23.4-.39,35.26,0v1C241.93,383.5,231.07,383.5,218.57,383.89Z" fill="#263238"/>
      <rect id="Rectangle_18" data-name="Rectangle 18" width="5.25" height="1" transform="translate(206.78 382.89)" fill="#263238"/>
      <g id="freepik--Text--inject-84">
        <path id="Path_90" data-name="Path 90" d="M144.08,157.67v2.08c0,2.55-1.23,3.94-3.74,3.94h-1.18v6h-2.51v-16h3.69C142.85,153.73,144.08,155.12,144.08,157.67ZM139.16,156v5.4h1.18c.8,0,1.23-.36,1.23-1.5v-2.39c0-1.14-.43-1.51-1.23-1.51Z" fill="#263238"/>
        <path id="Path_91" data-name="Path 91" d="M147.87,160.46h3.44v2.28h-3.44v4.67h4.33v2.28h-6.84v-16h6.84V156h-4.33Z" fill="#263238"/>
        <path id="Path_92" data-name="Path 92" d="M159,169.69a5.11,5.11,0,0,1-.22-2v-2.51c0-1.48-.51-2-1.65-2h-.86v6.5h-2.51v-16h3.78c2.6,0,3.72,1.21,3.72,3.67v1.25c0,1.65-.52,2.72-1.64,3.24,1.25.53,1.66,1.73,1.66,3.4v2.46a4.7,4.7,0,0,0,.28,1.94ZM156.26,156v4.9h1c.93,0,1.5-.41,1.5-1.69v-1.57c0-1.14-.39-1.64-1.27-1.64Z" fill="#263238"/>
        <path id="Path_93" data-name="Path 93" d="M166.29,153.55c2.44,0,3.69,1.46,3.69,4v.5h-2.37v-.66c0-1.14-.46-1.57-1.25-1.57s-1.26.43-1.26,1.57c0,3.28,4.9,3.9,4.9,8.46,0,2.55-1.27,4-3.73,4s-3.74-1.46-3.74-4v-1h2.37V166c0,1.14.5,1.55,1.3,1.55s1.3-.41,1.3-1.55c0-3.28-4.9-3.9-4.9-8.46C162.6,155,163.85,153.55,166.29,153.55Z" fill="#263238"/>
        <path id="Path_94" data-name="Path 94" d="M171.24,157.56c0-2.55,1.34-4,3.8-4s3.81,1.46,3.81,4v8.3c0,2.55-1.34,4-3.81,4s-3.8-1.46-3.8-4Zm2.5,8.46c0,1.14.51,1.57,1.3,1.57s1.3-.43,1.3-1.57V157.4c0-1.14-.5-1.57-1.3-1.57s-1.3.43-1.3,1.57Z" fill="#263238"/>
        <path id="Path_95" data-name="Path 95" d="M182.7,158.13v11.56h-2.25v-16h3.14l2.58,9.55v-9.55h2.23v16h-2.57Z" fill="#263238"/>
        <path id="Path_96" data-name="Path 96" d="M198.32,169.69h-2.53l-.43-2.9h-3.08l-.43,2.9h-2.31l2.56-16h3.67Zm-5.72-5.06H195l-1.21-8.07Z" fill="#263238"/>
        <path id="Path_97" data-name="Path 97" d="M199.48,153.73H202v13.68h4.13v2.28h-6.64Z" fill="#263238"/>
        <path id="Path_98" data-name="Path 98" d="M210.75,153.73h4c2.51,0,3.74,1.39,3.74,3.94v8.07c0,2.56-1.23,3.95-3.74,3.95h-4Zm2.5,2.28v11.4h1.42c.8,0,1.27-.41,1.27-1.55v-8.3c0-1.14-.47-1.55-1.27-1.55Z" fill="#263238"/>
        <path id="Path_99" data-name="Path 99" d="M228.14,169.69h-2.53l-.43-2.9H222.1l-.43,2.9h-2.31l2.56-16h3.67Zm-5.72-5.06h2.42l-1.21-8.07Z" fill="#263238"/>
        <path id="Path_100" data-name="Path 100" d="M228.58,153.73h7.75V156H233.7v13.68h-2.5V156h-2.62Z" fill="#263238"/>
        <path id="Path_101" data-name="Path 101" d="M244.67,169.69h-2.53l-.43-2.9h-3.08l-.43,2.9h-2.31l2.56-16h3.67ZM239,164.63h2.42l-1.21-8.07Z" fill="#263238"/>
        <path id="Path_102" data-name="Path 102" d="M139.15,235.66v1H137v4h-1v-9.32h3.7v1H137v3.39Z" fill="#263238"/>
        <path id="Path_103" data-name="Path 103" d="M141.53,231.32v9.32h-1v-9.32Z" fill="#263238"/>
        <path id="Path_104" data-name="Path 104" d="M144.67,231.32c1.46,0,2.08.75,2.08,2.13v.76a1.758,1.758,0,0,1-1.16,1.92c.85.25,1.17.94,1.17,1.94v1.45a2.27,2.27,0,0,0,.19,1.12h-1.06a2.47,2.47,0,0,1-.17-1.13V238c0-1-.49-1.38-1.36-1.38h-.73v4h-1V231.3Zm-.27,4.39c.83,0,1.32-.26,1.32-1.27v-.89c0-.84-.3-1.28-1.08-1.28h-1v3.44Z" fill="#263238"/>
        <path id="Path_105" data-name="Path 105" d="M151.87,233.56v.25h-1v-.3c0-.84-.32-1.33-1.06-1.33s-1.07.49-1.07,1.31c0,2.09,3.13,2.29,3.13,4.91,0,1.41-.68,2.33-2.1,2.33s-2.09-.92-2.09-2.33v-.53h1v.59c0,.83.35,1.33,1.09,1.33s1.09-.5,1.09-1.33c0-2.08-3.11-2.28-3.11-4.9,0-1.44.67-2.33,2.06-2.33S151.87,232.15,151.87,233.56Z" fill="#263238"/>
        <path id="Path_106" data-name="Path 106" d="M154.14,240.64v-8.37h-1.71v-1h4.47v1h-1.72v8.37Z" fill="#263238"/>
        <path id="Path_107" data-name="Path 107" d="M160.6,240.64h-.93v-9.32H161l2.16,6.74v-6.74h.92v9.32H163l-2.38-7.53Z" fill="#263238"/>
        <path id="Path_108" data-name="Path 108" d="M166.17,238.76l-.36,1.88h-1l1.79-9.32h1.5l1.78,9.32h-1l-.36-1.88Zm.13-.89h2.08l-1-5.37Z" fill="#263238"/>
        <path id="Path_109" data-name="Path 109" d="M174.17,240.62h-1l-1.54-7.41v7.43h-.91v-9.32h1.45l1.53,7.44,1.48-7.44h1.45v9.32h-1v-7.49Z" fill="#263238"/>
        <path id="Path_110" data-name="Path 110" d="M181,235.45v.93h-2.28v3.31h2.8v.95h-3.84v-9.32h3.84v1h-2.8v3.18Z" fill="#263238"/>
        <path id="Path_111" data-name="Path 111" d="M202,234.28v1.29h-1v-1.29Zm0,5.07v1.29h-1v-1.29Z" fill="#263238"/>
        <path id="Path_112" data-name="Path 112" d="M136,261.49v-9.31h1v8.37h2.66v.94Z" fill="#263238"/>
        <path id="Path_113" data-name="Path 113" d="M141.5,259.62l-.36,1.87h-.95l1.78-9.31h1.5l1.79,9.31h-1l-.36-1.87Zm.14-.89h2.07l-1.05-5.38Z" fill="#263238"/>
        <path id="Path_114" data-name="Path 114" d="M150.1,254.42v.25h-1v-.31c0-.84-.32-1.33-1.06-1.33s-1.06.49-1.06,1.32c0,2.09,3.12,2.29,3.12,4.91,0,1.41-.68,2.33-2.1,2.33s-2.09-.92-2.09-2.33v-.53h1v.58c0,.84.35,1.33,1.09,1.33s1.09-.49,1.09-1.33c0-2.07-3.11-2.27-3.11-4.89,0-1.44.67-2.33,2.06-2.33S150.1,253,150.1,254.42Z" fill="#263238"/>
        <path id="Path_115" data-name="Path 115" d="M152.37,261.49v-8.36h-1.71v-.95h4.47v.95h-1.72v8.36Z" fill="#263238"/>
        <path id="Path_116" data-name="Path 116" d="M158.83,261.49h-.93v-9.31h1.31l2.16,6.73v-6.73h.92v9.31h-1.08L158.83,254Z" fill="#263238"/>
        <path id="Path_117" data-name="Path 117" d="M164.4,259.62l-.36,1.87h-.95l1.78-9.31h1.5l1.78,9.31h-1l-.36-1.87Zm.14-.89h2.07l-1.05-5.38Z" fill="#263238"/>
        <path id="Path_118" data-name="Path 118" d="M172.4,261.48h-1l-1.54-7.41v7.42H169v-9.31h1.45l1.53,7.44,1.48-7.44h1.45v9.31h-1V254Z" fill="#263238"/>
        <path id="Path_119" data-name="Path 119" d="M179.24,256.31v.93H177v3.31h2.8v.94h-3.84v-9.31h3.84v.95H177v3.18Z" fill="#263238"/>
        <path id="Path_120" data-name="Path 120" d="M202.34,255.13v1.3h-1v-1.3Zm0,5.07v1.29h-1V260.2Z" fill="#263238"/>
        <path id="Path_121" data-name="Path 121" d="M137,272.52v9.31h-1v-9.31Z" fill="#263238"/>
        <path id="Path_122" data-name="Path 122" d="M140.25,272.52c1.45,0,2.12.87,2.12,2.31v4.7c0,1.42-.67,2.3-2.12,2.3h-2.18v-9.31Zm0,8.37c.74,0,1.1-.47,1.1-1.32v-4.79c0-.85-.36-1.32-1.11-1.32h-1.12v7.43Z" fill="#263238"/>
        <path id="Path_123" data-name="Path 123" d="M146.32,281.83h-.93v-9.31h1.32l2.15,6.73v-6.73h.92v9.31H148.7l-2.38-7.53Z" fill="#263238"/>
        <path id="Path_124" data-name="Path 124" d="M151.83,279.63c0,.84.33,1.35,1.09,1.35s1.08-.51,1.08-1.35v-7.11h1v7.06c0,1.41-.65,2.36-2.09,2.36s-2.08-.95-2.08-2.36v-7.06h1Z" fill="#263238"/>
        <path id="Path_125" data-name="Path 125" d="M159.43,281.82h-1l-1.55-7.41v7.42H156v-9.31h1.45L159,280l1.48-7.43h1.45v9.31h-1v-7.49Z" fill="#263238"/>
        <path id="Path_126" data-name="Path 126" d="M165,272.52c1.45,0,2,.69,2,2.06V275c0,1-.28,1.59-1.09,1.85.91.25,1.25,1,1.25,2v.79a1.92,1.92,0,0,1-2.13,2.18H163v-9.31Zm-.25,4c.82,0,1.25-.27,1.25-1.24v-.54c0-.83-.28-1.23-1-1.23h-1v3Zm.3,4.42c.76,0,1.11-.4,1.11-1.27v-.82c0-1-.41-1.39-1.31-1.39H164v3.48Z" fill="#263238"/>
        <path id="Path_127" data-name="Path 127" d="M171.48,276.64v.93h-2.27v3.32H172v.94h-3.83v-9.31H172v.94h-2.79v3.18Z" fill="#263238"/>
        <path id="Path_128" data-name="Path 128" d="M175,272.52c1.47,0,2.08.74,2.08,2.13v.75a1.758,1.758,0,0,1-1.16,1.92c.85.25,1.17.94,1.17,1.94v1.45a2.39,2.39,0,0,0,.19,1.12h-1.05a2.43,2.43,0,0,1-.18-1.13v-1.46c0-1.06-.49-1.39-1.35-1.39H174v4h-1v-9.31Zm-.26,4.39c.82,0,1.31-.27,1.31-1.28v-.89c0-.84-.3-1.28-1.07-1.28h-1v3.45Z" fill="#263238"/>
        <path id="Path_129" data-name="Path 129" d="M201.88,275.47v1.29h-1v-1.29Zm0,5.07v1.29h-1v-1.29Z" fill="#263238"/>
        <path id="Path_130" data-name="Path 130" d="M140.08,293.94v.79h-1v-.85c0-.84-.34-1.34-1.1-1.34s-1.09.5-1.09,1.34v4.93c0,.83.35,1.34,1.09,1.34s1.1-.51,1.1-1.34v-1.87h-1V296h1.94v2.74c0,1.41-.67,2.34-2.1,2.34s-2.09-.93-2.09-2.34v-4.81c0-1.41.66-2.35,2.09-2.35A2.076,2.076,0,0,1,140.08,293.94Z" fill="#263238"/>
        <path id="Path_131" data-name="Path 131" d="M144.38,295.81v.93H142.1v3.32h2.8V301h-3.84v-9.31h3.84v.94h-2.8v3.18Z" fill="#263238"/>
        <path id="Path_132" data-name="Path 132" d="M146.77,301h-.93v-9.31h1.32l2.15,6.73v-6.73h.92V301h-1.08l-2.38-7.53Z" fill="#263238"/>
        <path id="Path_133" data-name="Path 133" d="M153.48,291.69c1.45,0,2.11.88,2.11,2.31v4.7c0,1.42-.66,2.3-2.11,2.3H151.3v-9.31Zm0,8.37c.74,0,1.1-.47,1.1-1.32V294c0-.85-.36-1.32-1.12-1.32h-1.12v7.43Z" fill="#263238"/>
        <path id="Path_134" data-name="Path 134" d="M159.88,295.81v.93H157.6v3.32h2.8V301h-3.83v-9.31h3.83v.94h-2.8v3.18Z" fill="#263238"/>
        <path id="Path_135" data-name="Path 135" d="M163.43,291.69c1.46,0,2.08.74,2.08,2.13v.76a1.746,1.746,0,0,1-1.16,1.91c.85.25,1.17.95,1.17,1.94v1.45a2.25,2.25,0,0,0,.19,1.12h-1.06a2.55,2.55,0,0,1-.17-1.13v-1.46c0-1.05-.49-1.39-1.36-1.39h-.73v4h-1v-9.31Zm-.27,4.39c.83,0,1.32-.27,1.32-1.28v-.89c0-.84-.3-1.28-1.08-1.28h-1v3.45Z" fill="#263238"/>
        <path id="Path_136" data-name="Path 136" d="M202.66,294.64v1.29h-1v-1.29Zm0,5.07V301h-1v-1.29Z" fill="#263238"/>
        <path id="Path_137" data-name="Path 137" d="M138.15,312c1.45,0,2.12.88,2.12,2.31V319c0,1.42-.67,2.3-2.12,2.3H136V312Zm0,8.37c.74,0,1.1-.47,1.1-1.32v-4.79c0-.85-.36-1.32-1.12-1.32H137v7.43Z" fill="#263238"/>
        <path id="Path_138" data-name="Path 138" d="M142.1,320v1.29h-1V320Z" fill="#263238"/>
        <path id="Path_139" data-name="Path 139" d="M143,314.22c0-1.43.71-2.34,2.13-2.34a2.049,2.049,0,0,1,2.15,2.34V319a2.06,2.06,0,0,1-2.15,2.35c-1.42,0-2.13-.94-2.13-2.35Zm1,4.87c0,.85.36,1.34,1.1,1.34s1.11-.49,1.11-1.34v-4.93c0-.83-.35-1.34-1.11-1.34s-1.1.51-1.1,1.34Z" fill="#263238"/>
        <path id="Path_140" data-name="Path 140" d="M149.07,320v1.29h-1V320Z" fill="#263238"/>
        <path id="Path_141" data-name="Path 141" d="M152.23,312c1.45,0,2,.69,2,2.06v.44c0,1-.28,1.6-1.09,1.85a1.812,1.812,0,0,1,1.25,2v.78a1.91,1.91,0,0,1-2.13,2.18h-2.14V312Zm-.25,3.95c.82,0,1.25-.27,1.25-1.24v-.54c0-.83-.28-1.23-1-1.23h-1v3Zm.3,4.42c.76,0,1.11-.4,1.11-1.27v-.82c0-1-.42-1.38-1.31-1.38h-.9v3.47Z" fill="#263238"/>
        <path id="Path_142" data-name="Path 142" d="M201.72,314.92v1.29h-1v-1.29Zm0,5.07v1.29h-1V320Z" fill="#263238"/>
        <path id="Path_143" data-name="Path 143" d="M135.21,337.4v4.19h-1v-9.31h1v4.19h2.29v-4.19h1v9.31h-1V337.4Z" fill="#263238"/>
        <path id="Path_144" data-name="Path 144" d="M142.91,336.4v.93h-2.27v3.32h2.79v.94H139.6v-9.31h3.83v.94h-2.79v3.18Z" fill="#263238"/>
        <path id="Path_145" data-name="Path 145" d="M145.42,332.28v9.31h-1v-9.31Z" fill="#263238"/>
        <path id="Path_146" data-name="Path 146" d="M150.6,334.53v.8h-1v-.86c0-.83-.34-1.34-1.1-1.34s-1.09.51-1.09,1.34v4.93c0,.84.35,1.34,1.09,1.34s1.1-.5,1.1-1.34v-1.87h-1v-.93h1.94v2.74c0,1.41-.66,2.35-2.1,2.35s-2.09-.94-2.09-2.35v-4.81c0-1.41.66-2.34,2.09-2.34A2.06,2.06,0,0,1,150.6,334.53Z" fill="#263238"/>
        <path id="Path_147" data-name="Path 147" d="M152.62,337.4v4.19h-1v-9.31h1v4.19h2.29v-4.19h1v9.31h-1V337.4Z" fill="#263238"/>
        <path id="Path_148" data-name="Path 148" d="M158.37,341.59v-8.37h-1.72v-.94h4.47v.94h-1.71v8.37Z" fill="#263238"/>
        <path id="Path_149" data-name="Path 149" d="M200,335.23v1.29h-1v-1.29Zm0,5.07v1.29h-1V340.3Z" fill="#263238"/>
        <path id="Path_150" data-name="Path 150" d="M134.43,360.76H133l-1.27-9.31h1l1.09,7.93,1-7.92h1l1,7.93,1.06-7.94h.9l-1.26,9.31h-1.37l-.9-6.32Z" fill="#263238"/>
        <path id="Path_151" data-name="Path 151" d="M143,355.58v.93h-2.27v3.31h2.79v.94h-3.83v-9.31h3.83v.95h-2.79v3.18Z" fill="#263238"/>
        <path id="Path_152" data-name="Path 152" d="M145.54,351.45v9.31h-1v-9.31Z" fill="#263238"/>
        <path id="Path_153" data-name="Path 153" d="M150.71,353.7v.8h-1v-.85c0-.84-.34-1.35-1.09-1.35s-1.09.51-1.09,1.35v4.92c0,.84.34,1.34,1.09,1.34s1.09-.5,1.09-1.34v-1.86h-1v-.93h1.94v2.74c0,1.41-.66,2.34-2.1,2.34s-2.09-.93-2.09-2.34V353.7c0-1.41.67-2.34,2.09-2.34A2.065,2.065,0,0,1,150.71,353.7Z" fill="#263238"/>
        <path id="Path_154" data-name="Path 154" d="M152.73,356.57v4.19h-1v-9.31h1v4.19H155v-4.19h1v9.31h-1v-4.19Z" fill="#263238"/>
        <path id="Path_155" data-name="Path 155" d="M158.48,360.76V352.4h-1.71v-.95h4.47v.95h-1.72v8.36Z" fill="#263238"/>
        <path id="Path_156" data-name="Path 156" d="M198,354.4v1.3h-1v-1.3Zm0,5.07v1.29h-1v-1.29Z" fill="#263238"/>
        <path id="Path_157" data-name="Path 157" d="M132,372.84c1.45,0,2,.69,2,2.06v.44c0,1-.28,1.6-1.09,1.85.91.25,1.25,1,1.25,2V380a1.91,1.91,0,0,1-2.13,2.18h-2.14v-9.31Zm-.25,4c.82,0,1.25-.26,1.25-1.24V375c0-.83-.28-1.22-1-1.22h-1v3Zm.3,4.42c.76,0,1.11-.4,1.11-1.26v-.83c0-1-.41-1.38-1.31-1.38H131v3.47Z" fill="#263238"/>
        <path id="Path_158" data-name="Path 158" d="M135.16,382.15v-9.31h1v8.37h2.66v.94Z" fill="#263238"/>
        <path id="Path_159" data-name="Path 159" d="M139.56,375.09c0-1.42.71-2.34,2.13-2.34a2.046,2.046,0,0,1,2.14,2.34v4.82c0,1.41-.7,2.34-2.14,2.34s-2.13-.93-2.13-2.34Zm1,4.87c0,.85.36,1.34,1.1,1.34s1.1-.49,1.1-1.34V375c0-.84-.34-1.35-1.1-1.35s-1.1.51-1.1,1.35Z" fill="#263238"/>
        <path id="Path_160" data-name="Path 160" d="M144.74,375.09c0-1.42.7-2.34,2.13-2.34s2.14.92,2.14,2.34v4.82a2,2,0,0,1-2.14,2.34c-1.43,0-2.13-.93-2.13-2.34Zm1,4.87c0,.85.36,1.34,1.11,1.34s1.1-.49,1.1-1.34V375c0-.84-.35-1.35-1.1-1.35s-1.11.51-1.11,1.35Z" fill="#263238"/>
        <path id="Path_161" data-name="Path 161" d="M152.17,372.84c1.45,0,2.12.88,2.12,2.32v4.69c0,1.43-.67,2.3-2.12,2.3H150v-9.31Zm0,8.37c.75,0,1.11-.47,1.11-1.32V375.1c0-.85-.36-1.31-1.12-1.31H151v7.42Z" fill="#263238"/>
        <path id="Path_162" data-name="Path 162" d="M158.68,382.15v-8.36H157v-1h4.48v1h-1.72v8.36Z" fill="#263238"/>
        <path id="Path_163" data-name="Path 163" d="M163.8,378.81l-2-6h1.08l1.45,4.58,1.47-4.58h1l-2,6v3.34h-1Z" fill="#263238"/>
        <path id="Path_164" data-name="Path 164" d="M169.59,372.84c1.46,0,2.09.87,2.09,2.28v1.11c0,1.48-.69,2.25-2.17,2.25h-.92v3.67h-1v-9.31Zm-.08,4.71c.77,0,1.15-.36,1.15-1.25v-1.24c0-.85-.31-1.27-1.07-1.27h-1v3.76Z" fill="#263238"/>
        <path id="Path_165" data-name="Path 165" d="M175.84,377v.94h-2.27v3.31h2.79v.94h-3.83v-9.31h3.83v1h-2.79V377Z" fill="#263238"/>
        <path id="Path_166" data-name="Path 166" d="M196.88,375.79v1.29h-1v-1.29Zm0,5.07v1.29h-1v-1.29Z" fill="#263238"/>
        <path id="Path_167" data-name="Path 167" d="M128.39,398.59v4.19h-1v-9.31h1v4.19h2.29v-4.19h1v9.31h-1v-4.19Z" fill="#263238"/>
        <path id="Path_168" data-name="Path 168" d="M132.71,395.72c0-1.43.7-2.34,2.13-2.34s2.14.91,2.14,2.34v4.81c0,1.41-.71,2.35-2.14,2.35s-2.13-.94-2.13-2.35Zm1,4.87c0,.85.36,1.34,1.11,1.34s1.1-.49,1.1-1.34v-4.93c0-.83-.35-1.34-1.1-1.34s-1.11.51-1.11,1.34Z" fill="#263238"/>
        <path id="Path_169" data-name="Path 169" d="M141.39,402.77h-1l-1.55-7.41v7.42H138v-9.31h1.45l1.53,7.44,1.48-7.44h1.45v9.31h-1v-7.49Z" fill="#263238"/>
        <path id="Path_170" data-name="Path 170" d="M148.23,397.59v.93H146v3.32h2.79v.94h-3.83v-9.31h3.83v.94H146v3.18Z" fill="#263238"/>
        <path id="Path_171" data-name="Path 171" d="M152.82,400.91l-.36,1.87h-1l1.78-9.31h1.5l1.79,9.31h-1l-.36-1.87Zm.14-.9H155l-1-5.37Z" fill="#263238"/>
        <path id="Path_172" data-name="Path 172" d="M159.57,393.47c1.45,0,2.11.88,2.11,2.31v4.7c0,1.42-.66,2.3-2.11,2.3h-2.18v-9.31Zm0,8.37c.74,0,1.1-.47,1.1-1.32v-4.79c0-.85-.36-1.32-1.12-1.32h-1.12v7.43Z" fill="#263238"/>
        <path id="Path_173" data-name="Path 173" d="M164.73,393.47c1.47,0,2.08.74,2.08,2.13v.76a1.746,1.746,0,0,1-1.16,1.91,1.778,1.778,0,0,1,1.17,1.94v1.45a2.25,2.25,0,0,0,.19,1.12h-1a2.38,2.38,0,0,1-.18-1.13v-1.46c0-1.05-.49-1.39-1.35-1.39h-.74v4h-1v-9.31Zm-.26,4.39c.82,0,1.31-.27,1.31-1.28v-.89c0-.84-.3-1.28-1.07-1.28h-1v3.45Z" fill="#263238"/>
        <path id="Path_174" data-name="Path 174" d="M171.21,397.59v.93h-2.27v3.32h2.79v.94H167.9v-9.31h3.83v.94h-2.79v3.18Z" fill="#263238"/>
        <path id="Path_175" data-name="Path 175" d="M176.72,395.7v.3h-1v-.31c0-.84-.31-1.33-1.06-1.33s-1.06.49-1.06,1.32c0,2.09,3.12,2.29,3.12,4.91,0,1.41-.68,2.33-2.1,2.33s-2.09-.92-2.09-2.33V400h1v.59c0,.84.35,1.33,1.09,1.33s1.1-.49,1.1-1.33c0-2.08-3.12-2.27-3.12-4.9,0-1.43.67-2.32,2.06-2.32S176.72,394.29,176.72,395.7Z" fill="#263238"/>
        <path id="Path_176" data-name="Path 176" d="M181.67,395.7v.3h-1v-.31c0-.84-.31-1.33-1.06-1.33s-1.06.49-1.06,1.32c0,2.09,3.12,2.29,3.12,4.91,0,1.41-.68,2.33-2.1,2.33s-2.09-.92-2.09-2.33V400h1v.59c0,.84.35,1.33,1.09,1.33s1.09-.49,1.09-1.33c0-2.08-3.11-2.27-3.11-4.9,0-1.43.67-2.32,2.06-2.32S181.67,394.29,181.67,395.7Z" fill="#263238"/>
        <path id="Path_177" data-name="Path 177" d="M193.9,396.42v1.29h-1v-1.29Zm0,5.07v1.29h-1v-1.29Z" fill="#263238"/>
        <path id="Path_178" data-name="Path 178" d="M126.07,414.86c1.46,0,2.09.86,2.09,2.27v1.12c0,1.48-.7,2.25-2.17,2.25h-.92v3.67h-1v-9.31Zm-.08,4.71c.77,0,1.14-.36,1.14-1.25v-1.24c0-.85-.31-1.28-1.06-1.28h-1v3.77Z" fill="#263238"/>
        <path id="Path_179" data-name="Path 179" d="M130,420v4.19h-1v-9.31h1v4.19h2.29v-4.19h1v9.31h-1V420Z" fill="#263238"/>
        <path id="Path_180" data-name="Path 180" d="M134.32,417.11c0-1.43.7-2.35,2.12-2.35a2.057,2.057,0,0,1,2.15,2.35v4.81a2,2,0,0,1-2.15,2.34c-1.42,0-2.12-.93-2.12-2.34Zm1,4.87c0,.85.36,1.34,1.1,1.34s1.11-.49,1.11-1.34v-4.93c0-.84-.35-1.34-1.11-1.34s-1.1.5-1.1,1.34Z" fill="#263238"/>
        <path id="Path_181" data-name="Path 181" d="M140.49,424.17h-.93v-9.31h1.32l2.15,6.73v-6.73H144v9.31h-1.08l-2.38-7.53Z" fill="#263238"/>
        <path id="Path_182" data-name="Path 182" d="M148.33,419v.93h-2.28v3.32h2.79v.94H145v-9.31h3.83v.94h-2.79V419Z" fill="#263238"/>
        <path id="Path_183" data-name="Path 183" d="M152.78,424.17h-.93v-9.31h1.32l2.15,6.73v-6.73h.92v9.31h-1.08l-2.38-7.53Z" fill="#263238"/>
        <path id="Path_184" data-name="Path 184" d="M158.29,422c0,.83.33,1.34,1.09,1.34s1.08-.51,1.08-1.34v-7.12h1v7.06c0,1.41-.65,2.36-2.09,2.36s-2.07-.95-2.07-2.36v-7.06h1Z" fill="#263238"/>
        <path id="Path_185" data-name="Path 185" d="M165.89,424.16h-1l-1.54-7.41v7.42h-.91v-9.31h1.45l1.53,7.44,1.48-7.44h1.45v9.31h-1v-7.49Z" fill="#263238"/>
        <path id="Path_186" data-name="Path 186" d="M171.5,414.86c1.45,0,2,.69,2,2.06v.44c0,1-.28,1.6-1.09,1.85a1.812,1.812,0,0,1,1.25,2V422a1.91,1.91,0,0,1-2.13,2.18h-2.15v-9.31Zm-.25,3.95c.83,0,1.25-.27,1.25-1.24V417c0-.83-.28-1.23-1-1.23h-1v3Zm.31,4.42c.76,0,1.1-.4,1.1-1.27v-.82c0-1-.41-1.39-1.3-1.39h-.91v3.48Z" fill="#263238"/>
        <path id="Path_187" data-name="Path 187" d="M177.94,419v.93h-2.27v3.32h2.79v.94h-3.83v-9.31h3.83v.94h-2.79V419Z" fill="#263238"/>
        <path id="Path_188" data-name="Path 188" d="M181.5,414.86c1.46,0,2.07.74,2.07,2.13v.76a1.746,1.746,0,0,1-1.16,1.91c.86.25,1.17.95,1.17,1.94v1.45a2.36,2.36,0,0,0,.19,1.12h-1.05a2.41,2.41,0,0,1-.17-1.13v-1.46c0-1.05-.5-1.39-1.36-1.39h-.73v4h-1v-9.31Zm-.27,4.39c.82,0,1.32-.27,1.32-1.28v-.89c0-.84-.31-1.28-1.08-1.28h-1v3.45Z" fill="#263238"/>
        <path id="Path_189" data-name="Path 189" d="M191.85,417.81v1.29h-1v-1.29Zm0,5.07v1.29h-1v-1.29Z" fill="#263238"/>
      </g>
    </g>
    <g id="freepik--Photo--inject-84">
      <rect id="Rectangle_19" data-name="Rectangle 19" width="54.15" height="69.1" transform="translate(269.76 185.09)" fill="#bfbfbf"/>
      <path id="Path_190" data-name="Path 190" d="M320.32,254.43h-47l1-5.68v-1.17a31.36,31.36,0,0,1,3-13.34,1.1,1.1,0,0,1,0-.12l11.79-3.2a8.83,8.83,0,0,1,.93-2.83,7.6,7.6,0,0,1,2.13-1v-2.15a20.589,20.589,0,0,1-2.09-4.57,1,1,0,0,1-.42-.09,2.48,2.48,0,0,1-.69-.47,8,8,0,0,1-1.4-1.44,3,3,0,0,1-.6-1.89,5.05,5.05,0,0,1,.39-1.91,2.61,2.61,0,0,1,1.05-.81,12.7,12.7,0,0,0,0-2.36c-1.46-13.63,17.9-17.34,18.14.49,0,.67.05,1.52.05,1.52a1.69,1.69,0,0,1,.93,1,17.449,17.449,0,0,1,.3,2.05,3.06,3.06,0,0,1-.6,1.89,8.349,8.349,0,0,1-1.41,1.44,2.479,2.479,0,0,1-.69.47.92.92,0,0,1-.54.07,19.849,19.849,0,0,1-2.5,5.19v2c1.41.41,2.74,1.18,2.82,2.53a5.567,5.567,0,0,0,.08.62c4.4,1.05,11.25,3,11.25,3l.09.47a31.149,31.149,0,0,1,3,13.38l1,6.93Z" fill="#263238"/>
    </g>
    <g id="freepik--Floor--inject-84">
      <line id="Line_22" data-name="Line 22" x1="415.77" transform="translate(50.46 463.17)" fill="none" stroke="#263238" stroke-linecap="round" stroke-linejoin="round" stroke-width="1"/>
    </g>
  </g>
</svg>
