<svg width="200" height="194" viewBox="0 0 200 194" fill="none" xmlns="http://www.w3.org/2000/svg">
<path d="M98.3714 194C151.818 194 195.145 170.438 195.145 141.373C195.145 112.307 151.818 88.745 98.3714 88.745C44.925 88.745 1.59814 112.307 1.59814 141.373C1.59814 170.438 44.925 194 98.3714 194Z" fill="#F5F5F5"/>
<path d="M98.371 138.617C106.424 138.617 112.952 134.847 112.952 130.196C112.952 125.546 106.424 121.775 98.371 121.775C90.3182 121.775 83.79 125.546 83.79 130.196C83.79 134.847 90.3182 138.617 98.371 138.617Z" fill="#E0E0E0"/>
<path d="M152.748 161.121C165.478 161.121 175.798 155.163 175.798 147.814C175.798 140.464 165.478 134.507 152.748 134.507C140.018 134.507 129.699 140.464 129.699 147.814C129.699 155.163 140.018 161.121 152.748 161.121Z" fill="#E0E0E0"/>
<path d="M39.64 162.56C52.37 162.56 62.6898 156.602 62.6898 149.252C62.6898 141.903 52.37 135.945 39.64 135.945C26.91 135.945 16.5903 141.903 16.5903 149.252C16.5903 156.602 26.91 162.56 39.64 162.56Z" fill="#E0E0E0"/>
<path d="M187.175 138.358L182.821 136.577C182.274 132.814 181.959 129.021 181.877 125.219C181.877 118.106 186.308 109.408 191.931 110.863C197.554 112.319 190.346 120.276 189.176 126.423C188.007 132.57 187.175 138.358 187.175 138.358Z" fill="#FFD202"/>
<path opacity="0.3" d="M187.175 138.358L182.821 136.577C182.274 132.814 181.959 129.021 181.877 125.219C181.877 118.106 186.308 109.408 191.931 110.863C197.554 112.319 190.346 120.276 189.176 126.423C188.007 132.57 187.175 138.358 187.175 138.358Z" fill="black"/>
<path d="M185.065 137.807C185.113 137.801 185.156 137.776 185.185 137.738C185.214 137.7 185.227 137.651 185.221 137.604C183.146 122.009 190.159 113.345 190.229 113.272C190.26 113.235 190.274 113.186 190.27 113.138C190.266 113.09 190.242 113.045 190.205 113.014C190.167 112.983 190.119 112.968 190.071 112.973C190.023 112.977 189.978 113.001 189.947 113.038C189.878 113.125 182.76 121.892 184.857 137.651C184.86 137.675 184.868 137.699 184.88 137.719C184.893 137.74 184.909 137.759 184.928 137.773C184.948 137.788 184.97 137.798 184.993 137.804C185.017 137.81 185.041 137.811 185.065 137.807Z" fill="white"/>
<path d="M189.41 139.397L187.135 138.366C186.454 134.862 186.558 131.251 187.439 127.792C188.898 122.187 193.759 118.73 196.206 119.302C199.2 119.999 199.49 122.767 198.615 124.695C197.571 126.978 190.371 133.159 189.41 139.397Z" fill="#FFD202"/>
<path opacity="0.1" d="M189.41 139.397L187.135 138.366C186.454 134.862 186.558 131.251 187.439 127.792C188.898 122.187 193.759 118.73 196.206 119.302C199.2 119.999 199.49 122.767 198.615 124.695C197.571 126.978 190.371 133.159 189.41 139.397Z" fill="black"/>
<path d="M188.227 139.038C188.276 139.032 188.321 139.008 188.351 138.97C188.382 138.932 188.397 138.883 188.392 138.834C187.37 128.94 196.003 121.333 196.094 121.26C196.127 121.224 196.145 121.178 196.145 121.13C196.145 121.082 196.127 121.035 196.094 121C196.077 120.983 196.057 120.969 196.034 120.959C196.012 120.95 195.988 120.945 195.964 120.945C195.94 120.945 195.916 120.95 195.893 120.959C195.871 120.969 195.851 120.983 195.834 121C195.743 121.078 186.971 128.797 188.006 138.89C188.017 138.939 188.046 138.981 188.087 139.009C188.128 139.036 188.178 139.047 188.227 139.038Z" fill="white"/>
<path d="M14.3341 134.372L17.3231 132.666C17.3231 132.666 18.7526 124.777 17.6826 117.994C16.1751 108.464 9.6817 105.167 7.32518 106.116C4.96866 107.064 4.41419 109.889 8.67239 115.399C11.1849 118.648 14.4164 125.522 14.3341 134.372Z" fill="#FFD202"/>
<g opacity="0.15">
<path opacity="0.15" d="M14.3341 134.372L17.3231 132.666C17.3231 132.666 18.7526 124.777 17.6826 117.994C16.1751 108.464 9.6817 105.167 7.32518 106.116C4.96866 107.064 4.41419 109.889 8.67239 115.399C11.1849 118.648 14.4164 125.522 14.3341 134.372Z" fill="black"/>
</g>
<path d="M15.4173 130.586H15.387C15.3595 130.583 15.3331 130.573 15.3093 130.559C15.2854 130.545 15.2646 130.527 15.2481 130.504C15.2315 130.482 15.2196 130.457 15.2129 130.43C15.2063 130.403 15.2051 130.375 15.2094 130.348C16.4396 121.42 12.8528 111.639 8.81556 107.697C8.7905 107.679 8.76965 107.655 8.75443 107.628C8.73921 107.601 8.72997 107.571 8.72734 107.54C8.72471 107.509 8.72875 107.478 8.73919 107.449C8.74962 107.42 8.76621 107.393 8.78783 107.371C8.80945 107.349 8.83559 107.331 8.86449 107.32C8.89339 107.309 8.92437 107.304 8.95534 107.306C8.98631 107.307 9.01655 107.316 9.044 107.33C9.07145 107.345 9.09548 107.365 9.11446 107.389C13.221 111.383 16.8814 121.346 15.6339 130.4C15.6265 130.452 15.6005 130.5 15.5606 130.534C15.5208 130.568 15.4698 130.587 15.4173 130.586Z" fill="white"/>
<path d="M6.0516 139.159C5.57942 139.428 4.60909 138.838 4.23655 138.587C3.59755 138.147 3.08164 137.55 2.73774 136.854C2.35369 136.069 2.2235 135.183 2.3652 134.32C2.44019 133.864 2.54731 133.414 2.68576 132.973L3.06263 131.674C3.21111 131.257 3.27588 130.815 3.25323 130.374C3.1406 129.477 2.34354 128.853 1.62446 128.312C0.823066 127.714 -0.0043149 126.926 1.69364e-05 125.847C0.0559096 125.012 0.389868 124.219 0.94869 123.595C1.45985 122.941 2.07064 122.364 2.53847 121.676C2.90518 121.192 3.09342 120.597 3.07129 119.991C3.02167 119.622 2.89789 119.266 2.70742 118.947C2.26919 118.28 1.88669 117.579 1.56381 116.85C1.29957 116.096 1.33856 115.161 1.92769 114.619C2.18986 114.423 2.48854 114.282 2.80618 114.203C3.12382 114.124 3.45402 114.109 3.77738 114.16C4.39247 114.232 4.98405 114.439 5.51012 114.766C7.22119 115.715 8.19585 117.742 10.0109 118.474C10.7295 118.698 11.4616 118.876 12.2028 119.007C12.5748 119.076 12.9282 119.222 13.2401 119.437C13.552 119.651 13.8155 119.928 14.0135 120.25C14.6806 121.58 13.446 123.218 13.9139 124.63C14.3471 125.878 15.5427 126.363 16.2228 127.485C16.5015 127.981 16.6139 128.553 16.5433 129.118C16.4828 130.073 16.2495 131.009 15.8545 131.881C15.4102 132.748 14.902 133.581 14.3341 134.372C14.3081 134.403 6.12524 139.107 6.0516 139.159Z" fill="#FFD202"/>
<path d="M10.8992 136.577C10.8707 136.576 10.8428 136.569 10.8169 136.557C10.7911 136.545 10.7678 136.529 10.7485 136.508C10.7292 136.487 10.7142 136.462 10.7044 136.435C10.6945 136.409 10.6901 136.38 10.6912 136.352C11.0421 127.905 7.06115 118.591 4.16749 115.862C4.12807 115.823 4.10596 115.769 4.10596 115.713C4.10596 115.657 4.12807 115.603 4.16749 115.563C4.20797 115.524 4.26241 115.502 4.3191 115.502C4.3758 115.502 4.43023 115.524 4.47072 115.563C7.40337 118.314 11.471 127.801 11.1114 136.374C11.1092 136.428 11.0858 136.48 11.0463 136.518C11.0067 136.556 10.954 136.577 10.8992 136.577Z" fill="white"/>
<path d="M9.63378 126.592H9.5688C7.5673 126.042 5.51219 125.709 3.43925 125.6C3.3818 125.6 3.32671 125.577 3.28609 125.537C3.24548 125.496 3.22266 125.441 3.22266 125.384C3.22266 125.326 3.24548 125.271 3.28609 125.231C3.32671 125.19 3.3818 125.167 3.43925 125.167C5.54894 125.277 7.64048 125.615 9.67709 126.176C9.70384 126.184 9.72877 126.197 9.75043 126.215C9.7721 126.233 9.79008 126.254 9.80336 126.279C9.81664 126.303 9.82495 126.33 9.82781 126.358C9.83067 126.386 9.82803 126.414 9.82005 126.441C9.80742 126.481 9.783 126.518 9.74985 126.545C9.71671 126.572 9.67632 126.588 9.63378 126.592Z" fill="white"/>
<path d="M164.142 145.068L160.105 144.604L159.061 136.469L163.995 137.933L164.142 145.068Z" fill="#B16668"/>
<path d="M155.297 151.704C155.239 151.864 155.215 152.035 155.227 152.205C155.239 152.375 155.286 152.541 155.366 152.692C155.799 153.194 156.917 153.783 158.442 153.891C159.902 153.995 161.201 153.801 162.055 153.259C162.426 153.067 162.743 152.786 162.979 152.442C163.215 152.097 163.362 151.699 163.406 151.284C163.488 150.456 163.406 149.655 163.792 149.018C164.177 148.381 164.736 147.762 164.862 147.441C165.012 146.888 165.012 146.305 164.862 145.752L155.297 151.704Z" fill="#263238"/>
<path d="M159.287 144.461C159.274 144.775 159.217 145.086 159.118 145.384C158.894 146.025 158.595 146.638 158.225 147.207C158.044 147.51 157.841 147.8 157.619 148.074C157.186 148.598 156.631 149.031 156.163 149.534C155.667 150.008 155.349 150.638 155.262 151.318C155.202 152.462 157.021 152.852 157.978 153.021C159.011 153.201 160.071 153.148 161.08 152.865C161.61 152.727 162.089 152.439 162.459 152.035C162.829 151.632 163.075 151.13 163.168 150.591C163.224 150.27 163.202 149.945 163.241 149.629C163.368 148.899 163.673 148.211 164.129 147.628C164.395 147.291 164.623 146.926 164.81 146.54C165.108 145.834 164.87 145.037 164.68 144.335C164.515 143.725 164.316 143.036 164.099 143.084C164.099 143.4 164.099 143.443 163.887 143.655C163.675 143.868 163.592 144.335 163.289 144.574C163.386 144.31 163.457 144.037 163.501 143.759C163.52 143.648 163.497 143.534 163.436 143.439C163.336 143.349 163.216 143.284 163.086 143.248C162.635 143.097 162.171 142.992 161.699 142.932C161.056 142.858 160.406 142.858 159.763 142.932C159.629 142.956 159.508 143.026 159.421 143.131C159.343 143.246 159.301 143.382 159.299 143.521C159.278 143.686 159.295 144.158 159.287 144.461Z" fill="#455A64"/>
<path d="M158.069 147.45C158.502 147.129 160.031 147.125 160.551 147.181C161.081 147.227 161.591 147.406 162.033 147.701C162.097 147.747 162.176 147.769 162.256 147.763C162.335 147.757 162.409 147.722 162.466 147.667C162.499 147.634 162.524 147.595 162.54 147.552C162.557 147.508 162.563 147.462 162.56 147.416C162.557 147.37 162.543 147.325 162.521 147.285C162.499 147.244 162.468 147.209 162.431 147.181C161.946 146.823 161.369 146.609 160.768 146.562C160.017 146.507 159.263 146.551 158.524 146.692C158.524 146.692 157.943 147.069 158.069 147.45Z" fill="#F5F5F5"/>
<path d="M157.09 148.637C157.627 148.321 159.256 148.364 159.78 148.42C160.299 148.474 160.796 148.663 161.218 148.971C161.283 149.016 161.362 149.037 161.441 149.031C161.52 149.024 161.594 148.991 161.651 148.936C161.684 148.903 161.709 148.864 161.726 148.821C161.742 148.778 161.749 148.731 161.745 148.685C161.742 148.639 161.729 148.594 161.707 148.554C161.684 148.513 161.654 148.478 161.617 148.451C160.906 148.083 160.131 147.856 159.334 147.784C158.034 147.693 157.718 147.953 157.718 147.953C157.569 148.013 157.435 148.105 157.326 148.224C157.218 148.342 157.137 148.483 157.09 148.637Z" fill="#F5F5F5"/>
<path d="M161.279 145.336C160.546 145.252 159.804 145.298 159.087 145.47C158.862 145.596 158.71 145.956 158.857 146.047C159.512 145.87 160.191 145.803 160.867 145.847C161.347 145.895 161.816 146.024 162.253 146.228C162.366 146.28 162.496 146.345 162.609 146.41C162.645 146.433 162.686 146.448 162.728 146.454C162.771 146.46 162.814 146.457 162.855 146.444C162.896 146.432 162.934 146.411 162.966 146.383C162.998 146.355 163.024 146.32 163.042 146.28C163.073 146.217 163.079 146.144 163.059 146.075C163.039 146.007 162.994 145.949 162.933 145.912C162.429 145.604 161.865 145.408 161.279 145.336Z" fill="#F5F5F5"/>
<path d="M149.089 141.368L145.251 140.298V132.54L150.012 132.748L149.089 141.368Z" fill="#B16668"/>
<path d="M137.142 145.522C137.034 145.857 137.054 146.22 137.199 146.54C137.342 146.835 138.897 147.714 140.994 147.571C142.547 147.46 144.042 146.937 145.325 146.055C146.122 145.527 146.954 145.427 147.994 145.371C149.033 145.314 150.394 144.79 150.623 144.305C150.74 143.871 150.728 143.412 150.589 142.984L137.142 145.522Z" fill="#263238"/>
<path d="M145.589 138.981L145.425 138.947C145.334 138.925 145.239 138.925 145.148 138.947C145.047 138.98 144.957 139.04 144.888 139.12C144.683 139.384 144.505 139.666 144.355 139.965C143.922 140.679 142.99 141.264 141.985 141.814C141.301 142.183 140.63 142.468 139.923 142.785C139.217 143.101 138.243 143.309 137.68 143.69C136.856 144.244 136.748 145.635 137.68 146.185C138.485 146.662 140.617 147.177 142.847 146.545C144.06 146.198 145.412 144.903 147.006 144.777C148.02 144.695 149.939 144.413 150.593 143.642C150.835 143.3 150.51 142.217 150.246 141.282C149.956 140.259 149.683 138.682 149.345 138.756C149.348 138.829 149.333 138.902 149.303 138.968C149.272 139.034 149.225 139.092 149.168 139.137C149.042 139.267 148.873 139.35 148.734 139.466C148.498 139.699 148.307 139.974 148.171 140.277C148.116 140.411 148.015 140.522 147.885 140.588C147.712 140.649 147.586 140.545 147.452 140.476C147.262 140.389 147.046 140.373 146.846 140.432C146.867 140.229 146.903 140.028 146.954 139.83C146.973 139.768 146.973 139.702 146.954 139.64C146.929 139.577 146.883 139.525 146.824 139.492C146.453 139.238 146.032 139.063 145.589 138.981Z" fill="#455A64"/>
<path d="M142.947 141.247C143.019 141.107 143.126 140.987 143.257 140.899C143.388 140.811 143.539 140.758 143.696 140.744C144.155 140.658 144.97 141 145.477 141.416C145.525 141.454 145.563 141.504 145.587 141.561C145.612 141.618 145.622 141.68 145.617 141.742C145.612 141.803 145.592 141.863 145.558 141.915C145.524 141.967 145.479 142.009 145.425 142.04C145.357 142.078 145.278 142.094 145.2 142.086C145.123 142.077 145.049 142.044 144.991 141.992C144.432 141.488 143.699 141.221 142.947 141.247Z" fill="#F5F5F5"/>
<path d="M141.513 142.048C141.613 141.906 141.746 141.79 141.901 141.711C142.055 141.631 142.227 141.589 142.401 141.589C143.113 141.62 143.797 141.877 144.354 142.321C144.4 142.359 144.436 142.408 144.459 142.462C144.481 142.517 144.491 142.577 144.486 142.636C144.481 142.695 144.461 142.752 144.429 142.802C144.397 142.852 144.354 142.894 144.302 142.923C144.235 142.964 144.156 142.981 144.078 142.973C144 142.964 143.926 142.93 143.869 142.876C143.563 142.571 143.192 142.339 142.785 142.195C142.377 142.052 141.942 142.002 141.513 142.048Z" fill="#F5F5F5"/>
<path d="M139.958 142.767C140.072 142.637 140.213 142.532 140.372 142.461C140.53 142.39 140.702 142.354 140.876 142.356C141.562 142.398 142.217 142.656 142.747 143.092C142.793 143.131 142.829 143.179 142.851 143.235C142.874 143.29 142.883 143.349 142.878 143.409C142.873 143.468 142.854 143.526 142.822 143.576C142.79 143.627 142.747 143.669 142.695 143.699C142.628 143.739 142.549 143.757 142.471 143.748C142.392 143.739 142.319 143.705 142.262 143.651C141.972 143.335 141.614 143.091 141.214 142.938C140.814 142.785 140.384 142.726 139.958 142.767Z" fill="#F5F5F5"/>
<path d="M163.259 90.7506C163.523 98.7515 163.54 116.079 163.54 116.079C163.622 117.075 163.709 118.843 163.783 122.429C163.891 127.628 164.142 140.463 164.142 140.463C164.142 140.463 161.66 141.628 159.377 140.679C159.377 140.679 156.206 122.633 155.556 117.487C154.989 112.995 153.902 102.46 153.902 102.46L152.403 115.832C152.403 115.832 152.403 119.297 152.199 122.356C152.03 124.738 149.717 137.01 149.717 137.01C148.206 137.412 146.611 137.359 145.13 136.859C145.13 136.859 144.922 118.02 144.879 115.832C144.831 113.345 145.472 86.4621 145.472 86.4621L163.259 90.7506Z" fill="#455A64"/>
<path d="M153.911 102.46L153.339 97.9241C151.492 97.4521 149.746 96.6509 148.184 95.559C148.184 95.559 149.284 97.0318 152.516 98.5912L153.244 102.706L152.421 115.832L153.911 102.46Z" fill="#37474F"/>
<path d="M145.269 68.2987C144.099 69.8322 138.082 78.0887 138.082 78.0887L132.524 73.7828C131.225 72.7648 130.839 71.4306 130.025 70.5079C129.21 69.5853 128.318 69.3643 127.404 68.5933C126.49 67.8222 126.139 67.2374 125.827 67.8958C125.515 68.5543 126.525 69.7022 126.694 69.9795C126.863 70.2567 127.907 70.9195 126.529 70.8458C125.151 70.7722 122.5 69.1997 121.859 68.9095C121.218 68.6193 121.201 69.412 121.504 69.9318C121.807 70.4516 121.656 71.8985 122.011 72.8298C122.366 73.7612 122.99 74.333 124.259 74.9611C125.442 75.5502 128.318 75.9184 129.254 76.5075C131.307 78.6128 135.18 82.5418 136.159 83.2695C137.506 84.2702 138.81 85.1929 140.872 83.2089C142.934 81.2249 148.907 73.4406 148.907 73.4406L150.142 66.0375C148.115 65.9638 146.681 66.449 145.269 68.2987Z" fill="#B16668"/>
<path d="M138.082 78.0887C138.844 78.6518 139.637 79.9167 139.711 80.4842C139.702 79.9465 139.582 79.4165 139.358 78.9274C139.135 78.4384 138.812 78.0009 138.411 77.6425L138.082 78.0887Z" fill="#9A4A4D"/>
<path d="M150.619 65.8555C150.619 65.8555 147.76 65.8209 146.503 66.7002C145.247 67.5796 144.316 68.8662 142.276 71.8335C140.486 74.4326 139.62 75.6801 139.62 75.6801C140.791 77.4125 142.496 78.7146 144.476 79.3882L149.813 72.7778L150.619 65.8555Z" fill="#37474F"/>
<path d="M156.15 65.7169C157.77 65.8729 160.049 65.8902 161.651 66.0548C162.765 66.514 164.913 68.3853 164.753 69.7196C164.155 74.7055 162.947 82.8797 162.947 82.8797L163.345 91.5433C161.114 93.7699 150.675 94.6406 145.294 91.0798C145.294 91.0798 145.468 75.5199 145.84 72.8861C146.503 68.1688 147.083 66.4187 149.518 66.0028C151.952 65.587 156.15 65.7169 156.15 65.7169Z" fill="#FFD202"/>
<path d="M165.325 68.4243C166.495 69.9578 172.516 78.2143 172.516 78.2143L178.078 73.9084C179.378 72.8861 179.763 71.5519 180.578 70.6336C181.392 69.7152 182.284 69.4899 183.198 68.7189C184.112 67.9478 184.463 67.363 184.775 68.0171C185.087 68.6712 184.078 69.8278 183.909 70.1051C183.74 70.3823 182.696 71.0451 184.073 70.9714C185.451 70.8978 188.098 69.321 188.743 69.0308C189.388 68.7405 189.397 69.5333 189.098 70.0531C188.799 70.5729 188.942 72.0241 188.591 72.9554C188.241 73.8868 187.612 74.4542 186.343 75.0867C185.161 75.6758 182.284 76.044 181.349 76.6332C179.295 78.7341 175.423 82.6674 174.444 83.3908C173.096 84.3915 171.793 85.3142 169.731 83.3345C167.669 81.3549 162.956 75.1906 162.956 75.1906L160.46 66.1631C162.483 66.0895 163.917 66.5746 165.325 68.4243Z" fill="#B16668"/>
<path d="M172.515 78.2143C171.753 78.7774 170.96 80.0423 170.887 80.6098C170.895 80.0714 171.015 79.5405 171.238 79.0507C171.462 78.5609 171.785 78.1227 172.186 77.7638L172.515 78.2143Z" fill="#9A4A4D"/>
<path d="M160.175 65.9465C160.175 65.9465 162.743 65.7862 164.095 66.8129C165.312 67.7486 166.261 68.9788 168.323 71.9461C170.112 74.5452 170.978 75.7928 170.978 75.7928C169.805 77.5246 168.098 78.8264 166.118 79.5008L162.483 75.0217C160.59 72.6219 158.715 68.9701 160.175 65.9465Z" fill="#37474F"/>
<path d="M156.553 53.9863C156.562 54.9801 156.275 55.9541 155.73 56.7851C155.185 57.6162 154.406 58.267 153.491 58.6552C152.576 59.0434 151.567 59.1516 150.591 58.9661C149.614 58.7806 148.715 58.3098 148.006 57.6131C147.297 56.9165 146.811 56.0253 146.609 55.0523C146.406 54.0792 146.497 53.0681 146.869 52.1467C147.242 51.2252 147.879 50.4349 148.701 49.8757C149.522 49.3164 150.491 49.0133 151.485 49.0047C152.145 48.999 152.799 49.1233 153.411 49.3706C154.023 49.6178 154.58 49.9832 155.051 50.4458C155.521 50.9084 155.896 51.4591 156.154 52.0666C156.412 52.6741 156.547 53.3264 156.553 53.9863Z" fill="#263238"/>
<path d="M160.248 57.5298C160.248 57.5298 159.464 61.3634 159.143 61.9915C158.93 62.3816 158.575 62.6747 158.151 62.8103L158.182 60.1159L160.248 57.5298Z" fill="#263238"/>
<path d="M159.178 52.0586C159.462 52.0222 159.751 52.0512 160.022 52.1436C160.293 52.236 160.539 52.3892 160.742 52.5915C161.418 53.2716 161.063 55.4201 160.248 57.5297L158.715 57.7204L159.178 52.0586Z" fill="#263238"/>
<path d="M158.255 57.7247C158.563 57.9066 158.996 57.2915 159.373 56.9103C159.75 56.5291 160.98 55.9573 161.613 57.2525C162.245 58.5477 161.093 60.3368 160.122 60.6487C158.446 61.1945 158.182 60.1159 158.182 60.1159L158.112 66.3624C156.05 69.0611 150.25 68.8835 152.641 66.0678V64.2225C151.894 64.3477 151.136 64.3927 150.38 64.3567C149.141 64.1791 148.357 63.2088 147.967 61.8746C147.348 59.7347 147.101 58.0019 147.577 53.7697C148.097 49.1347 153.482 49.0394 156.406 50.8457C159.33 52.6521 158.255 57.7247 158.255 57.7247Z" fill="#B16668"/>
<path d="M158.26 58.2402C158.411 58.2402 158.992 57.2612 159.373 56.9103C159.897 56.4208 159.178 52.0586 159.178 52.0586C159.358 51.6716 159.417 51.2392 159.347 50.818C159.278 50.3969 159.083 50.0065 158.788 49.6978C158.056 48.9051 157.034 47.9391 153.742 48.3549C151.389 48.6538 148.838 49.4119 146.763 48.4156C146.578 49.0911 146.599 49.8063 146.823 50.4699C147.047 51.1334 147.463 51.7153 148.019 52.1409C148.019 52.1409 148.773 52.6174 150.744 52.8384C152.561 52.9579 154.386 52.9072 156.193 52.6868C156.765 52.6045 156.891 53.1546 157.211 54.6664C157.493 55.9876 157.74 58.2358 158.26 58.2402Z" fill="#263238"/>
<path d="M159.178 52.3965L161.028 51.3829C160.968 51.2577 160.883 51.1461 160.778 51.0548C160.674 50.9635 160.551 50.8945 160.419 50.852C160.287 50.8094 160.148 50.7942 160.01 50.8073C159.871 50.8203 159.737 50.8614 159.615 50.928C159.368 51.0695 159.184 51.3011 159.102 51.5746C159.021 51.8481 159.048 52.1425 159.178 52.3965Z" fill="#263238"/>
<path d="M152.628 64.2224C152.628 64.2224 155.383 63.642 156.341 63.1222C156.905 62.8221 157.366 62.3586 157.662 61.7923C157.522 62.3565 157.27 62.8869 156.921 63.3517C156.224 64.2614 152.637 64.9545 152.637 64.9545L152.628 64.2224Z" fill="#9A4A4D"/>
<path d="M152.408 57.2828C152.407 57.3566 152.42 57.4298 152.447 57.4983C152.475 57.5668 152.515 57.6293 152.567 57.682C152.618 57.7348 152.68 57.7768 152.748 57.8057C152.816 57.8346 152.889 57.8497 152.962 57.8503C153.077 57.8546 153.191 57.8243 153.289 57.7633C153.387 57.7023 153.464 57.6134 153.511 57.508C153.557 57.4027 153.571 57.2858 153.551 57.1724C153.53 57.059 153.476 56.9543 153.396 56.8719C153.315 56.7895 153.212 56.7331 153.099 56.7101C152.986 56.687 152.869 56.6983 152.763 56.7426C152.656 56.7868 152.566 56.8619 152.502 56.9582C152.439 57.0546 152.406 57.1676 152.408 57.2828Z" fill="#263238"/>
<path d="M154.049 55.3812L152.819 54.8224C152.747 54.9906 152.743 55.18 152.808 55.351C152.873 55.5221 153 55.6616 153.165 55.7407C153.247 55.7768 153.335 55.7961 153.424 55.7974C153.513 55.7988 153.601 55.7822 153.684 55.7486C153.766 55.7151 153.841 55.6652 153.904 55.6021C153.966 55.539 154.016 55.4638 154.049 55.3812Z" fill="#263238"/>
<path d="M148.786 54.701L147.716 55.5414C147.767 55.6143 147.832 55.676 147.907 55.7226C147.983 55.7692 148.067 55.7998 148.155 55.8124C148.243 55.825 148.332 55.8193 148.418 55.7958C148.503 55.7723 148.583 55.7314 148.652 55.6757C148.794 55.5607 148.887 55.396 148.912 55.2149C148.937 55.0339 148.892 54.8502 148.786 54.701Z" fill="#263238"/>
<path d="M148.14 57.1485C148.146 57.252 148.181 57.3517 148.242 57.4352C148.303 57.5187 148.388 57.5823 148.485 57.6182C148.582 57.6542 148.688 57.6607 148.789 57.6371C148.889 57.6136 148.981 57.5609 149.052 57.4856C149.123 57.4103 149.171 57.3158 149.189 57.2138C149.207 57.1118 149.194 57.0067 149.153 56.9118C149.112 56.8168 149.043 56.736 148.956 56.6796C148.87 56.6231 148.768 56.5933 148.665 56.5941C148.594 56.5957 148.524 56.6115 148.459 56.6403C148.394 56.6691 148.336 56.7105 148.287 56.7621C148.238 56.8136 148.2 56.8743 148.175 56.9406C148.15 57.007 148.138 57.0776 148.14 57.1485Z" fill="#263238"/>
<path d="M151.008 56.7024L150.696 60.0162L148.985 59.3578L151.008 56.7024Z" fill="#9A4A4D"/>
<path d="M151.948 61.2595C151.947 61.365 151.978 61.4685 152.036 61.5567C152.094 61.6448 152.177 61.7138 152.274 61.7548C152.371 61.7958 152.479 61.807 152.582 61.7869C152.686 61.7668 152.781 61.7164 152.856 61.6421C152.931 61.5678 152.982 61.4728 153.003 61.3693C153.024 61.2659 153.014 61.1585 152.974 61.0609C152.934 60.9633 152.865 60.8798 152.778 60.8211C152.69 60.7623 152.587 60.731 152.481 60.731C152.341 60.731 152.206 60.7865 152.106 60.8855C152.006 60.9845 151.949 61.1189 151.948 61.2595Z" fill="#9A4A4D"/>
<path d="M165.472 25.968C166.298 26.1519 167.094 26.4509 167.837 26.856C168.548 27.2385 169.185 27.7446 169.717 28.3505C170.23 28.9376 170.609 29.6294 170.826 30.3778C171.054 31.1711 171.072 32.01 170.878 32.8123C170.75 33.4492 170.497 34.0543 170.133 34.5927C169.807 35.0559 169.414 35.4689 168.968 35.8186C168.531 36.1574 168.066 36.4574 167.577 36.7153L166.2 37.443C165.784 37.66 165.39 37.9153 165.022 38.2054C164.689 38.4578 164.434 38.7985 164.285 39.1888C164.211 39.3628 164.089 39.5127 163.934 39.6219C163.86 39.6787 163.774 39.7179 163.683 39.7366C163.591 39.7554 163.496 39.7532 163.406 39.7302L161.379 39.2971C161.281 39.2765 161.189 39.2369 161.107 39.1803C161.025 39.1238 160.956 39.0516 160.902 38.9678C160.845 38.8894 160.808 38.7987 160.793 38.7031C160.778 38.6075 160.786 38.5097 160.815 38.4177C160.984 37.7875 161.279 37.1981 161.682 36.685C162.045 36.2321 162.464 35.8274 162.929 35.4807C163.379 35.1518 163.856 34.862 164.355 34.6143C164.848 34.3674 165.308 34.1292 165.732 33.8953C166.12 33.6902 166.485 33.4432 166.819 33.1588C167.111 32.9132 167.314 32.5782 167.396 32.2058C167.47 31.8806 167.465 31.5421 167.381 31.2192C167.296 30.8963 167.135 30.5987 166.91 30.3518C166.35 29.7397 165.602 29.3326 164.783 29.1952C163.27 28.8573 161.991 29.367 160.945 30.7243C160.845 30.873 160.717 31.0009 160.569 31.1012C160.488 31.1422 160.4 31.1667 160.31 31.1734C160.22 31.1801 160.13 31.1688 160.044 31.1402L157.878 30.6594C157.802 30.6447 157.729 30.6149 157.665 30.5717C157.6 30.5286 157.545 30.473 157.502 30.4081C157.454 30.3418 157.423 30.2658 157.408 30.1856C157.394 30.1055 157.398 30.0232 157.419 29.9446C157.601 29.2789 157.943 28.6677 158.416 28.1642C158.946 27.5792 159.575 27.0923 160.274 26.7261C161.04 26.3237 161.867 26.0487 162.721 25.9117C163.633 25.7512 164.568 25.7704 165.472 25.968ZM163.185 41.3633C163.28 41.3836 163.37 41.4234 163.449 41.48C163.528 41.5367 163.594 41.609 163.644 41.6926C163.697 41.7734 163.734 41.8643 163.751 41.9596C163.768 42.0549 163.766 42.1527 163.744 42.247L163.224 44.5949C163.18 44.7823 163.066 44.9454 162.904 45.0497C162.742 45.154 162.546 45.1913 162.358 45.1537L160.062 44.6469C159.967 44.6266 159.878 44.5873 159.799 44.5315C159.72 44.4757 159.653 44.4044 159.603 44.322C159.549 44.2415 159.512 44.1506 159.495 44.0552C159.478 43.9598 159.48 43.8618 159.503 43.7675L160.023 41.4153C160.066 41.2279 160.181 41.0648 160.343 40.9605C160.504 40.8562 160.7 40.8189 160.889 40.8565L163.185 41.3633Z" fill="#FFD202"/>
<path d="M172.281 48.056C172.854 47.9616 173.438 47.9499 174.014 48.0214C174.568 48.0843 175.107 48.2457 175.604 48.4979C176.079 48.7409 176.495 49.0837 176.825 49.5029C177.175 49.9521 177.401 50.4854 177.48 51.0493C177.569 51.4881 177.569 51.9405 177.48 52.3792C177.389 52.761 177.243 53.1273 177.046 53.4665C176.853 53.7935 176.633 54.1036 176.388 54.3935L175.691 55.2166C175.481 55.4628 175.292 55.7265 175.127 56.005C174.981 56.2525 174.906 56.536 174.911 56.8237C174.91 56.9588 174.871 57.091 174.798 57.2049C174.765 57.2594 174.72 57.3059 174.667 57.341C174.614 57.3762 174.554 57.3993 174.491 57.4085L173.074 57.6424C172.937 57.6639 172.797 57.6313 172.684 57.5514C172.629 57.5151 172.582 57.4666 172.548 57.4095C172.515 57.3524 172.494 57.2883 172.489 57.2222C172.43 56.7782 172.464 56.3268 172.589 55.8967C172.701 55.5107 172.866 55.142 173.078 54.8007C173.281 54.474 173.512 54.1653 173.767 53.878C174.023 53.5921 174.252 53.3236 174.469 53.0636C174.664 52.8327 174.834 52.5814 174.976 52.3142C175.1 52.0823 175.144 51.8158 175.101 51.5562C175.066 51.328 174.976 51.1117 174.839 50.9261C174.701 50.7405 174.521 50.591 174.313 50.4905C173.8 50.2398 173.217 50.1696 172.658 50.2913C172.153 50.3657 171.683 50.5941 171.313 50.9452C170.942 51.2964 170.689 51.7533 170.588 52.2536C170.56 52.3758 170.51 52.4918 170.44 52.5958C170.356 52.6879 170.24 52.7438 170.115 52.7517L168.608 52.9987C168.501 53.0163 168.391 52.9931 168.3 52.9337C168.253 52.903 168.213 52.8623 168.183 52.8143C168.153 52.7664 168.134 52.7125 168.127 52.6564C168.075 52.1833 168.139 51.7045 168.313 51.2616C168.501 50.7495 168.78 50.2756 169.136 49.8624C169.525 49.409 169.984 49.0213 170.497 48.7145C171.043 48.3812 171.649 48.1576 172.281 48.056ZM174.755 58.5348C174.821 58.5236 174.889 58.5259 174.955 58.5415C175.02 58.5572 175.082 58.5858 175.136 58.6257C175.19 58.6642 175.236 58.7132 175.271 58.7697C175.306 58.8263 175.329 58.8893 175.34 58.9549L175.608 60.5924C175.619 60.6588 175.617 60.7267 175.601 60.7922C175.586 60.8577 175.557 60.9194 175.517 60.9736C175.479 61.0283 175.43 61.0746 175.374 61.1096C175.317 61.1447 175.254 61.1677 175.188 61.1772L173.585 61.4414C173.52 61.4522 173.452 61.4497 173.388 61.4341C173.323 61.4185 173.262 61.39 173.208 61.3504C173.153 61.3129 173.106 61.2643 173.07 61.2076C173.034 61.151 173.01 61.0875 173 61.0212L172.732 59.3795C172.712 59.2445 172.746 59.1072 172.828 58.9976C172.909 58.8879 173.03 58.815 173.165 58.7947L174.755 58.5348Z" fill="#FFD202"/>
<g opacity="0.2">
<path opacity="0.2" d="M172.281 48.056C172.854 47.9616 173.438 47.9499 174.014 48.0214C174.568 48.0843 175.107 48.2457 175.604 48.4979C176.079 48.7409 176.495 49.0837 176.825 49.5029C177.175 49.9521 177.401 50.4854 177.48 51.0493C177.569 51.4881 177.569 51.9405 177.48 52.3792C177.389 52.761 177.243 53.1273 177.046 53.4665C176.853 53.7935 176.633 54.1036 176.388 54.3935L175.691 55.2166C175.481 55.4628 175.292 55.7265 175.127 56.005C174.981 56.2525 174.906 56.536 174.911 56.8237C174.91 56.9588 174.871 57.091 174.798 57.2049C174.765 57.2594 174.72 57.3059 174.667 57.341C174.614 57.3762 174.554 57.3993 174.491 57.4085L173.074 57.6424C172.937 57.6639 172.797 57.6313 172.684 57.5514C172.629 57.5151 172.582 57.4666 172.548 57.4095C172.515 57.3524 172.494 57.2883 172.489 57.2222C172.43 56.7782 172.464 56.3268 172.589 55.8967C172.701 55.5107 172.866 55.142 173.078 54.8007C173.281 54.474 173.512 54.1653 173.767 53.878C174.023 53.5921 174.252 53.3236 174.469 53.0636C174.664 52.8327 174.834 52.5814 174.976 52.3142C175.1 52.0823 175.144 51.8158 175.101 51.5562C175.066 51.328 174.976 51.1117 174.839 50.9261C174.701 50.7405 174.521 50.591 174.313 50.4905C173.8 50.2398 173.217 50.1696 172.658 50.2913C172.153 50.3657 171.683 50.5941 171.313 50.9452C170.942 51.2964 170.689 51.7533 170.588 52.2536C170.56 52.3758 170.51 52.4918 170.44 52.5958C170.356 52.6879 170.24 52.7438 170.115 52.7517L168.608 52.9987C168.501 53.0163 168.391 52.9931 168.3 52.9337C168.253 52.903 168.213 52.8623 168.183 52.8143C168.153 52.7664 168.134 52.7125 168.127 52.6564C168.075 52.1833 168.139 51.7045 168.313 51.2616C168.501 50.7495 168.78 50.2756 169.136 49.8624C169.525 49.409 169.984 49.0213 170.497 48.7145C171.043 48.3812 171.649 48.1576 172.281 48.056ZM174.755 58.5348C174.821 58.5236 174.889 58.5259 174.955 58.5415C175.02 58.5572 175.082 58.5858 175.136 58.6257C175.19 58.6642 175.236 58.7132 175.271 58.7697C175.306 58.8263 175.329 58.8893 175.34 58.9549L175.608 60.5924C175.619 60.6588 175.617 60.7267 175.601 60.7922C175.586 60.8577 175.557 60.9194 175.517 60.9736C175.479 61.0283 175.43 61.0746 175.374 61.1096C175.317 61.1447 175.254 61.1677 175.188 61.1772L173.585 61.4414C173.52 61.4522 173.452 61.4497 173.388 61.4341C173.323 61.4185 173.262 61.39 173.208 61.3504C173.153 61.3129 173.106 61.2643 173.07 61.2076C173.034 61.151 173.01 61.0875 173 61.0212L172.732 59.3795C172.712 59.2445 172.746 59.1072 172.828 58.9976C172.909 58.8879 173.03 58.815 173.165 58.7947L174.755 58.5348Z" fill="black"/>
</g>
<path d="M187.053 52.7041C187.182 52.7979 187.269 52.9382 187.295 53.0952C187.322 53.2522 187.286 53.4134 187.196 53.5445L186.052 55.1472C185.959 55.2759 185.818 55.3629 185.661 55.3896C185.504 55.4163 185.343 55.3806 185.212 55.2902L183.644 54.1769C183.579 54.1317 183.524 54.0738 183.483 54.0068C183.441 53.9398 183.413 53.865 183.401 53.787C183.378 53.6352 183.414 53.4804 183.501 53.3539L184.645 51.7467C184.737 51.6176 184.877 51.5304 185.034 51.5042C185.187 51.4813 185.342 51.5185 185.468 51.6081L187.053 52.7041ZM193.672 41.8355C194.237 42.2344 194.742 42.713 195.171 43.2563C195.585 43.7734 195.903 44.3602 196.111 44.9891C196.309 45.5901 196.376 46.227 196.306 46.8561C196.225 47.526 195.971 48.1634 195.569 48.7058C195.27 49.1444 194.887 49.5198 194.443 49.8104C194.048 50.0557 193.619 50.2411 193.17 50.3606C192.734 50.4768 192.289 50.5551 191.84 50.5945L190.566 50.7028C190.186 50.7377 189.809 50.8043 189.44 50.902C189.109 50.9893 188.81 51.1662 188.573 51.4132C188.46 51.5237 188.32 51.6028 188.166 51.6428C188.092 51.6604 188.014 51.6614 187.94 51.6457C187.865 51.63 187.794 51.5979 187.733 51.5518L186.347 50.5685C186.215 50.4733 186.125 50.3304 186.096 50.17C186.079 50.0943 186.08 50.0158 186.099 49.9407C186.118 49.8655 186.154 49.7957 186.204 49.7368C186.526 49.3141 186.932 48.9617 187.395 48.7015C187.812 48.4728 188.258 48.3009 188.721 48.1903C189.165 48.083 189.617 48.0135 190.072 47.9824C190.505 47.9564 190.939 47.9217 191.337 47.8828C191.695 47.8519 192.048 47.7807 192.39 47.6705C192.688 47.5798 192.947 47.3923 193.126 47.1377C193.287 46.9171 193.392 46.6605 193.431 46.3902C193.47 46.1199 193.443 45.8442 193.351 45.5869C193.126 44.9485 192.693 44.4041 192.121 44.0404C191.09 43.304 189.964 43.2794 188.742 43.9668C188.619 44.0455 188.483 44.1012 188.34 44.1314C188.265 44.1367 188.191 44.1271 188.12 44.1033C188.049 44.0795 187.984 44.0419 187.928 43.9928L186.455 42.9445C186.348 42.8715 186.273 42.7596 186.247 42.6326C186.235 42.5676 186.236 42.5006 186.252 42.4363C186.268 42.372 186.297 42.3119 186.338 42.26C186.681 41.8169 187.127 41.4645 187.638 41.2334C188.224 40.9624 188.853 40.7967 189.496 40.7439C190.201 40.6864 190.91 40.742 191.597 40.9085C192.343 41.0769 193.049 41.392 193.672 41.8355Z" fill="#FFD202"/>
<g opacity="0.6">
<path opacity="0.6" d="M187.053 52.7041C187.182 52.7979 187.269 52.9382 187.295 53.0952C187.322 53.2522 187.286 53.4134 187.196 53.5445L186.052 55.1472C185.959 55.2759 185.818 55.3629 185.661 55.3896C185.504 55.4163 185.343 55.3806 185.212 55.2902L183.644 54.1769C183.579 54.1317 183.524 54.0738 183.483 54.0068C183.441 53.9398 183.413 53.865 183.401 53.787C183.378 53.6352 183.414 53.4804 183.501 53.3539L184.645 51.7467C184.737 51.6176 184.877 51.5304 185.034 51.5042C185.187 51.4813 185.342 51.5185 185.468 51.6081L187.053 52.7041ZM193.672 41.8355C194.237 42.2344 194.742 42.713 195.171 43.2563C195.585 43.7734 195.903 44.3602 196.111 44.9891C196.309 45.5901 196.376 46.227 196.306 46.8561C196.225 47.526 195.971 48.1634 195.569 48.7058C195.27 49.1444 194.887 49.5198 194.443 49.8104C194.048 50.0557 193.619 50.2411 193.17 50.3606C192.734 50.4768 192.289 50.5551 191.84 50.5945L190.566 50.7028C190.186 50.7377 189.809 50.8043 189.44 50.902C189.109 50.9893 188.81 51.1662 188.573 51.4132C188.46 51.5237 188.32 51.6028 188.166 51.6428C188.092 51.6604 188.014 51.6614 187.94 51.6457C187.865 51.63 187.794 51.5979 187.733 51.5518L186.347 50.5685C186.215 50.4733 186.125 50.3304 186.096 50.17C186.079 50.0943 186.08 50.0158 186.099 49.9407C186.118 49.8655 186.154 49.7957 186.204 49.7368C186.526 49.3141 186.932 48.9617 187.395 48.7015C187.812 48.4728 188.258 48.3009 188.721 48.1903C189.165 48.083 189.617 48.0135 190.072 47.9824C190.505 47.9564 190.939 47.9217 191.337 47.8828C191.695 47.8519 192.048 47.7807 192.39 47.6705C192.688 47.5798 192.947 47.3923 193.126 47.1377C193.287 46.9171 193.392 46.6605 193.431 46.3902C193.47 46.1199 193.443 45.8442 193.351 45.5869C193.126 44.9485 192.693 44.4041 192.121 44.0404C191.09 43.304 189.964 43.2794 188.742 43.9668C188.619 44.0455 188.483 44.1012 188.34 44.1314C188.265 44.1367 188.191 44.1271 188.12 44.1033C188.049 44.0795 187.984 44.0419 187.928 43.9928L186.455 42.9445C186.348 42.8715 186.273 42.7596 186.247 42.6326C186.235 42.5676 186.236 42.5006 186.252 42.4363C186.268 42.372 186.297 42.3119 186.338 42.26C186.681 41.8169 187.127 41.4645 187.638 41.2334C188.224 40.9624 188.853 40.7967 189.496 40.7439C190.201 40.6864 190.91 40.742 191.597 40.9085C192.343 41.0769 193.049 41.392 193.672 41.8355Z" fill="white"/>
</g>
<path d="M47.4639 138.466C47.4206 137.166 48.3563 124.465 48.3563 124.465L42.1704 128.953C43.4396 136.525 43.7125 138.314 43.7342 139.553C43.708 139.656 43.6964 139.763 43.6995 139.869C43.6995 141.342 45.3673 142.135 46.6625 143.118C47.7634 143.979 48.9358 144.744 50.167 145.405C51.107 145.878 53.0217 145.921 53.2556 145.314C51.6788 144.11 49.3873 142.308 48.131 140.935C47.5332 140.277 47.5116 139.757 47.4639 138.466Z" fill="#FFA8A7"/>
<path d="M55.9456 146.904C56.0157 147.106 56.0281 147.324 55.9814 147.533C55.9348 147.742 55.8308 147.934 55.6813 148.087C54.5452 148.906 53.1312 149.242 51.748 149.023C49.7813 148.767 48.7157 148.208 47.9317 147.55C47.1476 146.891 46.043 145.964 45.1506 145.769C44.4412 145.634 43.7664 145.357 43.1666 144.955C42.9024 144.699 42.937 143.564 42.937 143.564L55.9456 146.904Z" fill="#263238"/>
<path d="M43.7215 139.194C43.6487 139.196 43.5789 139.223 43.5243 139.272C43.4697 139.32 43.4337 139.386 43.4226 139.458C43.362 139.77 43.297 140.679 43.1671 141.191C42.966 142.094 42.9017 143.023 42.9765 143.946C43.0848 144.53 44.4276 144.933 45.2897 145.245C46.3034 145.686 47.2441 146.279 48.0794 147.004C49.2848 147.905 50.7236 148.442 52.2249 148.55C53.7411 148.55 55.4478 148.048 55.842 147.346C56.3229 146.48 55.946 145.973 53.6978 144.929C53.2646 144.734 51.7787 143.846 51.2676 143.525C49.8901 142.659 48.5255 141.45 47.8888 139.917C47.8374 139.729 47.7245 139.565 47.5682 139.449C47.4318 139.39 47.2804 139.375 47.135 139.406C46.7595 139.461 46.3945 139.572 46.0521 139.735C45.7532 139.878 45.3243 140.047 45.3286 140.432C45.3379 140.566 45.3671 140.697 45.4153 140.822C45.4413 140.905 45.4629 141.009 45.4153 141.056C45.3676 141.104 45.2637 141.056 45.203 140.996C44.9826 140.77 44.7812 140.527 44.6009 140.268C44.4944 140.135 44.3738 140.015 44.2414 139.908C44.1088 139.833 43.9815 139.749 43.8602 139.657C43.6955 139.54 43.7302 139.376 43.7215 139.194Z" fill="#455A64"/>
<path d="M48.0794 147.026C47.6852 146.705 47.2694 146.389 46.8535 146.112C46.8535 146.112 49.4959 147.719 50.5616 146.978C50.7593 146.852 50.904 146.659 50.9679 146.433C51.0318 146.208 51.0105 145.967 50.9081 145.756C50.9081 145.574 52.5889 144.79 53.256 144.712C53.4422 144.816 53.5982 144.899 53.6892 144.942C55.9374 145.986 56.3142 146.488 55.8334 147.359C55.4392 148.061 54.2046 148.611 52.2467 148.611C50.9731 148.637 48.9891 147.771 48.0794 147.026Z" fill="#37474F"/>
<path d="M50.7216 145.232C52.1208 145.791 51.523 146.051 51.1331 146.099C50.7433 146.146 48.3911 144.799 46.9529 143.647C45.5147 142.494 44.5141 141.165 43.9596 140.731C43.7517 140.571 43.5264 140.372 43.3271 140.186C43.3661 139.878 43.3965 139.596 43.4224 139.449C43.4336 139.377 43.4695 139.311 43.5241 139.263C43.5787 139.215 43.6485 139.187 43.7213 139.185C43.7213 139.367 43.6954 139.536 43.834 139.67C43.9553 139.762 44.0826 139.846 44.2152 139.921C44.3477 140.028 44.4682 140.148 44.5747 140.281C44.755 140.54 44.9564 140.783 45.1768 141.009C46.7356 142.761 48.6184 144.195 50.7216 145.232Z" fill="#263238"/>
<path d="M51.0334 145.904C51.0014 145.902 50.9708 145.89 50.9468 145.869C50.9327 145.858 50.9209 145.844 50.9122 145.829C50.9034 145.813 50.8979 145.796 50.8959 145.778C50.8939 145.76 50.8954 145.742 50.9004 145.725C50.9054 145.708 50.9138 145.692 50.9251 145.678C51.2546 145.336 51.6536 145.069 52.0952 144.894C52.5368 144.719 53.0108 144.641 53.4852 144.665C53.5224 144.669 53.5564 144.688 53.5799 144.717C53.6034 144.746 53.6145 144.783 53.6108 144.821C53.6065 144.857 53.5882 144.89 53.5598 144.912C53.5315 144.935 53.4953 144.946 53.4592 144.942C53.0309 144.924 52.6036 144.996 52.2046 145.153C51.8056 145.309 51.4436 145.547 51.1417 145.852C51.1285 145.868 51.112 145.881 51.0933 145.89C51.0746 145.899 51.0541 145.903 51.0334 145.904Z" fill="#F5F5F5"/>
<path d="M49.8164 145.172C49.7833 145.173 49.7509 145.162 49.7254 145.141C49.7007 145.115 49.687 145.08 49.687 145.044C49.687 145.008 49.7007 144.973 49.7254 144.946C50.0556 144.605 50.4548 144.339 50.8964 144.165C51.3379 143.991 51.8115 143.913 52.2855 143.937C52.3223 143.941 52.3559 143.959 52.3791 143.988C52.4022 144.017 52.413 144.054 52.409 144.091C52.4049 144.127 52.3865 144.161 52.3576 144.184C52.3288 144.207 52.2919 144.218 52.2552 144.214C51.8268 144.195 51.3991 144.267 51 144.423C50.6008 144.58 50.2389 144.819 49.9377 145.124C49.9229 145.141 49.9041 145.155 49.883 145.163C49.8618 145.171 49.8389 145.174 49.8164 145.172Z" fill="#F5F5F5"/>
<path d="M48.5945 144.439C48.5629 144.44 48.5322 144.429 48.5078 144.409C48.4822 144.383 48.4678 144.348 48.4678 144.312C48.4678 144.275 48.4822 144.24 48.5078 144.214C48.8382 143.874 49.2375 143.607 49.6789 143.433C50.1204 143.259 50.594 143.181 51.0679 143.205C51.0862 143.206 51.1039 143.212 51.1201 143.22C51.1363 143.229 51.1507 143.24 51.1623 143.254C51.174 143.269 51.1828 143.285 51.1882 143.302C51.1935 143.32 51.1953 143.338 51.1936 143.356C51.1919 143.375 51.1867 143.392 51.1782 143.409C51.1697 143.425 51.158 143.439 51.1439 143.451C51.1298 143.463 51.1136 143.471 51.0961 143.477C51.0786 143.482 51.0602 143.484 51.042 143.482C50.6135 143.463 50.1859 143.535 49.7867 143.691C49.3875 143.848 49.0256 144.087 48.7244 144.392C48.7083 144.41 48.688 144.424 48.6654 144.432C48.6427 144.44 48.6184 144.443 48.5945 144.439Z" fill="#F5F5F5"/>
<path d="M47.464 143.629C47.4325 143.63 47.4018 143.619 47.3774 143.599C47.3641 143.586 47.3536 143.571 47.3464 143.555C47.3392 143.538 47.3354 143.52 47.3354 143.502C47.3354 143.483 47.3392 143.465 47.3464 143.449C47.3536 143.432 47.3641 143.417 47.3774 143.404C47.7072 143.063 48.1064 142.796 48.548 142.622C48.9896 142.448 49.4634 142.37 49.9375 142.395C49.9735 142.399 50.0064 142.417 50.0291 142.446C50.0518 142.474 50.0624 142.51 50.0588 142.546C50.0544 142.582 50.0361 142.615 50.0077 142.638C49.9794 142.661 49.9433 142.671 49.9072 142.668C49.4789 142.651 49.0519 142.723 48.653 142.879C48.254 143.036 47.892 143.274 47.5896 143.577C47.5749 143.596 47.5556 143.611 47.5336 143.62C47.5116 143.629 47.4876 143.632 47.464 143.629Z" fill="#F5F5F5"/>
<path d="M46.3591 142.819C46.3279 142.818 46.2978 142.807 46.2725 142.789C46.2468 142.763 46.2324 142.728 46.2324 142.692C46.2324 142.655 46.2468 142.62 46.2725 142.594C46.6297 142.222 47.0671 141.937 47.5512 141.76C48.0354 141.583 48.5537 141.518 49.0665 141.572C49.0848 141.573 49.1027 141.578 49.119 141.586C49.1354 141.594 49.1497 141.606 49.1612 141.62C49.1726 141.635 49.1809 141.651 49.1855 141.669C49.1901 141.687 49.1909 141.705 49.1878 141.723C49.1834 141.759 49.1651 141.792 49.1368 141.815C49.1084 141.838 49.0723 141.848 49.0362 141.845C48.57 141.799 48.0995 141.857 47.6589 142.016C47.2183 142.175 46.8186 142.43 46.4891 142.763C46.4739 142.783 46.454 142.798 46.4313 142.808C46.4086 142.818 46.3838 142.822 46.3591 142.819Z" fill="#F5F5F5"/>
<path d="M35.811 130.248L29.5688 130.136C29.6598 134.303 30.3226 138.925 30.4352 142.832C30.4352 143.569 30.4352 148.55 30.6951 150.066C31.1283 152.341 33.8141 152.033 33.957 150.673C34.1 149.313 33.7837 143.495 33.7924 142.876C33.7664 140.372 34.9403 136.14 35.5598 131.639C35.5858 131.435 35.7807 130.465 35.811 130.248Z" fill="#FFA8A7"/>
<path d="M34.9711 151.617C35.087 152.66 34.938 153.715 34.5379 154.684C34.3398 155.069 34.0201 155.378 33.6285 155.563C33.2369 155.748 32.7952 155.798 32.372 155.707C31.4493 155.572 30.232 155.078 29.8595 153.974C29.5068 152.956 29.3825 151.874 29.4956 150.803L34.9711 151.617Z" fill="#263238"/>
<path d="M30.4184 142.356C30.0502 142.421 30.1195 144.219 30.0848 146.025C30.0458 147.966 29.5563 148.815 29.5087 150.404C29.4524 152.224 29.63 153.003 30.375 154.034C31.1201 155.065 33.4463 155.897 34.3863 154.234C35.1531 152.878 35.0491 151.47 34.7849 149.685C34.5206 147.901 34.3127 146.549 34.2434 145.137C34.1741 143.725 34.1437 142.473 33.8102 142.356C33.8102 142.555 33.8102 142.811 33.8102 143.006C33.8102 143.201 33.8405 143.872 33.6326 143.915C33.6005 143.748 33.5817 143.579 33.5763 143.408C33.5859 143.251 33.5347 143.096 33.4333 142.975C33.308 142.883 33.1558 142.834 33.0001 142.837C32.6291 142.795 32.2559 142.775 31.8825 142.776C31.6963 142.776 31.5057 142.776 31.3237 142.806C31.1637 142.819 31.0069 142.858 30.8602 142.923C30.817 142.942 30.7781 142.969 30.7461 143.003C30.714 143.038 30.6894 143.078 30.6739 143.123C30.6609 143.191 30.6609 143.262 30.6739 143.33C30.6891 143.454 30.6891 143.579 30.6739 143.703C30.6739 143.759 30.635 143.829 30.5786 143.82C30.5223 143.811 30.5137 143.759 30.5093 143.716C30.4833 143.499 30.5093 143.339 30.4833 143.088C30.4833 142.971 30.4833 142.811 30.4833 142.694C30.4833 142.577 30.4227 142.473 30.4184 142.356Z" fill="#455A64"/>
<path d="M29.5385 149.885C29.5385 150.149 29.4822 151.886 29.9717 152.146C30.4612 152.406 30.6518 151.054 30.6518 151.054C30.6518 151.054 31.7997 150.573 33.6018 151.154C33.5411 151.44 33.8963 152.332 34.3512 152.089C34.806 151.847 34.7843 149.867 34.7843 149.841C35.0313 151.574 35.1092 152.917 34.3512 154.234C33.4112 155.897 31.0763 155.057 30.3399 154.034C29.6035 153.012 29.4259 152.224 29.4735 150.404C29.4952 150.222 29.5255 150.053 29.5385 149.885Z" fill="#37474F"/>
<path d="M30.7949 151.154C30.8512 151.804 30.1928 151.652 30.0715 150.721C29.9502 149.789 30.2361 147.584 30.0715 146.008C30.1061 144.201 30.0368 142.403 30.405 142.338C30.4029 142.36 30.4029 142.382 30.405 142.403L30.4483 143.317C30.4398 143.447 30.4398 143.578 30.4483 143.707C30.5696 145.033 30.6433 147.606 30.6476 148.828C30.6552 149.605 30.7044 150.382 30.7949 151.154Z" fill="#263238"/>
<path d="M33.3942 151.154C33.4791 150.387 33.521 149.616 33.5198 148.845C33.5198 147.632 33.5978 145.089 33.7191 143.755C33.766 143.508 33.7849 143.257 33.7754 143.006C33.7754 142.824 33.7754 142.572 33.7754 142.399C33.7754 142.399 33.7754 142.373 33.7754 142.356C34.018 142.447 34.1046 143.162 34.1566 144.063C34.1566 144.587 34.1566 145.236 34.109 146.025C33.9443 147.602 34.2302 149.837 34.109 150.751C33.9877 151.665 33.3509 151.804 33.3942 151.154Z" fill="#263238"/>
<path d="M33.6499 151.201H33.6023C32.6662 150.878 31.6489 150.878 30.7129 151.201C30.6959 151.208 30.6777 151.211 30.6594 151.211C30.6411 151.21 30.6231 151.206 30.6064 151.199C30.5897 151.191 30.5747 151.181 30.5621 151.167C30.5495 151.154 30.5397 151.138 30.5331 151.121C30.5266 151.104 30.5235 151.086 30.524 151.068C30.5245 151.05 30.5285 151.032 30.536 151.015C30.5434 150.998 30.5541 150.983 30.5673 150.97C30.5806 150.958 30.5962 150.948 30.6133 150.942C31.6119 150.585 32.7032 150.585 33.7019 150.942C33.7189 150.948 33.7345 150.957 33.7477 150.97C33.7609 150.982 33.7715 150.997 33.7788 151.014C33.7861 151.03 33.7899 151.048 33.7901 151.066C33.7903 151.084 33.7868 151.102 33.7799 151.119C33.7692 151.145 33.7511 151.166 33.7278 151.181C33.7046 151.195 33.6774 151.203 33.6499 151.201Z" fill="#F5F5F5"/>
<path d="M33.8274 149.763C33.8117 149.767 33.7954 149.767 33.7797 149.763C32.7273 149.437 31.6006 149.437 30.5482 149.763C30.5308 149.769 30.5125 149.772 30.4941 149.771C30.4757 149.77 30.4578 149.765 30.4412 149.757C30.4247 149.749 30.4099 149.738 30.3978 149.724C30.3857 149.71 30.3764 149.694 30.3706 149.677C30.3645 149.66 30.3619 149.641 30.363 149.623C30.3641 149.605 30.3689 149.588 30.377 149.572C30.3851 149.555 30.3963 149.541 30.4101 149.529C30.4239 149.518 30.4399 149.509 30.4572 149.503C31.569 149.149 32.7633 149.149 33.875 149.503C33.9055 149.515 33.931 149.536 33.9471 149.564C33.9632 149.593 33.969 149.626 33.9633 149.658C33.9576 149.689 33.9409 149.718 33.9161 149.739C33.8912 149.76 33.8598 149.772 33.8274 149.772V149.763Z" fill="#F5F5F5"/>
<path d="M30.4914 148.403C30.4649 148.402 30.4391 148.394 30.4169 148.38C30.3947 148.365 30.377 148.345 30.3657 148.321C30.3511 148.287 30.3501 148.25 30.3631 148.216C30.3761 148.182 30.4019 148.154 30.4351 148.139C31.5293 147.709 32.7446 147.701 33.8442 148.117C33.8612 148.123 33.8768 148.133 33.89 148.145C33.9033 148.158 33.9138 148.173 33.9211 148.189C33.9284 148.206 33.9322 148.224 33.9324 148.242C33.9326 148.26 33.9291 148.278 33.9222 148.295C33.9087 148.328 33.8825 148.355 33.8493 148.37C33.8161 148.385 33.7785 148.386 33.7446 148.373C33.7446 148.373 32.0465 147.706 30.552 148.373C30.5344 148.387 30.5136 148.398 30.4914 148.403Z" fill="#F5F5F5"/>
<path d="M30.4614 147.129C30.4352 147.13 30.4095 147.122 30.3873 147.109C30.3651 147.095 30.3472 147.075 30.3357 147.052C30.3208 147.019 30.3192 146.981 30.3313 146.947C30.3434 146.913 30.3683 146.886 30.4007 146.87C30.9438 146.622 31.5326 146.491 32.1293 146.484C32.7261 146.477 33.3177 146.595 33.8662 146.831C33.8826 146.838 33.8974 146.849 33.9096 146.862C33.9218 146.875 33.9312 146.891 33.9373 146.908C33.9434 146.925 33.9459 146.943 33.9449 146.961C33.9438 146.979 33.9392 146.996 33.9312 147.013C33.9237 147.029 33.9131 147.044 33.8998 147.056C33.8866 147.068 33.871 147.078 33.854 147.084C33.837 147.09 33.819 147.092 33.801 147.091C33.783 147.09 33.7654 147.086 33.7492 147.078C33.2346 146.864 32.6821 146.758 32.1251 146.765C31.5682 146.771 31.0184 146.891 30.509 147.116C30.494 147.123 30.4779 147.128 30.4614 147.129Z" fill="#F5F5F5"/>
<path d="M30.4312 145.704C30.3995 145.705 30.3686 145.694 30.3436 145.675C30.3186 145.655 30.3011 145.628 30.294 145.597C30.2869 145.566 30.2907 145.533 30.3046 145.505C30.3185 145.476 30.3418 145.454 30.3706 145.44C32.021 144.626 33.8014 145.405 33.875 145.44C33.8923 145.447 33.9079 145.457 33.921 145.47C33.934 145.483 33.9441 145.498 33.9507 145.515C33.9572 145.533 33.9601 145.551 33.959 145.569C33.9579 145.588 33.9529 145.606 33.9443 145.622C33.9292 145.655 33.9016 145.681 33.8676 145.694C33.8335 145.707 33.7958 145.706 33.7624 145.691C33.7624 145.691 32.0297 144.933 30.4962 145.691C30.4762 145.702 30.4537 145.706 30.4312 145.704Z" fill="#F5F5F5"/>
<path d="M31.6224 89.724C29.4218 95.8189 29.8073 99.6439 30.1842 106.033C30.5308 111.89 31.0809 117.049 31.0809 117.049C30.9943 118.089 29.5474 120.116 29.3482 124.708C29.2843 127.941 29.429 131.175 29.7813 134.39C29.7813 134.39 32.662 135.442 35.0965 134.39C35.0965 134.39 37.5873 123.391 38.2674 118.015C38.8565 113.324 39.8875 107.329 39.8875 107.329L42.0534 117.994C41.6301 119.427 41.4127 120.913 41.408 122.408C41.408 124.916 42.5733 131.89 42.5733 131.89C42.5733 131.89 45.8005 132.934 47.8451 131.119C47.8451 131.119 48.6552 121.082 48.9411 117.257C49.3223 112.154 48.7678 98.1667 47.5419 91.0062L31.6224 89.724Z" fill="#455A64"/>
<path d="M39.9136 107.311L40.8146 99.2887C40.8146 99.2887 44.8475 98.7515 46.6756 97.0318C46.1512 97.852 45.4522 98.5463 44.6285 99.0652C43.8048 99.5841 42.8768 99.9148 41.9106 100.034L40.611 107.502L42.0838 117.976L39.9136 107.311Z" fill="#37474F"/>
<path d="M49.8855 83.7764C47.9232 81.7577 44.3797 77.192 44.3797 77.192L42.3784 70.261C42.8257 70.2843 43.274 70.2843 43.7213 70.261C45.8872 70.404 46.524 70.5902 47.8712 72.0631C48.9412 73.237 53.0217 78.8077 54.4383 80.6834L58.2026 75.8881C59.108 74.5236 58.9607 72.9944 59.4285 71.8811C59.8964 70.7679 60.6544 70.2784 61.2609 69.282C61.8674 68.2857 62.0103 67.6186 62.5085 68.1341C63.0066 68.6496 62.4305 70.0358 62.3569 70.352C62.2832 70.6682 61.5208 71.6082 62.79 71.1187C64.0593 70.6292 66.0173 68.3117 66.5198 67.8395C67.0222 67.3674 67.2908 68.0994 67.1782 68.6799C67.0656 69.2604 67.6114 70.5686 67.4121 71.5259C67.2881 72.4889 66.8092 73.3709 66.0692 73.9994C65.1552 74.9178 62.92 76.0484 62.045 77.2569C61.1699 78.4655 59.3029 82.2212 58.1463 84.4824C56.6951 87.3588 55.4606 88.3075 53.8145 87.3371C52.1684 86.3668 50.6089 84.5258 49.8855 83.7764Z" fill="#FFA8A7"/>
<path d="M43.0153 70.1874C44.1229 70.0767 45.241 70.225 46.2815 70.6206C47.4554 71.1491 48.2525 72.284 49.4004 73.8218C50.5483 75.3596 52.5973 78.0497 52.5973 78.0497C52.5973 78.0497 52.0428 80.3845 48.3868 82.4811L42.4175 76.3343L43.0153 70.1874Z" fill="#37474F"/>
<path d="M54.4379 80.6791C53.7239 81.3527 53.2455 82.2381 53.0734 83.2046C53.0734 83.2046 52.6402 81.814 54.1173 80.2502L54.4379 80.6791Z" fill="#F28F8F"/>
<path d="M47.3383 82.4941C50.0023 80.3022 49.123 77.4476 48.1526 75.5242C46.2077 71.6819 44.1847 70.1701 43.34 70.1831L38.0421 70.235C35.5123 70.5816 33.5543 70.4083 32.9436 70.5513C31.3841 70.9195 31.3494 72.2017 31.2888 73.8608C31.2238 75.6802 30.2925 75.3726 30.7646 78.3789C31.3215 79.4963 31.8105 80.6464 32.2288 81.8227C32.5147 82.8624 33.3204 84.5171 32.8916 86.1979C32.727 86.8476 32.2851 87.4974 31.6224 89.2778C30.8709 91.279 30.3124 93.3475 29.9546 95.455C29.9546 95.455 31.5011 95.0955 33.2598 93.2241C33.2598 93.2241 35.664 96.4427 41.447 96.1178C47.4466 95.7799 47.975 92.6523 47.975 92.6523L47.0567 87.0209C47.1953 84.7467 47.256 83.9237 47.3383 82.4941Z" fill="#FFD202"/>
<path opacity="0.1" d="M43.8772 81.9267C43.8772 81.9267 41.7113 83.6594 39.1685 82.8277C38.4602 82.6153 37.818 82.2252 37.3032 81.6944C36.7883 81.1636 36.4179 80.5099 36.2272 79.7954C36.2272 79.7954 36.0106 82.6761 39.2075 83.6031C40.0627 83.8625 40.9787 83.8395 41.8198 83.5376C42.6609 83.2356 43.3823 82.6708 43.8772 81.9267Z" fill="black"/>
<path d="M28.7114 67.7096C27.9273 67.1378 23.7038 72.7908 25.6791 74.2073C27.6544 75.6239 29.7597 71.6082 29.3352 69.7109C28.9106 67.8136 28.7114 67.7096 28.7114 67.7096Z" fill="#37474F"/>
<path d="M24.8776 64.9026C25.9346 63.4384 26.6537 62.3338 27.6197 61.0775C28.1655 60.3628 28.5164 59.856 29.0405 59.1239C29.4044 58.6214 29.6167 58.1969 30.0239 58.0366C30.4785 57.8365 30.8847 57.5411 31.2151 57.1702C31.4174 56.9358 31.6041 56.6884 31.7739 56.4295C32.3845 55.584 33.114 54.8312 33.9399 54.1943C34.8062 53.5228 35.7549 53.003 36.6386 52.3619C37.1627 51.9807 37.7259 51.3526 37.0718 50.7851C36.8685 50.621 36.6271 50.5108 36.37 50.4645C34.7932 50.1483 33.4287 50.7158 31.8952 51.136C31.2284 51.3178 30.5767 51.5509 29.9459 51.8334C29.6328 51.9605 29.3407 52.1343 29.0795 52.3489C28.7168 52.7279 28.4235 53.1678 28.2132 53.6484C27.5417 54.883 26.1252 55.9833 25.1332 56.9493C23.968 58.0842 22.9283 59.1152 21.5984 60.3758C20.4029 61.5021 19.2289 62.5417 18.133 63.772C17.2276 64.7856 17.5785 65.5653 17.6998 65.8296C18.4795 67.363 19.3286 67.9045 20.3509 68.8619C20.6888 69.1738 21.031 69.4813 21.3732 69.7889C22.6987 70.9845 24.0243 72.1021 25.4018 73.2543C26.8746 74.4673 27.4811 75.0564 28.7936 76.2347C29.6219 76.9954 30.3122 77.8938 30.8339 78.8901C33.1081 79.2669 35.3434 75.7885 33.394 71.7209C33.0734 71.0631 32.5885 70.4991 31.9862 70.0834C29.5864 68.3724 24.8776 64.9026 24.8776 64.9026Z" fill="#FFA8A7"/>
<path d="M24.8777 64.9025C24.1683 65.8033 23.215 66.4814 22.1313 66.8562C22.1313 66.8562 23.5825 67.2028 25.5318 65.3877L24.8777 64.9025Z" fill="#F28F8F"/>
<path d="M33.1254 70.5166C32.5926 70.1484 31.2974 69.3643 28.7112 67.7096C28.7112 67.7096 29.1098 68.5456 28.4817 70.6466C27.8535 72.7475 26.528 74.0774 25.6963 74.229C25.6963 74.229 27.1431 75.3726 28.4773 76.6635C29.8115 77.9544 30.9075 78.8684 31.6786 80.3672C31.6786 80.3672 33.5846 79.8777 34.0177 76.6462C34.321 74.3806 34.139 71.7209 33.1254 70.5166Z" fill="#455A64"/>
<path d="M47.5939 60.1115C47.9748 59.3067 48.1425 58.4176 48.0811 57.5294C48.0196 56.6412 47.7311 55.7836 47.2431 55.0389C45.6013 52.7041 42.8333 51.5735 39.775 51.6081H38.8263C34.6981 51.6774 30.9467 55.2209 30.873 59.2105C30.873 62.0175 30.873 64.6123 32.4195 66.527C33.8447 68.3074 36.0669 68.8922 37.9426 69.1781C41.5294 69.7239 45.558 69.308 47.1867 66.8649C47.1867 66.8649 45.0208 67.2981 45.2937 65.0542C45.3327 64.699 44.9948 64.3091 44.4014 63.9062C44.8171 63.1861 45.3063 62.5111 45.8612 61.8919C46.472 61.2811 47.1781 60.9389 47.5939 60.1115Z" fill="#263238"/>
<path d="M46.5235 62.1605C46.5019 66.3407 45.1633 67.3934 44.4919 67.7052C43.8204 68.0171 42.5036 67.8525 41.2257 67.6663L41.269 70.1744C41.269 70.1744 42.7635 71.6862 42.6768 72.8385C42.5902 73.9907 40.3896 74.138 38.7219 73.0594C37.8032 72.451 36.9699 71.7226 36.2441 70.8935C36.1056 70.733 36.0274 70.5293 36.0231 70.3173L35.9192 64.4217C35.9192 64.4217 35.2347 65.1711 33.9872 64.3481C33.7177 64.1833 33.4853 63.9644 33.305 63.705C33.1246 63.4457 33.0001 63.1517 32.9394 62.8418C32.8787 62.5318 32.8832 62.2126 32.9524 61.9044C33.0217 61.5962 33.1542 61.3058 33.3417 61.0515C33.518 60.8802 33.7297 60.7496 33.9619 60.6689C34.1941 60.5882 34.4411 60.5595 34.6857 60.5847C34.9302 60.6099 35.1662 60.6884 35.3771 60.8147C35.588 60.941 35.7686 61.1121 35.9062 61.3158C36.2874 62.0262 36.2527 62.5287 36.7725 62.4464C37.2924 62.3641 37.314 61.8009 37.3487 61.3981C37.3833 60.9952 37.3487 60.8653 37.4007 60.3368C38.6352 60.0725 39.9131 58.3528 40.0561 57.0966C40.8924 57.5079 41.8142 57.7157 42.7462 57.703C44.128 57.6077 44.8428 57.3305 45.5229 56.3342C45.6849 56.5621 45.8147 56.8114 45.9084 57.0749C46.1008 57.6084 46.2458 58.1577 46.3416 58.7167C46.4959 59.8577 46.5567 61.0095 46.5235 62.1605Z" fill="#FFA8A7"/>
<path d="M41.2263 67.6663C39.8791 67.5103 37.1024 66.7652 36.6519 65.6823C36.8339 66.2321 37.1802 66.7128 37.6438 67.0598C38.4842 67.7529 41.2393 68.5023 41.2393 68.5023L41.2263 67.6663Z" fill="#F28F8F"/>
<path d="M42.5821 65.4137C42.5846 65.5227 42.5548 65.6299 42.4963 65.7219C42.4378 65.8138 42.3533 65.8863 42.2536 65.9302C42.1538 65.9741 42.0432 65.9873 41.9359 65.9683C41.8286 65.9493 41.7294 65.8988 41.6508 65.8232C41.5723 65.7477 41.5179 65.6506 41.4946 65.5441C41.4714 65.4376 41.4802 65.3266 41.5201 65.2252C41.56 65.1238 41.6291 65.0365 41.7187 64.9744C41.8083 64.9124 41.9143 64.8783 42.0233 64.8766C42.1684 64.8742 42.3086 64.9294 42.4133 65.03C42.518 65.1306 42.5787 65.2685 42.5821 65.4137Z" fill="#B16668"/>
<path d="M41.8762 61.2985C41.8834 61.3753 41.8752 61.4528 41.8522 61.5265C41.8293 61.6002 41.792 61.6686 41.7424 61.7278C41.6929 61.787 41.6321 61.8358 41.5636 61.8714C41.4952 61.907 41.4203 61.9287 41.3434 61.9353C41.2249 61.9479 41.1054 61.9249 41.0001 61.8691C40.8948 61.8133 40.8086 61.7274 40.7525 61.6223C40.6964 61.5172 40.673 61.3977 40.6853 61.2792C40.6976 61.1607 40.745 61.0486 40.8215 60.9572C40.8979 60.8658 40.9999 60.7994 41.1144 60.7664C41.2289 60.7334 41.3506 60.7354 41.4639 60.7721C41.5773 60.8087 41.6771 60.8784 41.7506 60.9722C41.824 61.066 41.8678 61.1796 41.8762 61.2985Z" fill="#263238"/>
<path d="M45.7834 61.0515C45.7942 61.1927 45.7489 61.3324 45.6572 61.4403C45.5655 61.5482 45.435 61.6155 45.2939 61.6277C45.2229 61.6364 45.1508 61.6297 45.0825 61.6081C45.0143 61.5864 44.9515 61.5503 44.8985 61.5022C44.8454 61.4541 44.8034 61.3952 44.7752 61.3294C44.747 61.2635 44.7334 61.1924 44.7351 61.1208C44.728 61.0507 44.735 60.9799 44.7556 60.9125C44.7763 60.8451 44.8102 60.7825 44.8554 60.7284C44.9006 60.6743 44.9562 60.6298 45.0189 60.5975C45.0815 60.5652 45.15 60.5458 45.2203 60.5404C45.3625 60.5345 45.5013 60.5848 45.6067 60.6805C45.7121 60.7761 45.7756 60.9094 45.7834 61.0515Z" fill="#263238"/>
<path d="M43.0845 60.5101L43.5003 64.0015L45.2894 63.2565L43.0845 60.5101Z" fill="#F28F8F"/>
<path d="M39.7876 59.791L40.8272 58.8033C40.9567 58.9473 41.0258 59.1357 41.0201 59.3292C41.0145 59.5228 40.9346 59.7068 40.7969 59.843C40.7283 59.908 40.6472 59.9584 40.5586 59.9912C40.4699 60.0239 40.3755 60.0383 40.2811 60.0335C40.1867 60.0286 40.0943 60.0046 40.0095 59.9629C39.9246 59.9212 39.8491 59.8627 39.7876 59.791Z" fill="#263238"/>
<path d="M44.9899 58.4828L46.1422 59.3491C46.0891 59.4274 46.0206 59.4939 45.9409 59.5447C45.8612 59.5955 45.7719 59.6294 45.6786 59.6444C45.5853 59.6594 45.4899 59.6552 45.3983 59.632C45.3067 59.6088 45.2208 59.5671 45.1458 59.5094C44.995 59.3897 44.895 59.2172 44.8661 59.0267C44.8371 58.8363 44.8814 58.6419 44.9899 58.4828Z" fill="#263238"/>
<path d="M28.3819 26.7521C29.2125 26.5937 30.0616 26.5557 30.903 26.6394C31.7072 26.71 32.4921 26.9242 33.2206 27.2719C33.9195 27.6055 34.5374 28.0874 35.0313 28.6841C35.552 29.3226 35.8983 30.0853 36.0363 30.8976C36.1661 31.5351 36.1661 32.1922 36.0363 32.8296C35.9198 33.3845 35.7213 33.9188 35.4471 34.4151C35.1811 34.898 34.8723 35.3561 34.5245 35.7839C34.1779 36.2171 33.8487 36.6157 33.5411 37.0012C33.247 37.364 32.986 37.7526 32.7614 38.1621C32.5549 38.5257 32.4544 38.9399 32.4712 39.3577C32.4737 39.552 32.4244 39.7434 32.3282 39.9122C32.2829 39.992 32.2206 40.0609 32.1457 40.114C32.0709 40.1672 31.9853 40.2032 31.895 40.2197L29.8547 40.6053C29.7578 40.6246 29.658 40.6241 29.5613 40.604C29.4645 40.584 29.3728 40.5446 29.2916 40.4883C29.2071 40.4399 29.1357 40.3716 29.0836 40.2893C29.0315 40.207 29.0003 40.1132 28.9927 40.0161C28.8932 39.3752 28.9257 38.7208 29.088 38.0928C29.242 37.5333 29.4677 36.996 29.7594 36.4944C30.0415 36.0166 30.3647 35.5644 30.7254 35.1428C31.085 34.7096 31.4099 34.3198 31.7088 33.9386C31.9835 33.5962 32.2217 33.226 32.4192 32.834C32.5891 32.4938 32.6424 32.1071 32.5708 31.7337C32.5133 31.4045 32.3763 31.0944 32.1717 30.8301C31.9671 30.5659 31.7011 30.3556 31.3969 30.2175C30.6421 29.8745 29.7943 29.7937 28.9884 29.9879C27.4693 30.2767 26.4947 31.2499 26.0644 32.9076C26.0265 33.0823 25.9591 33.2493 25.8651 33.4014C25.745 33.5403 25.5758 33.6272 25.3929 33.644L23.227 34.0555C23.0774 34.0822 22.9233 34.0529 22.7938 33.9732C22.7258 33.9283 22.6679 33.8696 22.6239 33.801C22.5799 33.7324 22.5507 33.6553 22.5383 33.5747C22.4447 32.8914 22.519 32.1955 22.7549 31.5474C23.0001 30.7988 23.3755 30.0993 23.8638 29.4811C24.4113 28.8042 25.0636 28.2193 25.7958 27.7484C26.585 27.2515 27.4634 26.9131 28.3819 26.7521ZM32.3369 41.8052C32.5295 41.7719 32.7275 41.8147 32.8892 41.9246C33.0508 42.0345 33.1634 42.2029 33.2032 42.3943L33.6364 44.7595C33.6562 44.8543 33.656 44.9522 33.6359 45.0469C33.6157 45.1416 33.5761 45.2311 33.5195 45.3097C33.4663 45.3902 33.3974 45.4593 33.3171 45.5129C33.2367 45.5665 33.1465 45.6034 33.0516 45.6215L30.7428 46.0547C30.6473 46.0746 30.5487 46.0744 30.4533 46.0543C30.3578 46.0342 30.2676 45.9945 30.1883 45.9378C30.1077 45.8845 30.0386 45.8157 29.985 45.7354C29.9315 45.655 29.8945 45.5648 29.8764 45.4699L29.4432 43.1047C29.4251 43.0096 29.4265 42.9118 29.4474 42.8172C29.4682 42.7226 29.5081 42.6333 29.5645 42.5546C29.6164 42.4728 29.6848 42.4028 29.7654 42.3491C29.846 42.2954 29.9369 42.2591 30.0323 42.2427L32.3369 41.8052Z" fill="#FFD202"/>
<path d="M50.3965 36.5117C50.9074 36.795 51.3743 37.151 51.7827 37.5687C52.1797 37.96 52.5013 38.4211 52.7314 38.9289C52.9521 39.4145 53.0659 39.9419 53.065 40.4753C53.0644 41.0439 52.9151 41.6025 52.6318 42.0954C52.4196 42.4905 52.1327 42.8406 51.7871 43.1264C51.4775 43.3668 51.1345 43.5609 50.7691 43.7025C50.4139 43.8413 50.0471 43.9486 49.6731 44.0231L48.6162 44.231C48.2991 44.292 47.9887 44.3834 47.6891 44.5039C47.4196 44.604 47.1838 44.7782 47.009 45.0064C46.9239 45.1113 46.8115 45.1907 46.6842 45.236C46.6243 45.2584 46.5603 45.2673 46.4967 45.2621C46.433 45.2568 46.3713 45.2376 46.3159 45.2057L45.064 44.5039C44.9423 44.4373 44.852 44.3252 44.8128 44.192C44.7915 44.1288 44.7851 44.0615 44.7942 43.9954C44.8032 43.9292 44.8273 43.8661 44.8648 43.8108C45.0954 43.4279 45.4021 43.0962 45.7658 42.8362C46.0955 42.6059 46.4537 42.4195 46.8314 42.2817C47.1937 42.1528 47.5661 42.0543 47.9447 41.9871C48.3216 41.9222 48.6725 41.8572 49.0017 41.7879C49.2988 41.7258 49.589 41.6344 49.8681 41.515C50.1089 41.4087 50.3093 41.2281 50.4399 40.9995C50.5536 40.7985 50.617 40.5729 50.6245 40.342C50.6321 40.1112 50.5836 39.8819 50.4832 39.6739C50.2358 39.158 49.8224 38.7401 49.3093 38.487C48.8672 38.2316 48.3572 38.1187 47.8487 38.1636C47.3402 38.2086 46.8579 38.4092 46.4676 38.7383C46.371 38.8167 46.2609 38.8769 46.1427 38.9159C46.0186 38.9365 45.8915 38.9085 45.7875 38.8379L44.4533 38.0928C44.3588 38.0397 44.2877 37.9532 44.254 37.8502C44.2371 37.7964 44.2319 37.7396 44.2386 37.6836C44.2453 37.6276 44.2639 37.5737 44.293 37.5253C44.5459 37.1226 44.8921 36.7868 45.3023 36.5463C45.7693 36.2645 46.2826 36.068 46.8184 35.9659C47.4049 35.8509 48.0062 35.8319 48.5988 35.9096C49.2312 35.9928 49.8416 36.1973 50.3965 36.5117ZM45.8308 46.2367C45.8896 46.2693 45.9413 46.3133 45.983 46.3661C46.0246 46.4189 46.0554 46.4794 46.0734 46.5442C46.0925 46.6081 46.0986 46.6752 46.0912 46.7414C46.0837 46.8077 46.0629 46.8718 46.03 46.9298L45.22 48.3809C45.1543 48.499 45.0445 48.5863 44.9146 48.6236C44.7847 48.661 44.6453 48.6454 44.5269 48.5802L43.1104 47.7875C43.0508 47.7565 42.9986 47.713 42.9574 47.6599C42.9163 47.6068 42.8872 47.5454 42.8721 47.4799C42.8515 47.4165 42.8444 47.3494 42.8511 47.283C42.8578 47.2167 42.8782 47.1524 42.9111 47.0944L43.7212 45.6432C43.754 45.585 43.7982 45.534 43.851 45.4931C43.9038 45.4522 43.9642 45.4222 44.0287 45.405C44.0924 45.3847 44.1597 45.3781 44.2261 45.3856C44.2925 45.3931 44.3566 45.4144 44.4143 45.4483L45.8308 46.2367Z" fill="#FFD202"/>
<g opacity="0.2">
<path opacity="0.2" d="M50.3965 36.5117C50.9074 36.795 51.3743 37.151 51.7827 37.5687C52.1797 37.96 52.5013 38.4211 52.7314 38.9289C52.9521 39.4145 53.0659 39.9419 53.065 40.4753C53.0644 41.0439 52.9151 41.6025 52.6318 42.0954C52.4196 42.4905 52.1327 42.8406 51.7871 43.1264C51.4775 43.3668 51.1345 43.5609 50.7691 43.7025C50.4139 43.8413 50.0471 43.9486 49.6731 44.0231L48.6162 44.231C48.2991 44.292 47.9887 44.3834 47.6891 44.5039C47.4196 44.604 47.1838 44.7782 47.009 45.0064C46.9239 45.1113 46.8115 45.1907 46.6842 45.236C46.6243 45.2584 46.5603 45.2673 46.4967 45.2621C46.433 45.2568 46.3713 45.2376 46.3159 45.2057L45.064 44.5039C44.9423 44.4373 44.852 44.3252 44.8128 44.192C44.7915 44.1288 44.7851 44.0615 44.7942 43.9954C44.8032 43.9292 44.8273 43.8661 44.8648 43.8108C45.0954 43.4279 45.4021 43.0962 45.7658 42.8362C46.0955 42.6059 46.4537 42.4195 46.8314 42.2817C47.1937 42.1528 47.5661 42.0543 47.9447 41.9871C48.3216 41.9222 48.6725 41.8572 49.0017 41.7879C49.2988 41.7258 49.589 41.6344 49.8681 41.515C50.1089 41.4087 50.3093 41.2281 50.4399 40.9995C50.5536 40.7985 50.617 40.5729 50.6245 40.342C50.6321 40.1112 50.5836 39.8819 50.4832 39.6739C50.2358 39.158 49.8224 38.7401 49.3093 38.487C48.8672 38.2316 48.3572 38.1187 47.8487 38.1636C47.3402 38.2086 46.8579 38.4092 46.4676 38.7383C46.371 38.8167 46.2609 38.8769 46.1427 38.9159C46.0186 38.9365 45.8915 38.9085 45.7875 38.8379L44.4533 38.0928C44.3588 38.0397 44.2877 37.9532 44.254 37.8502C44.2371 37.7964 44.2319 37.7396 44.2386 37.6836C44.2453 37.6276 44.2639 37.5737 44.293 37.5253C44.5459 37.1226 44.8921 36.7868 45.3023 36.5463C45.7693 36.2645 46.2826 36.068 46.8184 35.9659C47.4049 35.8509 48.0062 35.8319 48.5988 35.9096C49.2312 35.9928 49.8416 36.1973 50.3965 36.5117ZM45.8308 46.2367C45.8896 46.2693 45.9413 46.3133 45.983 46.3661C46.0246 46.4189 46.0554 46.4794 46.0734 46.5442C46.0925 46.6081 46.0986 46.6752 46.0912 46.7414C46.0837 46.8077 46.0629 46.8718 46.03 46.9298L45.22 48.3809C45.1543 48.499 45.0445 48.5863 44.9146 48.6236C44.7847 48.661 44.6453 48.6454 44.5269 48.5802L43.1104 47.7875C43.0508 47.7565 42.9986 47.713 42.9574 47.6599C42.9163 47.6068 42.8872 47.5454 42.8721 47.4799C42.8515 47.4165 42.8444 47.3494 42.8511 47.283C42.8578 47.2167 42.8782 47.1524 42.9111 47.0944L43.7212 45.6432C43.754 45.585 43.7982 45.534 43.851 45.4931C43.9038 45.4522 43.9642 45.4222 44.0287 45.405C44.0924 45.3847 44.1597 45.3781 44.2261 45.3856C44.2925 45.3931 44.3566 45.4144 44.4143 45.4483L45.8308 46.2367Z" fill="black"/>
</g>
<path d="M19.8831 52.4182C19.9408 52.3637 20.0089 52.3214 20.0834 52.2938C20.1578 52.2663 20.2371 52.2541 20.3163 52.2579C20.3976 52.259 20.4779 52.2765 20.5523 52.3092C20.6267 52.342 20.6938 52.3893 20.7495 52.4485L22.0837 53.8953C22.1386 53.9544 22.1813 54.0237 22.2093 54.0992C22.2373 54.1748 22.25 54.2552 22.2468 54.3357C22.2436 54.4163 22.2244 54.4954 22.1905 54.5685C22.1566 54.6416 22.1085 54.7073 22.0491 54.7617L20.6369 56.0613C20.5779 56.1162 20.5086 56.1588 20.433 56.1868C20.3574 56.2148 20.277 56.2276 20.1965 56.2243C20.116 56.2211 20.0368 56.202 19.9637 56.168C19.8906 56.1341 19.825 56.0861 19.7705 56.0266L18.4363 54.5798C18.3809 54.521 18.3377 54.4518 18.3094 54.3762C18.2811 54.3005 18.2682 54.22 18.2714 54.1393C18.2746 54.0586 18.294 53.9794 18.3282 53.9062C18.3625 53.8331 18.411 53.7675 18.471 53.7134L19.8831 52.4182ZM10.613 43.6895C11.1196 43.2161 11.6914 42.8179 12.3111 42.5069C12.8995 42.2095 13.5361 42.0189 14.1911 41.9438C14.8199 41.8744 15.4563 41.9394 16.0581 42.1344C16.6975 42.3526 17.2693 42.7333 17.7172 43.239C18.0921 43.6199 18.3867 44.0721 18.5836 44.5689C18.7425 45.0047 18.8359 45.4616 18.8608 45.9248C18.8856 46.3757 18.8711 46.8279 18.8175 47.2763C18.7612 47.7095 18.7092 48.1427 18.6616 48.5455C18.6146 48.9248 18.6015 49.3075 18.6226 49.6891C18.637 50.0321 18.7481 50.364 18.9431 50.6465C19.0271 50.7759 19.075 50.9255 19.0818 51.0797C19.0855 51.1556 19.0719 51.2313 19.0418 51.3012C19.0118 51.371 18.9662 51.433 18.9085 51.4825L17.6609 52.6391C17.5426 52.7464 17.3874 52.8038 17.2277 52.7994C17.1485 52.8023 17.0698 52.7861 16.9982 52.7522C16.9265 52.7183 16.8641 52.6676 16.8162 52.6045C16.4696 52.2015 16.2074 51.7331 16.0451 51.2269C15.9095 50.7723 15.8337 50.302 15.8199 49.8278C15.8064 49.3701 15.8324 48.9121 15.8979 48.4589C15.9628 48.0257 16.0148 47.5925 16.0581 47.2027C16.0969 46.8442 16.0969 46.4825 16.0581 46.124C16.0299 45.8152 15.9004 45.5244 15.6899 45.2967C15.5068 45.0937 15.277 44.9383 15.0204 44.844C14.7638 44.7497 14.4881 44.7192 14.2171 44.7552C13.5487 44.8416 12.9275 45.1461 12.4497 45.6215C11.5198 46.4879 11.2642 47.5868 11.683 48.9181C11.7343 49.0567 11.7607 49.2034 11.761 49.3513C11.7502 49.4242 11.7252 49.4942 11.6873 49.5574C11.6494 49.6206 11.5993 49.6757 11.54 49.7195L10.2102 50.9497C10.1172 51.0395 9.99281 51.0892 9.86361 51.0883C9.79744 51.0872 9.73228 51.0719 9.6725 51.0435C9.61273 51.0152 9.55973 50.9743 9.51706 50.9237C9.14881 50.4976 8.8914 49.9873 8.76765 49.4379C8.62067 48.8092 8.58693 48.1594 8.66802 47.5189C8.75697 46.8168 8.95884 46.1336 9.26581 45.4959C9.59276 44.8117 10.0504 44.198 10.613 43.6895Z" fill="#FFD202"/>
<g opacity="0.6">
<path opacity="0.6" d="M19.8831 52.4182C19.9408 52.3637 20.0089 52.3214 20.0834 52.2938C20.1578 52.2663 20.2371 52.2541 20.3163 52.2579C20.3976 52.259 20.4779 52.2765 20.5523 52.3092C20.6267 52.342 20.6938 52.3893 20.7495 52.4485L22.0837 53.8953C22.1386 53.9544 22.1813 54.0237 22.2093 54.0992C22.2373 54.1748 22.25 54.2552 22.2468 54.3357C22.2436 54.4163 22.2244 54.4954 22.1905 54.5685C22.1566 54.6416 22.1085 54.7073 22.0491 54.7617L20.6369 56.0613C20.5779 56.1162 20.5086 56.1588 20.433 56.1868C20.3574 56.2148 20.277 56.2276 20.1965 56.2243C20.116 56.2211 20.0368 56.202 19.9637 56.168C19.8906 56.1341 19.825 56.0861 19.7705 56.0266L18.4363 54.5798C18.3809 54.521 18.3377 54.4518 18.3094 54.3762C18.2811 54.3005 18.2682 54.22 18.2714 54.1393C18.2746 54.0586 18.294 53.9794 18.3282 53.9062C18.3625 53.8331 18.411 53.7675 18.471 53.7134L19.8831 52.4182ZM10.613 43.6895C11.1196 43.2161 11.6914 42.8179 12.3111 42.5069C12.8995 42.2095 13.5361 42.0189 14.1911 41.9438C14.8199 41.8744 15.4563 41.9394 16.0581 42.1344C16.6975 42.3526 17.2693 42.7333 17.7172 43.239C18.0921 43.6199 18.3867 44.0721 18.5836 44.5689C18.7425 45.0047 18.8359 45.4616 18.8608 45.9248C18.8856 46.3757 18.8711 46.8279 18.8175 47.2763C18.7612 47.7095 18.7092 48.1427 18.6616 48.5455C18.6146 48.9248 18.6015 49.3075 18.6226 49.6891C18.637 50.0321 18.7481 50.364 18.9431 50.6465C19.0271 50.7759 19.075 50.9255 19.0818 51.0797C19.0855 51.1556 19.0719 51.2313 19.0418 51.3012C19.0118 51.371 18.9662 51.433 18.9085 51.4825L17.6609 52.6391C17.5426 52.7464 17.3874 52.8038 17.2277 52.7994C17.1485 52.8023 17.0698 52.7861 16.9982 52.7522C16.9265 52.7183 16.8641 52.6676 16.8162 52.6045C16.4696 52.2015 16.2074 51.7331 16.0451 51.2269C15.9095 50.7723 15.8337 50.302 15.8199 49.8278C15.8064 49.3701 15.8324 48.9121 15.8979 48.4589C15.9628 48.0257 16.0148 47.5925 16.0581 47.2027C16.0969 46.8442 16.0969 46.4825 16.0581 46.124C16.0299 45.8152 15.9004 45.5244 15.6899 45.2967C15.5068 45.0937 15.277 44.9383 15.0204 44.844C14.7638 44.7497 14.4881 44.7192 14.2171 44.7552C13.5487 44.8416 12.9275 45.1461 12.4497 45.6215C11.5198 46.4879 11.2642 47.5868 11.683 48.9181C11.7343 49.0567 11.7607 49.2034 11.761 49.3513C11.7502 49.4242 11.7252 49.4942 11.6873 49.5574C11.6494 49.6206 11.5993 49.6757 11.54 49.7195L10.2102 50.9497C10.1172 51.0395 9.99281 51.0892 9.86361 51.0883C9.79744 51.0872 9.73228 51.0719 9.6725 51.0435C9.61273 51.0152 9.55973 50.9743 9.51706 50.9237C9.14881 50.4976 8.8914 49.9873 8.76765 49.4379C8.62067 48.8092 8.58693 48.1594 8.66802 47.5189C8.75697 46.8168 8.95884 46.1336 9.26581 45.4959C9.59276 44.8117 10.0504 44.198 10.613 43.6895Z" fill="white"/>
</g>
<path d="M108.093 82.6414C106.858 81.9354 101.66 78.9291 99.8924 77.9067C99.5415 77.7075 99.3206 77.5775 99.3032 77.5645C98.4245 77.0747 97.3977 76.9207 96.4139 77.1313C95.5694 77.3027 94.7606 77.6178 94.0227 78.0627C93.9014 78.132 93.7801 78.2143 93.6632 78.2923C91.6662 79.5528 89.9508 81.5368 88.5213 84.2659C87.0657 86.9242 86.2848 89.8991 86.2471 92.9296C86.2471 95.8001 87.0124 97.8144 88.5429 98.9725C88.6979 99.0879 88.86 99.1935 89.0281 99.2887C90.4619 100.103 97.6528 104.27 97.8131 104.361H97.8521C97.6751 104.264 97.5057 104.154 97.3452 104.032C95.8118 102.877 95.0465 100.864 95.0494 97.9935C95.0871 94.963 95.868 91.9881 97.3236 89.3298C98.834 86.4419 100.666 84.3727 102.821 83.1223C104.871 81.9382 106.641 81.7837 108.132 82.6588L108.093 82.6414Z" fill="#FFD202"/>
<path opacity="0.4" d="M108.131 82.6674C106.641 81.8011 104.871 81.9541 102.821 83.1266C100.819 84.2818 99.0938 86.1589 97.6441 88.758L88.8418 83.6594C90.202 81.2293 91.8091 79.4402 93.6588 78.275C93.7758 78.2013 93.8971 78.1147 94.0183 78.0454C94.7555 77.5998 95.5647 77.2861 96.4095 77.1183C97.3932 76.9053 98.4209 77.0594 99.2989 77.5515L99.888 77.8937C101.655 78.9117 106.854 81.918 108.088 82.6241L108.131 82.6674Z" fill="black"/>
<path opacity="0.3" d="M97.8521 104.348H97.8131C97.6528 104.257 90.449 100.09 89.0281 99.2757C88.86 99.1805 88.6979 99.0749 88.5429 98.9595C87.0124 97.8043 86.2471 95.7915 86.2471 92.9209C86.2837 89.8903 87.0647 86.9151 88.5213 84.2572C88.6252 84.0536 88.7335 83.8544 88.8462 83.6638L97.6441 88.745C97.5358 88.9356 97.4275 89.1349 97.3236 89.3341C95.868 91.9924 95.0871 94.9673 95.0494 97.9978C95.0494 100.868 95.8147 102.881 97.3452 104.036C97.5063 104.153 97.6757 104.257 97.8521 104.348Z" fill="black"/>
<path d="M104.254 8.30746C108.526 5.83832 112.161 4.78857 115.162 5.15822C116.383 5.3041 117.562 5.69609 118.627 6.31049C118.598 6.29476 118.569 6.27741 118.541 6.25851C117.51 5.67804 111.298 2.09561 109.877 1.25956C108.793 0.626096 107.59 0.224854 106.342 0.0813039C103.339 -0.285458 99.7016 0.762847 95.4304 3.22622C88.7883 7.05845 83.4457 12.6898 79.4026 20.1204C75.3596 27.5509 73.3597 35.136 73.403 42.8755L82.201 47.9568C82.1403 40.2115 84.1402 32.625 88.2006 25.1973C92.261 17.7696 97.6122 12.1397 104.254 8.30746Z" fill="#FFD202"/>
<path opacity="0.2" d="M118.558 6.26247C117.508 5.67773 116.355 5.30256 115.162 5.15785C112.164 4.7882 108.528 5.83795 104.254 8.3071C97.6122 12.1364 92.2696 17.7678 88.2265 25.2013C88.0576 25.5088 87.893 25.8207 87.7327 26.1283L78.9131 21.0384C79.0734 20.7308 79.238 20.4189 79.4069 20.1114C83.4673 12.6866 88.8099 7.0552 95.4347 3.21719C99.7117 0.750928 103.349 -0.297376 106.347 0.0722738C107.594 0.217281 108.798 0.619995 109.881 1.25487C111.315 2.09957 117.527 5.68634 118.558 6.26247Z" fill="black"/>
<path opacity="0.3" d="M87.7107 26.1196C83.9824 33.2498 82.1472 40.5259 82.2049 47.9478L73.407 42.8665C73.3521 35.4417 75.1873 28.1657 78.9127 21.0384L87.7107 26.1196Z" fill="black"/>
<path d="M110.232 22.7061C108.635 21.8571 106.503 22.1892 103.834 23.7025C103.744 25.2901 103.417 26.8553 102.864 28.3462C102.197 30.1425 100.256 33.8476 97.0419 39.4617C93.7122 45.2663 91.3037 50.8097 89.8164 56.0916C88.3413 61.3065 87.592 66.6999 87.5898 72.1194L87.6332 74.8181L93.6371 78.2836L96.4355 79.8994L96.3878 77.1963V77.1617C96.3973 71.7597 97.1465 66.3845 98.6144 61.1858C100.102 55.9039 102.512 50.362 105.844 44.5603C109.056 38.9462 110.995 35.2396 111.662 33.4404C112.328 31.6618 112.668 29.7777 112.667 27.8783C112.667 25.2937 111.855 23.5696 110.232 22.7061Z" fill="#FFD202"/>
<path opacity="0.3" d="M110.8 35.3854C109.806 37.4531 108.155 40.5056 105.844 44.5429C102.509 50.3476 100.099 55.8909 98.6144 61.1728C97.1449 66.3756 96.3958 71.7553 96.3878 77.1617V77.231L96.4355 79.934L93.6371 78.3226L87.6332 74.8571L87.5898 72.1541C87.5924 66.7346 88.3416 61.3412 89.8164 56.1263C91.3037 50.8443 93.7122 45.301 97.0419 39.4963C99.3522 35.4533 101.007 32.4022 102.006 30.3432L110.8 35.3854Z" fill="black"/>
<path opacity="0.4" d="M112.667 27.8783C112.668 29.7716 112.329 31.6496 111.666 33.4231C111.48 33.9299 111.19 34.584 110.8 35.3854L102.006 30.3085C102.39 29.5057 102.679 28.8516 102.873 28.3462C103.426 26.8553 103.753 25.2901 103.843 23.7025C106.511 22.1892 108.644 21.8571 110.241 22.7061C111.838 23.5552 112.647 25.2792 112.667 27.8783Z" fill="black"/>
<path d="M94.1137 41.0688L82.2054 47.9478C82.1448 40.2024 84.1447 32.6159 88.205 25.1883C92.2654 17.7606 97.608 12.1292 104.233 8.29411C108.504 5.82496 112.14 4.77521 115.14 5.14486C118.141 5.51451 120.542 7.15917 122.344 10.0788C124.149 12.9985 125.052 16.6401 125.052 21.0037C125.034 23.5371 124.743 26.0612 124.185 28.5325C123.51 31.4886 122.599 34.3858 121.461 37.1961C120.733 39.0328 118.99 42.4232 116.232 47.3673C113.595 52.0803 111.944 55.2873 111.276 56.9883C110.536 59.0074 109.986 61.0915 109.635 63.2132C109.11 66.3844 108.821 69.59 108.768 72.8038L96.4529 79.9167L96.4052 77.2136C96.4077 71.7941 97.157 66.4008 98.6318 61.1858C100.119 55.9039 102.529 50.362 105.862 44.5603C109.073 38.9462 111.012 35.2396 111.679 33.4404C112.34 31.6607 112.674 29.7766 112.667 27.8783C112.667 25.2792 111.857 23.5552 110.237 22.7061C108.617 21.8571 106.442 22.2123 103.713 23.7718C100.923 25.3832 98.6347 27.8004 96.8471 31.0233C95.0988 34.0858 94.1582 37.5427 94.1137 41.0688Z" fill="#FFD202"/>
<path d="M102.799 83.1526C105.008 81.8733 106.894 81.7939 108.456 82.9144C110.019 84.0349 110.8 86.029 110.8 88.8966C110.753 91.9437 109.957 94.9323 108.482 97.5993C106.94 100.531 105.076 102.627 102.89 103.889C100.704 105.151 98.847 105.203 97.3193 104.045C95.7887 102.89 95.0234 100.876 95.0234 98.0022C95.0611 94.9717 95.8421 91.9968 97.2977 89.3385C98.8138 86.4564 100.648 84.3944 102.799 83.1526Z" fill="#FFD202"/>
</svg>
