<svg width="191" height="212" viewBox="0 0 191 212" fill="none" xmlns="http://www.w3.org/2000/svg">
<path d="M47.7126 182.591C47.8225 180.007 49.3082 151.433 49.3082 151.433L36.2297 160.85C38.27 175.759 39.1279 182.617 39.2744 185.102C39.2279 185.312 39.2121 185.527 39.2273 185.74C39.3581 188.691 42.9207 190.161 45.7352 192.018C48.1308 193.674 50.6632 195.123 53.3049 196.35C55.3243 197.229 59.3629 197.171 59.8128 195.942C56.3915 193.645 52.4365 191.139 49.6848 188.476C48.3613 187.226 47.5871 185.699 47.7126 182.591Z" fill="#B16668"/>
<path d="M63.7888 198.976C63.9457 198.976 64.2544 200.749 63.4173 201.539C62.4548 202.449 59.5775 203.993 55.6854 203.632C51.7932 203.271 49.6484 202.12 48.0476 200.854C46.4468 199.588 44.2025 197.804 42.4343 197.474C40.7916 197.166 38.9973 196.48 38.4532 195.989C37.9091 195.497 37.8987 193.216 37.8987 193.216L63.7888 198.976Z" fill="#263238"/>
<path d="M39.2117 184.391C39.2117 184.391 38.788 184.391 38.6886 184.914C38.5944 185.542 38.4846 187.383 38.2648 188.419C37.9666 189.863 37.7417 192.824 37.9823 193.98C38.223 195.136 40.9224 195.853 42.6435 196.449C44.6776 197.271 46.5755 198.396 48.2725 199.787C50.1505 201.246 54.027 202.643 56.5642 202.591C60.425 202.507 62.8785 201.356 63.5952 199.917C64.4845 198.139 64.1445 196.915 59.635 194.984C57.9097 194.153 56.2314 193.227 54.6077 192.212C52.0183 190.624 49.9815 188.277 48.7747 185.489C48.6592 185.117 48.4214 184.794 48.0998 184.574C47.8245 184.467 47.522 184.45 47.2367 184.527C46.499 184.658 44.3751 185.003 43.7159 185.353C43.0568 185.704 42.3035 186.028 42.3453 186.802C42.37 187.071 42.4371 187.334 42.5441 187.582C42.6017 187.739 42.6487 187.948 42.5179 188.047C42.3872 188.147 42.2198 188.047 42.0994 187.943C41.6447 187.507 41.2265 187.035 40.8491 186.53C40.6399 186.278 40.403 186.05 40.1429 185.85C39.8739 185.707 39.6137 185.548 39.3634 185.374C39.3634 185.374 39.2379 184.752 39.2117 184.391Z" fill="#455A64"/>
<path d="M59.7816 194.984C54.2154 195.575 51.8874 199.237 52.5937 201.89C53.8794 202.331 55.2261 202.569 56.5852 202.596C60.446 202.512 63.0564 201.356 63.7731 199.917C64.6258 198.243 63.794 196.371 59.7816 194.984Z" fill="#FAFAFA"/>
<path d="M52.2014 195.79C52.1395 195.793 52.0785 195.775 52.0287 195.738C51.9715 195.691 51.9341 195.625 51.9244 195.552C51.9147 195.479 51.9333 195.405 51.9764 195.345C52.5956 194.641 53.3601 194.08 54.2171 193.699C55.0742 193.319 56.0035 193.129 56.941 193.143C57.0141 193.15 57.0817 193.184 57.1296 193.24C57.1774 193.296 57.2017 193.368 57.1973 193.441C57.1954 193.477 57.1862 193.513 57.1703 193.545C57.1544 193.578 57.1321 193.607 57.1048 193.631C57.0776 193.655 57.0458 193.673 57.0113 193.684C56.9769 193.696 56.9405 193.7 56.9044 193.697C56.0576 193.694 55.2197 193.869 54.4453 194.212C53.6709 194.554 52.9776 195.056 52.4106 195.685C52.3866 195.718 52.355 195.745 52.3186 195.763C52.2823 195.781 52.2421 195.79 52.2014 195.79Z" fill="#F0F0F0"/>
<path d="M49.9777 194.435C49.9258 194.436 49.8747 194.422 49.8303 194.395C49.7858 194.368 49.7498 194.329 49.7264 194.283C49.7029 194.237 49.693 194.185 49.6977 194.133C49.7023 194.081 49.7214 194.032 49.7528 193.99C50.3701 193.284 51.1341 192.72 51.9915 192.339C52.8489 191.958 53.7791 191.768 54.7174 191.783C54.7905 191.789 54.8581 191.824 54.9059 191.88C54.9538 191.936 54.9781 192.008 54.9737 192.081C54.9717 192.117 54.9625 192.153 54.9466 192.185C54.9308 192.218 54.9085 192.247 54.8812 192.271C54.8539 192.295 54.8221 192.313 54.7877 192.324C54.7533 192.336 54.7169 192.34 54.6807 192.337C53.834 192.334 52.996 192.509 52.2217 192.851C51.4473 193.194 50.7539 193.696 50.187 194.325C50.1619 194.357 50.1302 194.384 50.0942 194.403C50.0581 194.422 50.0184 194.433 49.9777 194.435Z" fill="#F0F0F0"/>
<path d="M47.7285 192.693C47.6666 192.696 47.6056 192.678 47.5559 192.641C47.4975 192.595 47.4593 192.529 47.4495 192.455C47.4397 192.382 47.4591 192.308 47.5035 192.248C48.1227 191.544 48.8872 190.983 49.7442 190.603C50.6013 190.222 51.5306 190.032 52.4681 190.046C52.5046 190.049 52.5401 190.058 52.5728 190.075C52.6054 190.091 52.6345 190.114 52.6583 190.142C52.6821 190.169 52.7002 190.202 52.7116 190.236C52.7229 190.271 52.7273 190.308 52.7245 190.344C52.7225 190.38 52.7133 190.416 52.6974 190.448C52.6815 190.481 52.6593 190.51 52.632 190.534C52.6047 190.558 52.5729 190.576 52.5385 190.587C52.504 190.599 52.4677 190.603 52.4315 190.6C51.5851 190.596 50.7473 190.77 49.9729 191.112C49.1985 191.453 48.505 191.955 47.9378 192.583C47.9143 192.617 47.883 192.644 47.8465 192.664C47.8101 192.683 47.7696 192.693 47.7285 192.693Z" fill="#F0F0F0"/>
<path d="M45.5311 190.951C45.4702 190.953 45.4107 190.932 45.3637 190.893C45.3341 190.872 45.3091 190.845 45.2899 190.814C45.2708 190.783 45.2579 190.749 45.2521 190.713C45.2463 190.677 45.2476 190.64 45.256 190.605C45.2643 190.569 45.2796 190.536 45.3009 190.506C46.321 189.094 48.7013 188.105 50.7311 188.257C50.8042 188.263 50.8718 188.298 50.9197 188.354C50.9675 188.41 50.9918 188.482 50.9874 188.555C50.9821 188.628 50.9483 188.695 50.8935 188.743C50.8387 188.791 50.7672 188.816 50.6945 188.811C48.8635 188.675 46.6454 189.586 45.7404 190.836C45.7171 190.87 45.686 190.899 45.6496 190.919C45.6132 190.939 45.5726 190.95 45.5311 190.951Z" fill="#F0F0F0"/>
<path d="M25.3017 162.356L12.3959 159.741C11.9564 167.551 12.1605 180.3 12.1709 187.519C12.1709 188.9 11.2607 198.217 11.6164 201.089C12.1395 205.405 17.9359 205.201 18.4433 202.659C18.9508 200.116 19.521 189.303 19.6309 188.178C19.6434 187.841 19.6819 187.505 19.746 187.174C21.1741 180.619 25.218 162.728 25.3017 162.356Z" fill="#B16668"/>
<path d="M20.4625 204.589C20.3735 207.095 19.9864 208.774 19.0291 210.26C18.0717 211.746 16.178 212.264 14.2371 211.876C12.2963 211.489 9.7957 210.401 9.17316 208.251C8.55063 206.101 8.61864 204.615 8.9796 202.282L20.4625 204.589Z" fill="#263238"/>
<path d="M12.1706 186.719C11.3754 186.792 11.2917 190.062 10.9464 193.446C10.5698 197.066 9.37702 198.589 9.05268 201.56C8.66032 204.955 8.91144 206.462 10.3239 208.476C11.7364 210.49 16.5545 212.384 18.804 209.397C20.6402 206.964 20.6297 204.317 20.3472 200.943C20.0342 198.089 19.8823 195.219 19.8921 192.348C19.9653 189.81 20.4152 187.456 19.7404 187.19C19.6985 187.561 19.6619 188.037 19.6148 188.403C19.5834 188.686 19.5468 190.056 19.0917 190.083C19.0454 189.766 19.0332 189.445 19.0551 189.125C19.0729 188.98 19.0602 188.833 19.0179 188.694C18.9756 188.554 18.9045 188.425 18.8092 188.314C18.4305 188.082 18.0055 187.936 17.5641 187.885C16.7794 187.77 15.9947 187.666 15.1943 187.619C14.802 187.619 14.4044 187.592 14.0068 187.619C13.6663 187.619 13.3277 187.67 13.0024 187.77C12.9125 187.797 12.829 187.842 12.757 187.902C12.6851 187.963 12.6261 188.037 12.5839 188.121C12.5492 188.247 12.5403 188.378 12.5577 188.508C12.5629 188.744 12.5366 188.98 12.4792 189.209C12.4792 189.308 12.3798 189.429 12.2647 189.408C12.1497 189.387 12.134 189.293 12.1287 189.209C12.1287 188.801 12.1654 188.503 12.1706 188.027C12.1706 187.807 12.1706 187.598 12.1706 187.378C12.1706 187.158 12.1601 186.938 12.1706 186.719Z" fill="#455A64"/>
<path d="M8.89603 203.527C8.82802 205.62 9.01111 207.064 10.1149 208.638C11.5222 210.652 16.7274 212.546 18.9769 209.564C20.0964 208.078 20.3528 206.347 20.4574 204.584C18.9821 202.361 11.0514 201.544 8.89603 203.527Z" fill="#FAFAFA"/>
<path d="M18.3018 200.953C18.2709 200.961 18.2386 200.961 18.2076 200.953C16.0002 200.189 13.6285 200.03 11.3389 200.493C11.2668 200.512 11.1903 200.503 11.1244 200.468C11.0586 200.433 11.0082 200.375 10.9831 200.305C10.9747 200.27 10.9736 200.234 10.9797 200.199C10.9859 200.164 10.9992 200.131 11.0189 200.102C11.0386 200.072 11.0641 200.047 11.094 200.028C11.1238 200.009 11.1573 199.996 11.1924 199.991C13.6084 199.489 16.1157 199.657 18.4431 200.477C18.4771 200.488 18.5084 200.506 18.5349 200.53C18.5615 200.554 18.5826 200.583 18.597 200.616C18.6113 200.648 18.6186 200.684 18.6182 200.719C18.6178 200.755 18.6098 200.79 18.5948 200.822C18.5635 200.87 18.5193 200.907 18.4674 200.931C18.4155 200.954 18.358 200.962 18.3018 200.953Z" fill="#F0F0F0"/>
<path d="M11.4539 197.945C11.3996 197.945 11.3466 197.929 11.3011 197.899C11.2557 197.87 11.2197 197.827 11.1976 197.778C11.1846 197.745 11.1789 197.709 11.1808 197.674C11.1826 197.638 11.192 197.603 11.2083 197.571C11.2247 197.54 11.2475 197.512 11.2755 197.49C11.3034 197.468 11.3357 197.452 11.3702 197.443C14.8962 196.297 18.4588 197.809 18.6105 197.872C18.6443 197.884 18.6753 197.903 18.7011 197.927C18.7269 197.952 18.747 197.982 18.76 198.016C18.7729 198.049 18.7784 198.085 18.7761 198.121C18.7738 198.156 18.7636 198.191 18.7465 198.223C18.7056 198.285 18.6436 198.332 18.5716 198.353C18.4996 198.374 18.4225 198.368 18.3541 198.338C18.3175 198.338 14.8543 196.857 11.5533 197.93C11.5217 197.942 11.4878 197.947 11.4539 197.945Z" fill="#F0F0F0"/>
<path d="M11.5795 195.565C11.5264 195.562 11.475 195.546 11.4308 195.516C11.3865 195.487 11.3512 195.446 11.3284 195.398C11.3145 195.365 11.3076 195.33 11.3084 195.295C11.3092 195.26 11.3176 195.225 11.3329 195.193C11.3483 195.161 11.3704 195.133 11.3976 195.111C11.4248 195.088 11.4565 195.072 11.4906 195.063C13.9171 194.269 16.553 194.415 18.8773 195.471C18.9097 195.485 18.9386 195.506 18.9622 195.532C18.9857 195.559 19.0033 195.59 19.0137 195.624C19.0241 195.657 19.0271 195.693 19.0226 195.728C19.018 195.763 19.0059 195.797 18.9872 195.827C18.9438 195.888 18.8794 195.931 18.8062 195.949C18.733 195.966 18.6559 195.956 18.5896 195.921C16.4192 194.96 13.9726 194.826 11.7103 195.544C11.6682 195.558 11.624 195.565 11.5795 195.565Z" fill="#F0F0F0"/>
<path d="M11.7366 192.887C11.6839 192.885 11.6326 192.869 11.5883 192.841C11.544 192.812 11.5085 192.772 11.4855 192.724C11.4715 192.692 11.4644 192.658 11.4649 192.623C11.4653 192.588 11.4732 192.553 11.4881 192.521C11.503 192.49 11.5244 192.462 11.551 192.439C11.5776 192.416 11.6088 192.399 11.6424 192.39C15.273 191.092 18.9297 192.792 19.0867 192.866C19.1195 192.879 19.1489 192.9 19.173 192.926C19.1971 192.952 19.2153 192.983 19.2262 193.017C19.2371 193.051 19.2406 193.087 19.2364 193.122C19.2322 193.157 19.2204 193.191 19.2018 193.221C19.1592 193.284 19.0955 193.329 19.0225 193.348C18.9495 193.367 18.872 193.359 18.8042 193.326C18.7676 193.326 15.2364 191.662 11.8674 192.866C11.826 192.883 11.7812 192.89 11.7366 192.887Z" fill="#EBEBEB"/>
<path d="M15.8589 102.148C15.0585 116.88 13.8134 144.078 13.8134 144.078C13.6355 145.794 12.0661 153.374 11.9092 159.557C11.6476 169.497 12.0452 178.683 12.0452 178.683C12.0452 178.683 17.7422 181.116 21.6971 179.547C21.6971 179.547 26.9285 157.088 28.2311 150.622C29.8005 142.916 33.1486 127.578 33.1486 127.578L35.7642 147.933C35.7642 147.933 34.9377 155.184 35.7642 161.174C36.324 165.254 38.4323 178.83 38.4323 178.83C38.4323 178.83 43.6636 179.955 47.99 178.584C47.99 178.584 50.0041 149.738 50.2552 145.977C50.5063 142.215 51.2387 122.859 50.3127 99.1298L15.8589 102.148Z" fill="#37474F"/>
<path d="M48.2097 175.911C46.1171 177.48 40.3626 177.381 37.9509 176.115L38.6833 180.384C40.4044 181.383 45.4841 181.576 48.0109 179.834L48.2097 175.911Z" fill="#263238"/>
<path d="M22.3457 177.004C19.3534 178.322 13.7035 177.527 11.9353 175.89V180.075C13.3268 181.466 18.7047 182.141 21.5506 181.074L22.3457 177.004Z" fill="#263238"/>
<path d="M33.1487 127.552L35.3459 114.358C38.0987 114.205 40.7114 113.095 42.7326 111.219C42.7326 111.219 42.3873 114.259 36.5072 116.205L34.4931 127.154L35.7853 147.928L33.1487 127.552Z" fill="#263238"/>
<path d="M52.4733 7.07845C52.4733 5.75492 52.3686 4.58832 52.3582 2.94567C52.3477 1.30301 52.6616 0.146879 53.4986 0.0108628C54.3356 -0.125153 54.7332 1.02052 54.9739 3.202C55.3557 6.6861 55.6382 9.19193 55.973 9.25471C56.9199 7.99918 57.2233 7.68529 58.2644 8.28167C58.9654 8.68449 58.8765 9.78831 58.8765 9.78831C59.0516 9.58223 59.2979 9.44955 59.5663 9.4166C59.8347 9.38365 60.1058 9.45284 60.3256 9.61044C60.5543 9.76303 60.7354 9.97692 60.8483 10.2276C60.9611 10.4783 61.0012 10.7558 60.9638 11.0281C60.9638 11.0281 61.4869 10.5469 62.1356 11.1799C62.3932 11.4248 62.594 11.7231 62.7242 12.0538C62.8543 12.3846 62.9105 12.7398 62.8889 13.0945L62.2089 12.8277C62.1157 13.0478 61.9724 13.2431 61.7903 13.398C61.4869 13.67 61.2672 14.4442 61.0632 15.1191C60.8592 15.7939 60.7127 16.5577 60.0901 16.6885C59.9744 16.7333 59.8506 16.7535 59.7266 16.7479C59.6027 16.7422 59.4812 16.7109 59.37 16.6558C59.2588 16.6007 59.1603 16.523 59.0808 16.4278C59.0012 16.3326 58.9423 16.2218 58.9079 16.1026C58.8789 15.8305 58.8895 15.5556 58.9392 15.2865C58.9392 15.2865 58.6044 16.2438 57.7256 16.1078C56.8467 15.9718 56.8519 15.1871 56.8205 14.6796C56.2974 14.8837 55.7743 15.0301 55.497 14.6378C55.2197 14.2454 55.2145 12.5452 55.2145 12.5452L53.802 12.2732C53.802 12.2732 52.5413 12.132 52.5203 11.1955C52.4837 9.5529 52.4785 8.56417 52.4733 7.07845Z" fill="#B16668"/>
<path d="M62.8943 13.0945C62.6484 14.4181 61.4766 19.0426 61.1208 19.6913C60.6919 20.4655 60.5244 21.2921 60.5977 23.6776C60.6395 24.9698 62.256 40.7057 62.256 40.7057L52.3164 38.0116L53.4464 23.5102C53.0593 20.8265 52.4368 19.6442 51.537 18.509C50.3547 17.0076 50.1454 16.0973 50.25 15.2969C50.4697 13.6386 51.0347 11.274 51.2963 10.8712C51.6939 10.2277 52.8657 9.90339 52.8657 9.90339C53.3311 9.76083 53.8209 9.7163 54.3043 9.77261L56.7317 11.499C56.7317 11.499 56.7317 12.2837 56.1563 12.5452C55.8604 12.6873 55.5274 12.7331 55.2041 12.676C55.2041 12.676 55.1466 14.2454 55.5023 14.575C55.8581 14.9046 56.1301 14.9883 56.7055 14.4965C56.7997 15.0772 56.9043 15.9666 57.5949 16.066C58.2854 16.1654 58.9446 15.3074 58.9446 15.3074C58.9446 15.3074 59.0911 16.8768 59.6037 16.8768C60.1164 16.8768 61.3824 11.9593 61.3824 11.9593L62.8943 13.0945Z" fill="#B16668"/>
<path d="M52.6616 30.6772L52.8447 27.6378C52.8447 27.6378 54.2886 28.4591 57.0298 28.2655C58.4145 28.2194 59.7808 27.9344 61.0684 27.4233L61.4294 30.7452C61.4294 30.7452 56.9409 33.1412 52.6616 30.6772Z" fill="#FAFAFA"/>
<path d="M52.6196 13.3927C53.6062 13.8067 54.5195 14.3773 55.3243 15.0825C56.3251 16.0019 57.1479 17.0979 57.7516 18.3155C57.493 17.1304 56.9285 16.0338 56.1142 15.1348C56.3047 15.1231 56.4871 15.0537 56.6373 14.936C56.6373 15.6684 56.7577 16.3589 57.6836 16.3642C57.8852 16.3807 58.0877 16.3446 58.2711 16.2593C58.4545 16.174 58.6126 16.0425 58.7299 15.8776C58.7156 16.0758 58.7608 16.2737 58.8595 16.4461C58.9583 16.6185 59.1062 16.7575 59.2844 16.8454C59.4802 16.9539 59.7085 16.9883 59.9276 16.9422C60.1466 16.896 60.3417 16.7726 60.4772 16.5943C60.5259 16.5152 60.5696 16.4331 60.608 16.3485C60.6109 16.3347 60.6109 16.3204 60.608 16.3066C60.608 16.3066 60.6079 16.3066 60.5818 16.3066L60.4772 16.4008C60.3611 16.5229 60.2173 16.6153 60.0579 16.6699C59.8985 16.7246 59.7283 16.7399 59.5617 16.7147C59.4484 16.6526 59.3511 16.5649 59.2775 16.4587C59.2039 16.3524 59.1562 16.2305 59.1379 16.1026C59.07 15.7079 59.07 15.3045 59.1379 14.9098C59.1428 14.8945 59.1428 14.8781 59.1379 14.8628C59.1379 14.8314 59.0595 14.8628 59.0333 14.8889C58.8764 15.0668 58.7665 15.2813 58.62 15.4696C58.5253 15.5882 58.4039 15.6827 58.2657 15.7454C58.1275 15.8082 57.9765 15.8373 57.8249 15.8306C57.1709 15.8306 57.014 15.0197 57.0297 14.4913C57.0297 14.3187 57.0558 14.1461 57.0558 13.9682C57.0558 13.9682 57.0558 13.9106 57.0192 13.9106C56.9325 13.9842 56.8599 14.0728 56.8047 14.1722C56.7363 14.2758 56.6555 14.3706 56.5641 14.4547C56.4538 14.569 56.3116 14.6474 56.156 14.6797C55.8055 14.7372 55.6643 14.4181 55.544 14.1565C55.3543 13.717 55.2839 13.2352 55.34 12.7597V12.7127H55.4655C56.7263 12.8853 57.1709 11.6664 56.7681 11.3263C56.3653 10.9863 54.6494 9.70984 54.2152 9.64183C53.758 9.62242 53.3018 9.69905 52.876 9.86678L54.1524 9.80924C54.1524 9.80924 56.6059 11.3787 56.5798 11.6873C56.5438 11.9095 56.4264 12.1103 56.2503 12.2506C56.0743 12.3908 55.8523 12.4605 55.6277 12.4459C54.9985 12.4011 54.3768 12.2817 53.7758 12.0901C53.713 12.6237 52.6196 13.3927 52.6196 13.3927ZM53.3939 12.9376C53.5828 12.8377 53.7349 12.68 53.8281 12.4877C53.8281 12.4877 54.121 12.5662 55.0941 12.7022C54.9991 12.9043 54.917 13.1122 54.8482 13.3247C54.8033 13.4418 54.7378 13.5499 54.6546 13.6438C54.6337 13.6705 54.6068 13.692 54.5762 13.7066C54.2022 13.4206 53.807 13.1635 53.3939 12.9376Z" fill="#9A4A4D"/>
<path d="M41.6079 56.8184C42.854 55.3318 44.2017 53.9335 45.6413 52.6333C47.3624 51.0168 51.2545 43.1122 51.2545 43.1122L52.4682 29.4321C53.797 30.8132 59.269 30.651 61.3616 29.4897C61.3616 29.4897 62.0521 33.3923 62.7217 41.0981C63.0408 44.6921 63.0931 45.2832 60.671 50.6768C59.065 54.255 57.8461 56.4313 55.5495 61.218C53.5354 65.4397 50.1141 72.2876 49.4811 75.2695C49.3085 76.0699 49.3137 77.1528 48.2151 77.1737C46.5306 77.2051 45.0083 71.6232 43.8312 69.2429C41.6079 64.7335 41.3411 58.89 41.6079 56.8184Z" fill="#E67503"/>
<path opacity="0.2" d="M41.6079 56.8184C42.854 55.3318 44.2017 53.9335 45.6413 52.6333C47.3624 51.0168 51.2545 43.1122 51.2545 43.1122L52.4682 29.4321C53.797 30.8132 59.269 30.651 61.3616 29.4897C61.3616 29.4897 62.0521 33.3923 62.7217 41.0981C63.0408 44.6921 63.0931 45.2832 60.671 50.6768C59.065 54.255 57.8461 56.4313 55.5495 61.218C53.5354 65.4397 50.1141 72.2876 49.4811 75.2695C49.3085 76.0699 49.3137 77.1528 48.2151 77.1737C46.5306 77.2051 45.0083 71.6232 43.8312 69.2429C41.6079 64.7335 41.3411 58.89 41.6079 56.8184Z" fill="black"/>
<path d="M26.3425 57.2735C20.9647 58.4767 19.3482 58.9946 16.8057 59.5858C16.8057 59.5858 12.0661 72.9258 14.347 82.2272C14.8701 84.3668 16.0681 91.2461 16.0629 95.1748C16.0629 98.9257 16.021 100.15 15.6234 105.475C15.6234 105.475 22.8218 110.498 37.8725 108.965C49.6902 107.762 50.5115 103.603 50.5115 103.603C50.5115 103.603 49.8628 87.3382 49.5803 78.6489C49.2978 69.8393 48.0737 62.6409 45.3638 58.5186C44.9066 57.8407 44.258 57.3141 43.5007 57.0057C42.7434 56.6974 41.9114 56.6212 41.1107 56.787C38.7723 57.2369 36.4025 57.4409 36.4025 57.4409L26.3425 57.2735Z" fill="#E67503"/>
<path d="M1.01216 86.9145C0.117599 89.8545 0.248386 91.0996 1.21096 94.0344C1.81431 95.8689 2.4072 97.7086 2.98962 99.5535C3.76387 102.002 5.08219 106.087 5.35422 107.05C5.66465 108.033 5.78883 109.066 5.7204 110.095C5.56448 111.146 5.49972 112.208 5.52685 113.27C5.56658 114.535 5.78859 115.788 6.18601 116.99C6.45804 117.821 6.60451 118.721 6.93409 119.527C7.22867 120.084 7.57924 120.61 7.98036 121.096C8.37272 121.672 8.47734 122.383 8.96909 122.901C9.83749 123.817 10.7896 124 11.6371 124.471C11.9824 125.041 12.5421 126.228 12.9345 126.762C13.9284 128.127 14.3156 126.019 14.326 125.292C14.3091 124.513 14.2109 123.738 14.0331 122.98C13.6015 121.081 13.2784 119.16 13.0653 117.225C13.0286 116.88 12.7043 115.446 13.2745 115.483C13.3667 115.501 13.4545 115.537 13.5327 115.589C13.6108 115.641 13.6778 115.708 13.7296 115.786C14.0573 116.273 14.3594 116.776 14.6347 117.293C14.8958 117.674 15.1843 118.036 15.4979 118.376C15.7409 118.686 16.041 118.947 16.382 119.145C16.7429 119.323 18.0926 119.511 18.192 118.889C18.2006 118.788 18.1825 118.687 18.1397 118.596C17.9043 117.931 17.6166 117.293 17.3655 116.634C17.1033 115.98 16.8815 115.311 16.7011 114.63C16.2459 112.491 15.796 110.733 14.6085 108.923C12.516 105.674 10.7687 90.3567 10.7687 90.3567L14.9538 78.4083C14.9538 78.4083 18.4431 73.6059 18.6157 67.5793C18.7884 61.5528 16.6854 59.7741 16.6854 59.7741C11.6109 60.6111 9.15742 62.0655 7.62985 66.2819C6.10229 70.4984 1.92242 83.9274 1.01216 86.9145Z" fill="#B16668"/>
<path d="M12.2179 99.7209L12.8613 102.98C12.8613 102.98 11.5535 102.624 8.29436 103.796C7.05841 104.196 5.89061 104.781 4.83119 105.533L3.78491 102.242L12.2179 99.7209Z" fill="#FAFAFA"/>
<path d="M0.122966 88.9495C0.332221 87.8457 1.865 81.432 4.39176 73.5536C6.91851 65.6751 7.46258 65.0683 9.37204 62.7612C11.2815 60.4542 14.3366 60.0618 16.8268 59.5753C16.8268 59.5753 18.8408 61.197 18.9193 66.5435C18.9839 70.6452 17.871 74.6793 15.7125 78.1676L10.9415 90.3097L12.4167 100.605C9.36842 100.613 6.43108 101.749 4.17205 103.796L1.26864 95.4259C-0.211841 90.77 -0.0810582 90.0586 0.122966 88.9495Z" fill="#E67503"/>
<path opacity="0.2" d="M0.122966 88.9495C0.332221 87.8457 1.865 81.432 4.39176 73.5536C6.91851 65.6751 7.46258 65.0683 9.37204 62.7612C11.2815 60.4542 14.3366 60.0618 16.8268 59.5753C16.8268 59.5753 18.8408 61.197 18.9193 66.5435C18.9839 70.6452 17.871 74.6793 15.7125 78.1676L10.9415 90.3097L12.4167 100.605C9.36842 100.613 6.43108 101.749 4.17205 103.796L1.26864 95.4259C-0.211841 90.77 -0.0810582 90.0586 0.122966 88.9495Z" fill="black"/>
<path d="M36.4811 56.8864C36.4811 56.8864 40.1012 60.0252 38.9765 63.0594C37.8518 66.0936 32.6988 66.7214 28.6393 63.9331C24.5797 61.1447 24.8675 57.8176 24.8675 57.8176L26.3689 57.3206C26.5026 58.0505 26.7995 58.7408 27.2373 59.3399C27.886 60.088 35.3773 63.049 35.5552 63.954C35.5552 63.954 36.659 61.7411 36.9833 60.9146C37.3077 60.088 35.6075 56.7713 35.6075 56.7713L36.4811 56.8864Z" fill="#FAFAFA"/>
<path d="M42.0262 38.2261C43.0725 35.2599 41.5554 31.5404 39.9336 29.8559C37.5795 27.4285 34.1268 26.5653 29.0733 27.2402C25.2335 27.7633 21.5558 29.6518 21.1268 33.6695C18.0979 34.8257 18.8303 39.8949 19.7667 42.0816C21.6709 46.5283 25.0504 50.2687 25.2753 52.5967L42.0262 38.2261Z" fill="#263238"/>
<path d="M42.8214 48.9556C42.3767 51.1999 41.2206 52.9105 39.2118 53.3814C38.1497 53.5675 37.0725 53.6533 35.9944 53.6377V57.5508C37.4906 59.3661 36.7582 61.6731 35.5498 63.954C33.4572 61.4272 27.4464 60.428 24.9929 57.3938L24.7888 48.3436C24.7888 48.3436 23.6484 49.8554 21.4983 48.6679C20.6232 48.1161 19.9655 47.2789 19.6366 46.298C19.3078 45.317 19.3278 44.2526 19.6935 43.2848C20.5514 41.0615 22.6544 41.7991 23.3554 42.4059C24.0564 43.0128 24.8516 44.1846 25.3591 43.9754C25.6534 43.8594 25.9141 43.6719 26.1178 43.4298C26.3215 43.1878 26.4617 42.8988 26.5257 42.589C26.9042 41.2195 27.0249 39.7914 26.8814 38.3778C27.4126 38.0589 27.875 37.6374 28.2416 37.1379C29.0472 36.0917 29.0315 34.9303 28.9896 33.8683C33.2898 32.1629 38.9293 32.2989 40.8753 33.5858C42.0629 35.3593 42.4447 39.6647 42.7848 42.1339C43.1784 44.3898 43.1907 46.6957 42.8214 48.9556Z" fill="#B16668"/>
<path d="M35.9944 53.6377C33.7344 53.6744 29.1256 52.9629 27.8282 51.7963C26.5308 50.6297 25.8193 48.0925 25.8193 48.0925C25.8193 48.0925 26.1228 50.8076 27.1638 52.1729C28.2048 53.5383 30.7264 54.2655 32.1859 54.5009C33.6455 54.7363 35.9944 54.8619 35.9944 54.8619V53.6377Z" fill="#9A4A4D"/>
<path d="M33.6666 41.3021C33.6804 41.427 33.6691 41.5533 33.6335 41.6738C33.5979 41.7943 33.5388 41.9065 33.4594 42.0039C33.38 42.1012 33.2821 42.1819 33.1713 42.241C33.0604 42.3002 32.939 42.3367 32.8139 42.3484C32.5616 42.3613 32.3145 42.2739 32.1264 42.1054C31.9382 41.9368 31.8243 41.7008 31.8095 41.4486C31.795 41.3236 31.8057 41.197 31.841 41.0762C31.8763 40.9555 31.9355 40.843 32.0149 40.7454C32.0944 40.6479 32.1927 40.5673 32.3038 40.5084C32.415 40.4494 32.5368 40.4134 32.6622 40.4023C32.7873 40.3953 32.9125 40.413 33.0307 40.4544C33.149 40.4958 33.2578 40.5602 33.3511 40.6438C33.4445 40.7274 33.5203 40.8285 33.5745 40.9415C33.6286 41.0545 33.6599 41.177 33.6666 41.3021Z" fill="#263238"/>
<path d="M40.8805 38.8067L38.72 38.0325C38.7636 37.8896 38.8358 37.7571 38.9321 37.6429C39.0285 37.5287 39.1471 37.4353 39.2806 37.3683C39.4141 37.3013 39.5598 37.2621 39.709 37.2531C39.8581 37.244 40.0075 37.2654 40.1481 37.3158C40.4376 37.4236 40.6749 37.6382 40.8111 37.9155C40.9473 38.1928 40.9722 38.5117 40.8805 38.8067Z" fill="#263238"/>
<path d="M32.4948 38.88L30.7528 40.3761C30.6494 40.2675 30.5692 40.1388 30.5172 39.9981C30.4652 39.8574 30.4424 39.7076 30.4502 39.5577C30.4581 39.4079 30.4964 39.2613 30.5628 39.1268C30.6292 38.9922 30.7223 38.8727 30.8365 38.7753C31.0733 38.5762 31.3778 38.4759 31.6866 38.4954C31.9954 38.5149 32.2849 38.6526 32.4948 38.88Z" fill="#263238"/>
<path d="M40.7602 40.3343C40.7668 40.5179 40.7194 40.6995 40.6237 40.8563C40.5279 41.0131 40.3882 41.1383 40.2218 41.2163C40.0555 41.2943 39.8698 41.3216 39.688 41.2949C39.5063 41.2681 39.3364 41.1885 39.1995 41.0659C39.0627 40.9433 38.9649 40.7832 38.9184 40.6054C38.8719 40.4277 38.8787 40.2402 38.938 40.0663C38.9973 39.8923 39.1065 39.7397 39.2519 39.6274C39.3972 39.5151 39.5725 39.448 39.7557 39.4345C40.008 39.4217 40.2551 39.509 40.4432 39.6776C40.6314 39.8461 40.7453 40.0822 40.7602 40.3343Z" fill="#263238"/>
<path d="M35.7275 39.0213L36.8941 45.6547L40.3992 44.305L35.7275 39.0213Z" fill="#9A4A4D"/>
<path d="M33.3004 46.9154C33.2052 47.4113 33.307 47.9248 33.5843 48.3468C33.8615 48.7689 34.2922 49.0663 34.7852 49.1759C35.2781 49.2855 35.7943 49.1987 36.2243 48.9339C36.6542 48.6691 36.964 48.2472 37.088 47.7577L33.3004 46.9154Z" fill="#9A4A4D"/>
<path d="M33.7868 47.8885C34.2274 47.8128 34.6805 47.8973 35.0643 48.1266C35.4481 48.3559 35.7372 48.7149 35.8793 49.1388C35.6402 49.2326 35.3847 49.2777 35.1279 49.2715C34.8711 49.2653 34.618 49.2079 34.3837 49.1026C34.1493 48.9974 33.9383 48.8464 33.7631 48.6586C33.5878 48.4708 33.4518 48.2499 33.363 48.0088C33.4998 47.9543 33.6418 47.914 33.7868 47.8885Z" fill="#F28F8F"/>
<path d="M35.5497 63.9592C34.3883 63.2948 32.0865 61.8039 30.9984 63.2687C29.9103 64.7335 29.1308 66.4075 28.299 66.1878C27.4672 65.9681 24.3598 63.9278 23.256 61.7306C22.7208 60.6462 22.4111 59.4645 22.3457 58.257C22.9216 57.4179 23.4458 56.5444 23.9151 55.6413C24.3598 54.7101 24.2133 54.2602 24.9614 54.1922L25.0137 56.515C25.8986 57.4676 26.8745 58.3314 27.9276 59.094C29.9469 60.4803 33.9908 60.7785 35.5497 63.9592Z" fill="#EBEBEB"/>
<path d="M35.5498 63.9592C36.2142 63.3262 36.6693 62.2381 37.7888 62.5258C38.9083 62.8135 40.5615 65.3089 40.5772 64.7125C40.5928 64.1162 39.7715 59.9049 38.8979 58.6755C38.0242 57.4461 36.753 55.0868 35.9945 55.1496V57.556C35.9945 57.556 36.8524 59.3765 36.7216 60.381C36.5908 61.3854 35.6649 62.9809 35.5498 63.9592Z" fill="#EBEBEB"/>
<path d="M90.2791 64.7706L167.792 20.2745C174.583 16.3818 190.523 21.6667 190.523 32.5777C190.52 31.6944 190.285 30.8274 189.842 30.0631C189.399 29.2988 188.764 28.6638 188 28.2212C187.235 27.7787 186.368 27.544 185.485 27.5406C184.602 27.5372 183.733 27.7652 182.965 28.2019L105.424 72.6981C102.88 74.1819 100.833 76.387 99.542 79.0344L84.4827 70.5102C85.8452 68.0965 87.8521 66.1093 90.2791 64.7706Z" fill="#E67503"/>
<path d="M99.6844 79.0343C98.5894 81.1322 98.0053 83.4589 97.9795 85.8252V143.392C97.9774 144.274 98.2075 145.142 98.6467 145.907C99.0859 146.672 99.7188 147.309 100.482 147.752C101.245 148.196 102.111 148.43 102.993 148.433C103.876 148.436 104.744 148.206 105.509 147.767C103.276 149.132 100.724 149.886 98.1082 149.954C95.4922 150.023 92.9042 149.403 90.6029 148.158C88.3015 146.912 86.3675 145.084 84.9944 142.857C83.6212 140.629 82.8569 138.08 82.7781 135.464V77.8978C82.7805 75.298 83.4559 72.7431 84.7386 70.4818L99.6844 79.0343Z" fill="#E67503"/>
<path opacity="0.4" d="M90.2791 64.7706L167.792 20.2745C174.583 16.3818 190.523 21.6667 190.523 32.5777C190.52 31.6944 190.285 30.8274 189.842 30.0631C189.399 29.2988 188.764 28.6638 188 28.2212C187.235 27.7787 186.368 27.544 185.485 27.5406C184.602 27.5372 183.733 27.7652 182.965 28.2019L105.424 72.6981C102.88 74.1819 100.833 76.387 99.542 79.0344L84.4827 70.5102C85.8452 68.0965 87.8521 66.1093 90.2791 64.7706Z" fill="white"/>
<path opacity="0.2" d="M99.6844 79.0343C98.5894 81.1322 98.0053 83.4589 97.9795 85.8252V143.392C97.9774 144.274 98.2075 145.142 98.6467 145.907C99.0859 146.672 99.7188 147.309 100.482 147.752C101.245 148.196 102.111 148.43 102.993 148.433C103.876 148.436 104.744 148.206 105.509 147.767C103.276 149.132 100.724 149.886 98.1082 149.954C95.4922 150.023 92.9042 149.403 90.6029 148.158C88.3015 146.912 86.3675 145.084 84.9944 142.857C83.6212 140.629 82.8569 138.08 82.7781 135.464V77.8978C82.7805 75.298 83.4559 72.7431 84.7386 70.4818L99.6844 79.0343Z" fill="white"/>
<path d="M183.108 28.202L105.566 72.6981C103.26 74.0265 101.344 75.9394 100.012 78.244C98.6803 80.5486 97.9794 83.1635 97.98 85.8253V143.392C97.9779 144.274 98.208 145.142 98.6472 145.907C99.0864 146.673 99.7193 147.309 100.482 147.752C101.245 148.196 102.111 148.43 102.994 148.433C103.876 148.436 104.744 148.206 105.51 147.768L183.051 103.47C185.361 102.143 187.281 100.232 188.618 97.9272C189.954 95.6228 190.661 93.0071 190.666 90.3431V32.5777C190.662 31.6944 190.428 30.8275 189.985 30.0632C189.542 29.2988 188.907 28.6638 188.142 28.2213C187.378 27.7787 186.511 27.544 185.628 27.5407C184.745 27.5373 183.876 27.7653 183.108 28.202Z" fill="#E67503"/>
<path d="M79.3123 115.177L97.9518 118.672V94.7755L78.6588 112.989C78.4868 113.151 78.3633 113.359 78.3021 113.587C78.2408 113.816 78.2443 114.057 78.312 114.284C78.3798 114.511 78.5091 114.714 78.6858 114.872C78.8624 115.03 79.0793 115.135 79.3123 115.177Z" fill="#E67503"/>
<path d="M97.9514 94.7755L82.6648 86.0241L63.4002 104.436C63.2543 104.574 63.1429 104.745 63.0751 104.933C63.0073 105.122 62.985 105.325 63.0099 105.524C63.0348 105.723 63.1062 105.914 63.2185 106.08C63.3307 106.247 63.4805 106.384 63.6559 106.482L78.8857 115.006L97.9514 94.7755Z" fill="#E67503"/>
<path opacity="0.2" d="M97.9514 94.7755L82.6648 86.0241L63.4002 104.436C63.2543 104.574 63.1429 104.745 63.0751 104.933C63.0073 105.122 62.985 105.325 63.0099 105.524C63.0348 105.723 63.1062 105.914 63.2185 106.08C63.3307 106.247 63.4805 106.384 63.6559 106.482L78.8857 115.006L97.9514 94.7755Z" fill="white"/>
<path d="M171.316 46.813C173.22 45.7049 174.555 47.8927 172.822 50.6489C160.351 70.3352 149.444 90.9702 140.203 112.364C139.255 114.778 137.563 116.828 135.373 118.217C134.701 118.747 133.87 119.035 133.014 119.035C132.159 119.035 131.328 118.747 130.656 118.217C126.056 113.843 121.03 109.941 115.654 106.567C114.176 105.63 115.398 102.192 117.302 101.083C117.53 100.947 117.78 100.851 118.04 100.799C123.656 99.6853 129.419 99.522 135.089 100.316C144.541 81.4265 156.31 63.7877 170.123 47.8075C170.458 47.4075 170.862 47.0707 171.316 46.813Z" fill="white"/>
</svg>
