<svg width="40" height="40" viewBox="0 0 40 40" fill="none" xmlns="http://www.w3.org/2000/svg">
<g clip-path="url(#clip0_397_2668)">
<path d="M30.9365 6.2207C32.7188 7.69544 34.5113 9.18023 36.0396 10.9242C35.8443 10.8458 35.6349 10.8133 35.4307 10.7682C34.2811 10.5151 33.1322 10.2623 31.9826 10.0092C31.7766 9.96478 31.573 9.90723 31.3628 9.88924L31.3151 9.89978C31.3627 9.74918 31.3144 9.5924 31.3007 9.43994C31.2021 8.62895 31.1062 7.81698 31.0091 7.00595C30.9816 6.74438 30.9307 6.48459 30.9365 6.2207Z" fill="#F5655E"/>
<path d="M6.29352 8.40463C6.95791 7.8072 7.62891 7.19415 8.41836 6.76712C8.22033 7.30604 7.99138 7.83267 7.74648 8.3518C7.44556 8.96141 7.2298 9.60807 6.94327 10.2237C7.30919 10.4886 7.73762 10.643 8.11168 10.8938C9.82826 11.8314 11.5306 12.793 13.246 13.733C13.2611 13.833 13.3759 13.839 13.4476 13.884C11.3465 15.1096 9.25519 16.3525 7.15698 17.5846C5.94721 18.3082 4.71698 19.0005 3.51923 19.7448C3.5118 19.7383 3.49693 19.7253 3.4895 19.7188C3.5685 19.5875 3.61806 19.4423 3.66672 19.2974C4.74425 16.2769 5.83065 13.2599 6.90573 10.2382C5.80917 10.6399 4.72139 11.0659 3.63166 11.4866C3.54034 11.5215 3.44379 11.5405 3.34752 11.5589C4.2689 10.4532 5.25211 9.39765 6.29352 8.40463Z" fill="#F5655E"/>
<path d="M10.9565 23.141C13.633 23.7669 16.3873 24.0266 19.1336 23.9881C19.462 26.7119 19.7767 29.4376 20.0996 32.1619C20.1228 32.4102 20.1742 32.656 20.1718 32.9065C19.2976 32.0281 18.4651 31.1086 17.6075 30.214C15.4185 27.8972 13.2292 25.581 11.0401 23.2642C11.0194 23.2335 10.9773 23.1717 10.9565 23.141Z" fill="#F5655E"/>
<path d="M26.9125 4.46815C27.9911 4.86086 29.0507 5.39137 29.8704 6.21048C30.3896 6.73701 30.7831 7.44329 30.7589 8.20025C30.7467 8.82807 30.4569 9.41892 30.063 9.89646C29.57 10.5101 28.9159 10.9693 28.2425 11.3663C26.5689 12.3039 24.694 12.8158 22.8121 13.1342C20.245 13.5385 17.6139 13.563 15.0446 13.1582C13.3464 12.868 11.6453 12.4118 10.1539 11.5239C9.40295 11.0539 8.67402 10.4557 8.31241 9.62589C8.0245 8.98649 8.05703 8.22145 8.37952 7.60102C8.74559 6.86404 9.3775 6.30225 10.0421 5.83821C10.9654 5.21575 11.9971 4.77683 13.0493 4.42169C16.1112 3.45254 19.3772 3.20695 22.5656 3.51195C24.0424 3.67257 25.5162 3.95302 26.9125 4.46815Z" fill="#EF0E13"/>
<path d="M31.3153 9.89949L31.3629 9.88895C31.813 12.6963 32.229 15.5092 32.6655 18.3184C32.7856 19.0024 32.8487 19.6979 33.0011 20.3754C33.3411 20.1668 33.6713 19.9424 34.0043 19.7231C34.3141 19.5198 34.5778 19.2522 34.9001 19.0668C30.459 23.2823 25.9974 27.4761 21.5489 31.6836C21.1166 32.0868 20.693 32.5002 20.2551 32.8979C20.427 32.5691 20.6539 32.2744 20.8578 31.9666C22.7879 29.1285 24.7156 26.2891 26.6455 23.4516C26.8046 23.2486 26.9046 22.9803 27.1233 22.8353C27.8182 22.5997 28.5349 22.426 29.2168 22.1498C30.5249 21.6837 31.7869 21.0894 32.9819 20.3813C30.4676 18.4185 27.9759 16.4267 25.4702 14.4537C25.2113 14.2368 24.9246 14.0518 24.6925 13.8049C26.9 12.5028 29.1021 11.1914 31.3153 9.89949Z" fill="#EF0E13"/>
<path d="M13.4908 13.8658C17.2185 13.8426 20.9474 13.8245 24.6758 13.8203C22.8432 17.1963 21.0008 20.5678 19.1494 23.9343C19.0015 23.7471 18.902 23.5304 18.7837 23.3249C17.1151 20.3587 15.4494 17.3908 13.7816 14.4242C13.676 14.2428 13.574 14.0585 13.4908 13.8658Z" fill="#EF0E13"/>
<path d="M35.431 10.7681C35.6352 10.8132 35.8446 10.8457 36.0399 10.9241C36.1655 11.0806 36.2941 11.2339 36.4254 11.3862C36.7413 11.8179 37.0882 12.2349 37.308 12.7277C37.4861 13.1769 37.6733 13.6341 37.6962 14.1235C37.7475 15.0335 37.4267 15.9228 36.9822 16.7038C36.4547 17.6217 35.694 18.3776 34.9003 19.067C34.5779 19.2524 34.3143 19.52 34.0045 19.7233C33.6714 19.9426 33.3412 20.167 33.0013 20.3756C32.8489 19.6981 32.7858 19.0026 32.6656 18.3186C32.2291 15.5094 31.8131 12.6965 31.3631 9.88914C31.5733 9.90713 31.7769 9.96468 31.9829 10.0091C33.1324 10.2622 34.2814 10.515 35.431 10.7681Z" fill="#980B0F"/>
<path d="M24.6756 13.8202C24.6797 13.8162 24.6887 13.8084 24.6925 13.8049C24.9246 14.0519 25.2113 14.2369 25.4702 14.4538C27.976 16.4268 30.4676 18.4186 32.9819 20.3814C31.7869 21.0895 30.5249 21.6837 29.2168 22.1499C28.535 22.4261 27.8183 22.5998 27.1233 22.8354C26.9046 22.9804 26.8046 23.2487 26.6455 23.4517C24.7157 26.2892 22.788 29.1285 20.8578 31.9667C20.6539 32.2745 20.427 32.5691 20.2551 32.898L20.2152 32.9398C20.0006 32.8134 19.8141 32.6479 19.6188 32.4946C14.2517 28.2458 8.89139 23.9875 3.5193 19.7446C4.71705 19.0003 5.94728 18.308 7.15705 17.5844C9.25526 16.3522 11.3465 15.1093 13.4477 13.8838C13.3759 13.8388 13.2612 13.8328 13.2461 13.7328C13.3251 13.7812 13.4028 13.8327 13.4906 13.8658C13.5737 14.0584 13.6758 14.2427 13.7814 14.4242C15.4491 17.3907 17.1148 20.3586 18.7835 23.3248C18.9018 23.5303 19.0013 23.7471 19.1492 23.9342C21.0005 20.5677 22.843 17.1962 24.6756 13.8202ZM10.9564 23.1411C10.9772 23.1718 11.0193 23.2336 11.04 23.2643C13.2291 25.5811 15.4184 27.8973 17.6074 30.2141C18.465 31.1087 19.2975 32.0282 20.1717 32.9066C20.1741 32.6562 20.1227 32.4103 20.0995 32.162C19.7766 29.4377 19.4618 26.7121 19.1335 23.9882C16.3872 24.0267 13.6329 23.767 10.9564 23.1411Z" fill="#980B0F"/>
<path d="M3.63154 11.4867C4.72127 11.066 5.80906 10.64 6.90561 10.2383C5.83053 13.26 4.74413 16.277 3.6666 19.2975C3.61794 19.4424 3.56838 19.5876 3.48938 19.7189C3.15773 19.4162 2.83317 19.1063 2.53794 18.7675C2.34461 17.7502 2.26844 16.7131 2.26206 15.6789C2.27583 14.6002 2.34858 13.5156 2.58393 12.461C2.84853 12.1691 3.08529 11.8536 3.34741 11.559C3.44367 11.5406 3.54022 11.5216 3.63154 11.4867Z" fill="#980B0F"/>
</g>
<defs>
<clipPath id="clip0_397_2668">
<rect width="40" height="40" fill="white"/>
</clipPath>
</defs>
</svg>
