<svg width="25" height="40" viewBox="0 0 25 40" fill="none" xmlns="http://www.w3.org/2000/svg">
<g clip-path="url(#clip0_397_2733)">
<path d="M5.18846 1.61133H12.5269C12.5314 3.45324 12.518 5.2959 12.5329 7.1378C14.3434 7.155 16.1547 7.13482 17.966 7.14678C18.6814 7.87038 19.405 8.58651 20.1233 9.30788C20.1263 16.9349 20.1263 24.5612 20.1233 32.1882C19.4042 32.9088 18.6821 33.6257 17.966 34.3493C16.1547 34.362 14.3434 34.3404 12.5322 34.359C12.5187 36.201 12.5322 38.0429 12.5262 39.8848H5.21388C5.08306 39.8661 4.95449 39.8414 4.82666 39.8123C5.56896 37.9801 6.33368 36.1569 7.09167 34.3306C8.50525 34.3306 9.91807 34.3299 11.3317 34.3306C11.7286 34.3284 12.127 34.3561 12.5225 34.3007C12.5299 25.2661 12.5299 16.2307 12.5225 7.19611C12.1517 7.14079 11.7772 7.16546 11.4049 7.16546C9.96667 7.16696 8.52917 7.16397 7.09092 7.16696C6.33667 5.33925 5.56596 3.51827 4.82815 1.68384C4.94776 1.65543 5.06736 1.63076 5.18846 1.61133Z" fill="#0065FF"/>
<path d="M-0.526863 7.03027C1.29636 7.79873 3.1293 8.54477 4.95551 9.3065C4.95476 16.9343 4.95551 24.5621 4.95476 32.1898C3.12855 32.9516 1.29636 33.6976 -0.526863 34.4661C-0.576947 34.2852 -0.607596 34.099 -0.605354 33.9114C-0.603111 25.113 -0.606101 16.3146 -0.604606 7.51691C-0.602363 7.35171 -0.570219 7.18875 -0.526863 7.03027Z" fill="#0065FF"/>
<path d="M12.5286 1.61133H20.0114C20.0675 1.62927 20.1781 1.6644 20.2334 1.6816C19.4822 3.50482 18.7361 5.33028 17.9677 7.14678C16.1564 7.13481 14.3451 7.155 12.5346 7.1378C12.5197 5.2959 12.5331 3.45324 12.5286 1.61133Z" fill="#2B80FF"/>
<path d="M4.4265 1.96093C4.54161 1.84356 4.67841 1.74788 4.82941 1.68359C5.56722 3.51803 6.33792 5.33901 7.09218 7.16671C6.38352 7.88285 5.66665 8.5915 4.95649 9.30614C3.13028 8.54441 1.29734 7.79838 -0.525879 7.02992C-0.411507 6.76155 -0.182764 6.57318 0.0168262 6.36985C1.48647 4.90021 2.95685 3.43057 4.4265 1.96093Z" fill="#3347EA"/>
<path d="M20.124 9.30764C21.942 8.53769 23.7705 7.7924 25.5937 7.03516C25.7058 7.35884 25.6744 7.70345 25.6767 8.03909C25.6767 16.5101 25.6767 24.9811 25.6767 33.4528C25.6737 33.7899 25.7066 34.1368 25.5937 34.4612C23.7705 33.7025 21.942 32.9579 20.124 32.188C20.127 24.561 20.127 16.9347 20.124 9.30764Z" fill="#2B80FF"/>
<path d="M-0.525879 34.4662C1.29734 33.6977 3.12953 32.9517 4.95575 32.1899C5.66889 32.9031 6.38352 33.614 7.09293 34.3309C6.33494 36.1571 5.57021 37.9803 4.82792 39.8125C4.67916 39.7467 4.54386 39.654 4.43023 39.5389C2.87164 37.981 1.31454 36.4224 -0.244061 34.8653C-0.361423 34.7502 -0.458601 34.6157 -0.525879 34.4662Z" fill="#3347EA"/>
<path d="M12.5336 34.3593C14.3448 34.3406 16.1561 34.3623 17.9674 34.3496C18.744 36.1624 19.4624 38.0005 20.2511 39.8073C20.1913 39.8267 20.0709 39.8656 20.0104 39.8851H12.5276C12.5336 38.0431 12.5201 36.2012 12.5336 34.3593Z" fill="#2B80FF"/>
<path d="M20.233 1.68164C20.4005 1.74817 20.544 1.8603 20.6696 1.98738C22.2035 3.52131 23.7367 5.05524 25.2706 6.58842C25.4022 6.71849 25.5173 6.8665 25.5943 7.03544C23.7711 7.79268 21.9426 8.53797 20.1247 9.30792C19.4063 8.58656 18.6827 7.87043 17.9673 7.14682C18.7357 5.33033 19.4818 3.50486 20.233 1.68164Z" fill="#3347EA"/>
<path d="M17.9663 34.3496C18.6824 33.626 19.4046 32.9091 20.1237 32.1885C21.9417 32.9584 23.7701 33.703 25.5933 34.4617C25.5156 34.6299 25.4005 34.7772 25.2704 34.9072C23.8127 36.3649 22.3536 37.8218 20.8966 39.2803C20.6985 39.4746 20.5116 39.6967 20.25 39.8073C19.4614 38.0005 18.743 36.1623 17.9663 34.3496Z" fill="#3347EA"/>
<path d="M7.09151 7.16713C8.52976 7.16414 9.96726 7.16713 11.4055 7.16564C11.7778 7.16564 12.1523 7.14097 12.5231 7.19629C12.5305 16.2309 12.5305 25.2663 12.5231 34.3009C12.1276 34.3562 11.7292 34.3286 11.3322 34.3308C9.91867 34.3301 8.50584 34.3308 7.09226 34.3308C6.38286 33.6139 5.66822 32.903 4.95508 32.1899C4.95583 24.5621 4.95508 16.9343 4.95583 9.30656C5.66598 8.59192 6.38286 7.88327 7.09151 7.16713Z" fill="#2B80FF"/>
</g>
<defs>
<clipPath id="clip0_397_2733">
<rect width="25" height="40" fill="white"/>
</clipPath>
</defs>
</svg>
