<svg width="159" height="89" viewBox="0 0 159 89" fill="none" xmlns="http://www.w3.org/2000/svg">
<path d="M21.6256 22.9192C22.4083 22.6341 23.0838 23.2387 23.8052 23.4416C23.8147 23.5009 23.8377 23.6196 23.8492 23.6808C23.9238 24.2089 23.9985 24.7409 24.0712 25.271C23.765 25.6767 23.5966 26.1551 23.522 26.6545C22.9154 26.7751 22.2992 26.8459 21.683 26.8784C21.5203 27.1329 21.3577 27.3874 21.1969 27.6419C20.9233 27.3855 20.6516 27.1253 20.3779 26.8688C20.4736 27.1635 20.5693 27.4601 20.6669 27.7548C20.1311 28.0897 19.513 28.1357 18.9236 27.9194C18.4222 27.6553 18.1314 28.1969 17.8596 28.5107C17.5707 28.3672 17.2855 28.2199 17.0004 28.0706C17.142 28.3289 17.2989 28.5815 17.408 28.8552C16.9832 29.6742 15.9288 29.5632 15.1882 29.8923C15.1825 30.0531 15.171 30.3746 15.1653 30.5353C14.6945 30.4301 14.2219 30.3325 13.7473 30.2521C14.0803 30.4549 14.4151 30.6539 14.75 30.8511C14.5721 31.1591 14.3922 31.4672 14.2085 31.7734C13.5693 32.0069 13.0048 32.3896 12.4594 32.7895C12.5283 33.0804 12.5991 33.3713 12.6699 33.6621C12.3159 33.6449 11.9619 33.6296 11.6079 33.6143C11.8299 33.7635 12.0518 33.9128 12.2757 34.0621C12.2107 34.3759 12.1475 34.6897 12.0844 35.0055C11.8835 35.1184 11.6844 35.2332 11.4854 35.3499C11.2309 35.7671 10.9305 36.1555 10.5918 36.5077C10.63 36.7315 10.6683 36.9573 10.7066 37.1812C10.3564 37.2654 10.0062 37.3535 9.65985 37.4568C9.94115 37.5333 10.2224 37.6061 10.5076 37.6788C10.5152 38.3045 10.2531 38.8614 9.75553 39.2403C9.5967 39.5522 9.44361 39.8679 9.29052 40.1837C9.38812 40.4305 9.49145 40.6755 9.56417 40.9338C9.24651 41.129 8.9078 41.2821 8.57101 41.4409C8.93651 41.4409 9.30201 41.4428 9.6675 41.4486C9.65411 42.1872 9.34028 42.8512 9.09916 43.5325C8.91929 43.9477 9.29244 44.2826 9.48188 44.6098C9.1891 44.8222 8.89632 45.0366 8.60737 45.2547C8.95182 45.1973 9.29435 45.1399 9.63689 45.0806C9.74979 45.9398 9.65411 46.8066 9.46083 47.6467C9.58713 47.7654 9.71534 47.884 9.84355 48.0046C9.60818 48.3356 9.37472 48.6667 9.14318 48.9996C9.46466 48.8064 9.78615 48.6093 10.1057 48.4141C10.1976 48.5614 10.2894 48.7088 10.3794 48.858L10.0024 48.9537C9.7096 49.214 9.47614 49.5297 9.25225 49.8493L9.83781 49.8129C9.81485 49.8895 9.76892 50.0406 9.74596 50.1153C9.69621 50.2071 9.59479 50.3908 9.54503 50.4827C9.34219 50.3793 9.14892 50.2569 8.95564 50.1401C8.56144 50.4233 8.13854 50.674 7.77304 50.9955C7.61612 51.6155 7.63909 52.3044 7.98736 52.8594C7.95675 52.8708 7.8936 52.8957 7.86107 52.9091L7.68693 52.978C7.34248 52.5628 7.29847 52.0461 7.39223 51.5332C7.0784 51.4777 6.76457 51.4242 6.45266 51.3687C6.34167 50.9955 6.23068 50.6262 6.11778 50.2569C6.5158 50.1267 6.92531 50.0349 7.34057 49.989C6.98655 49.6177 6.42395 49.8799 5.98382 49.8416C6.07568 49.524 6.17136 49.2063 6.26512 48.8886C6.04506 48.615 5.69296 48.3873 5.65277 48.0122C5.57623 47.6104 5.77524 47.2391 5.91876 46.8794C5.69296 46.7741 5.46907 46.6689 5.24517 46.5636C5.22987 46.112 5.23178 45.6604 5.249 45.2088C5.68147 45.2739 6.10821 45.3676 6.53111 45.4786C6.35124 44.9543 5.73697 45.0653 5.29875 44.9926C5.5437 44.3917 5.249 43.8157 5.094 43.2378C5.19733 42.9546 5.3753 42.7077 5.53413 42.4532C5.3332 42.1068 4.91221 41.7873 5.07869 41.3433C5.13419 41.0831 5.19733 40.8266 5.26814 40.5702C5.71209 40.6449 6.135 40.8037 6.5005 41.0716C6.46414 40.9855 6.38951 40.8113 6.35315 40.7252C6.03358 40.5645 5.61067 40.5147 5.404 40.1971C5.5437 40.0076 5.68722 39.8258 5.83839 39.646C5.80012 39.1121 5.79055 38.5743 5.83074 38.0385C6.02784 37.9295 6.22685 37.8185 6.42587 37.7075C6.31296 37.4568 6.18858 37.208 6.11395 36.942C6.02401 36.4656 6.42969 36.123 6.65167 35.7537C7.01717 36.012 7.37501 36.278 7.74051 36.5325C7.45921 36.0981 7.07075 35.7537 6.69377 35.4054C6.91766 35.2963 7.14346 35.1892 7.36927 35.082C7.49557 34.439 7.53767 33.5454 8.34903 33.4191C8.20169 33.0861 7.97205 32.7321 8.11557 32.3551C8.25144 32.0279 8.55953 31.8136 8.78916 31.5533C9.11447 31.8863 9.44361 32.2135 9.79571 32.5197C9.50676 32.0738 9.1891 31.6471 8.93268 31.1802C9.23312 31.0864 9.53355 30.9965 9.83399 30.9085C9.88757 30.5219 9.85886 30.1028 10.0598 29.7565C10.2722 29.5421 10.6033 29.5154 10.8712 29.3986C10.8558 29.1039 10.8291 28.8112 10.8425 28.5165C11.0644 28.1624 11.3974 27.8984 11.694 27.6094C11.9504 27.9883 12.2011 28.3691 12.4728 28.7384C12.3848 28.2639 12.1418 27.8467 11.8815 27.4506C12.1609 27.3664 12.4422 27.2937 12.7273 27.2324C12.9321 26.9397 13.1139 26.6277 13.3665 26.3713C13.642 26.2469 13.9616 26.2871 14.2563 26.2469C14.2984 25.9006 14.2257 25.4815 14.5166 25.2212C14.8285 25.0318 15.1978 24.9686 15.5442 24.8653C15.6073 25.2653 15.6839 25.6633 15.7623 26.0613C15.8197 26.0077 15.9365 25.9006 15.9939 25.847C15.8886 25.4662 15.7853 25.0835 15.6839 24.7007C15.969 24.7275 16.256 24.7543 16.5412 24.7811C16.8225 24.5323 17.0846 24.2453 17.431 24.0865C17.7391 24.0731 18.0395 24.1688 18.3419 24.2262C18.4605 23.9296 18.5811 23.631 18.7016 23.3344C19.1035 23.3134 19.5072 23.2981 19.9091 23.2866C19.9225 23.7114 19.9397 24.1381 19.999 24.561C20.0392 24.1152 20.0526 23.6655 20.0698 23.2177C20.355 23.3096 20.6401 23.4091 20.9214 23.5143C21.1606 23.321 21.3979 23.1258 21.6256 22.9192ZM21.0534 23.9257C21.0592 24.0539 21.0706 24.3123 21.0764 24.4405C21.3864 24.4424 21.6983 24.4443 22.0102 24.4462C21.8839 24.695 21.7557 24.9438 21.6294 25.1925C21.8935 25.2825 22.1595 25.3743 22.4236 25.4662C22.104 25.7379 21.7787 26.0058 21.4553 26.2756C22.0542 26.5665 22.7125 26.4651 23.3344 26.3235C23.277 26.1455 23.1603 25.7915 23.101 25.6154C23.3746 25.4547 23.6463 25.294 23.9181 25.1313C23.7688 24.9438 23.6215 24.7562 23.4741 24.5687C23.5488 24.2664 23.5736 23.9583 23.5124 23.6521C23.0417 23.5832 22.6187 23.3631 22.1844 23.1852C21.6983 23.1967 21.3902 23.6349 21.0534 23.9257ZM18.6423 24.0788C18.7188 24.4214 19.0748 24.5515 19.3254 24.7409C19.4039 24.4137 19.4613 24.0846 19.5111 23.7535C19.2164 23.8358 18.8126 23.7592 18.6423 24.0788ZM20.4506 23.6483C20.4392 23.9276 20.4334 24.207 20.4315 24.4883C20.0583 24.7926 19.6297 25.0184 19.1838 25.2002C19.4001 25.5523 19.578 25.9274 19.6909 26.3254C20.309 26.2986 20.8047 26.6335 21.2352 27.0353C21.2792 26.7138 21.2831 26.3904 21.2524 26.069C21.3079 25.9656 21.417 25.757 21.4725 25.6518C21.3366 25.5293 21.2008 25.4069 21.0668 25.2825C21.1893 25.16 21.3098 25.0394 21.4323 24.917C21.2046 24.8844 20.9769 24.85 20.7511 24.8194C20.7645 24.4003 20.7855 23.9583 20.4506 23.6483ZM16.8205 24.894C16.8646 25.1275 16.9105 25.3609 16.9564 25.5963C17.2798 25.4968 17.6032 25.3992 17.9285 25.3035C17.8596 25.5121 17.7199 25.9293 17.6491 26.1359C17.9266 26.1264 18.2022 26.1168 18.4777 26.1053C18.2041 26.5378 17.9764 27.0085 17.9993 27.5348C18.3859 27.529 18.7724 27.5156 19.159 27.4927C19.0786 27.1769 18.9791 26.8669 18.8604 26.5627C18.9676 26.5072 19.18 26.3981 19.2872 26.3426C19.2814 26.2354 19.268 26.023 19.2623 25.9159C19.1743 25.847 18.9982 25.7054 18.9102 25.6346C18.8949 25.3552 18.8815 25.0739 18.8662 24.7945C18.4433 24.6644 18.0357 24.496 17.6128 24.3754C17.3085 24.473 17.077 24.7141 16.8205 24.894ZM16.1163 25.0414C16.1699 25.3954 16.4034 25.7838 16.1603 26.1168C15.9518 26.4172 15.6379 26.6201 15.3643 26.8516C15.6705 27.1501 15.9479 27.4755 16.191 27.8276C16.7536 27.6477 17.3219 27.7089 17.8309 28.0055C17.7582 27.7013 17.6683 27.4008 17.519 27.1253C17.5975 26.909 17.6817 26.6928 17.7639 26.4785C17.63 26.4823 17.3621 26.49 17.2281 26.4919C17.2607 26.3407 17.3238 26.0345 17.3563 25.8833C17.2013 25.9159 16.8913 25.9809 16.7344 26.0135C16.6273 25.6327 16.4206 25.2978 16.1163 25.0414ZM14.5108 26.046C14.7328 26.2221 14.9892 26.3483 15.2399 26.4785C15.3011 26.3694 15.4236 26.1532 15.4848 26.0441C15.393 25.8279 15.3031 25.6116 15.2131 25.3973C14.951 25.581 14.5242 25.6556 14.5108 26.046ZM13.5808 26.6335C13.3129 27.0124 13.0948 27.4238 12.8211 27.7969L12.735 27.8027L12.6795 27.885C12.9091 28.526 12.6317 29.1135 12.2375 29.613C12.5723 29.8234 12.9015 30.0435 13.223 30.277C13.5272 30.1411 13.8238 29.988 14.1338 29.8655C14.3845 29.9115 14.6352 29.9593 14.8878 30.0072C14.6314 29.6455 14.3788 29.2781 14.2008 28.8724C13.9119 28.7308 13.8736 28.438 13.8545 28.151C13.6937 28.195 13.5349 28.2352 13.3741 28.2734L13.2536 28.2237L13.1349 28.1548C13.489 27.8582 13.8353 27.5539 14.1779 27.2439C14.2008 27.5826 14.2219 27.9213 14.2467 28.26C14.5223 28.1567 14.7998 28.0534 15.0773 27.95C14.9529 28.3021 14.794 28.6466 14.7519 29.0197C14.8074 29.3125 15.1002 29.4618 15.2839 29.6646C15.4887 29.4235 15.8944 29.2589 15.858 28.8839C15.9211 28.6179 15.5652 28.5605 15.4255 28.4016C15.5633 28.1816 15.6973 27.9615 15.8312 27.7414C15.6456 27.6324 15.46 27.5252 15.2744 27.4161C15.1289 27.1827 15.0868 26.8497 14.8476 26.6985C14.4266 26.6507 14.0018 26.6679 13.5808 26.6335ZM19.3599 26.6871C19.379 26.9875 19.402 27.2918 19.4249 27.5941C19.6106 27.5788 19.9856 27.5501 20.1732 27.5367C20.0029 27.1559 19.8325 26.7387 19.3599 26.6871ZM11.1371 28.8379C11.1735 28.9413 11.2501 29.146 11.2864 29.2494C11.5581 29.2532 11.8299 29.257 12.1016 29.2589C11.9925 28.9183 11.8547 28.5873 11.6959 28.2658C11.5084 28.4571 11.3228 28.6466 11.1371 28.8379ZM16.0647 28.1911C16.1259 28.5107 16.1948 28.8284 16.2656 29.1479C16.4971 29.037 16.7287 28.9279 16.9621 28.8188C16.7076 28.549 16.4416 28.2734 16.0647 28.1911ZM11.5734 29.523C11.1084 29.8292 10.2205 29.766 10.1918 30.476C10.144 30.7592 10.1689 31.0482 10.2263 31.3275C10.5899 31.3141 10.8405 31.0003 11.1391 30.8357C11.1678 31.008 11.2252 31.3505 11.252 31.5208C11.5084 31.4079 11.7648 31.295 12.0231 31.184C11.981 31.5667 11.9389 31.9475 11.9007 32.3303C12.5264 32.3704 13.0584 32.0758 13.4009 31.5553C13.1751 31.3792 12.9455 31.207 12.714 31.0386C12.735 30.8166 12.7561 30.5946 12.7752 30.3727C12.314 30.1832 11.9236 29.8732 11.5734 29.523ZM13.2249 30.6444C13.2383 31.0118 13.5024 31.3046 13.6535 31.6241C13.8392 31.4079 14.0248 31.1936 14.2104 30.9773C13.8985 30.8243 13.598 30.5506 13.2249 30.6444ZM9.51059 31.3448C9.67516 31.6165 9.85312 31.8825 10.033 32.1466C9.89331 32.5637 9.74596 32.9771 9.58905 33.3885C9.97559 33.511 10.3583 33.6468 10.7334 33.7999C11.1333 33.3904 11.6538 33.1627 12.2317 33.1933C12.1399 33.0115 12.0518 32.8278 11.9619 32.646C11.849 32.6116 11.6251 32.5446 11.5122 32.5121C11.5543 32.3111 11.5945 32.1121 11.6366 31.915C11.4682 31.9839 11.3017 32.0547 11.1352 32.1255C11.0319 31.9399 10.9286 31.7562 10.8252 31.5725C10.6951 31.693 10.5631 31.8117 10.4329 31.9322C10.1746 31.6643 9.87991 31.4309 9.51059 31.3448ZM8.4007 33.067C8.66478 33.0995 8.92885 33.1321 9.19293 33.1646C9.23886 33.0536 9.3288 32.8335 9.37472 32.7245C9.17379 32.5101 8.97478 32.2977 8.77385 32.0853C8.63033 32.4049 8.50403 32.7321 8.4007 33.067ZM7.98162 34.0085C7.91656 34.1195 7.78835 34.3415 7.7252 34.4524C7.83045 34.7663 7.8802 35.1146 8.10983 35.3691C8.48681 35.3174 8.59015 34.8811 8.80638 34.6323C8.92311 34.8543 9.04176 35.0782 9.1604 35.3021C9.3709 35.1758 9.58139 35.0514 9.79189 34.9251C9.82442 35.415 9.71343 36.278 10.4693 36.1402C10.8597 35.792 11.1084 35.2676 10.9898 34.7395C10.8405 34.7376 10.542 34.7357 10.3928 34.7337C10.4042 34.4888 10.4157 34.2458 10.4291 34.0027C10.1612 33.9147 9.88757 33.8439 9.60818 33.7961C9.43787 33.6621 9.26756 33.5282 9.09916 33.3923C8.74323 33.6258 8.37008 33.8324 7.98162 34.0085ZM10.7487 34.1999C10.9726 34.4639 11.1984 34.728 11.428 34.9902C11.5696 34.7452 11.7112 34.5022 11.8528 34.2592C11.4931 34.1558 11.1123 34.0276 10.7487 34.1999ZM7.29081 35.3614C7.50322 35.6331 7.73285 35.8915 7.90891 36.1881C7.99119 36.611 7.79792 37.0205 7.69841 37.4243C8.12323 37.4798 8.54422 37.5563 8.96139 37.6501C9.28478 37.1602 9.80337 36.9095 10.3487 36.7449C10.0981 36.5536 9.83016 36.3833 9.55077 36.2417C9.53355 36.0369 9.51824 35.8322 9.50485 35.6293C9.3441 35.7441 9.18528 35.8589 9.02645 35.9757C8.93268 35.7805 8.83891 35.5853 8.74515 35.392C8.63416 35.5566 8.52317 35.7212 8.41027 35.8857C8.05625 35.6733 7.68693 35.4877 7.29081 35.3614ZM6.73778 36.3297C6.65358 36.5938 6.56556 36.8578 6.50432 37.1296C6.73013 37.3879 7.10711 37.2884 7.37692 37.1659C7.43242 36.7641 6.95593 36.5957 6.73778 36.3297ZM7.0918 37.5257C6.86599 37.8567 6.57513 38.1323 6.17136 38.2242C6.11778 38.6547 6.05845 39.1101 6.23068 39.5235C6.4163 39.6593 6.63445 39.7359 6.84303 39.8297C6.9521 39.4986 7.05927 39.1656 7.16834 38.8346C7.34248 39.0757 7.51662 39.3168 7.69075 39.5579C7.87446 39.3245 8.05817 39.091 8.24379 38.8576C8.32798 39.2288 8.41218 39.6 8.49829 39.9713C8.81978 39.9234 9.15849 39.8316 9.3288 39.5235C9.3862 39.2077 9.30201 38.8901 9.27139 38.5763C9.12787 38.5801 8.84083 38.5896 8.69731 38.5954C8.65904 38.3753 8.61502 38.1591 8.56527 37.9429C8.30502 37.9275 8.04477 37.9218 7.78261 37.9275C7.71754 37.8433 7.58359 37.673 7.51853 37.5888C7.41137 37.5735 7.19896 37.541 7.0918 37.5257ZM9.21398 37.8759C9.17571 37.9601 9.09916 38.1323 9.06089 38.2165C9.29626 38.3906 9.53164 38.5648 9.76701 38.7389C9.87226 38.4863 9.97942 38.2375 10.0847 37.9869C9.7938 37.9486 9.50293 37.9122 9.21398 37.8759ZM6.98272 40.2698C6.6421 40.111 6.2766 40.0306 5.90537 39.9904C6.18858 40.2315 6.51389 40.4305 6.74544 40.7252C6.8105 41.1022 6.78371 41.4868 6.78754 41.8696C7.16451 41.8389 7.54341 41.8255 7.9223 41.8236C8.21699 41.2783 8.68009 40.8611 9.22738 40.576C8.83509 40.3502 8.06773 40.4229 8.10218 39.799C7.9357 39.91 7.77304 40.0287 7.5989 40.1263C7.52236 40.0076 7.36927 39.7703 7.29273 39.6517C7.19131 39.8584 7.08414 40.0631 6.98272 40.2698ZM5.56283 41.0333C5.53795 41.3586 5.51499 41.6839 5.49394 42.0112C5.82308 41.9939 6.3742 41.9959 6.33593 41.5289C6.14839 41.2763 5.82308 41.1883 5.56283 41.0333ZM8.23613 42.2925C8.4849 42.4934 8.81212 42.5699 9.10299 42.7001C9.12978 42.4149 9.15657 42.1298 9.18145 41.8466C8.87336 41.9193 8.20551 41.8294 8.23613 42.2925ZM6.16944 42.1662C6.02401 42.3518 5.93981 42.5757 5.83648 42.7862C5.73314 42.8512 5.52647 42.9833 5.42314 43.0483C5.49011 43.4119 5.57049 43.7736 5.66425 44.1314C5.96086 44.1219 6.25747 44.1142 6.55599 44.1066C6.59235 43.7793 6.62679 43.454 6.66315 43.1306C6.89852 43.3028 7.1339 43.4789 7.36927 43.653C7.45921 43.4043 7.54915 43.1555 7.63909 42.9067C7.87063 43.2665 8.06199 43.6683 8.38731 43.9573C8.77959 43.7219 9.09725 43.123 8.67435 42.7594C8.43515 42.746 8.19595 42.7479 7.95675 42.7613C7.84193 42.5355 7.72903 42.3116 7.61612 42.0858C7.39032 42.1623 7.16451 42.237 6.93871 42.3097C6.68994 42.2408 6.43543 42.0915 6.16944 42.1662ZM6.94445 43.8463C6.92531 44.0721 6.90809 44.296 6.88896 44.5237C6.4871 44.4587 6.07568 44.4146 5.67956 44.5371C6.03358 44.7285 6.39333 44.9103 6.755 45.0882C6.79519 45.4269 6.83729 45.7656 6.87939 46.1044C7.2889 46.0163 7.69841 45.9302 8.10792 45.8479C8.14045 45.2318 8.51743 44.7648 9.01688 44.4414C8.70879 44.273 8.36817 44.2463 8.02563 44.2883C7.9644 44.164 7.84193 43.9152 7.78261 43.7908C7.66396 43.942 7.54724 44.0951 7.43051 44.2482C7.26785 44.1142 7.10519 43.9803 6.94445 43.8463ZM5.53987 45.6011C5.59154 45.9494 5.64703 46.2976 5.70635 46.6459C5.97617 46.4565 6.53494 46.4201 6.48901 45.9838C6.24025 45.7369 5.85561 45.7216 5.53987 45.6011ZM8.37582 46.223C8.67243 46.246 8.96904 46.2689 9.26565 46.2919C9.25034 46.0584 9.23312 45.825 9.21781 45.5934C8.88484 45.7293 8.51552 45.8575 8.37582 46.223ZM6.43161 46.5732C6.29574 47.0229 6.09864 47.4515 5.8403 47.8438C6.0929 48.2476 6.32062 48.7509 6.84877 48.8331C6.82198 48.4715 6.78562 48.1136 6.75118 47.7539C6.94445 47.7998 7.331 47.8897 7.52427 47.9338C7.53575 47.6601 7.54723 47.3884 7.55872 47.1147C7.80366 47.3367 8.0352 47.5759 8.30693 47.7634C8.60546 47.7826 8.89441 47.6659 9.18336 47.6123C9.17188 47.2563 9.15657 46.9023 9.13361 46.5483C8.84083 46.5808 8.54805 46.6153 8.25718 46.6516C8.12706 46.5043 7.99693 46.357 7.86489 46.2115C7.42476 46.4622 6.93488 46.5751 6.43161 46.5732ZM7.8936 47.9184C7.88977 48.0562 7.88594 48.328 7.88211 48.4638C7.74051 48.46 7.45921 48.4504 7.3176 48.4447C7.3176 48.5748 7.31569 48.8351 7.31378 48.9652C7.00951 49.0417 6.6134 49.0264 6.47179 49.3709C6.75309 49.4168 7.03822 49.4359 7.31569 49.5029C7.60847 49.8033 7.80557 50.1784 8.02755 50.5305C8.20551 50.3181 8.38348 50.1076 8.56144 49.8971C8.65904 49.8684 8.85422 49.8129 8.95182 49.7861C8.87527 49.1432 9.0054 48.5174 9.32306 47.9567C8.98052 47.9854 8.66478 48.1098 8.37582 48.2897C8.21508 48.1653 8.05434 48.0428 7.8936 47.9184ZM6.53685 50.4406C6.71291 50.7506 6.89852 51.0568 7.08797 51.361C7.29655 51.0682 7.4726 50.7563 7.62569 50.4329C7.26402 50.4138 6.89852 50.4195 6.53685 50.4406Z" fill="#E67503"/>
<path d="M27.3396 23.0148C28.2333 23.277 29.4407 23.1756 29.9689 24.0864C30.0627 24.0903 30.2502 24.1018 30.342 24.1075C30.3382 24.0367 30.3306 23.8951 30.3267 23.8243C30.9793 24.0118 31.6988 24.0673 32.269 24.4711C32.6154 24.9514 32.8661 25.491 33.0957 26.0345C32.6154 25.9733 32.0662 26.0383 31.6643 25.7168C31.1362 25.2997 30.7669 24.7218 30.3841 24.1764C30.2846 24.406 30.1889 24.6357 30.099 24.8691C29.6551 24.8806 29.2111 24.8634 28.7748 24.783C28.2447 24.2376 27.774 23.6368 27.3396 23.0148ZM28.0572 23.4588C28.35 23.8645 28.6638 24.2529 28.9949 24.628C29.2972 24.628 29.5996 24.6261 29.9038 24.6261C29.7794 24.3754 29.6895 24.0998 29.5058 23.8836C29.0618 23.6348 28.5452 23.5698 28.0572 23.4588ZM30.7439 24.2185C31.2204 24.8997 31.7543 25.7819 32.6977 25.7742C32.5159 25.4202 32.3609 25.0452 32.1006 24.7409C31.7371 24.3907 31.2108 24.3333 30.7439 24.2185Z" fill="#E67503"/>
<path d="M41.0276 42.8072C41.1022 42.0704 41.4084 41.3796 41.7107 40.7118C42.0284 41.5193 42.4188 42.3671 42.3767 43.2473C42.1911 43.5879 42.0341 44.1103 41.5978 44.1735C41.3491 43.7468 41.1194 43.2952 41.0276 42.8072ZM41.6036 43.6052C42.0361 43.6989 42.015 43.1191 42.1891 42.8646C42.0265 42.4379 41.8677 42.0092 41.6954 41.5863C41.2534 42.1814 41.1883 42.9756 41.6036 43.6052Z" fill="#E67503"/>
<path d="M24.7773 24.7256C25.3705 24.5285 25.9656 24.32 26.5894 24.2434C27.1272 24.1879 27.5405 24.5745 27.9615 24.8405C28.6944 25.0739 29.4809 24.8653 30.2234 25.0452C30.7955 25.2729 31.1208 25.8451 31.6126 26.1915C32.2958 26.4211 33.0268 26.4479 33.7348 26.5703C33.4325 25.9197 33.0919 25.2863 32.7455 24.6567C32.8373 24.6701 33.023 24.6969 33.1148 24.7103C33.8114 24.9591 34.684 25.206 35.0246 25.9274C35.1815 26.4938 35.2561 27.0794 35.325 27.6649C34.9768 27.4984 34.6304 27.332 34.2802 27.1674C34.5424 27.5807 34.7529 28.0744 35.2006 28.3213C35.6446 28.5911 36.1402 28.7691 36.565 29.0733C36.9573 29.3814 37.1334 29.877 37.2826 30.3363L37.12 30.409C36.8387 30.4607 36.5555 30.499 36.2742 30.5372C36.1995 30.608 36.0522 30.7477 35.9776 30.8166C35.7077 30.853 35.4398 30.8893 35.17 30.9276C35.7403 31.0769 36.3316 31.1687 36.875 31.4041C37.2769 31.6586 37.4549 32.1389 37.7094 32.5236C37.4912 32.5657 37.0588 32.6479 36.8425 32.69C37.5276 32.9254 38.2949 33.0058 38.8882 33.4536C39.2536 33.7157 39.3034 34.1846 39.3857 34.5902C38.9188 34.4984 38.4518 34.3989 37.9868 34.3032C38.5973 34.7089 39.2269 35.0897 39.8603 35.4628C39.7741 34.8256 39.7014 34.1865 39.6574 33.5454C40.4037 34.1826 40.9414 35.0093 41.3624 35.8858C41.395 35.0706 41.4179 34.2535 41.5194 33.444C42.0494 34.1425 42.4302 34.9538 42.6713 35.7939C42.7287 36.5498 42.258 37.2157 41.8313 37.7993C41.6744 37.2731 41.5327 36.7411 41.3969 36.2092C41.2706 36.5613 41.1443 36.9153 41.0122 37.2674C40.6793 36.8923 40.3482 36.5172 40.0172 36.1422C40.0746 36.368 40.1339 36.5938 40.1932 36.8196C39.843 36.7335 39.4909 36.6474 39.1407 36.5651C39.6536 37.2463 40.7577 37.6673 40.6582 38.6528C40.6965 38.9858 40.4171 39.1905 40.2258 39.4125C40.5224 39.845 40.8553 40.2679 41.018 40.7731C41.1596 41.328 41.0352 41.9021 41.0046 42.4609C40.7042 42.2829 40.4075 42.103 40.1109 41.9212C40.4592 42.503 40.8898 43.0464 41.1232 43.6894C41.2247 44.1774 41.0563 44.6749 40.9874 45.1591C40.7597 45.0155 40.5338 44.8682 40.308 44.7247C40.4822 45.1495 40.6563 45.5743 40.8285 46.001C41.0888 45.5265 41.1653 44.8586 41.6686 44.5697C42.1183 45.6317 42.3039 47.0478 41.2878 47.8591C41.1098 47.6372 40.9835 47.3788 40.8477 47.132C40.7788 47.2009 40.6391 47.3425 40.5702 47.4114C40.3731 47.1932 40.1779 46.977 39.9808 46.7607C40.1339 47.4975 40.2487 48.2419 40.2813 48.9958C40.5511 48.6629 40.7195 48.1787 41.1405 48.0103C41.4811 48.1022 41.3299 48.5385 41.4103 48.7949C41.5289 49.4914 41.3452 50.1784 41.0008 50.7831C41.55 50.3507 42.1394 49.9698 42.7728 49.6713C42.6809 49.9986 42.5852 50.3277 42.4819 50.653C42.235 51.34 41.8408 52.2298 40.9376 52.0346C40.6621 52.0423 40.3884 52.048 40.1148 52.0518C40.1263 51.8126 40.1377 51.5715 40.1511 51.3323C39.9579 51.5447 39.7665 51.7571 39.5751 51.9715C39.7474 51.3075 39.9751 50.6339 39.9004 49.9392C39.8277 49.3518 39.4393 48.8772 39.1197 48.4045C39.2556 49.1126 39.5196 49.7957 39.6115 50.5133C39.6766 51.0032 39.3436 51.4089 39.1293 51.8146C39.0891 51.7227 39.0087 51.539 38.9685 51.4471L39.0546 51.1831C39.1828 51.0032 39.313 50.8271 39.4469 50.653C39.2862 50.1555 39.1044 49.6637 38.8901 49.1872C38.8441 49.6235 38.7982 50.0617 38.7906 50.5018C38.6891 50.2952 38.5801 50.0961 38.4729 49.8952C38.5284 49.2886 38.6241 48.6552 39.0967 48.2246C39.2192 47.6027 39.3646 46.977 39.711 46.4373C39.7167 45.7752 39.7378 45.1112 39.799 44.451C39.866 44.4051 40 44.3132 40.0669 44.2673C39.6191 42.7556 39.8507 41.1596 39.5675 39.6192C39.5732 38.6528 38.9149 37.8721 38.7906 36.9325C38.6949 35.9757 37.9658 35.2772 37.6807 34.3855C37.4951 33.7215 36.8578 33.377 36.3813 32.9407C35.8053 31.8902 34.9519 30.9276 33.8401 30.4339C33.4133 30.2368 33.2392 29.7756 33.0287 29.391C32.2001 29.2838 31.4749 28.8609 30.8855 28.283C30.1851 28.1567 29.4924 27.9405 28.9336 27.4831C27.9098 27.4181 26.8822 27.2765 25.9369 26.8536C26.5914 26.4498 27.2611 26.0728 27.9404 25.7092C27.0621 25.9503 26.1531 25.87 25.3513 25.4279C25.1447 25.3016 24.9437 25.1696 24.7409 25.0376C24.7486 24.9591 24.7677 24.8041 24.7773 24.7256ZM25.3686 24.9055C25.8412 25.2519 26.3885 25.56 26.9932 25.5332C27.1903 25.4126 27.6993 25.227 27.5137 24.9361C26.9014 24.3908 26.0575 24.7122 25.3686 24.9055ZM28.5337 25.315C29.2321 25.7762 29.9899 26.3637 30.8797 26.0613C30.4224 25.1677 29.3756 25.2921 28.5337 25.315ZM33.4861 25.2557C33.708 25.8317 33.9645 26.4 34.3587 26.8823C34.5653 26.911 34.772 26.9435 34.9806 26.9741C34.8562 26.6067 34.8007 26.1991 34.5692 25.8776C34.2496 25.6059 33.8535 25.449 33.4861 25.2557ZM26.9014 26.7732C27.7012 26.9473 28.6772 27.4008 29.3316 26.6679C28.9451 26.4689 28.5585 26.2316 28.1165 26.18C27.6324 26.1685 27.2343 26.4574 26.9014 26.7732ZM29.28 26.2642C29.4197 26.3579 29.699 26.5474 29.8387 26.6412C29.6531 26.8555 29.4656 27.0698 29.2761 27.2784C29.7335 26.999 30.254 26.8516 30.7898 26.8249C30.7936 26.9282 30.8032 27.1349 30.807 27.2382C30.3688 27.1578 29.9536 27.2975 29.5727 27.4984C30.2999 27.9941 31.1725 27.8812 31.9647 27.6247C31.6356 27.4544 31.2931 27.309 30.9486 27.1731C31.0424 27.0545 31.1534 26.955 31.2835 26.8765C31.7351 27.0487 32.1255 27.3358 32.5369 27.5846C32.1044 27.1234 31.6337 26.7062 31.1457 26.3063C30.5276 26.4957 29.8751 26.557 29.28 26.2642ZM32.1121 26.6086C32.6288 27.3071 33.3617 27.8831 34.2649 27.9252C34.0544 27.5329 33.8726 27.0641 33.444 26.865C33.0115 26.7273 32.558 26.6737 32.1121 26.6086ZM31.5495 28.0764C32.1351 28.1146 32.7225 28.1261 33.3081 28.1089C33.1148 27.9615 32.9196 27.8142 32.7264 27.6688C32.3341 27.8065 31.9418 27.9405 31.5495 28.0764ZM33.4937 28.1797C33.9051 28.3768 34.2611 28.66 34.5672 28.9968C34.3721 29.1116 34.1788 29.2264 33.9855 29.3393C34.4888 29.3948 34.9978 29.4733 35.4513 29.7163C35.1318 29.2226 34.8543 28.7059 34.5768 28.1873C34.2151 28.1873 33.8535 28.1873 33.4937 28.1797ZM31.6031 28.371C31.936 28.66 32.3073 28.949 32.7608 29.0083C33.1627 29.0178 33.5549 28.8935 33.9492 28.8227C33.289 28.2696 32.4125 28.2773 31.6031 28.371ZM35.3556 28.8724C35.6293 29.546 36.123 30.2062 36.9248 30.2004C36.6358 29.5345 36.1115 28.9585 35.3556 28.8724ZM33.6009 29.6551C34.0314 30.3842 34.8715 30.5583 35.658 30.5851C35.2925 29.7909 34.374 29.6551 33.6009 29.6551ZM35.8168 31.4787C36.0522 31.7811 36.3048 32.07 36.5727 32.3475C36.7239 32.3379 37.0281 32.3188 37.1793 32.3092C36.9554 31.7275 36.4081 31.5017 35.8168 31.4787ZM37.2807 33.3464C37.8242 33.6928 38.3696 34.1233 39.0393 34.175C38.6834 33.5799 37.9868 33.1378 37.2807 33.3464ZM40.155 34.5481C40.0478 35.3595 40.31 36.1575 40.9529 36.6799C41.0371 35.8762 40.7003 35.1203 40.155 34.5481ZM41.7624 34.5692C41.6763 35.3786 41.6782 36.2091 41.9518 36.9861C42.1355 36.6722 42.3575 36.3584 42.392 35.9853C42.3269 35.4609 42.0475 35.0017 41.7624 34.5692ZM38.2548 34.9577C38.5724 35.6389 39.1101 36.1977 39.8469 36.412C39.6402 35.637 38.9915 35.172 38.2548 34.9577ZM39.2249 37.2865C39.3034 37.9984 39.711 38.5954 40.3808 38.8729C40.463 38.0979 39.8048 37.6386 39.2249 37.2865ZM39.8507 39.5828C40.0038 40.3636 39.9311 41.3644 40.7137 41.8256C40.9108 40.9434 40.442 40.1837 39.8507 39.5828ZM40.1741 42.7403C40.132 43.4177 40.3214 44.0913 40.8075 44.5811C40.9223 43.8865 40.641 43.2378 40.1741 42.7403ZM40.0363 45.1074C39.9234 45.7408 40.0574 46.3876 40.574 46.8067C40.6238 46.1847 40.3846 45.6088 40.0363 45.1074ZM41.2763 47.2889C41.8504 46.755 41.7069 45.9551 41.5385 45.2758C41.1022 45.869 41.1137 46.6019 41.2763 47.2889ZM39.9674 49.0724C40.0114 48.4409 39.8947 47.817 39.7053 47.2181C39.3206 47.8151 39.4259 48.6054 39.9674 49.0724ZM40.331 49.5125C40.1741 49.9813 40.2411 50.4865 40.2353 50.9726C40.5358 50.632 40.8974 50.3124 41.0448 49.8684C41.129 49.4493 41.106 49.0169 41.1175 48.5901C40.8381 48.881 40.509 49.1432 40.331 49.5125ZM40.4764 51.6289C40.8553 51.65 41.2361 51.6423 41.615 51.606C41.8026 51.2328 41.9958 50.8616 42.1853 50.4884C41.5825 50.8099 40.8706 51.0261 40.4764 51.6289Z" fill="#E67503"/>
<path d="M35.2562 26.1379C35.5738 26.3101 35.8934 26.4823 36.2053 26.6699C36.5574 26.9588 36.8712 27.2918 37.2176 27.5884C37.2654 28.2199 37.275 28.8514 37.2425 29.4829C36.7009 29.0753 36.1823 28.6198 35.836 28.0285C35.9451 27.9022 36.0522 27.7759 36.1632 27.6496C36.2283 28.2027 36.634 28.5892 37.0071 28.9566C37.0148 28.5528 37.0167 28.151 37.0167 27.7491C36.6971 27.4812 36.3775 27.2133 36.0599 26.9435C36.0637 27.1062 36.0714 27.4334 36.0752 27.596C35.991 27.5769 35.8226 27.5367 35.7384 27.5176C35.6025 27.0488 35.4284 26.5933 35.2562 26.1379Z" fill="#E67503"/>
<path d="M37.4491 27.7396C37.5409 27.8142 37.7266 27.9654 37.8184 28.04C38.4155 28.5414 38.9647 29.1422 39.2421 29.8809C39.3168 30.3937 39.2594 30.9104 39.156 31.4137C38.6891 31.0788 38.1418 30.8071 37.8127 30.321C37.407 29.5288 37.4529 28.6045 37.4491 27.7396ZM37.7285 28.3462C37.7821 28.9432 37.761 29.5728 38.0117 30.1296C38.2452 30.4894 38.626 30.7114 38.957 30.9716C39.2574 29.8828 38.4595 29.0236 37.7285 28.3462Z" fill="#E67503"/>
<path d="M42.235 38.6528C42.2963 37.9505 42.6158 37.3114 42.8436 36.655C42.9469 36.9899 43.056 37.3229 43.1325 37.6673C43.4023 38.7676 43.0445 39.8546 42.6388 40.8688C42.4187 40.1512 42.1891 39.4125 42.235 38.6528ZM42.6005 39.889C43.0809 39.2422 42.9699 38.3868 42.8149 37.6501C42.3346 38.3007 42.48 39.1465 42.6005 39.889Z" fill="#E67503"/>
<path d="M24.165 28.0897C25.1026 30.6769 25.7877 33.354 26.6718 35.9623C26.8057 36.3622 26.8918 36.7756 26.9703 37.1908C30.0512 37.2195 33.134 37.1525 36.2149 37.2272C33.8765 39.1178 31.4653 40.9357 29.0236 42.6962C28.9394 43.0828 28.9623 43.4789 29.0982 43.852C29.8656 46.2728 30.5927 48.7069 31.3697 51.1256C31.2912 50.9534 31.2147 50.7831 31.1362 50.6147C30.9085 50.8329 30.6808 51.051 30.453 51.2711C28.4916 49.7115 26.4708 48.2284 24.4826 46.7033C24.2013 46.378 23.8569 46.7014 23.6024 46.8813C22.0064 48.1117 20.3932 49.3192 18.7954 50.5496C18.118 51.0682 17.4865 51.6538 16.7306 52.0614C17.5688 48.9862 18.6519 45.9761 19.4881 42.9029C17.5783 41.4199 15.638 39.9789 13.7301 38.4959C13.1924 38.0959 12.6049 37.7457 12.1782 37.2195C15.2246 37.1755 18.2711 37.1946 21.3175 37.1965C22.2533 34.1558 23.122 31.0941 24.165 28.0897Z" fill="#E67503"/>
<path d="M39.602 30.2655C40.1206 31.0175 40.6583 31.76 41.1042 32.558L41.175 32.7015C41.1597 33.2603 41.0582 33.8095 40.93 34.351C40.5167 33.9855 40.0115 33.6334 39.8737 33.067C39.6307 32.1542 39.5829 31.2051 39.602 30.2655ZM39.9885 31.4979C39.9828 32.3131 40.0364 33.245 40.7559 33.7731C40.7942 33.4268 40.8918 33.0747 40.8363 32.7245C40.6717 32.2461 40.3024 31.8806 39.9885 31.4979Z" fill="#E67503"/>
<path d="M30.4531 51.271C30.6808 51.051 30.9085 50.8328 31.1362 50.6147C31.2147 50.7831 31.2912 50.9534 31.3697 51.1256C31.5515 51.5122 31.6242 51.9351 31.6835 52.3561C31.297 51.9676 30.8836 51.6078 30.4531 51.271Z" fill="#E67503"/>
<path d="M37.164 30.6578C37.5467 30.5563 37.8586 30.9046 38.1687 31.0768C38.9437 31.5572 39.4259 32.4049 39.5311 33.3024C39.1867 33.2488 38.8442 33.1914 38.5035 33.1301C38.7159 32.9809 38.9437 32.8546 39.1733 32.7302C38.8939 32.0241 38.3677 31.4557 37.6654 31.161C37.8606 31.8519 38.3256 32.4202 38.5495 33.0995C37.9467 32.734 37.7687 32.0298 37.4396 31.4557C37.3401 31.1955 37.12 30.9505 37.164 30.6578Z" fill="#E67503"/>
<path d="M43.4635 43.4674C43.5248 43.4923 43.6453 43.542 43.7066 43.5669C43.7085 44.4357 43.5209 45.2892 43.3392 46.135C43.3085 47.0554 43.2626 47.9759 43.1497 48.8925C43.0846 48.9575 42.9507 49.0838 42.8837 49.1489C42.4742 49.545 42.0092 49.8722 41.5327 50.1841C41.5806 49.5086 41.4447 48.7528 41.8485 48.1615C42.2733 47.5166 42.7574 46.9138 43.1727 46.2613C42.8761 46.4986 42.5852 46.7416 42.2924 46.9827C42.3288 46.2536 42.302 45.5073 42.5067 44.8012C42.6579 44.2558 43.1038 43.8769 43.4635 43.4674ZM42.5546 46.3933C43.2645 45.846 43.3946 44.9351 43.3813 44.1008C42.5718 44.562 42.5929 45.5819 42.5546 46.3933ZM41.749 49.6177C42.1259 49.369 42.6158 49.1891 42.8187 48.7509C42.9871 48.1844 42.9775 47.5836 43.033 46.9999C42.4072 47.7539 41.7432 48.5805 41.749 49.6177Z" fill="#E67503"/>
<path d="M40.8841 37.3171C41.3989 37.6022 41.5845 38.205 41.839 38.7006C42.1681 39.2938 41.9021 39.9617 41.7739 40.5702C41.5309 40.4937 41.2534 40.4496 41.1042 40.2143C40.3464 39.4182 40.8937 38.2739 40.8841 37.3171ZM41.0735 38.0194C41.041 38.7905 40.7827 39.8067 41.6227 40.2487C41.7892 39.4488 41.705 38.5992 41.0735 38.0194Z" fill="#E67503"/>
<path d="M43.5363 40.0842C43.6645 40.687 43.7411 41.3031 43.7219 41.9212C43.7277 42.2925 43.6454 42.6637 43.4827 42.9967C43.234 43.3928 42.9335 43.7545 42.6274 44.1066C42.612 43.3736 42.5738 42.635 42.6809 41.9078C42.8111 41.24 43.2014 40.664 43.5363 40.0842ZM42.9335 43.3182C43.3392 42.6446 43.6148 41.8619 43.3985 41.0716C42.7249 41.6304 42.9067 42.5508 42.9335 43.3182Z" fill="#E67503"/>
<path d="M33.2775 52.6144C34.4582 51.5409 35.2447 50.1229 35.8685 48.6762C36.1728 48.9709 36.4407 49.302 36.7086 49.6311C37.3037 49.6598 37.895 49.7459 38.4729 49.8952C38.5801 50.0961 38.6892 50.2951 38.7906 50.5018C38.8844 50.7257 38.9724 50.9534 39.0547 51.183L38.9686 51.4471C38.9265 51.3572 38.8423 51.1773 38.8002 51.0873C38.5801 51.7399 38.3486 52.3886 38.1782 53.0564C37.3324 54.1797 36.6129 55.437 35.4208 56.2445C35.2332 56.1354 35.0457 56.0263 34.8582 55.9192C34.8505 55.9766 34.8333 56.0933 34.8256 56.1526C34.6324 56.4205 34.4525 56.7325 34.1501 56.8913C33.7425 57.0099 33.3139 57.0138 32.8948 57.0597C32.7762 57.4214 32.7034 57.8079 32.5025 58.139C32.0873 58.558 31.5782 58.868 31.1094 59.224C29.8943 59.865 28.5662 60.2324 27.2305 60.5214C27.0985 60.3492 26.9722 60.1731 26.844 60.0009C26.4249 60.1789 25.9886 60.3645 25.5217 60.3128C25.1256 60.1827 24.8768 59.8382 24.6089 59.5416C24.3008 59.9052 24.0348 60.3568 23.5622 60.5233C23.057 60.6286 22.5384 60.5558 22.0313 60.5157C20.7626 60.3415 19.5206 60.0162 18.2577 59.8134C18.2826 59.7502 18.3323 59.6239 18.3572 59.5608C18.2251 59.5148 17.9592 59.4211 17.8271 59.3732C17.8692 59.1321 17.9113 58.891 17.9553 58.6499C17.5401 58.5944 17.033 58.6308 16.7498 58.2595C16.4359 57.9476 16.3747 57.4941 16.2905 57.0807C15.4963 57.4635 14.463 57.3831 13.9521 56.5889C13.6784 56.5602 13.4067 56.5334 13.1331 56.5086C13.5713 56.9257 14.0401 57.3142 14.5644 57.6185C14.2449 58.1753 14.0037 58.7724 13.7569 59.3637C13.156 59.0938 12.6738 58.6403 12.1743 58.2251C10.4196 56.7401 8.93844 54.9413 7.86108 52.9091C7.89362 52.8957 7.95676 52.8708 7.98738 52.8593C8.53658 52.6488 9.06282 52.3867 9.58141 52.1092C10.0196 52.9225 10.4904 53.7281 11.1219 54.4132C10.9382 54.0668 10.743 53.7281 10.5497 53.3875C10.6683 53.2114 10.7851 53.0373 10.9037 52.8613C10.5975 52.5512 10.2416 52.268 10.0445 51.87C9.98901 51.3859 10.1421 50.9094 10.2148 50.4329C10.1842 50.1325 10.1651 49.832 10.1574 49.5297C10.1057 49.3383 10.0541 49.145 10.0024 48.9537L10.3794 48.858C10.6549 49.1929 10.5784 49.6387 10.5994 50.0387C11.0874 49.922 11.5849 49.8435 12.0882 49.832C12.2375 49.5278 12.3867 49.2235 12.5379 48.9211C13.8468 50.917 15.1634 53.0909 17.3487 54.2371C19.4958 55.5403 21.9088 56.8205 24.5056 56.5698C26.379 56.4091 28.2735 56.057 29.9689 55.2188C31.1917 54.5184 32.2327 53.5482 33.2775 52.6144ZM35.9833 49.5316C35.0667 51.5791 33.4249 53.1445 31.7409 54.5644C32.0586 54.595 32.4547 54.8399 32.7111 54.5452C34.2611 53.2689 35.6274 51.7284 36.5479 49.9354C36.3603 49.7995 36.1709 49.6655 35.9833 49.5316ZM12.5188 49.6942C12.469 49.9755 12.1858 50.297 12.3676 50.5783C13.4354 52.3274 14.8228 53.8812 16.457 55.1193C16.6502 54.9356 16.8435 54.7519 17.0387 54.5682C15.0734 53.4315 13.7588 51.5351 12.5188 49.6942ZM35.8877 51.7782C35.1796 52.6948 34.4544 53.6133 33.5435 54.3405C34.2802 54.7002 34.8964 55.2284 35.394 55.8809C36.3967 54.993 37.2215 53.9271 37.8778 52.7617C37.4607 52.5245 36.9019 52.4154 36.6493 51.9695C36.4579 51.4567 36.8426 50.9438 37.3229 50.7946C37.6845 50.7716 37.7879 51.1773 37.9314 51.4261C37.6348 51.4088 37.3363 51.3572 37.0397 51.4012C36.8445 51.9044 37.476 52.2508 37.9103 52.1475C38.4155 51.87 38.4691 51.206 38.2912 50.7142C38.2242 50.2147 37.6405 50.1765 37.2827 49.9813C36.6512 50.4386 36.3565 51.1811 35.8877 51.7782ZM10.4368 51.6595C10.4636 52.1551 10.9764 52.3446 11.319 52.5895C11.6328 52.3733 11.8567 52.0805 11.8682 51.6882C11.5371 51.7322 11.2061 51.7782 10.8731 51.8203C11.0128 51.2002 11.6864 51.0012 12.1763 51.3763C12.203 51.6595 12.2394 51.9427 12.2394 52.2298C11.893 52.7005 11.4127 53.0469 10.9726 53.4258C11.7285 54.484 12.647 55.3968 13.6325 56.2407C14.0171 55.8158 14.2238 55.0121 14.9184 55.0523C15.4313 55.0236 15.5538 55.6111 15.6552 55.9938C15.437 56.1565 15.2189 56.3191 14.9969 56.478C15.0179 56.1565 15.0467 55.8388 15.0754 55.5192C14.8878 55.5518 14.7003 55.5843 14.5128 55.6168C14.4171 55.8503 14.3195 56.0857 14.2219 56.3191C14.685 56.9219 15.4676 57.054 16.1259 56.6865C16.2235 56.2847 16.568 55.745 16.1661 55.4083C14.6467 54.195 13.2345 52.7943 12.2681 51.0912C12.0633 50.8003 11.9332 50.3238 11.4912 50.3525C10.7583 50.1784 10.3449 51.0529 10.4368 51.6595ZM8.42368 53.1789C9.16807 54.3309 9.92777 55.481 10.898 56.4588C11.7667 57.2912 12.5705 58.2385 13.6689 58.7819C13.7282 58.3743 14.2085 57.7983 13.7014 57.5113C11.9772 56.1967 10.5325 54.5586 9.39579 52.7158C9.07239 52.8727 8.74899 53.0258 8.42368 53.1789ZM17.4903 54.7595C17.1038 55.0428 16.6694 55.3451 16.6426 55.8752C16.9507 55.7986 17.2588 55.7163 17.5649 55.6321C17.5401 55.3413 17.5171 55.0504 17.4903 54.7595ZM32.4068 55.282C32.3035 55.9689 32.7379 56.6674 33.4899 56.6004C34.1157 56.765 34.3281 56.1182 34.5635 55.6915C34.462 55.5097 34.3587 55.326 34.2573 55.1442C34.1061 55.1404 33.8038 55.1327 33.6545 55.1289C33.7176 55.435 33.7846 55.7412 33.8535 56.0474C33.7349 56.0302 33.4995 55.9957 33.3809 55.9785C33.312 55.6283 32.9771 55.0102 33.5856 54.9337C33.4746 54.8265 33.3617 54.7213 33.2488 54.6179C32.9713 54.8437 32.692 55.0657 32.4068 55.282ZM25.0586 56.9315C25.1141 57.1248 25.1677 57.3199 25.2213 57.517C27.3013 57.4635 29.3164 56.7784 31.163 55.856C31.1458 55.5594 31.1305 55.2628 31.1152 54.9681C29.3814 56.277 27.1712 56.6942 25.0586 56.9315ZM31.5247 54.9031C31.4807 55.3202 31.6452 55.6628 31.9935 55.8886C32.0279 55.636 32.0624 55.3834 32.0968 55.1308C31.9055 55.0542 31.716 54.9777 31.5247 54.9031ZM17.9209 55.0657C17.9171 55.2284 17.9113 55.5556 17.9075 55.7202C18.4586 56.0991 19.0422 56.4301 19.6642 56.677C21.0056 57.2243 22.4006 57.7601 23.8703 57.7658C23.9181 57.6051 24.0138 57.2855 24.0616 57.1267C21.8667 56.9927 19.7924 56.1852 17.9209 55.0657ZM17.0196 57.9878C17.2722 58.2825 17.6951 58.2251 18.0376 58.2901C18.2385 57.9801 18.3687 57.6376 18.3725 57.2644C18.2443 57.2644 17.9898 57.2644 17.8616 57.2644C17.7965 57.3965 17.6664 57.6644 17.6013 57.7983C17.1286 57.672 17.4903 57.2453 17.5056 56.9583C17.6319 56.897 17.8826 56.7707 18.0089 56.7076C18.3266 56.8779 18.6213 57.0884 18.8719 57.3486C18.8184 57.5132 18.7131 57.8404 18.6595 58.005C18.3993 58.338 18.3821 58.78 18.2825 59.1742C19.4288 59.7139 20.6554 60.066 21.9127 60.221C21.9356 59.6316 21.7825 58.8546 22.3872 58.4987C22.5384 58.5045 22.8407 58.5159 22.9919 58.5217C23.4397 58.6384 23.3478 59.2125 23.4837 59.5569C23.3632 59.5914 23.1201 59.6584 22.9977 59.6909C23.0015 59.4115 23.0015 59.1302 23.0034 58.8527C22.1882 58.7226 22.0906 59.9244 22.7546 60.1846C23.3058 60.3071 23.8224 59.9397 24.1114 59.4995C24.3467 59.0785 24.0559 58.6403 23.9085 58.2499C23.1718 58.1734 22.4485 58.0241 21.7213 57.8978C20.9654 57.6376 20.2153 57.3659 19.469 57.0807C18.8318 56.7727 18.2538 56.3364 17.5822 56.1067C16.5986 56.0589 16.413 57.4348 17.0196 57.9878ZM31.3333 56.2254C29.435 57.1841 27.3664 57.8979 25.2213 57.9246C25.0758 58.1217 24.9247 58.3169 24.8003 58.5293C24.6568 59.3311 25.6633 60.2554 26.4058 59.7177C26.9454 59.444 26.8153 58.4413 26.1073 58.6078C26.1092 58.7781 26.113 59.1149 26.1149 59.2833C26.002 59.2814 25.78 59.2776 25.669 59.2756C25.6882 59.0077 25.6786 58.7341 25.7494 58.4738C25.9867 58.139 26.5015 58.1332 26.8478 58.2787C27.1751 58.8125 27.1349 59.4747 27.3932 60.0373C28.6677 60.0085 29.8771 59.4613 30.9735 58.847C30.6157 58.2882 30.2119 57.5438 30.675 56.9181C30.9984 56.8722 31.3256 56.8989 31.651 56.9104C31.7275 57.1956 31.804 57.4807 31.8806 57.7677C31.5381 57.5438 31.2051 57.2453 30.763 57.3046C30.8721 57.6414 30.9927 57.9744 31.1209 58.3054C31.9858 58.4585 32.6231 57.5304 32.4049 56.7439C32.2002 56.4072 31.7428 55.9823 31.3333 56.2254ZM24.5094 56.9985C24.3353 57.4615 23.9621 57.9897 24.385 58.4337C24.5802 58.16 24.7716 57.8864 24.9629 57.6127C24.8098 57.4061 24.6606 57.2032 24.5094 56.9985Z" fill="#E67503"/>
<path d="M38.471 52.8403C38.7064 52.513 38.936 52.182 39.1656 51.8528C39.7435 52.0595 40.3176 52.27 40.8917 52.4843C40.5147 53.1751 40.0937 53.8411 39.6957 54.5204C38.7466 56.1106 37.3975 57.4004 36.0292 58.6232C35.8015 58.8222 35.5509 59.004 35.2581 59.0862C35.0284 58.7762 34.8505 58.4318 34.6687 58.095C34.5462 57.8615 34.4237 57.63 34.3013 57.3985C34.6916 57.144 35.082 56.8913 35.459 56.6158C36.7162 55.5939 37.7228 54.2716 38.471 52.8403ZM34.9021 57.5764C35.0495 57.8903 35.1987 58.2041 35.3461 58.5198C37.5066 57.0712 39.0068 54.8936 40.3502 52.714C39.9827 52.5704 39.5981 52.4748 39.2135 52.4001C38.0979 54.3597 36.7028 56.1986 34.9021 57.5764Z" fill="#E67503"/>
<path d="M16.2694 58.8394C17.0272 58.9006 17.563 59.557 18.2576 59.8134C19.5206 60.0162 20.7625 60.3415 22.0313 60.5157C22.1097 61.1261 22.8465 60.8582 23.2751 60.952C23.3784 61.6409 23.4263 62.3374 23.4512 63.034C20.6095 62.7163 17.7371 61.9356 15.3566 60.2994C15.703 59.8402 16.0245 59.3599 16.2694 58.8394ZM16.5144 59.379C16.2139 59.5933 16.1087 59.976 15.9307 60.2822C18.0969 61.4801 20.4832 62.2685 22.946 62.5364C22.9287 62.1384 22.9096 61.7385 22.8847 61.3404C21.0113 61.1338 19.1322 60.686 17.4539 59.8076C17.1439 59.6584 16.855 59.446 16.5144 59.379Z" fill="#E67503"/>
<path d="M32.3896 58.7935C32.4566 58.8107 32.5905 58.8432 32.6575 58.8604C32.9847 59.3446 33.6947 59.7809 33.6105 60.4162C31.9591 61.262 30.2636 62.1078 28.4304 62.4771C27.4908 62.6398 26.5436 62.7565 25.5944 62.8292C25.5906 62.1499 25.6231 61.4706 25.6978 60.7951C26.2661 60.797 26.8383 60.797 27.4066 60.7396C28.8475 60.5176 30.2387 59.9703 31.5151 59.2738C31.806 59.113 32.0987 58.9542 32.3896 58.7935ZM31.3926 59.7483C29.7048 60.598 27.8582 61.1472 25.9695 61.2945C25.9848 61.6371 26.0001 61.9777 26.0154 62.3202C28.5356 62.3011 30.9659 61.3596 33.1397 60.1406C32.9158 59.8766 32.7073 59.5972 32.4528 59.3637C32.072 59.3962 31.7332 59.5933 31.3926 59.7483Z" fill="#E67503"/>
<path d="M56.7478 35.613C57.3902 35.2171 58.1559 35.162 58.8892 35.1717C61.0306 35.1814 63.1752 35.1847 65.3166 35.1814C65.3068 35.9472 65.3101 36.7096 65.3166 37.4753C62.9481 37.5013 60.5796 37.4234 58.2111 37.5013C56.8354 37.5435 56.644 39.6524 57.6692 40.324C59.7976 40.7263 62.0169 40.1261 64.1226 40.6679C66.6338 41.5991 67.0524 45.2849 65.2971 47.1051C64.6417 47.7637 63.7073 48.046 62.7923 48.0168C60.2389 48.033 57.6855 47.9973 55.132 48.0265C55.1385 47.2705 55.1385 46.5113 55.1385 45.7553C57.7763 45.7456 60.4206 45.8008 63.0584 45.7424C64.645 45.7878 64.7942 43.0981 63.3244 42.8028C61.3323 42.5822 59.3012 42.9748 57.3253 42.5984C54.4636 41.6316 54.2106 37.0925 56.7478 35.613Z" fill="#E67503"/>
<path d="M68.574 35.162C71.8348 35.2042 75.0955 35.1685 78.3562 35.1815C78.3562 35.9439 78.3562 36.7096 78.3562 37.4753C75.5854 37.4753 72.8113 37.4753 70.0405 37.4721C70.0632 39.8471 70.0178 42.2221 70.047 44.5971C70.0146 45.1551 70.2904 45.7975 70.9458 45.7424C73.4148 45.804 75.8872 45.7359 78.3562 45.7618C78.3562 46.5146 78.3562 47.2673 78.353 48.02C75.7801 47.9876 73.2072 48.0687 70.6375 47.9908C69.0899 47.9389 68.0257 46.388 68.0484 44.9312C68.003 42.2253 68.0387 39.5129 68.0289 36.807C67.9673 36.197 68.282 35.6649 68.574 35.162Z" fill="#E67503"/>
<path d="M79.4756 35.1815C83.1712 35.1783 86.8634 35.1815 90.5589 35.1815C90.5524 35.944 90.5524 36.7064 90.5589 37.4721C89.0437 37.4754 87.5286 37.4754 86.0134 37.4689C86.0166 40.9892 86.0036 44.5095 86.0231 48.0266C85.3515 48.0233 84.6831 48.0233 84.0147 48.0233C84.0407 44.5062 84.0245 40.9859 84.0245 37.4689C82.506 37.4786 80.9908 37.4786 79.4756 37.4689C79.4789 36.7064 79.4821 35.944 79.4756 35.1815Z" fill="#E67503"/>
<path d="M92.152 36.1808C92.019 35.3307 93.1319 34.5618 93.7646 35.2918C96.3569 38.2443 98.8487 41.2877 101.392 44.2856C101.392 41.252 101.392 38.2151 101.392 35.1815C102.067 35.1815 102.745 35.1815 103.42 35.1815C103.401 39.0749 103.433 42.9716 103.411 46.865C103.427 47.3776 103.265 48.1628 102.635 48.1952C101.983 48.3737 101.62 47.7475 101.24 47.3517C98.8747 44.5419 96.5256 41.7192 94.1279 38.9354C94.1214 41.9658 94.1214 44.9961 94.1344 48.0265C93.4661 48.0233 92.7944 48.0233 92.1261 48.0233C92.1682 44.0779 92.1034 40.1261 92.152 36.1808Z" fill="#E67503"/>
<path d="M105.841 36.4696C105.756 35.8239 106.172 35.1069 106.898 35.1977C109.955 35.149 113.014 35.1977 116.074 35.1815C116.071 35.9439 116.071 36.7097 116.074 37.4721C113.335 37.4721 110.597 37.4818 107.862 37.4656C107.888 39.9607 107.807 42.4589 107.888 44.954C107.797 45.5185 108.358 45.7943 108.839 45.7521C111.246 45.7878 113.657 45.7521 116.067 45.7521C116.067 46.5016 116.074 47.2543 116.084 48.0038C113.566 48.0103 111.045 48.0525 108.53 47.9973C106.94 48.0006 105.74 46.44 105.837 44.915C105.824 42.0988 105.818 39.2826 105.841 36.4696Z" fill="#E67503"/>
<path d="M117.927 38.0723C117.982 36.6902 119.036 35.2431 120.506 35.1977C123.364 35.1425 126.229 35.2009 129.091 35.1815C129.088 35.9472 129.088 36.7096 129.091 37.4753C126.34 37.4916 123.592 37.4429 120.843 37.4883C120.298 37.3812 119.87 37.8777 119.922 38.4C119.89 40.5739 119.873 42.7477 119.932 44.9183C119.87 45.4536 120.392 45.7846 120.873 45.7489C122.985 45.7975 125.1 45.7391 127.216 45.7618C127.206 44.756 127.206 43.7535 127.212 42.7509C125.383 42.7509 123.549 42.7509 121.719 42.7509C121.726 41.9787 121.729 41.2098 121.732 40.4376C123.913 40.4992 126.096 40.3759 128.277 40.4895C129.224 40.5025 129.221 41.6186 129.214 42.3097C129.169 44.1688 129.344 46.0474 129.016 47.8902C126.846 48.1466 124.656 47.9616 122.475 48.0233C121.389 47.9811 120.182 48.2017 119.218 47.569C118.238 46.9428 117.842 45.7197 117.897 44.6035C117.92 42.4265 117.855 40.2462 117.927 38.0723Z" fill="#E67503"/>
<path d="M135.531 35.1782C136.449 35.1815 137.371 35.1815 138.289 35.1815C139.441 36.7259 140.596 38.2703 141.774 39.7984C142.916 38.2475 144.077 36.7096 145.245 35.1782C146.163 35.1815 147.078 35.1815 148 35.1815C146.378 37.3293 144.759 39.4805 143.123 41.6186C144.739 43.7535 146.339 45.9014 147.971 48.0233C147.062 48.0168 146.154 48.02 145.245 48.0363C144.048 46.5373 142.935 44.9734 141.748 43.468C140.602 44.9897 139.473 46.5276 138.296 48.0298C137.374 48.0168 136.456 48.0168 135.534 48.0265C137.189 45.9241 138.759 43.7567 140.391 41.6381C138.779 39.4772 137.153 37.3293 135.531 35.1782Z" fill="#E67503"/>
<path d="M70.894 40.4408C73.0581 40.4538 75.2222 40.4635 77.3863 40.4343C77.3863 41.2065 77.3863 41.982 77.3928 42.7574C75.2254 42.7444 73.0613 42.7542 70.894 42.7509C70.894 41.9787 70.894 41.2098 70.894 40.4408Z" fill="#E67503"/>
<path d="M108.715 40.4376C110.857 40.4603 112.998 40.4571 115.14 40.4376C115.136 41.2098 115.14 41.982 115.146 42.7542C112.998 42.751 110.853 42.7477 108.709 42.7542C108.709 41.982 108.712 41.2098 108.715 40.4376Z" fill="#E67503"/>
<path d="M55.8135 50.8265C56.9426 51.284 56.5954 52.7213 56.9328 53.6687C57.4 52.9549 57.8575 52.2379 58.3377 51.5306C58.8958 52.2055 59.3792 52.9355 59.8302 53.685C60.1579 52.7246 59.801 51.2386 60.982 50.859C60.8133 52.3352 60.5505 53.8018 60.1806 55.2391C59.4279 54.4993 58.9055 53.5746 58.3929 52.6629C57.8737 53.5357 57.3514 54.4052 56.7544 55.2294C56.0568 53.8764 56.0211 52.306 55.8135 50.8265Z" fill="#E67503"/>
<path d="M61.686 51.0277C61.8547 51.0374 62.1921 51.0537 62.3608 51.0634C62.3543 51.602 62.3479 52.1438 62.3414 52.6824C63.2109 52.6792 64.0804 52.6759 64.95 52.6727C64.9467 52.1308 64.9467 51.5858 64.9435 51.0439C65.1089 51.0439 65.4431 51.0439 65.6086 51.0439C65.5924 52.358 65.5924 53.6687 65.6151 54.9828C65.4464 54.9795 65.1122 54.9795 64.9435 54.9795C64.9467 54.4409 64.9467 53.9024 64.95 53.3638C64.0804 53.3573 63.2109 53.3573 62.3414 53.354C62.3479 53.8959 62.3543 54.4377 62.3641 54.9795C62.1954 54.9795 61.8547 54.9795 61.686 54.9795C61.6957 53.6623 61.6957 52.345 61.686 51.0277Z" fill="#E67503"/>
<path d="M66.5008 51.0958C67.6753 51.0439 68.8531 51.0472 70.0308 51.0472C70.0308 51.2191 70.0341 51.5598 70.0373 51.7318C69.0056 51.7253 67.9738 51.7253 66.942 51.7934C67.1497 52.1503 67.3606 52.5169 67.6201 52.8446C68.3112 52.7343 69.0088 52.6759 69.7064 52.624C69.7064 52.8122 69.7096 53.1853 69.7129 53.3735C68.8012 53.367 67.8862 53.3508 66.9777 53.2761C67.0556 53.5227 67.2146 54.0191 67.2957 54.2657C68.2496 54.3468 69.2132 54.2982 70.1703 54.3176C70.1055 54.4701 69.9692 54.7784 69.901 54.9309C68.9212 55.0314 67.9284 54.973 66.9453 55.0022C66.1698 53.8439 66.5689 52.3969 66.5008 51.0958Z" fill="#E67503"/>
<path d="M70.8191 51.0634C72.0131 51.0699 73.2233 50.9563 74.4076 51.1543C74.9202 51.7772 74.6444 52.5916 74.5082 53.2989C74.1448 53.4644 73.7814 53.6331 73.4212 53.8018C73.9047 54.1879 74.3849 54.574 74.8683 54.9633C74.6087 54.9698 74.0929 54.9795 73.8333 54.9828C73.0773 54.3728 72.2759 53.8083 71.6108 53.0945C72.3181 53.0328 73.0287 53.0296 73.7327 52.9355C73.9923 52.6013 74.0442 52.1633 74.1837 51.7772C73.2752 51.735 72.3635 51.7285 71.4518 51.7285C71.4518 52.8122 71.4518 53.8959 71.4713 54.9828C71.3058 54.9795 70.9684 54.9795 70.7997 54.9795C70.7932 53.672 70.7899 52.3677 70.8191 51.0634Z" fill="#E67503"/>
<path d="M75.446 51.0699C76.6368 51.0504 77.8307 51.0537 79.0247 51.0472C79.0247 51.2191 79.0247 51.5598 79.0247 51.7318C78.0579 51.7318 77.091 51.7318 76.1274 51.735C76.1241 52.5851 76.1274 53.4351 76.1468 54.2852C77.104 54.3014 78.0643 54.3047 79.0247 54.3079C79.0247 54.4766 79.0247 54.8108 79.0247 54.9795C78.0384 54.9795 77.0553 54.9795 76.0722 54.9795C75.8581 54.7589 75.6439 54.5383 75.433 54.3209C75.433 53.2372 75.433 52.1536 75.446 51.0699Z" fill="#E67503"/>
<path d="M81.601 51.0439C81.7729 51.0439 82.1168 51.0439 82.2888 51.0439C82.2888 52.358 82.2888 53.6688 82.2888 54.9796C82.1168 54.9796 81.7729 54.9796 81.601 54.9796C81.601 53.6688 81.601 52.3547 81.601 51.0439Z" fill="#E67503"/>
<path d="M83.2328 50.8622C84.5209 51.6052 85.384 52.8511 86.4482 53.8602C86.4449 52.9225 86.4384 51.9848 86.4352 51.0439C86.6071 51.0439 86.9446 51.0439 87.1165 51.0439C87.11 52.4164 87.1425 53.792 87.0841 55.1645C85.783 54.4345 84.907 53.1918 83.872 52.1568C83.872 53.0977 83.872 54.0386 83.872 54.9795C83.7001 54.9795 83.3594 54.9795 83.1907 54.9795C83.1971 53.6071 83.1712 52.2314 83.2328 50.8622Z" fill="#E67503"/>
<path d="M88.0606 50.8298C89.3228 51.6215 90.1955 52.8609 91.2565 53.8797C91.2597 52.9323 91.2565 51.9849 91.2565 51.0375C91.4349 51.044 91.7853 51.0537 91.9638 51.0569C91.9184 52.3742 91.9995 53.6947 91.8892 55.012C91.37 55.0737 91.0651 54.6097 90.7309 54.3047C90.0365 53.5909 89.3584 52.8609 88.6609 52.1504C88.6674 53.0945 88.6771 54.0387 88.703 54.9828C88.5278 54.9796 88.1774 54.9796 88.0022 54.9796C87.999 53.5942 87.973 52.212 88.0606 50.8298Z" fill="#E67503"/>
<path d="M93.4173 51.2386C94.4653 50.8525 96.1135 50.7 96.7689 51.8421C97.0739 52.8868 97.1388 54.5578 95.8475 54.9471C94.8806 55.0671 93.5504 55.2975 92.9436 54.3144C92.4018 53.3735 92.4537 51.8908 93.4173 51.2386ZM93.7061 51.8259C93.1448 52.465 93.0637 53.8699 93.9235 54.2885C94.6502 54.2982 95.6398 54.5934 96.1492 53.9121C96.2628 53.3281 96.2628 52.7181 96.1557 52.1341C95.6074 51.3879 94.4815 51.6604 93.7061 51.8259Z" fill="#E67503"/>
<path d="M97.155 51.0147C97.3627 51.0374 97.778 51.0829 97.9856 51.1056C98.4301 52.0562 98.8844 53.0004 99.3516 53.9413C100.049 52.929 100.143 51.1899 101.545 50.9044C100.925 52.2444 100.348 53.6136 99.5917 54.8822C99.5008 54.9341 99.3191 55.0412 99.2283 55.0963C98.4431 53.7856 97.8753 52.358 97.155 51.0147Z" fill="#E67503"/>
<path d="M102.135 51.868C102.924 50.6806 104.507 51.1251 105.701 51.0504C105.734 52.3612 105.727 53.6688 105.734 54.9795C105.562 54.9795 105.221 54.9795 105.049 54.9795C105.059 54.7362 105.078 54.2495 105.085 54.0062C104.209 54.0062 103.336 54.0062 102.463 54.0094C102.466 54.2528 102.476 54.7362 102.483 54.9795C102.311 54.9795 101.97 54.9795 101.798 54.9795C101.873 53.9478 101.629 52.8154 102.135 51.868ZM103.148 51.8616C102.606 52.1276 102.535 52.7862 102.298 53.2762C103.222 53.3248 104.147 53.3378 105.072 53.3476C105.075 52.7992 105.075 52.2509 105.078 51.7026C104.436 51.748 103.767 51.6701 103.148 51.8616Z" fill="#E67503"/>
<path d="M106.259 51.0439C107.564 51.0537 108.865 51.0569 110.169 51.0504C110.172 51.2192 110.172 51.5598 110.172 51.7318C109.64 51.7318 109.108 51.7318 108.579 51.735C108.579 52.8155 108.579 53.8959 108.579 54.9796C108.404 54.9796 108.057 54.9796 107.882 54.9796C107.882 53.8991 107.882 52.8155 107.882 51.7318C107.34 51.7318 106.798 51.7318 106.259 51.7318C106.259 51.5598 106.259 51.2159 106.259 51.0439Z" fill="#E67503"/>
<path d="M110.763 51.0439C110.934 51.0439 111.278 51.0439 111.45 51.0439C111.45 52.3547 111.45 53.6688 111.45 54.9796C111.275 54.9796 110.928 54.9796 110.756 54.9796C110.759 53.6688 110.759 52.358 110.763 51.0439Z" fill="#E67503"/>
<path d="M113.125 51.1186C113.916 50.9207 114.74 51.0277 115.548 51.0504C115.818 51.3132 116.09 51.5761 116.366 51.8356C116.415 52.6532 116.411 53.4741 116.379 54.295C115.513 55.1126 114.28 55.1807 113.17 54.9406C111.807 54.256 111.788 51.8324 113.125 51.1186ZM113.157 51.8583C112.541 52.6467 112.661 54.5286 114.004 54.3404C114.555 54.3047 115.282 54.4929 115.642 53.9381C115.86 53.247 115.977 52.2152 115.282 51.7577C114.581 51.615 113.829 51.602 113.157 51.8583Z" fill="#E67503"/>
<path d="M117.268 50.8265C118.54 51.615 119.409 52.8609 120.473 53.8861C120.473 52.9355 120.467 51.9881 120.46 51.0374C120.639 51.0439 120.996 51.0537 121.174 51.0569C121.145 52.3742 121.223 53.6979 121.1 55.012C120.655 55.0769 120.366 54.7232 120.081 54.4507C119.335 53.6947 118.617 52.9095 117.881 52.1471C117.891 53.0912 117.897 54.0354 117.923 54.9828C117.745 54.9795 117.388 54.9795 117.209 54.9795C117.213 53.5941 117.19 52.2087 117.268 50.8265Z" fill="#E67503"/>
<path d="M122.443 51.0472C123.436 51.0569 124.432 51.0537 125.425 51.0472C125.425 51.2191 125.425 51.5631 125.425 51.7318C124.542 51.735 123.656 51.6864 122.78 51.7804C122.401 51.9005 122.378 52.6922 122.862 52.611C123.806 52.8317 125.146 52.3158 125.73 53.3411C125.967 53.9965 125.548 54.5545 125.126 55.0055C124.03 54.9731 122.93 54.9763 121.833 54.9795C121.833 54.8108 121.833 54.4734 121.833 54.3079C122.9 54.3079 123.971 54.3047 125.039 54.2755C125.042 54.0549 125.052 53.6136 125.055 53.393C124.185 53.3638 123.316 53.354 122.449 53.3638C122.229 53.0393 121.998 52.7214 121.826 52.3709C121.736 51.8421 122.203 51.4625 122.443 51.0472Z" fill="#E67503"/>
<path d="M128.28 51.0602C129.344 51.0634 130.418 50.9693 131.476 51.1348C132.04 51.5598 131.823 52.2379 131.719 52.8219C131.92 53.3476 132.491 53.9673 132.076 54.5286C131.897 55.0185 131.343 54.9536 130.927 54.9828C130.045 55.0088 129.162 54.9796 128.283 54.9731C128.244 53.6688 128.244 52.3645 128.28 51.0602ZM128.948 51.7221C128.942 52.5883 128.942 53.4514 128.948 54.3177C129.831 54.3079 130.72 54.2982 131.605 54.2722C131.495 53.9705 131.385 53.6688 131.274 53.367C130.603 53.3605 129.934 53.3573 129.269 53.354C129.273 53.1951 129.279 52.8771 129.279 52.7181C130.126 52.7214 131.093 52.783 131.391 51.7999C130.577 51.7448 129.762 51.7285 128.948 51.7221Z" fill="#E67503"/>
<path d="M132.851 51.0634C134.045 51.0504 135.239 51.0537 136.433 51.0439C136.433 51.2159 136.433 51.5598 136.433 51.7318C135.46 51.7318 134.483 51.7318 133.51 51.7318C133.513 52.5851 133.517 53.4384 133.53 54.2917C134.496 54.3047 135.463 54.3047 136.433 54.3047C136.433 54.4734 136.433 54.8108 136.433 54.9763C135.418 54.9763 134.402 54.9763 133.387 55.012C132.404 53.9445 132.968 52.3677 132.851 51.0634Z" fill="#E67503"/>
<path d="M137.514 51.1477C138.656 50.9466 139.821 51.0634 140.976 51.0471C140.976 51.2191 140.976 51.5598 140.976 51.7317C139.898 51.7317 138.821 51.7317 137.744 51.748C137.734 52.5948 137.738 53.4448 137.754 54.2917C138.607 54.3014 139.46 54.3046 140.314 54.3014C140.314 54.0678 140.314 53.5973 140.314 53.3637C139.668 53.3572 139.022 53.3572 138.38 53.354C138.38 53.1853 138.38 52.8446 138.38 52.6727C139.246 52.6759 140.113 52.6791 140.982 52.6921C140.982 53.4513 140.982 54.2138 140.982 54.9763C139.856 54.9763 138.734 54.973 137.611 55.012C136.748 54.0743 137.011 52.6532 137.183 51.5111C137.267 51.4203 137.429 51.2386 137.514 51.1477Z" fill="#E67503"/>
<path d="M141.793 51.0634C141.962 51.0569 142.293 51.0439 142.458 51.0374C142.449 52.3547 142.449 53.6687 142.458 54.986C142.29 54.9795 141.955 54.9633 141.787 54.9536C141.809 53.659 141.809 52.3612 141.793 51.0634Z" fill="#E67503"/>
<path d="M143.351 54.9795C143.373 53.5844 143.282 52.1763 143.503 50.7876C144.635 51.7253 145.583 52.8544 146.618 53.8926C146.618 52.9485 146.614 52.0075 146.608 51.0666C146.773 51.0536 147.101 51.0342 147.267 51.0244C147.273 52.4196 147.302 53.818 147.199 55.2099C145.966 54.376 145.073 53.1658 144.022 52.1341C144.009 53.0815 144.009 54.0289 144.009 54.9795C143.844 54.9795 143.516 54.9795 143.351 54.9795Z" fill="#E67503"/>
<path d="M76.4388 52.6791C77.1947 52.6759 77.9475 52.6759 78.7034 52.6759C78.7034 52.8446 78.7034 53.1885 78.7034 53.3573C77.9377 53.3573 77.172 53.3573 76.4063 53.3573C76.4128 53.1853 76.4323 52.8479 76.4388 52.6791Z" fill="#E67503"/>
<path d="M133.838 52.6759C134.594 52.6759 135.35 52.6759 136.109 52.6759C136.109 52.8479 136.109 53.1885 136.109 53.3573C135.35 53.3573 134.594 53.3573 133.834 53.3573C133.838 53.1885 133.838 52.8479 133.838 52.6759Z" fill="#E67503"/>
</svg>
