<svg width="42" height="42" viewBox="0 0 42 42" fill="none" xmlns="http://www.w3.org/2000/svg">
<g clip-path="url(#clip0_397_2470)">
<path d="M6.31296 0H20.9998C21.0007 1.42078 20.9998 2.84238 20.9998 4.26316C19.1623 4.26891 17.3248 4.26234 15.4882 4.26563C12.8656 4.26563 10.2439 4.26563 7.62218 4.26563C7.0537 4.23117 6.46144 4.35094 5.91183 4.16801C5.38765 3.97031 5.01687 3.43465 5.02179 2.87355C5.02097 2.3543 5.01441 1.83504 5.02507 1.31578C5.04804 0.634102 5.63702 0.0492188 6.31296 0Z" fill="#EAEAEA"/>
<path d="M15.4883 18.0996C17.2011 17.2662 19.0993 16.8544 20.9992 16.8076C21.0008 18.0463 20.9992 19.2841 21 20.5228C20.3175 20.5827 19.626 20.5975 18.9615 20.7796C17.1601 21.1807 15.5228 22.2069 14.2939 23.5744C13.1086 24.9386 12.3506 26.6686 12.1546 28.4651C12.0963 29.5782 12.1136 30.7144 12.4236 31.7931C12.9339 33.5838 13.9724 35.2515 15.4596 36.3877C17.0166 37.6411 19.0017 38.3334 20.9992 38.3236C20.9943 39.5491 21.0131 40.7747 20.9902 42.0002H20.7695C17.8853 41.9477 15.0339 40.8756 12.8412 38.9995C11.1062 37.5287 9.77566 35.5813 9.05297 33.4222C8.11043 30.6389 8.19574 27.5234 9.28429 24.7942C10.2383 22.3726 11.97 20.2685 14.1553 18.8576C14.5835 18.577 15.0314 18.3285 15.4883 18.0996Z" fill="#EAEAEA"/>
<path d="M20.9995 0H35.8463C36.455 0.132891 36.9595 0.672656 36.9899 1.30512C36.9981 1.8293 36.9915 2.35348 36.9931 2.87766C36.9989 3.55277 36.446 4.17703 35.7774 4.25988C35.3131 4.27547 34.848 4.2607 34.3829 4.26562C31.7636 4.26562 29.1452 4.2648 26.526 4.26562C24.6835 4.26398 22.8419 4.26727 20.9995 4.26316C20.9995 2.84238 21.0003 1.42078 20.9995 0Z" fill="#D8D8D8"/>
<path d="M20.9988 16.8076C22.9052 16.8084 24.8206 17.2342 26.5244 18.0955C26.9813 18.3318 27.4325 18.5795 27.8615 18.8633C30.6046 20.65 32.607 23.5375 33.2895 26.7408C33.5873 28.0795 33.6357 29.4667 33.5012 30.8284C33.1927 33.7233 31.8244 36.4877 29.7179 38.4975C27.5752 40.5819 24.6656 41.8378 21.6829 42.0002H20.9897C21.0127 40.7747 20.9938 39.5491 20.9988 38.3236C22.9167 38.3269 24.8337 37.701 26.3562 36.5304C27.6466 35.5764 28.6433 34.2466 29.2454 32.7627C29.8147 31.3895 29.9861 29.8678 29.8294 28.3945C29.6137 26.525 28.7737 24.7417 27.4973 23.3619C26.2652 22.0593 24.6467 21.1159 22.8871 20.7451C22.2686 20.5983 21.6312 20.5687 20.9996 20.5228C20.9988 19.2841 21.0004 18.0463 20.9988 16.8076Z" fill="#D8D8D8"/>
<path d="M7.62222 4.26562C10.2439 4.26562 12.8657 4.26562 15.4882 4.26562C15.4866 8.87742 15.4866 13.4884 15.4882 18.0994C15.0313 18.3282 14.5834 18.5768 14.1552 18.8573C12.2537 17.0559 10.3457 15.2627 8.44418 13.4621C7.90523 12.9544 7.59761 12.2194 7.61238 11.4795C7.61812 9.07512 7.60007 6.66996 7.62222 4.26562Z" fill="#FF3D4A"/>
<path d="M15.488 4.26564C17.3247 4.26236 19.1622 4.26893 20.9997 4.26318C20.9997 8.44514 21.0005 12.6263 20.9989 16.8074C19.0991 16.8542 17.2009 17.266 15.488 18.0994C15.4864 13.4884 15.4864 8.87744 15.488 4.26564Z" fill="#FF3D4A"/>
<path d="M18.9613 20.7792C19.6257 20.5971 20.3173 20.5823 20.9998 20.5225C20.9932 21.7693 21.0121 23.0162 20.9916 24.2623C20.7807 24.4017 20.5002 24.4977 20.4116 24.7602C20.1188 25.5493 19.8964 26.3631 19.6102 27.1555C19.5199 27.4402 19.2509 27.6477 18.9506 27.6518C18.1287 27.6871 17.3051 27.642 16.4831 27.6674C16.1714 27.6625 15.8802 27.879 15.7965 28.1801C15.6989 28.468 15.8105 28.7978 16.0533 28.9782C16.6849 29.4729 17.3576 29.9142 17.9925 30.4056C18.2739 30.6041 18.3781 30.9839 18.2624 31.3055C18.0311 32.0511 17.7653 32.787 17.5339 33.5334C17.4618 33.7607 17.4618 34.0273 17.6135 34.2233C17.8375 34.549 18.3272 34.6343 18.6463 34.3972C19.2763 33.9633 19.8817 33.4941 20.5051 33.0503C20.6503 32.9453 20.8185 32.8805 20.9858 32.8206C21.0186 34.6548 20.9907 36.489 20.999 38.3232C19.0015 38.3331 17.0163 37.6407 15.4594 36.3873C13.9722 35.2512 12.9336 33.5835 12.4234 31.7927C12.1133 30.714 12.0961 29.5779 12.1543 28.4647C12.3504 26.6682 13.1084 24.9382 14.2937 23.574C15.5225 22.2066 17.1599 21.1804 18.9613 20.7792Z" fill="#E5E5E5"/>
<path d="M21.0003 4.26318C22.8428 4.26729 24.6844 4.264 26.5268 4.26564C26.5276 8.8758 26.5309 13.486 26.5251 18.0953C24.8214 17.234 22.9059 16.8082 20.9995 16.8074C21.0012 12.6263 21.0003 8.44514 21.0003 4.26318Z" fill="#C20020"/>
<path d="M21.0002 20.5225C21.6318 20.5684 22.2692 20.5979 22.8877 20.7448C24.6473 21.1155 26.2658 22.0589 27.4979 23.3616C28.7743 24.7413 29.6143 26.5247 29.83 28.3942C29.9867 29.8675 29.8153 31.3891 29.246 32.7624C28.6439 34.2463 27.6472 35.576 26.3568 36.53C24.8343 37.7006 22.9173 38.3265 20.9994 38.3232C20.9912 36.489 21.0191 34.6548 20.9862 32.8206C20.8189 32.8805 20.6507 32.9453 20.5055 33.0503C19.8821 33.4941 19.2767 33.9633 18.6467 34.3972C18.3276 34.6343 17.8379 34.549 17.6139 34.2233C17.4622 34.0273 17.4622 33.7607 17.5344 33.5334C17.7657 32.787 18.0315 32.0511 18.2628 31.3055C18.3785 30.9839 18.2743 30.6041 17.9929 30.4056C17.358 29.9142 16.6853 29.4729 16.0537 28.9782C15.8109 28.7978 15.6993 28.468 15.7969 28.1801C15.8806 27.879 16.1718 27.6625 16.4835 27.6674C17.3055 27.642 18.1291 27.6871 18.951 27.6518C19.2513 27.6477 19.5203 27.4402 19.6106 27.1555C19.8969 26.3631 20.1192 25.5493 20.412 24.7602C20.5006 24.4977 20.7812 24.4017 20.992 24.2623C21.0125 23.0162 20.9936 21.7693 21.0002 20.5225ZM21.0691 24.3123C21.0658 27.1465 21.0625 29.9807 21.0716 32.814C21.2332 32.8665 21.4013 32.9116 21.5424 33.0101C22.2134 33.4867 22.8615 33.9969 23.5432 34.4579C24.0321 34.7639 24.7187 34.2693 24.6055 33.7106C24.4512 33.1036 24.2191 32.5187 24.0362 31.9191C23.9377 31.5688 23.7359 31.2218 23.804 30.8469C23.8524 30.5844 24.078 30.4171 24.2814 30.2719C24.8696 29.847 25.4594 29.4237 26.0385 28.9873C26.5061 28.6436 26.347 27.7552 25.7498 27.6707C24.9049 27.6395 24.0567 27.6764 23.2109 27.6551C22.8935 27.6518 22.6047 27.4238 22.5079 27.1243C22.2421 26.3467 22.001 25.5608 21.7335 24.7832C21.6482 24.4961 21.3628 24.3131 21.0691 24.3123Z" fill="#CACACA"/>
<path d="M26.5265 4.2655C29.1458 4.26468 31.7642 4.2655 34.3835 4.2655C34.4188 4.7298 34.3966 5.19492 34.4024 5.66003C34.3983 7.62714 34.4114 9.59425 34.3958 11.5614C34.3999 12.298 34.066 13.0141 33.5296 13.5129C31.6404 15.2962 29.7504 17.0788 27.862 18.863C27.433 18.5791 26.9818 18.3314 26.5249 18.0951C26.5306 13.4858 26.5274 8.87566 26.5265 4.2655Z" fill="#C20020"/>
<path d="M21.0688 24.3125C21.3625 24.3133 21.648 24.4962 21.7333 24.7834C22.0007 25.561 22.2419 26.3469 22.5076 27.1245C22.6044 27.4239 22.8932 27.652 23.2107 27.6553C24.0564 27.6766 24.9046 27.6397 25.7495 27.6709C26.3467 27.7554 26.5058 28.6437 26.0383 28.9875C25.4591 29.4239 24.8693 29.8471 24.2812 30.2721C24.0777 30.4173 23.8521 30.5846 23.8037 30.8471C23.7357 31.222 23.9375 31.569 24.0359 31.9193C24.2188 32.5189 24.451 33.1038 24.6052 33.7108C24.7184 34.2695 24.0318 34.7641 23.5429 34.4581C22.8612 33.9971 22.2132 33.4869 21.5421 33.0103C21.401 32.9118 21.2329 32.8667 21.0713 32.8142C21.0623 29.9809 21.0655 27.1467 21.0688 24.3125Z" fill="#A5A5A5"/>
</g>
<defs>
<clipPath id="clip0_397_2470">
<rect width="42" height="42" fill="white"/>
</clipPath>
</defs>
</svg>
