<svg width="81" height="60" viewBox="0 0 81 60" fill="none" xmlns="http://www.w3.org/2000/svg">
<path d="M45.4661 52.6127C45.4661 57.2975 42.2459 59.1058 38.2721 59.1058C34.2983 59.1058 31.0781 57.3009 31.0781 52.6127C31.0781 47.9244 34.3 37.4116 38.2721 37.4116C42.2442 37.4116 45.4661 47.9262 45.4661 52.6127Z" fill="#3BAD06"/>
<path opacity="0.23" d="M45.4661 52.6127C45.4661 57.2975 42.2459 59.1058 38.2721 59.1058C34.2983 59.1058 31.0781 57.3009 31.0781 52.6127C31.0781 47.9244 34.3 37.4116 38.2721 37.4116C42.2442 37.4116 45.4661 47.9262 45.4661 52.6127Z" fill="white"/>
<path d="M38.1218 44.1259L37.8768 49.1713L35.1296 45.6058L37.7203 49.6646L37.6982 51.6396L35.8168 50.6513L35.9546 49.0608L35.4834 50.4318L33.602 49.3908L37.654 52.2963L37.574 54.0518L32.6085 52.3524L34.9867 53.5585L32.3721 54.5451L35.3745 53.7235L37.5298 54.7101L37.0671 69.7921H38.7121L38.3821 56.5745L41.2093 55.0384L42.6467 55.7529L41.6448 54.8751L43.1094 53.8324L39.4078 55.5335L39.9386 54.4362L38.8618 55.6423L38.4229 55.6968L38.3498 54.6013L42.4358 49.6646L40.4387 51.5291L40.6701 49.0063L41.7741 46.1553L40.5527 48.5674L40.5068 45.7708L40.056 51.6396L39.1969 52.7913L39.0625 51.3096L38.5998 53.1196L38.229 53.8868L38.4586 47.9091L39.7362 45.5514L38.3872 46.9225L38.1218 44.1259Z" fill="#B2B2B2"/>
<path d="M79.083 54.3456C79.083 59.0304 75.8611 60.8387 71.889 60.8387C67.917 60.8387 64.6934 59.0304 64.6934 54.3456C64.6934 49.6608 67.9152 39.1445 71.889 39.1445C75.8628 39.1445 79.083 49.6591 79.083 54.3456Z" fill="#3BAD06"/>
<path opacity="0.23" d="M79.083 54.3456C79.083 59.0304 75.8611 60.8387 71.889 60.8387C67.917 60.8387 64.6934 59.0304 64.6934 54.3456C64.6934 49.6608 67.9152 39.1445 71.889 39.1445C75.8628 39.1445 79.083 49.6591 79.083 54.3456Z" fill="white"/>
<path d="M71.7429 45.8588L71.4979 50.9042L68.7507 47.3387L71.3414 51.3976L71.3193 53.3725L69.4379 52.3842L69.5757 50.7937L69.1062 52.1648L67.2231 51.1237L71.2751 54.0292L71.1951 55.7847L66.2313 54.0853L68.6095 55.2914L65.9932 56.278L68.9956 55.4564L71.1509 56.443L70.6882 71.525H72.3332L72.0049 58.3074L74.8304 56.7714L76.2678 57.4858L75.2676 56.608L76.7305 55.5653L73.0289 57.2664L73.5597 56.1692L72.4829 57.3752L72.0457 57.4297L71.9708 56.3342L76.0586 51.3976L74.0598 53.262L74.2912 50.7392L75.3969 47.8882L74.1755 50.3004L74.1278 47.5037L73.6771 53.3725L72.8197 54.5242L72.6853 53.0425L72.2209 54.8525L71.8501 55.6197L72.0797 49.642L73.3572 47.2843L72.0083 48.6554L71.7429 45.8588Z" fill="#B2B2B2"/>
<path d="M75.3656 32.2322C75.3656 40.2733 69.8387 43.3744 63.0207 43.3744C56.2027 43.3744 50.6758 40.2733 50.6758 32.2322C50.6758 24.1911 56.2027 6.14917 63.0207 6.14917C69.8387 6.14917 75.3656 24.1911 75.3656 32.2322Z" fill="#3BAD06"/>
<path opacity="0.5" d="M75.3656 32.2322C75.3656 40.2733 69.8387 43.3744 63.0207 43.3744C56.2027 43.3744 50.6758 40.2733 50.6758 32.2322C50.6758 24.1911 56.2027 6.14917 63.0207 6.14917C69.8387 6.14917 75.3656 24.1911 75.3656 32.2322Z" fill="white"/>
<path d="M62.7636 17.6707L62.3417 26.3276L57.6297 20.2104L62.073 27.1747L62.0355 30.5633L58.8085 28.869L59.045 26.1405L58.237 28.4931L55.0083 26.7052L61.9607 31.6929L61.8229 34.7038L53.3038 31.7864L57.3847 33.8567L52.8955 35.551L58.0482 34.139L61.7464 35.8333L60.9536 79.5296H63.7758L63.211 39.0331L68.0609 36.3981L70.5292 37.6212L68.8093 36.1157L71.3202 34.3279L64.9699 37.2453L65.88 35.3621L64.0326 37.4324L63.2808 37.5276L63.1549 35.6445L70.1668 27.1747L66.7374 30.3745L67.1372 26.0452L69.0322 21.1511L66.9364 25.2933L66.8565 20.4928L66.0825 30.5633L64.6093 32.5383L64.3797 29.9986L63.5835 33.1031L62.9473 34.4214L63.3403 24.1638L65.533 20.1168L63.2195 22.4695L62.7636 17.6707Z" fill="#B2B2B2"/>
<path d="M39.3878 37.0867C39.3878 46.0072 33.2638 49.4469 25.6922 49.4469C18.1206 49.4469 12 46.0072 12 37.0867C12 28.1661 18.1325 8.14917 25.6956 8.14917C33.2587 8.14917 39.3878 28.1644 39.3878 37.0867Z" fill="#3BAD06"/>
<path opacity="0.5" d="M39.3878 37.0867C39.3878 46.0072 33.2638 49.4469 25.6922 49.4469C18.1206 49.4469 12 46.0072 12 37.0867C12 28.1661 18.1325 8.14917 25.6956 8.14917C33.2587 8.14917 39.3878 28.1644 39.3878 37.0867Z" fill="white"/>
<path d="M25.409 20.9296L24.9412 30.5357L19.7137 23.75L24.6435 31.4747L24.601 35.2342L21.0202 33.3544L21.2838 30.3265L20.3873 32.9377L16.8048 30.9542L24.5176 36.4862L24.3645 39.8271L14.9149 36.5916L19.4432 38.8881L14.4624 40.7678L20.1781 39.2011L24.2812 41.0808L23.4 69.7921H26.5334L25.9057 44.6294L31.2863 41.7069L34.0234 43.0643L32.1165 41.3939L34.9029 39.4104L27.8569 42.6459L28.8674 40.5586L26.8158 42.8551L25.9823 42.9606L25.8445 40.8716L33.6219 31.4747L29.8183 35.0249L30.2606 30.2227L32.3631 24.7928L30.0377 29.3875L29.9493 24.063L29.0919 35.2342L27.4571 37.4269L27.202 34.6081L26.3191 38.0529L25.6131 39.5141L26.0503 28.1337L28.4812 23.6445L25.9142 26.2557L25.409 20.9296Z" fill="#808080"/>
<path d="M53.2237 59.3158H51.5498L51.7999 16.8223H52.9719L53.2237 59.3158Z" fill="#263238"/>
<path d="M53.6924 16.6165H50.974L50.6338 12.6223H54.0326L53.6924 16.6165Z" fill="#263238"/>
<path d="M53.3891 16.6165H51.2764L51.0127 12.6223H53.6528L53.3891 16.6165Z" fill="white"/>
<path d="M54.3198 12.2549H50.3682V12.92H54.3198V12.2549Z" fill="#263238"/>
<path d="M54.0068 16.1826H50.6777V17.0043H54.0068V16.1826Z" fill="#263238"/>
<path d="M53.7417 11.8109H50.9009V12.2549H53.7417V11.8109Z" fill="#263238"/>
<path d="M52.5014 11.1492H52.0132V11.8143H52.5014V11.1492Z" fill="#263238"/>
<path d="M53.8931 56.7761H50.9468V60.3518H53.8931V56.7761Z" fill="#263238"/>
<path d="M38.6018 49.6129C38.4779 49.6128 38.3576 49.571 38.2604 49.4941C38.1631 49.4173 38.0947 49.3099 38.066 49.1893C37.9384 48.6484 37.9962 48.1976 38.2361 47.8455C38.3383 47.7025 38.468 47.5814 38.6175 47.4891C38.767 47.3968 38.9335 47.3352 39.1071 47.3079C39.1303 47.3062 39.1536 47.3062 39.1768 47.3079H48.2539C48.4001 47.3079 48.5403 47.366 48.6436 47.4693C48.747 47.5727 48.805 47.7129 48.805 47.8591C48.805 48.0052 48.747 48.1454 48.6436 48.2488C48.5403 48.3522 48.4001 48.4102 48.2539 48.4102H39.238C39.1979 48.4229 39.1632 48.4487 39.1394 48.4834C39.1139 48.5225 39.0645 48.6433 39.1394 48.9393C39.2142 49.2353 39.238 49.5313 38.942 49.6027C38.8978 49.6078 38.6444 49.6129 38.6018 49.6129Z" fill="white" stroke="#263238" stroke-width="0.196982" stroke-linecap="round" stroke-linejoin="round"/>
<path d="M38.9724 49.6129C38.8485 49.6128 38.7282 49.571 38.631 49.4941C38.5338 49.4173 38.4653 49.3099 38.4366 49.1893C38.309 48.6484 38.3668 48.1976 38.6067 47.8455C38.7089 47.7025 38.8386 47.5814 38.9881 47.4891C39.1376 47.3968 39.3041 47.3352 39.4777 47.3079C39.5009 47.3062 39.5242 47.3062 39.5474 47.3079H48.6245C48.7707 47.3079 48.9109 47.366 49.0142 47.4693C49.1176 47.5727 49.1757 47.7129 49.1757 47.8591C49.1757 48.0052 49.1176 48.1454 49.0142 48.2488C48.9109 48.3522 48.7707 48.4102 48.6245 48.4102H39.6086C39.5685 48.4229 39.5338 48.4487 39.51 48.4834C39.4845 48.5225 39.4351 48.6433 39.51 48.9393C39.5437 49.0814 39.5197 49.2311 39.4431 49.3555C39.3666 49.4799 39.2438 49.5688 39.1017 49.6027C39.0592 49.6112 39.0158 49.6147 38.9724 49.6129Z" fill="#263238"/>
<path d="M43.0161 52.3278L43.6727 48.0648" stroke="#263238" stroke-width="0.787927" stroke-linecap="round" stroke-linejoin="round"/>
<path d="M55.3269 60.3536H56.026L54.6651 52.6714L57.3971 42.851L56.7456 42.6689L53.9898 52.5762C53.9754 52.632 53.9754 52.6905 53.9898 52.7463L55.3269 60.3536Z" fill="#263238" stroke="#263238" stroke-width="0.196982" stroke-linecap="round" stroke-linejoin="round"/>
<path d="M45.8469 60.3537L46.9917 53.0049H54.3184V52.3245H46.7213C46.6443 52.3249 46.5699 52.3514 46.5099 52.3995C46.45 52.4477 46.4082 52.5148 46.3912 52.5898L45.1528 60.3503L45.8469 60.3537Z" fill="#263238" stroke="#263238" stroke-width="0.196982" stroke-linecap="round" stroke-linejoin="round"/>
<path d="M38.8022 60.3537L39.9487 53.0049H47.2737V52.3245H39.6766C39.5994 52.3245 39.5245 52.3508 39.4642 52.399C39.4039 52.4472 39.3618 52.5145 39.3448 52.5898L38.1064 60.3503L38.8022 60.3537Z" fill="#263238" stroke="#263238" stroke-width="0.196982" stroke-linecap="round" stroke-linejoin="round"/>
<path d="M48.2835 60.3536H48.981L47.6201 52.6714L50.3521 42.851L49.7005 42.6689L46.943 52.5762C46.9291 52.632 46.9291 52.6904 46.943 52.7463L48.2835 60.3536Z" fill="#263238" stroke="#263238" stroke-width="0.196982" stroke-linecap="round" stroke-linejoin="round"/>
<path d="M48.8667 43.5365H58.1649L58.5358 42.2385H49.2375L48.8667 43.5365Z" fill="#263238" stroke="#263238" stroke-width="0.196982" stroke-linecap="round" stroke-linejoin="round"/>
<path d="M48.29 45.5489H57.5883L57.9608 44.251H48.6609L48.29 45.5489Z" fill="#263238" stroke="#263238" stroke-width="0.196982" stroke-linecap="round" stroke-linejoin="round"/>
<path d="M47.7129 47.5595H57.0128L57.3837 46.2616H48.0854L47.7129 47.5595Z" fill="#263238" stroke="#263238" stroke-width="0.196982" stroke-linecap="round" stroke-linejoin="round"/>
<path d="M47.1382 49.5704H56.4364L56.809 48.2742H47.509L47.1382 49.5704Z" fill="#263238" stroke="#263238" stroke-width="0.196982" stroke-linecap="round" stroke-linejoin="round"/>
<path d="M46.5615 51.5826H55.8615L56.2323 50.2847H46.9341L46.5615 51.5826Z" fill="#263238" stroke="#263238" stroke-width="0.196982" stroke-linecap="round" stroke-linejoin="round"/>
<path d="M48.4312 43.5365H57.7294L58.1002 42.2385H48.802L48.4312 43.5365Z" fill="white" stroke="#263238" stroke-width="0.196982" stroke-linecap="round" stroke-linejoin="round"/>
<path d="M47.8535 45.5489H57.1518L57.5243 44.251H48.2244L47.8535 45.5489Z" fill="white" stroke="#263238" stroke-width="0.196982" stroke-linecap="round" stroke-linejoin="round"/>
<path d="M47.2778 47.5595H56.5778L56.9486 46.2616H47.6504L47.2778 47.5595Z" fill="white" stroke="#263238" stroke-width="0.196982" stroke-linecap="round" stroke-linejoin="round"/>
<path d="M46.7021 49.5704H56.0004L56.3729 48.2742H47.073L46.7021 49.5704Z" fill="white" stroke="#263238" stroke-width="0.196982" stroke-linecap="round" stroke-linejoin="round"/>
<path d="M46.1274 51.5826H55.4257L55.7965 50.2847H46.4983L46.1274 51.5826Z" fill="white" stroke="#263238" stroke-width="0.196982" stroke-linecap="round" stroke-linejoin="round"/>
<path d="M55.4435 52.2207H39.0806V52.9658H55.4435V52.2207Z" fill="white" stroke="#263238" stroke-width="0.196982" stroke-linecap="round" stroke-linejoin="round"/>
<path d="M55.4432 52.2207H46.6621V52.9658H55.4432V52.2207Z" fill="#263238" stroke="#263238" stroke-width="0.196982" stroke-linecap="round" stroke-linejoin="round"/>
<path d="M49.9653 52.3278L50.6237 48.0648" stroke="#263238" stroke-width="0.787927" stroke-linecap="round" stroke-linejoin="round"/>
<path d="M46.7347 49.6129C46.611 49.6127 46.4909 49.5708 46.394 49.494C46.297 49.4171 46.2289 49.3098 46.2005 49.1893C46.0712 48.6484 46.1308 48.1976 46.3706 47.8455C46.4727 47.7024 46.6023 47.5811 46.7519 47.4888C46.9015 47.3965 47.0679 47.335 47.2416 47.3079C47.2642 47.3062 47.287 47.3062 47.3096 47.3079H56.3918C56.538 47.3079 56.6782 47.366 56.7816 47.4693C56.8849 47.5727 56.943 47.7129 56.943 47.8591C56.943 48.0052 56.8849 48.1454 56.7816 48.2488C56.6782 48.3522 56.538 48.4102 56.3918 48.4102H47.376C47.3356 48.4233 47.3004 48.4489 47.2756 48.4834C47.2518 48.5225 47.2025 48.6433 47.2756 48.9393C47.3488 49.2353 47.4372 49.5313 47.1412 49.6027C47.0953 49.6078 46.7772 49.6129 46.7347 49.6129Z" fill="white" stroke="#263238" stroke-width="0.196982" stroke-linecap="round" stroke-linejoin="round"/>
<path d="M47.1548 49.6129C47.0325 49.6106 46.9143 49.5678 46.8188 49.4912C46.7234 49.4145 46.6561 49.3084 46.6275 49.1893C46.4999 48.6484 46.5578 48.1976 46.7976 47.8455C46.8997 47.7024 47.0293 47.5811 47.1789 47.4888C47.3284 47.3965 47.4949 47.335 47.6686 47.3079C47.6912 47.3062 47.714 47.3062 47.7366 47.3079H56.8154C56.9616 47.3079 57.1018 47.366 57.2051 47.4693C57.3085 47.5727 57.3666 47.7129 57.3666 47.8591C57.3666 48.0052 57.3085 48.1454 57.2051 48.2488C57.1018 48.3522 56.9616 48.4102 56.8154 48.4102H47.7996C47.7589 48.4228 47.7236 48.4486 47.6992 48.4834C47.6754 48.5225 47.6243 48.6433 47.6992 48.9393C47.7329 49.0814 47.7089 49.2311 47.6324 49.3555C47.5558 49.4799 47.433 49.5688 47.2909 49.6027C47.2461 49.6115 47.2005 49.615 47.1548 49.6129Z" fill="#263238" stroke="#263238" stroke-width="0.196982" stroke-linecap="round" stroke-linejoin="round"/>
</svg>
